<?xml version="1.0" encoding="UTF-8" standalone="no"?>
<!-- Created with Inkscape (http://www.inkscape.org/) -->

<svg
   width="520.93573"
   height="456.78613"
   viewBox="0 0 520.93573 456.78613"
   version="1.1"
   id="svg5"
   xml:space="preserve"
   xmlns:xlink="http://www.w3.org/1999/xlink"
   xmlns="http://www.w3.org/2000/svg"
   xmlns:svg="http://www.w3.org/2000/svg"><defs
     id="defs2"><color-profile
       name="DP"
       xlink:href="../../../../../.local/share/icc/edid-27fd61d80a4d3102d04ad05b2e686881.icc"
       id="color-profile224" /></defs><g
     id="layer1"
     transform="translate(280.51425,240.36522)"><g
       id="g455"
       transform="translate(-487.11498,-459.32568)"><path
         style="fill:#f9eafb"
         d="m 217.22689,673.60557 c -26.72976,-14.68209 2.903,-39.16427 23.83721,-30.49593 156.85009,-0.49063 313.71241,-0.85727 470.55841,0.40665 29.95154,2.12857 12.76975,40.75517 -11.68869,30.50205 -159.14414,1.24128 -318.3125,0.68379 -477.45978,-0.21365 z m 28.89695,-43.94327 c -5.15952,-5.1769 -0.80253,-16.7544 -2.17241,-24.48012 0.64414,-32.15134 -1.05181,-64.45114 1.91296,-96.47345 4.18298,-13.39879 18.69924,-18.5331 31.40728,-16.50128 26.07988,0.40979 52.54126,-0.81829 78.38333,0.61244 25.79152,9.08667 17.21657,39.5381 18.98011,60.39127 -1.13074,25.23713 3.24371,51.31891 -2.27419,75.97331 -13.94828,5.59772 -31.1827,1.89507 -25.44927,-15.67354 0,-31.26783 0,-62.53565 0,-93.80348 -25,0 -50,0 -75,0 -0.3352,36.09446 0.82634,72.25745 -0.84061,108.2978 -5.62009,4.86854 -17.71391,2.10488 -24.9472,1.65705 z m 159.03781,0.014 c -5.10181,-5.21427 -0.85728,-16.74417 -2.24758,-24.46643 0.005,-50.66747 0.0104,-101.33494 0.0156,-152.00241 10.02943,-25.36551 40.76858,-17.03605 62.08789,-18.37316 22.17865,2.87292 55.69008,-9.05288 65.87949,18.14392 3.30248,52.65148 1.25941,105.59282 1.75965,158.35672 10.97926,26.969 -40.27857,26.21597 -27.39559,-0.86071 -0.54077,-49.24087 -0.2699,-98.48581 -0.3494,-147.72868 -24.71667,-1.64106 -49.67946,0.30342 -74.5,0.4619 -0.33333,55.30335 -0.66667,110.60669 -1,165.91004 -7.82091,2.07033 -16.30154,1.7013 -24.25004,0.55881 z m 159.75,0.35922 c -8.34758,-21.81816 -1.35946,-52.57218 -3.91324,-77.62608 0.42149,-60.56301 -1.375,-121.20169 1.23221,-181.71197 0.77003,-14.76983 16.28551,-23.10026 29.65505,-20.49002 27.0588,0.3888 54.24027,-1.0694 81.19703,1.3015 14.09366,4.74599 19.74433,20.00564 17.77282,33.55833 0.039,80.83189 1.86919,161.71555 0.12716,242.50744 -14.66529,6.72876 -34.98356,2.79144 -26.77817,-18.41889 -0.46591,-77.48189 -0.23763,-154.96557 -0.29286,-232.44838 -25,0 -50,0 -75,0 -0.84011,83.96221 0.62944,167.98125 -1.51312,251.91218 -7.2915,1.80462 -15.02516,1.88198 -22.48688,1.41589 z m -310.5,-172.00688 c -29.47868,-19.40755 13.65047,-35.87419 32.53528,-35.13537 131.40575,-31.47012 254.70494,-93.27327 362.4946,-174.23416 -18.66291,7.18037 -52.38128,-15.26715 -24.70703,-28.38065 26.86115,-1.07662 54.3095,-2.4712 80.935,0.31485 16.72423,17.48047 -8.23359,43.22134 -10.69288,63.61718 0.60219,19.33118 -28.10765,37.34793 -31.8931,10.92581 1.95433,-11.6187 11.77104,-34.1476 -6.6418,-16.34007 -114.32606,84.25725 -245.09445,148.51609 -384.51092,177.86713 -5.7819,0.90401 -11.63653,2.15357 -17.51915,1.36528 z"
         id="path477" /><path
         style="fill:#f5cff5"
         d="m 218.08161,672.99123 c -25.17692,-12.96084 1.19236,-36.73595 20.88021,-28.80553 157.80625,-0.15806 315.6342,-0.49378 473.42674,1.39859 28.89352,2.35103 8.04311,37.81352 -13.61722,27.3879 -160.22489,0.61036 -320.46974,1.16023 -480.68973,0.019 z m 29.04195,-44.32903 c -5.15995,-5.1766 -0.80195,-16.75448 -2.1716,-24.48023 0.15323,-30.99151 0.30646,-61.98301 0.45969,-92.97452 7.64205,-22.73638 34.16365,-16.74436 52.64263,-17.45126 22.14482,3.06394 49.37475,-6.91033 68.05854,7.58205 13.79823,20.34472 4.54321,48.2958 7.57726,71.71909 -4.44709,19.03612 13.04977,61.2647 -17.95199,56.52047 -13.6351,1.50569 -5.77559,-14.7915 -7.90825,-22.60409 -0.13939,-29.25542 -0.27879,-58.51084 -0.41819,-87.76626 -25.33333,0 -50.66667,0 -76,0 -0.4503,35.68874 0.38458,71.42901 -1.27063,107.07541 -3.97965,6.0946 -16.53689,2.69248 -23.01746,2.37934 z m 159.03809,0.0716 c -5.09425,-5.30676 -0.8599,-16.76904 -2.24403,-24.52394 0.30394,-49.93237 -0.74073,-99.90031 0.85994,-149.80377 8.11415,-27.24739 41.57155,-15.34671 62.63413,-17.80008 20.76407,2.81302 53.32788,-8.53428 62.47392,17.32828 3.29491,53.23464 1.34286,106.7616 1.60593,160.11088 10.16131,19.3 -31.92698,23.18 -25.57989,4.00977 -0.30248,-51.47914 0.75845,-102.99565 -0.78087,-154.44568 -18.24801,-6.17869 -43.04973,-0.83289 -63.88815,-1.48588 -24.27276,-0.13177 -6.94918,38.59977 -12.26565,55.69425 -0.56306,36.83543 1.03856,73.79631 -1.31533,110.54502 -7.02024,1.40261 -14.42944,1.42074 -21.5,0.37115 z m 159.00165,0.33546 c -7.05846,-20.99554 -0.94392,-48.04086 -3.10286,-71.19045 0.0227,-62.55725 0.23175,-125.11425 0.35121,-187.67136 5.70726,-23.79798 32.76505,-17.85438 50.98338,-18.46795 22.03811,2.1225 46.6916,-4.8131 66.97357,5.36732 13.69344,10.41469 7.88878,27.7031 9.22936,42.20608 0.35735,75.70179 1.34823,151.40747 0.84949,227.10792 -5.43384,1.56502 -28.28243,7.31795 -25.03754,-5.14338 -0.16504,-81.68753 0.36887,-163.38369 -0.65878,-245.06379 -25.3979,-1.02998 -50.93105,-0.83872 -76.31093,0.56744 -2.18755,83.74459 -0.1184,167.58584 -1.62889,251.35627 -7.10804,1.2537 -14.45614,1.3302 -21.64801,0.9319 z M 252.24575,455.64377 c -23.14242,-28.11047 27.67594,-28.30179 45.49132,-34.27608 128.76676,-32.30738 249.30232,-94.02641 355.00791,-173.75179 -16.35815,4.79653 -54.03316,-8.9117 -28.97994,-25.87255 27.07715,-1.01273 54.20149,0.0842 81.30046,-0.0359 13.92942,17.536 -9.08289,41.8106 -11.13629,61.5 0.0878,17.15399 -24.16774,37.4315 -29.80036,12.12263 2.57092,-12.58236 13.60346,-37.83337 -6.76838,-18.67732 -114.8051,84.84571 -246.22281,149.85058 -386.44882,179.11443 -6.10006,0.74619 -12.95121,3.6049 -18.6659,-0.12342 z"
         id="path475" /><path
         style="fill:#fbb5e8"
         d="m 216.41165,671.74796 c -22.5379,-16.16285 5.29132,-33.49204 23.27742,-26.59244 159.13978,-0.33547 318.28016,0.59677 477.42007,0.88433 24.79636,16.56041 -8.25057,32.8402 -25.88967,26.23012 -158.26453,0.54016 -316.54921,0.79378 -474.80782,-0.52201 z m 29.93722,-44.34351 c -0.67164,-39.11311 -4e-5,-78.23809 0.0628,-117.35605 5.04236,-11.49766 17.16024,-17.73569 29.34511,-15.33781 26.87641,0.52391 53.85394,-0.58648 80.64898,1.4482 26.01705,12.49248 12.73127,46.53623 16.29919,69.40198 0.13321,20.68691 0.26476,41.37383 0.3973,62.06074 -9.05258,0.11278 -28.36756,6.18009 -23.73715,-9.11596 -0.50612,-33.14642 0.60695,-66.38691 -1.58464,-99.4562 -25.04823,-2.65023 -50.55203,-0.82329 -75.79842,-1.3419 -4.49938,22.4843 -0.76058,46.43486 -1.56431,69.4925 -1.36753,20.01374 9.23645,52.61733 -24.06884,40.2045 z m 159.01505,0.0392 c -0.66064,-58.51654 -0.006,-117.0437 0.0477,-175.56469 5.68735,-10.91566 17.52273,-16.1981 29.33265,-14.17154 25.95435,0.42149 52.30351,-0.8345 78.01517,0.61817 23.35439,8.15055 16.54046,35.87619 17.67686,55.00224 -0.004,44.44286 0.62372,88.9073 -0.49733,133.33534 -32.32705,13.11054 -21.20545,-27.0015 -23.01354,-45.79275 -0.3477,-39.09014 0.8234,-78.22487 -0.71713,-117.28585 -16.88674,-7.78916 -41.50208,-2.21994 -61.46919,-3.31976 -30.5092,-2.85934 -11.03449,41.09719 -16.81851,59.79839 -0.76461,35.97121 1.65565,72.30453 -1.59077,108.03726 -6.86991,0.93356 -14.23632,1.23644 -20.96594,-0.65681 z m 163.54773,0.36978 c -10.50797,0.63937 -3.45465,-14.45395 -5.5,-21.39601 0,-78.73666 0,-157.47331 0,-236.20997 3.6183,-10.05171 11.93457,-19.90949 23.57319,-16.98092 28.43009,0.43149 56.97206,-0.92139 85.30752,1.44121 25.59166,12.50365 12.55402,46.0483 16.47011,68.54545 0.65616,67.75999 0.95197,135.52283 1.4099,203.28435 -31.19319,14.75214 -24.09435,-22.60964 -24.25252,-41.80126 -0.25861,-68.46303 1.25398,-136.94324 0.0326,-205.39422 -16.79252,-12.60972 -49.3377,-2.05412 -72.27183,-4.24626 -15.91647,10.95514 -2.19695,47.66431 -7.02703,67.81436 -0.15192,61.14872 0.72167,122.31412 -0.42009,183.45199 -5.28316,2.57124 -11.66036,1.67561 -17.3218,1.49128 z M 251.22127,454.63015 c -19.09327,-27.99375 29.8692,-25.58463 46.67144,-32.28434 128.464,-31.3031 247.7148,-93.95079 353.69371,-172.11022 5.85864,-10.77034 -21.98947,-2.47785 -29.62294,-7.00876 -19.28113,-24.44389 19.76865,-22.31843 34.66408,-19.20012 20.82745,-0.783 15.68153,12.27339 32.36705,16.76958 26.95602,8.33888 -0.015,40.54557 -2.47123,58.6025 -15.79935,21.62503 -27.8596,-12.18557 -15.65333,-25.4759 -2.17367,-16.13313 -28.67517,16.26193 -39.65203,20.15727 -101.87063,71.81118 -216.74247,126.08674 -337.83798,156.0835 -13.65537,1.83968 -28.6096,9.65234 -42.15877,4.46649 z"
         id="path473" /><path
         style="fill:#fba6e9"
         d="m 216.41165,671.83337 c -25.74331,-23.11971 15.4596,-32.18022 33.84494,-27.15741 155.61472,0.63542 311.22815,1.62296 466.8426,2.35719 24.19122,17.40505 -11.3776,30.18179 -27.78947,24.45882 -157.62557,0.74349 -315.27809,1.5517 -472.89807,0.3414 z m 29.93722,-44.42892 c -0.67164,-39.11311 -4e-5,-78.23809 0.0628,-117.35605 5.04236,-11.49766 17.16024,-17.73569 29.34511,-15.33781 26.87641,0.52391 53.85394,-0.58648 80.64898,1.4482 26.01705,12.49248 12.73127,46.53623 16.29919,69.40198 0.13321,20.68691 0.26476,41.37383 0.3973,62.06074 -9.05258,0.11278 -28.36756,6.18009 -23.73715,-9.11596 -0.50612,-33.14642 0.60695,-66.38691 -1.58464,-99.4562 -25.04823,-2.65023 -50.55203,-0.82329 -75.79842,-1.3419 -4.49938,22.4843 -0.76058,46.43486 -1.56431,69.4925 -1.36753,20.01374 9.23645,52.61733 -24.06884,40.2045 z m 159.01505,0.0392 c -0.66064,-58.51654 -0.006,-117.0437 0.0477,-175.56469 5.43641,-10.82044 16.95307,-15.48493 28.38908,-13.50372 26.5668,0.5409 53.24434,-0.62357 79.72184,1.4879 25.90313,11.13167 12.72953,44.94256 16.37098,66.65014 -0.0221,40.29523 0.36841,80.60033 -0.34318,120.88876 -32.52299,11.18513 -19.76735,-28.43198 -22.07408,-47.36003 -0.54248,-39.68041 2.13779,-79.64453 -0.83134,-119.14096 -25.12258,-2.1422 -50.68693,-1.0064 -75.90588,0.0208 -5.47987,19.6202 -1.26141,44.84075 -2.79171,66.52462 -0.79166,33.50762 1.61104,67.38409 -1.6175,100.65395 -6.86992,0.93357 -14.23626,1.23641 -20.96594,-0.65678 z m 159.24718,-0.37012 c -0.75837,-84.7353 -1.47016,-169.53502 0.1599,-254.25513 2.17962,-24.56405 42.97387,-25.7783 51.49566,-5.7572 16.04965,14.16116 -40.27313,-4.60708 -30.30818,18.56686 -0.94547,80.52146 -0.38287,161.05321 -0.54683,241.57939 -6.92291,0.0375 -13.918,0.84763 -20.80055,-0.13392 z m 102.24597,-1.08228 c 0.34492,-65.29365 -0.97591,-130.65585 1.93194,-195.89734 11.57762,-2.83393 18.44979,19.50257 18.41375,36.17908 1.55125,53.62975 1.13749,107.28853 1.20889,160.93443 -6.8284,-0.67215 -16.13295,2.39956 -21.55458,-1.21617 z m -415.6358,-171.3611 c -19.32868,-29.34217 33.12642,-24.99453 49.6835,-32.93819 103.68176,-25.6051 201.4492,-71.28743 291.16367,-128.76889 12.94022,-7.14882 40.12079,-32.91239 32.79869,-4.29878 -2.469,19.00817 -30.40127,25.40108 -44.18801,37.7045 -75.2763,47.23449 -156.57239,85.54976 -241.63492,111.44983 -27.755,6.99828 -55.57539,18.03104 -84.3359,18.339 l -3.48705,-1.48747 z M 673.37053,303.64092 c 0.2983,-6.01036 6.76406,4.34722 0,0 z m -51.03857,-61.79336 c -15.49293,-12.4735 9.62704,-26.25385 8.84881,-4.07605 2.25441,6.1076 -5.71442,6.38609 -8.84881,4.07605 z"
         id="path471" /><path
         style="fill:#f997eb"
         d="m 216.41165,671.74796 c -25.22878,-21.96919 12.32467,-31.724 30.6799,-26.97738 153.26896,0.11636 306.54329,1.57936 459.79622,3.44753 20.31565,-6.99133 23.44462,23.81958 4.51603,23.02217 -164.98894,1.2901 -330.00843,1.96263 -494.99215,0.50768 z m 29.93722,-44.34351 c -0.67164,-39.11311 -4e-5,-78.23809 0.0628,-117.35605 5.04236,-11.49766 17.16024,-17.73569 29.34511,-15.33781 26.87641,0.52391 53.85394,-0.58648 80.64898,1.4482 26.01705,12.49248 12.73127,46.53623 16.29919,69.40198 0.13321,20.68691 0.26476,41.37383 0.3973,62.06074 -9.05258,0.11278 -28.36756,6.18009 -23.73715,-9.11596 -0.50612,-33.14642 0.60695,-66.38691 -1.58464,-99.4562 -25.04823,-2.65023 -50.55203,-0.82329 -75.79842,-1.3419 -4.49938,22.4843 -0.76058,46.43486 -1.56431,69.4925 -1.36753,20.01374 9.23645,52.61733 -24.06884,40.2045 z m 159.01505,0.0392 c -0.66064,-58.51654 -0.006,-117.0437 0.0477,-175.56469 13.18225,-22.40178 42.6938,-10.42013 63.79497,-12.70435 22.32337,1.00239 62.88836,-5.90328 59.14599,28.7133 0.85608,53.07053 2.39376,106.50263 1.34767,159.36421 -32.46771,11.70922 -20.79805,-26.74898 -22.36732,-45.8299 -0.11203,-39.58615 1.84169,-79.23785 0.75534,-118.77427 -3.91863,-8.57487 -16.04284,-1.91518 -23.56395,-3.69234 -18.52136,0.91576 -37.45783,-0.51609 -55.63408,2.75181 -2.11236,54.50416 0.14361,109.12169 -1.71186,163.63506 -2.13597,6.52696 -16.21157,2.76992 -21.81449,2.10117 z M 564.376,626.64973 c -0.62746,-69.78389 -0.0948,-139.62705 1.62262,-209.39228 13.35279,1.30211 22.84461,26.56031 18.78231,44.83629 -0.22737,54.77336 1.5172,109.65701 -0.12631,164.36371 -6.47575,1.73214 -13.78107,1.88135 -20.27862,0.19228 z m 103.63777,0.12533 c -2.44898,-43.16308 0.17344,-86.72812 0.22582,-130.03422 3.80452,1.96769 10.09772,22.90037 18.9167,29.4869 0.3543,33.30481 1.03705,66.618 0.59155,99.92085 -6.4787,1.0692 -13.19995,1.25977 -19.73407,0.62647 z M 251.22127,454.63015 c -19.09327,-27.99375 29.8692,-25.58463 46.67144,-32.28434 93.07808,-22.27886 181.05864,-61.76915 264.30937,-108.30664 -3.32464,6.96006 -23.46946,15.87363 -2.60352,16.61311 18.33716,8.59216 -10.06482,0.75838 -15.56495,0.80169 -22.00525,2.13295 20.43287,10.86543 -5.12196,18.40377 -85.66469,49.67531 -178.65397,88.50239 -276.34323,106.53504 -3.82123,0.675 -7.97061,0.28342 -11.34715,-1.76263 z M 568.2802,366.4848 c 7.7521,-13.30251 13.14555,-9.41099 1.06245,0.81711 -2.51516,2.47501 -3.65105,5.31288 -1.06245,-0.81711 z m -17.56312,-25.51485 c -5.04143,-7.11803 12.32531,0.55246 0,0 z m 20.69457,-33.2625 c 4.59825,-3.55618 0.0647,3.41579 0,0 z"
         id="path469" /><path
         style="fill:#d1aef9"
         d="m 216.41165,671.74796 c -24.72893,-20.87973 10.67647,-31.98975 28.94675,-26.98388 133.24711,0.28374 266.51929,0.60466 399.73879,3.35586 12.15616,-0.36584 7.49943,2.47267 6.56446,6.19189 9.85115,-0.62222 15.34183,4.30043 20.10991,12.5197 11.76194,-2.59803 31.95449,5.91654 8.57251,3.77086 -154.62102,2.38473 -309.30704,2.51626 -463.93242,1.14557 z m 29.93722,-44.34351 c -0.67164,-39.11311 -4e-5,-78.23809 0.0628,-117.35605 5.04236,-11.49766 17.16024,-17.73569 29.34511,-15.33781 26.87641,0.52391 53.85394,-0.58648 80.64898,1.4482 26.01705,12.49248 12.73127,46.53623 16.29919,69.40198 0.13321,20.68691 0.26476,41.37383 0.3973,62.06074 -9.05258,0.11278 -28.36756,6.18009 -23.73715,-9.11596 -0.50612,-33.14642 0.60695,-66.38691 -1.58464,-99.4562 -25.04823,-2.65023 -50.55203,-0.82329 -75.79842,-1.3419 -4.49938,22.4843 -0.76058,46.43486 -1.56431,69.4925 -1.36753,20.01374 9.23645,52.61733 -24.06884,40.2045 z m 159.01505,0.0392 c -0.66064,-58.51654 -0.006,-117.0437 0.0477,-175.56469 12.20618,-21.66979 39.91045,-11.06071 59.94085,-12.69697 19.84444,-4.14052 29.93124,5.24479 38.14856,18.62169 -24.74322,2.71818 -50.18353,-0.1347 -74.61722,3.9145 -2.09399,54.50169 0.14386,109.11432 -1.70543,163.6243 -2.13597,6.52696 -16.21157,2.76992 -21.81449,2.10117 z m 103.18787,0.0823 c -3.20991,-30.7691 -0.21852,-62.40878 -0.7192,-93.52007 1.10621,-23.79054 -0.99009,-50.98745 2.40346,-72.79588 0.62658,13.04531 0.1656,19.92028 6.21589,27.08833 7.5812,22.28487 16.27473,43.70116 13.09101,68.70511 -2.02409,22.60198 5.74679,53.11417 -3.3619,70.89039 -5.85687,0.27194 -11.821,0.64809 -17.62926,-0.36788 z m 55.71219,-1.34271 c -0.61416,-16.37063 -1.50561,-39.54462 5.39776,-49.97578 8.12498,16.58063 20.28313,27.72592 14.87747,50.25 -6.36833,1.99194 -13.99443,2.06343 -20.27523,-0.27422 z m 1.19038,-58.40668 c 0.57217,-5.25087 2.83042,3.32578 0,0 z M 251.22127,454.63015 c -19.09327,-27.99375 29.8692,-25.58463 46.67144,-32.28434 63.07669,-14.61334 123.10457,-39.30633 182.49094,-64.48506 14.65752,7.5518 18.63788,20.88104 -1.95194,24.52848 -68.32301,33.81068 -140.75243,60.26767 -215.86329,74.00355 -3.82123,0.675 -7.97061,0.28342 -11.34715,-1.76263 z m 250.76933,-2.50603 c 0.64328,-3.85396 1.01442,4.55158 0,0 z m -3.07895,-9.41667 c 3.90318,-3.65313 3.90318,3.65313 0,0 z"
         id="path467" /><path
         style="fill:#e796f4"
         d="m 215.2102,669.75752 c -21.33981,-26.71306 23.12948,-25.05413 39.7784,-23.43469 129.08621,1.36784 258.18831,0.74683 387.27077,1.64757 11.19389,-0.38417 13.2595,1.7223 9.40228,6.34143 9.85115,-0.62222 15.34183,4.30043 20.10991,12.5197 10.33127,-2.74399 32.21363,5.70963 9.91875,3.80364 -153.54254,0.0752 -307.10683,1.71001 -460.63756,0.23809 l -4.22958,-0.47634 -1.61297,-0.63942 z m 32.36812,-42.71674 c -1.24129,-38.5742 -1.00046,-77.26862 0.43711,-115.83333 10.54133,-25.34515 43.2829,-11.23821 64.4008,-14.72548 21.06721,1.25364 59.92974,-7.6965 58.07082,25.09577 0.82767,35.20334 0.67165,70.4195 0.9246,105.62971 -6.3151,-2.07617 -21.31673,4.55628 -21.01056,-4.15799 -0.35556,-34.24217 0.51887,-68.52936 -1.02414,-102.7343 -20.53123,-8.71757 -49.37035,-1.67237 -73.10699,-3.02643 -16.21945,10.64265 -3.04944,45.61636 -7.32624,65.53314 -3.8985,18.50788 12.72801,55.71866 -21.3654,44.21891 z m 163.08333,-0.0851 c -9.64813,0.43091 -2.60638,-14.61821 -4.75,-21.14781 0,-50.44324 0,-100.88649 0,-151.32973 8.53143,-23.07894 35.97955,-14.49897 54.92377,-15.43477 21.27965,-2.34287 32.27122,1.72533 43.34192,17.91411 -21.62757,3.62085 -46.13212,1.19275 -68.82194,3.12876 -17.61224,10.9727 -3.78901,47.26513 -8.4362,68.01089 -0.0155,32.87011 -0.004,65.74023 -0.008,98.61035 -5.41675,0.1617 -10.83119,0.77226 -16.25,0.2482 z m 97.73479,-0.27281 c -0.82468,-55.18554 -0.56481,-110.43357 0.731,-165.60875 5.01069,8.74814 -2.20618,21.5306 7.31462,24.35018 3.36453,21.82573 17.58682,40.58542 12.73411,64.40687 0.1113,25.79199 0.15707,51.58421 0.23544,77.37631 -6.96768,-0.11795 -14.20653,1.23515 -21.01517,-0.52461 z m 55.86754,-0.49961 c -0.61416,-16.37063 -1.50561,-39.54462 5.39776,-49.97578 8.12498,16.58063 20.28313,27.72592 14.87747,50.25 -6.36833,1.99194 -13.99443,2.06343 -20.27523,-0.27422 z m 1.19038,-58.40668 c 0.57217,-5.25087 2.83042,3.32578 0,0 z M 252.22547,453.75722 c -18.77692,-23.93698 24.16312,-22.52008 38.38994,-27.75407 64.84219,-13.70531 125.58091,-40.74081 186.06956,-67.03309 12.37854,-1.48765 27.10802,20.1012 4.84874,21.8243 -64.96703,32.37852 -134.38878,55.63241 -205.0167,71.99368 -7.8325,0.58144 -16.87265,5.44058 -24.29154,0.96918 z m 249.76513,-1.6331 c 0.64328,-3.85396 1.01442,4.55158 0,0 z m -3.07895,-9.41667 c 3.90318,-3.65313 3.90318,3.65313 0,0 z"
         id="path465" /><path
         style="fill:#d896f9"
         d="m 215.2102,669.74793 c -21.55654,-27.99174 25.55587,-24.46719 42.46994,-23.43459 103.43065,1.03784 206.93118,0.2256 310.30963,3.44435 8.70646,4.77117 17.10711,20.33941 24.87996,19.39805 -58.04786,4.17533 -116.45195,1.48053 -174.63842,2.45151 -67.15573,-0.58204 -134.42627,1.41737 -201.50862,-1.22517 z m 32.36812,-42.70715 c -1.24129,-38.5742 -1.00046,-77.26862 0.43711,-115.83333 10.54133,-25.34515 43.2829,-11.23821 64.4008,-14.72548 21.06721,1.25364 59.92974,-7.6965 58.07082,25.09577 0.82767,35.20334 0.67165,70.4195 0.9246,105.62971 -6.3151,-2.07617 -21.31673,4.55628 -21.01056,-4.15799 -0.35556,-34.24217 0.51887,-68.52936 -1.02414,-102.7343 -20.53123,-8.71757 -49.37035,-1.67237 -73.10699,-3.02643 -16.21945,10.64265 -3.04944,45.61636 -7.32624,65.53314 -3.8985,18.50788 12.72801,55.71866 -21.3654,44.21891 z m 163.08333,-0.0851 c -9.64825,0.43091 -2.60487,-14.61821 -4.74783,-21.14781 0.005,-50.53346 0.0106,-101.06693 0.0158,-151.60039 7.18627,-21.43982 25.5063,-9.4043 24.19444,3.88424 -10.98422,10.29868 0.411,41.25073 -3.33845,59.12505 0.12213,36.49675 0.13385,72.99378 0.2011,109.49066 -5.44269,0.15651 -10.88258,0.77399 -16.32509,0.24825 z m 97.91667,0.0851 c -5.55393,-14.5104 3.4232,-60.08075 14.3333,-25.05766 8.904,17.77637 11.07906,30.53909 -14.3333,25.05766 z M 252.22547,453.75722 c -18.77692,-23.93698 24.16312,-22.52008 38.38994,-27.75407 41.60674,-8.81802 81.51393,-23.52481 121.26463,-38.26953 -3.40306,8.93361 9.18823,2.7222 4.27961,11.36465 2.33254,2.69992 24.97801,-4.15878 5.17424,4.26138 -15.10671,15.92293 -42.46606,17.44044 -62.50999,26.89904 -33.24179,9.81468 -66.39481,21.44278 -100.99421,25.3095 l -2.95501,-0.49378 -2.64918,-1.31719 z m 166.70149,-63.74075 c 2.20507,-4.68309 6.42448,0.39052 0,0 z"
         id="path463" /><path
         style="fill:#c894fa"
         d="m 215.2102,669.77621 c -21.53296,-26.91815 23.79315,-24.56268 40.26412,-23.37004 77.86971,0.28713 155.78462,0.12652 233.604,3.17628 6.50139,5.0297 38.18416,23.46283 12.84271,21.07367 -94.09639,0.72925 -188.23765,1.71235 -282.31838,0.2488 z m 32.36812,-42.73543 c -1.24129,-38.5742 -1.00046,-77.26862 0.43711,-115.83333 10.01537,-24.46626 41.56209,-12.67992 62.04907,-14.8895 18.48523,2.35721 41.59903,-4.23275 55.50877,9.86401 7.77562,31.65421 3.83165,64.94527 5.98511,97.29703 4.57887,18.10654 -1.95317,28.83986 -20.57712,23.74428 -1.33946,-18.32471 -0.19775,-39.06252 -0.58964,-58.30979 -3.80495,-18.68473 12.35516,-60.18265 -20.56771,-52.50023 -18.69224,6.03553 -63.59444,-13.54485 -60.81736,16.19942 -0.29735,31.28077 0.0879,62.5633 -0.0226,93.84478 -6.61863,2.41833 -14.48488,1.12839 -21.40561,0.58333 z m 162.9397,-0.091 c -9.83824,0.55062 -2.55022,-14.56257 -4.58249,-21.15135 0.35044,-19.2448 0.37125,-38.50396 1.28316,-57.73136 6.45339,10.39886 6.72466,22.0845 13.56923,33.21684 8.09147,12.93658 4.70222,30.36932 6.33664,45.42353 -5.53607,0.15414 -11.06878,0.77701 -16.60654,0.24234 z m 0.6715,-57.21338 c -4.33647,3.14252 -0.69427,6.75109 0,0 z m -0.58854,-7.77895 c -1.55827,0.0628 0.92298,8.85011 0,0 z M 252.22547,453.75722 c -18.85348,-24.40891 25.23313,-22.40464 39.47928,-28.05317 19.92364,-4.54733 43.64026,-12.37386 61.85638,-12.46766 10.75285,-12.11432 10.42405,8.7922 21.71299,9.84536 -9.91835,3.96591 -35.81306,14.33516 -51.67518,17.7448 -22.54397,5.80538 -45.3112,14.21727 -68.7243,14.24786 l -2.64918,-1.31719 z M 360.91165,409.4576 c 2.92336,-7.21655 2.00118,2.77523 0,0 z"
         id="path461" /><path
         style="fill:#b091fa"
         d="m 215.2102,669.823 c -21.6816,-28.05238 25.52247,-25.02543 42.36665,-23.60053 44.14345,1.2825 88.55835,-0.61006 132.49241,4.14843 9.75069,1.61385 53.36423,17.16528 24.70872,20.38264 -65.31906,0.54339 -130.69582,1.66177 -195.99312,0.22717 z m 175.70145,-16.11555 c -2.55494,-3.58745 -2.55494,3.58745 0,0 z M 247.34064,626.383 c -0.67401,-38.07176 2.3e-4,-76.1556 0.071,-114.23239 6.72343,-19.48288 34.01932,-17.75197 48.89914,-10.26097 27.30492,20.37924 -19.20418,8.01847 -27.52957,18.41111 0.0743,35.38554 0.2383,70.77108 0.20274,106.1567 -6.81059,2.09515 -14.81962,1.89573 -21.64332,-0.0744 z m 103.09775,-0.63229 c -1.51928,-16.06311 2.78205,-37.63649 16.00176,-14.97025 13.8496,21.03345 -2.77654,15.8716 -16.00176,14.97025 z M 251.80953,453.42382 c -17.39232,-25.07205 33.67121,-27.21033 47.09998,-16.31404 10.63138,18.21742 -29.69855,13.37548 -41.80304,18.59767 l -2.33934,-0.67082 z"
         id="path459" /><path
         style="fill:#9891fa"
         d="m 217.32684,670.35735 c -23.62544,-18.33148 13.51483,-30.12659 29.2446,-22.75067 21.87189,1.28874 45.82956,-0.0253 66.16593,5.24521 -6.13066,8.17371 31.64629,17.90544 7.50546,17.61924 -34.26071,-0.0373 -68.77325,2.39278 -102.91599,-0.11378 z m 30.45559,-44.8999 c 2.12513,-20.36295 -4.56689,-50.34501 4.84679,-65.1625 16.37124,11.77616 12.35068,37.05845 15.77142,55.54707 5.04848,16.92644 -9.9995,9.84587 -20.61821,9.61543 z"
         id="path457" /></g></g></svg>
