<?xml version="1.0" encoding="UTF-8" standalone="no"?>
<!-- Created with Inkscape (http://www.inkscape.org/) -->

<svg
   width="463.92728"
   height="610.95184"
   viewBox="0 0 463.92727 610.95183"
   version="1.1"
   id="svg5"
   xml:space="preserve"
   xmlns:xlink="http://www.w3.org/1999/xlink"
   xmlns="http://www.w3.org/2000/svg"
   xmlns:svg="http://www.w3.org/2000/svg"><defs
     id="defs2"><color-profile
       name="DP"
       xlink:href="../../../../../.local/share/icc/edid-27fd61d80a4d3102d04ad05b2e686881.icc"
       id="color-profile809" /><color-profile
       name="DP"
       xlink:href="../../../../../.local/share/icc/edid-27fd61d80a4d3102d04ad05b2e686881.icc"
       id="color-profile811" /></defs><g
     id="layer1"
     transform="translate(120.25828,351.61183)"><g
       id="g658"
       transform="translate(-411.53127,-418.88349)"><path
         style="fill:#fae7fb"
         d="m 334.42623,676.39978 c -27.34956,-6.82502 -46.32881,-34.96308 -42.57012,-62.96587 -0.38032,-140.03956 -1.32423,-280.10915 0.50972,-420.13583 -2.44979,-29.52738 25.95132,-55.91651 55.26023,-51.32186 19.71716,-0.44068 62.19063,-6.73771 44.88668,25.04893 -22.93888,5.7414 -54.51788,-8.21398 -70.82583,13.23629 -3.43898,67.11544 -0.98831,134.65894 -1.76016,201.94608 -0.001,82.09164 -2.3e-4,164.18328 -5.2e-4,246.27492 5.20787,13.36192 18.58892,23.97434 33.27057,21 117.24314,0 234.48629,0 351.72943,0 24.51057,-6.92626 20.83325,-34.5788 21.11314,-54.48059 0.85779,-137.60266 0.55645,-275.21096 0.88686,-412.81615 -13.00759,-22.48584 -42.44645,-11.15505 -63.5798,-14.68896 -23.61963,-0.51067 -7.216,-37.04192 13.66443,-25.16904 29.27859,-3.45575 67.43825,3.49556 75.13868,37.15474 3.33103,100.34881 1.69092,200.8944 2.7268,301.31861 -0.59748,50.97425 1.76709,102.07469 -1.24111,152.9707 -4.58319,31.20482 -37.63215,48.35998 -67.00365,43.56641 -117.3851,0.81878 -234.85465,1.85427 -352.20535,-0.93838 z m 143.357,-100.40892 c -15.26911,-14.55918 6.88142,-21.44595 18.895,-18.00842 34.63395,0 69.2679,0 103.90185,0 14.31571,10.70422 -1.50748,23.69698 -14.11168,18.98546 -36.22658,-0.21148 -72.48355,0.45425 -108.68517,-0.97704 z M 383.6931,564.73244 c -16.14171,-5.89662 -40.16329,-46.76331 -8.30753,-37.4311 9.08034,8.73636 17.23466,20.74698 25.61085,5.09392 11.93077,-9.6605 29.22818,-40.89072 41.91943,-18.30676 -11.67523,19.76001 -32.2305,48.45027 -56.12743,52.17266 z m 93.50827,-21.30063 c -14.11967,-14.76444 7.58962,-21.24887 19.46922,-17.91732 58.9133,0.49236 117.89195,-0.82895 176.75287,1.46647 12.71343,12.4829 -5.05337,21.45178 -16.49609,17.53627 -59.89169,-0.44192 -119.95794,1.73873 -179.726,-1.08542 z m 0.5536,-81.90713 c -15.21011,-14.08717 6.88858,-21.66268 18.91194,-18.16344 34.37798,0.27432 68.94951,-1.91144 103.17072,1.18955 19.96713,25.43777 -30.42441,17.10459 -44.74673,18.49183 -25.76211,-0.27249 -51.64699,0.53197 -77.33593,-1.51794 z m -92.82874,-10.41119 c -11.6426,-8.14922 -43.57,-38.85334 -12.7163,-40.24089 12.43924,10.08434 21.97347,23.20284 33.13971,2.84605 7.63249,-11.36673 35.84031,-37.02036 37.13632,-9.39331 -17.17452,13.92913 -33.29463,51.13168 -57.55973,46.78815 z m 90.42308,-24.05413 c -10.37523,-15.80399 10.13442,-16.62066 20.39186,-15.07692 58.85785,0 117.71569,0 176.57353,0 13.77053,10.22253 -3.00693,22.58383 -14.72441,18 -59.77264,0 -119.54527,0 -179.31791,0 -0.97436,-0.97436 -1.94871,-1.94872 -2.92307,-2.92308 z m 4.86284,-79.88988 c -24.12044,-22.71582 27.60393,-19.48536 41.75091,-19.0347 26.25773,0.66964 52.85535,-1.5841 78.90403,1.84974 14.9394,12.27494 -5.41184,20.91671 -16.81276,17.08899 -34.61364,0.0808 -69.23005,0.46957 -103.84218,0.096 z m -94.28592,-10.59815 c -11.8984,-8.18927 -44.25798,-37.85884 -14.70841,-40.80129 12.17592,10.54253 22.78311,22.90385 33.29278,2.99668 7.20925,-11.53589 37.06644,-37.58957 37.70979,-9.94758 -17.20377,15.14924 -32.3692,47.54043 -56.29416,47.75219 z m 91.52215,-23.34044 c -14.14525,-26.55465 33.7153,-13.02077 49.49498,-16.40617 48.62403,0.12782 97.30554,-0.60302 145.88796,1.36888 13.90535,14.58491 -7.78501,17.8427 -18.38638,15.66227 -58.00692,0.31808 -116.07262,2.19631 -174.03962,0.3102 z m -54.30465,-98.27194 c -30.44436,-9.82086 -15.56116,-48.7791 -18.1333,-72.42901 3.7649,-24.26144 32.30341,-17.35848 50.15031,-18.76657 17.37375,4.87439 13.98251,-10.54361 17.09121,-22.81105 10.4025,-28.019974 44.88964,-41.736025 71.79589,-28.746852 21.78664,7.425243 33.58,30.244162 33.87839,52.276972 18.12607,1.34324 37.14175,-1.71299 54.46373,4.28104 15.89124,20.74464 13.93186,58.13746 2.46903,80.06923 -21.71498,11.53786 -49.23004,3.28421 -73.26932,6.31629 -46.14125,0.17566 -92.32304,1.14526 -138.44594,-0.19005 z m 194.11862,-21.81263 c 3.37195,-19.89878 12.03894,-58.30263 -22.09081,-47.1569 -18.09,-1.81291 -65.54766,9.3639 -41.01959,-22.56867 7.78147,-35.442385 -48.08729,-49.17106 -58.85156,-15.15261 -8.59645,16.16564 19.46837,44.28831 -13.9727,37.68105 -20.11364,3.45141 -63.10565,-11.47053 -52.90146,24.03325 -10.01718,37.41721 37.69764,19.69341 58.6351,24.32946 42.61236,0.0267 85.28464,1.38609 127.86018,-0.14769 z"
         id="path680" /><path
         style="fill:#f8cdf4"
         d="m 336.42623,675.41584 c -27.41502,-5.87207 -47.502,-34.03741 -43.48778,-61.80543 0.38744,-141.55849 -0.52188,-283.13044 1.08537,-424.67791 0.0364,-27.94898 28.02671,-49.38276 55.08183,-45.73657 12.27876,3.76868 41.92658,-7.89577 43.98944,7.41947 4.85676,30.70834 -40.14899,10.0756 -58.58842,17.34397 -15.43783,4.065 -17.56198,20.12996 -16.08044,33.28779 0.39942,142.14007 -1.01049,284.30899 1.06414,426.42618 3.01485,16.23585 20.33964,26.83246 36.24024,23.82428 115.33332,-0.31256 230.73843,1.43371 346.01459,-1.06471 30.03564,-2.907 26.26237,-38.78933 26.1794,-60.70674 0.65079,-135.53503 0.56819,-271.07224 0.77096,-406.60844 -11.27726,-25.53097 -42.95074,-13.35341 -64.49902,-16.81566 -20.27406,1.16107 -8.4598,-32.94182 10.40551,-21.78639 18.66188,1.28296 39.32625,-4.60972 55.22009,8.2875 24.83327,14.77717 22.59266,46.26602 22.38143,71.20418 0.46896,134.38475 2.26575,268.80113 0.46541,403.17237 0.70223,31.77493 -33.71131,54.27035 -63.42084,49.31258 -116.46797,0.32994 -232.9713,1.2698 -349.42059,-0.67671 z M 478.89151,575.03092 c -14.73756,-13.74354 6.98565,-18.30116 17.7674,-15.54848 34.64683,0 69.29366,0 103.94049,0 12.10258,10.80004 -3.96803,20.39677 -14.8237,16.48525 -35.62637,-0.20258 -71.28135,0.43487 -106.88419,-0.93677 z m -93.13019,-10.79848 c -11.05444,-7.04557 -41.83838,-38.50439 -12.49356,-36.9028 21.49509,34.88394 36.9397,-13.15323 59.49872,-20.30383 22.64734,16.67351 -22.20759,38.26449 -32.33157,53.76153 -3.81557,3.55897 -9.68726,7.25984 -14.67359,3.4451 z m 92.67563,-21.99336 c -14.42239,-24.53956 34.65742,-12.00389 48.98672,-15.17773 48.03101,-0.13765 96.06231,-0.0572 144.09347,-0.0789 12.61875,10.46812 -2.95588,20.67946 -14.05593,16.53742 -58.25464,-0.13202 -116.53504,1.05707 -174.76952,-0.319 z m 1.11539,-81.50264 c -16.20666,-13.01261 7.20451,-18.76427 18.12589,-15.74944 34.24419,0.38601 68.59546,-1.0234 102.748,1.28941 15.03742,24.14108 -34.82437,11.63497 -48.12451,14.89801 -24.24678,-0.008 -48.51497,0.45146 -72.74938,-0.43798 z m -92.62611,-10.1771 c -11.42169,-7.3233 -43.81464,-37.96807 -14.34211,-37.63091 11.46498,13.51491 23.30686,20.62881 33.9877,1.66723 7.85077,-6.70492 14.29956,-16.70679 22.88823,-21.61874 30.59413,7.16237 -15.57565,36.50351 -23.5832,48.78667 -5.20503,4.34184 -11.13721,13.01993 -18.95062,8.79575 z m 91.96528,-22.52842 c -14.79172,-24.54732 33.54096,-11.6564 47.41233,-15.01145 48.69161,0.43789 97.47983,-1.14477 146.10578,1.24897 12.20326,25.18437 -39.90858,10.32528 -53.61805,14.66254 -46.63036,-0.15122 -93.28703,0.36782 -139.90006,-0.90006 z m -2.45763,-84.54034 c -8.37702,-15.44251 12.09586,-14.36047 21.56211,-13.47027 34.1252,0.15404 68.25041,0.30809 102.37562,0.46213 11.93709,10.63812 -4.58654,19.24424 -14.8613,15.5 -35.57848,0 -71.15697,0 -106.73545,0 -0.78033,-0.83062 -1.56065,-1.66124 -2.34098,-2.49186 z M 374.18445,324.23244 c -21.42215,-7.11511 -14.0662,-41.38599 5.79433,-20.18327 20.19478,26.94122 32.43799,-31.23396 56.86286,-25.54159 9.24594,21.34074 -28.69327,41.21688 -42.36322,56.92293 -9.12421,3.37941 -14.36842,-6.35561 -20.29397,-11.19807 z m 102.24178,-13.25 c -3.83528,-24.69851 39.41744,-8.31699 55.68198,-12.91482 46.60663,0.16642 93.21204,0.56151 139.81802,0.84942 12.20958,23.65543 -35.6975,10.45617 -49.06841,14.03477 -47.85841,-0.33505 -95.76916,0.89049 -143.59343,-0.82481 z m -56.5,-98.49138 c -23.98931,-15.56557 -13.84255,-51.74058 -11.40437,-75.71588 12.0151,-26.77415 63.48543,7.70216 62.63641,-25.12334 4.83069,-32.885241 45.51161,-52.399093 73.98508,-34.621482 26.14229,5.673499 22.33664,43.011522 39.31878,49.578812 18.40271,2.84025 50.6138,-6.16545 55.56993,18.78161 -0.12996,18.58738 3.49588,37.6681 -0.80176,55.86176 -18.70488,22.49567 -53.43755,7.86544 -79.0701,12.36226 -46.72037,-0.49918 -93.60329,1.5652 -140.23397,-1.12374 z m 199.08721,-18.81438 c 3.13039,-19.14841 12.04207,-59.98096 -22.05986,-49.46778 -16.34532,-3.26292 -63.97575,9.65048 -41.5989,-19.21309 9.14637,-29.022247 -32.15378,-52.496772 -52.79502,-30.058745 -20.91284,12.083305 -1.61118,37.899985 -6.88503,49.148845 -20.05531,8.17436 -63.79436,-12.96177 -68.83775,12.88632 -5.11033,24.68577 1.55678,46.95887 31.0148,38.709 52.91099,0.94954 105.83179,0.85556 158.74897,0.80121 0.80426,-0.93525 1.60853,-1.87051 2.41279,-2.80576 z"
         id="path678" /><path
         style="fill:#f7b6f8"
         d="m 335.07118,674.39845 c -32.82156,-7.06324 -45.18248,-41.60322 -40.97628,-71.6043 -0.47132,-139.76912 -0.70786,-279.54847 0.93425,-419.31171 4.37343,-18.33431 19.23336,-34.52231 37.79816,-38 19.69964,0 39.39928,0 59.09892,0 7.95848,24.80221 -17.91864,21.62917 -35.47236,20.51923 -17.61157,-3.96825 -42.75216,5.75554 -39.03865,26.86013 0.17034,145.54021 0.34067,291.08043 0.51101,436.62064 7.70261,23.0523 32.9267,24.35021 53.32593,22.78391 111.19554,-0.1993 222.45592,1.43126 333.61292,-0.96671 17.58703,-3.60289 25.97433,-22.78415 23.52618,-39.15505 1.13557,-142.94377 1.21504,-285.89263 1.41382,-428.83997 -11.17628,-25.88749 -43.33734,-15.05872 -65.26777,-18.35095 -20.7962,-0.27822 -3.33984,-28.57346 12.96255,-19.59487 26.37353,-3.49279 60.03257,2.48819 69.16461,31.57188 8.17511,30.08557 3.22876,61.98793 4.84021,92.89701 0.39241,122.60994 0.29727,245.22076 0.42155,367.83115 -9.06817,23.86465 -33.12335,41.81854 -59.33682,37.81459 -118.0993,0.39336 -236.2367,1.27294 -354.31687,-0.67028 z M 478.44284,573.69644 c -10.40592,-23.27468 35.9124,-9.93328 49.70367,-13.74024 23.01563,5.41028 63.27296,-10.79124 75.94779,9.89175 -21.56751,11.4089 -51.42069,1.96429 -76.02766,5.1088 -16.52352,-0.34753 -33.18973,0.61924 -49.6238,-1.26031 z m -93.05065,-10.41099 c -9.90768,-6.81325 -39.94812,-37.29275 -12.25035,-34.52563 21.9034,35.1184 37.96671,-14.92667 61.2363,-20.1089 14.91187,17.91658 -25.47619,36.60211 -35.1312,52.60471 -3.31457,3.70106 -9.65168,4.7593 -13.85475,2.02982 z m 93.4337,-21.73095 c -12.94829,-13.45338 9.44306,-15.49686 18.94465,-13.55106 57.86313,0.48464 115.77159,-0.51213 173.59847,1.31231 12.50026,21.69289 -33.35622,10.97379 -46.21599,13.62531 -48.75519,-0.54435 -97.65794,1.27447 -146.32713,-1.38656 z m -0.4432,-82.23207 c -9.77667,-22.96718 36.26366,-9.34598 49.85086,-13.33056 24.71895,1.73543 51.53949,-3.64055 74.98111,3.6354 -7.59388,20.70877 -47.80353,5.63997 -68.35439,10.68874 -18.81383,-0.20869 -37.71316,0.47138 -56.47758,-0.99358 z m -91.45646,-9.74996 c -10.58161,-6.24692 -42.48385,-37.60943 -13.68616,-35.267 20.6563,33.59184 37.62744,-9.90958 58.51438,-19.98887 22.62604,11.22748 -19.49209,34.23393 -27.24025,47.25844 -4.76397,4.18953 -10.09066,12.51869 -17.58797,7.99743 z m 91.73546,-22.61874 c -12.68712,-21.37777 32.3226,-9.82239 43.66987,-12.94765 49.27998,0.4845 98.61132,-0.52347 147.85705,1.30064 14.58159,10.52298 -7.89922,14.72539 -16.99115,12.21326 -58.17621,-0.0975 -116.38079,0.86983 -174.53577,-0.56625 z M 476.785,342.43212 c -2.56843,-21.71936 40.64735,-6.15575 55.55712,-10.95035 21.28336,5.06508 59.53855,-10.43361 70.68449,9.04303 -19.31592,9.91023 -46.17762,1.72336 -68.24729,4.45764 -18.48134,0 -36.96267,0 -55.444,0 -0.85011,-0.85011 -1.70021,-1.70021 -2.55032,-2.55032 z m -88.21462,-7.16928 c -12.74385,-5.20183 -43.68739,-42.24577 -13.70686,-33.46558 21.61494,31.89235 35.4771,-18.26734 58.18011,-22.09594 18.68463,12.81951 -22.21233,33.74799 -29.61793,47.30946 -4.23128,3.17365 -8.56824,10.72369 -14.85532,8.25206 z m 88.51084,-25.10914 c -0.20705,-21.46497 42.20765,-5.56435 58.3322,-10.58554 45.80123,0.85076 91.77733,-0.64002 137.45843,2.36939 -0.72197,20.18365 -40.89959,5.13507 -56.57779,10.02205 -45.39105,-0.29685 -90.82338,0.79063 -136.18703,-0.78296 l -3.0261,-1.02294 z M 418.8092,210.60855 c -19.62877,-11.178 -10.3921,-36.70302 -12.02467,-55.42929 -2.61121,-14.7411 9.37736,-30.57274 25.46672,-27.31264 19.52406,0.53862 46.09088,5.57756 42.70269,-22.57402 18.02838,-25.737683 14.12595,29.67105 20.6547,36.8559 -21.59268,7.53347 -67.29268,-13.02639 -70.11788,16.79733 -1.82506,19.29058 -2.9018,46.56029 25.04859,38.13366 55.65216,0.26944 111.73872,4.81828 167.14131,-0.50707 8.55993,-5.55972 3.09846,-17.53859 4.99473,-26.11767 2.73556,-14.96523 0.10989,-28.48158 -13.91805,-33.04359 7.28796,-7.62245 33.41903,1.52882 30.56863,16.66098 -0.9892,14.83216 2.58556,30.84949 -0.80096,45.17035 -7.1398,17.45265 -26.7413,12.67277 -41.4686,13.28196 -57.71006,0.165 -115.42012,0.32999 -173.13018,0.49498 -1.70568,-0.80363 -3.41135,-1.60725 -5.11703,-2.41088 z m 130.9173,-69.28601 c 5.31089,-15.19006 10.95109,5.76775 0,0 z m 28.19725,-1.34284 c -3.48025,-28.58193 25.16354,10.52597 0,0 z m 14.73083,1.24552 c -6.17517,-11.72636 8.06669,-2.49587 0,0 z m 11.14594,-0.70979 c -1.81996,-8.5184 7.04457,6.19735 0,0 z"
         id="path676" /><path
         style="fill:#fbc4de"
         d="m 335.07118,674.39845 c -34.8604,-7.41361 -44.97935,-44.55349 -41.05325,-75.51325 -0.31995,-136.46805 0.14239,-272.93712 0.98644,-409.40276 4.3306,-13.87899 16.10655,-37.85554 28.42186,-34.5 -0.47277,15.16799 -10.3441,28.70209 -7.58572,44.30406 1.44522,142.89471 0.72098,285.81141 2.45803,428.69594 9.52549,34.62887 50.67314,21.94073 76.91248,24.62702 103.73585,0.3931 207.4855,1.16835 311.21521,0.0125 28.19231,-7.61662 22.70616,-42.93769 23.35702,-65.58133 0.80154,-28.93943 -0.55899,-61.92511 2.3906,-88.41626 4.89319,11.48939 25.66412,17.43045 16.61557,33.92655 -0.89261,23.0862 2.12136,46.68867 2.41498,70.36221 -1.22893,15.4503 3.57157,32.5496 -6.3806,45.9691 -13.09688,25.73354 -44.19479,28.29911 -69.7195,26.64039 -112.28589,0.22339 -224.60734,1.26085 -336.87272,-0.7197 z M 478.44284,573.78207 c -9.92672,-23.85718 37.25268,-9.34808 51.28124,-13.31044 23.81378,2.44312 50.87884,-4.03402 72.73426,4.67232 -10.75091,18.1511 -51.54788,4.78326 -73.54337,9.62419 -16.80362,-0.1873 -33.74089,0.70165 -50.47213,-0.98607 z m -93.05065,-10.49662 c -9.90768,-6.81325 -39.94812,-37.29275 -12.25035,-34.52563 20.99166,33.98985 37.65383,-12.04402 59.14832,-19.77738 21.70322,12.35334 -21.57099,34.5361 -28.68333,48.37825 -4.36454,5.03507 -11.52967,10.19962 -18.21464,5.92476 z m 94.39104,-21.33237 c -14.56407,-15.23892 9.55931,-15.36039 19.63951,-13.93853 57.85349,1.02056 115.87041,-0.31552 173.58491,3.03546 -2.52368,21.97261 -42.9279,6.11695 -60.99098,11.10333 -44.07491,0.0756 -88.16714,0.62861 -132.23344,-0.20026 z m 254.65813,-52.43856 c -4.91389,-1.95394 -4.5549,-25.54526 1.93309,-15.49621 -9.84402,-35.85113 -4.40879,-74.29983 -6.25387,-111.27118 -0.28499,-59.96158 -0.38515,-119.92385 -0.57527,-179.88578 -11.32814,-25.45257 -43.25473,-14.54543 -65.008,-17.90768 -20.7962,-0.27822 -3.33984,-28.57346 12.96255,-19.59487 26.29449,-3.46194 59.76078,2.40856 69.07283,31.29101 8.30789,29.66805 3.12101,61.29909 5.02073,91.80281 -0.10287,66.52368 1.62942,133.31379 -2.55369,199.6516 -1.86399,7.52745 -7.0665,27.13619 -14.59837,21.4103 z M 477.67623,458.52733 c -3.47967,-23.81355 40.55269,-7.22496 56.45685,-11.76215 20.26092,4.62604 55.18326,-7.69046 66.19236,9.02146 -26.07952,6.82835 -56.49539,1.99874 -84.24764,3.97721 -12.72939,-0.44654 -25.93231,1.47965 -38.40157,-1.23652 z m -90.78388,-8.9329 c -11.96616,-5.99316 -42.31067,-42.6793 -11.34976,-32.6738 22.32993,36.35938 36.71254,-25.5519 62.31221,-19.36671 -5.19777,19.64678 -29.92429,47.8339 -50.96245,52.04056 z m 90.68343,-24.46244 c -2.06561,-20.61629 37.80143,-5.71653 52.60063,-9.80283 32.08746,0.41906 64.17475,0.94776 96.24982,1.95343 -0.39311,18.85942 -41.75045,4.00338 -57.328,9.29222 -29.79081,0.25563 -59.58195,0.4703 -89.37291,0.70672 l -1.08458,-1.08458 z m 181.01461,0.77485 c -29.87285,-7.65034 36.24036,-13.23912 8.46455,0.8963 l -3.12602,-0.23323 z M 476.83905,341.48973 c 2.81245,-18.53396 40.81806,-6.68969 56.12159,-5.23616 14.79649,14.11449 -27.27349,4.67897 -35.8966,7.65451 -6.10694,-1.5144 -16.48033,3.24484 -20.22499,-2.41835 z m -89.91282,-7.45633 c -12.85348,-5.40968 -40.04446,-43.98234 -9.7739,-28.59615 19.06957,30.28341 35.91927,-27.05574 54.02728,-17.7453 -0.93102,14.49253 -27.45491,45.17447 -44.25338,46.34145 z m 248.18396,-22.79192 c -12.98654,-9.53913 38.52088,-20.81027 38.73895,-2.11259 -11.46508,5.65372 -26.1841,1.30715 -38.73895,2.11259 z m -157.11253,-1.83047 c -4.8973,-20.8566 60.448,5.69919 19.30129,1.77019 -6.39118,-0.27253 -13.18537,0.33427 -19.30129,-1.77019 z m 91.67238,-97.40299 c -31.83782,-3.96925 -3.15247,-19.02595 16.52953,-13.20078 13.23161,-1.02599 41.02212,4.24552 36.19945,-17.11369 -0.0557,-16.87162 5.88728,-39.08735 -13.64188,-44.28239 7.28796,-7.62245 33.41903,1.52882 30.56863,16.66098 -0.9892,14.83216 2.58556,30.84949 -0.80096,45.17035 -6.90094,17.06922 -25.97569,12.896 -40.40883,13.25997 -9.48279,-0.0547 -18.96952,-0.14029 -28.44594,-0.49444 z m -146.67952,-1.14899 c -17.1103,-1.69787 -19.80122,-38.78781 -1.95631,-14.28208 13.12677,2.10669 34.83259,21.03586 6.73179,14.94146 z M 577.92375,139.9797 c -3.48025,-28.58193 25.16354,10.52597 0,0 z m 14.73083,1.24552 c -6.17517,-11.72636 8.06669,-2.49587 0,0 z m 11.14594,-0.70979 c -1.81996,-8.5184 7.04457,6.19735 0,0 z"
         id="path674" /><path
         style="fill:#e7a9f8"
         d="m 335.07118,674.39845 c -34.8604,-7.41361 -44.97935,-44.55349 -41.05325,-75.51325 -0.31995,-136.46805 0.14239,-272.93712 0.98644,-409.40276 4.3306,-13.87899 16.10655,-37.85554 28.42186,-34.5 -0.47277,15.16799 -10.3441,28.70209 -7.58572,44.30406 1.44522,142.89471 0.72098,285.81141 2.45803,428.69594 9.52549,34.62887 50.67314,21.94073 76.91248,24.62702 103.73585,0.3931 207.4855,1.16835 311.21521,0.0125 28.19231,-7.61662 22.70616,-42.93769 23.35702,-65.58133 0.80154,-28.93943 -0.55899,-61.92511 2.3906,-88.41626 4.89319,11.48939 25.66412,17.43045 16.61557,33.92655 -0.89261,23.0862 2.12136,46.68867 2.41498,70.36221 -1.22893,15.4503 3.57157,32.5496 -6.3806,45.9691 -13.09688,25.73354 -44.19479,28.29911 -69.7195,26.64039 -112.28589,0.22339 -224.60734,1.26085 -336.87272,-0.7197 z M 478.44284,573.78207 c -9.92672,-23.85718 37.25268,-9.34808 51.28124,-13.31044 23.81378,2.44312 50.87884,-4.03402 72.73426,4.67232 -10.75091,18.1511 -51.54788,4.78326 -73.54337,9.62419 -16.80362,-0.1873 -33.74089,0.70165 -50.47213,-0.98607 z m -93.05065,-10.49662 c -9.90768,-6.81325 -39.94812,-37.29275 -12.25035,-34.52563 20.99166,33.98985 37.65383,-12.04402 59.14832,-19.77738 21.70322,12.35334 -21.57099,34.5361 -28.68333,48.37825 -4.36454,5.03507 -11.52967,10.19962 -18.21464,5.92476 z m 94.39104,-21.33237 c -14.56407,-15.23892 9.55931,-15.36039 19.63951,-13.93853 57.85349,1.02056 115.87041,-0.31552 173.58491,3.03546 -2.52368,21.97261 -42.9279,6.11695 -60.99098,11.10333 -44.07491,0.0756 -88.16714,0.62861 -132.23344,-0.20026 z m 254.65813,-52.43856 c -5.26035,-1.05798 -4.4824,-30.41286 2.98487,-10.64871 5.72209,5.41616 5.29597,15.12507 -2.98487,10.64871 z M 477.67623,458.52733 c -3.47967,-23.81355 40.55269,-7.22496 56.45685,-11.76215 20.26092,4.62604 55.18326,-7.69046 66.19236,9.02146 -26.07952,6.82835 -56.49539,1.99874 -84.24764,3.97721 -12.72939,-0.44654 -25.93231,1.47965 -38.40157,-1.23652 z m -90.78388,-8.9329 c -11.96616,-5.99316 -42.31067,-42.6793 -11.34976,-32.6738 22.32993,36.35938 36.71254,-25.5519 62.31221,-19.36671 -5.19777,19.64678 -29.92429,47.8339 -50.96245,52.04056 z m 90.68343,-24.46244 c -2.06561,-20.61629 37.80143,-5.71653 52.60063,-9.80283 32.08746,0.41906 64.17475,0.94776 96.24982,1.95343 -0.39311,18.85942 -41.75045,4.00338 -57.328,9.29222 -29.79081,0.25563 -59.58195,0.4703 -89.37291,0.70672 l -1.08458,-1.08458 z m -0.73673,-83.64226 c 2.81245,-18.53396 40.81806,-6.68969 56.12159,-5.23616 14.79649,14.11449 -27.27349,4.67897 -35.8966,7.65451 -6.10694,-1.5144 -16.48033,3.24484 -20.22499,-2.41835 z m -89.91282,-7.45633 c -12.85348,-5.40968 -40.04446,-43.98234 -9.7739,-28.59615 19.06957,30.28341 35.91927,-27.05574 54.02728,-17.7453 -0.93102,14.49253 -27.45491,45.17447 -44.25338,46.34145 z m 91.07143,-24.62239 c -4.8973,-20.8566 60.448,5.69919 19.30129,1.77019 -6.39118,-0.27253 -13.18537,0.33427 -19.30129,-1.77019 z m -55.00714,-98.55198 c -17.1103,-1.69787 -19.80122,-38.78781 -1.95631,-14.28208 13.12677,2.10669 34.83259,21.03586 6.73179,14.94146 z"
         id="path670" /><path
         style="fill:#d7a8f9"
         d="m 335.07118,674.48253 c -33.60007,-7.30939 -45.07078,-43.02071 -40.95934,-73.40339 0.0967,-111.73405 -0.94796,-223.51573 1.96204,-335.21542 5.54266,-16.826 16.20733,18.15627 18.53859,26.76812 2.56199,112.26132 2.98359,224.56252 3.31376,336.8506 7.63969,22.78718 33.13411,25.13878 53.55146,23.13879 94.95888,0.13091 189.90847,1.71262 284.84425,3.07055 24.89157,-3.25794 62.17345,8.68314 71.57909,-23.47967 5.09213,-38.24908 1.94466,-77.48697 3.53425,-116.12451 -2.26451,-13.84859 1.67422,-25.48667 7.88813,-6.44787 17.68134,5.08244 9.21698,24.02784 7.10282,35.34271 0.67414,18.69382 1.61181,43.23049 4.03349,64.38895 4.49252,25.1082 -7.42935,52.26343 -31.98026,61.77555 -25.31821,6.58898 -52.42699,2.03006 -78.46481,3.66164 -100.71445,-0.0477 -201.46657,1.94315 -302.15733,0.11211 z m 143.22064,-101.0115 c -10.19878,-22.06743 34.57741,-9.60709 48.3309,-12.22743 11.75185,3.13716 51.46616,-6.21835 43.58384,11.15958 -30.51019,1.19286 -61.54611,4.50083 -91.91474,1.06785 z m -92.89963,-10.18558 c -9.90768,-6.81325 -39.94812,-37.29275 -12.25035,-34.52563 20.21497,32.79235 37.67782,-9.25422 57.88066,-19.36142 23.18683,9.5556 -18.4517,33.88945 -25.77806,46.18415 -4.99159,5.25549 -11.99089,12.66103 -19.85225,7.7029 z m 96.03404,-21.02932 c -18.67704,-19.84615 30.41003,-12.34077 42.58252,-13.12373 13.15522,3.73235 51.03213,-5.73763 48.09511,8.11505 -26.25168,8.47477 -57.32808,2.57878 -85.387,5.22751 z m 177.77686,-3.04358 c 0.49865,-24.08651 33.08894,7.98344 0,0 z m 75.23827,-49.69803 c -5.26035,-1.05798 -4.4824,-30.41286 2.98487,-10.64871 5.72209,5.41616 5.29597,15.12507 -2.98487,10.64871 z M 477.81469,457.86593 c -8.32043,-23.67951 59.14491,-5.00826 24.58686,0.50353 -8.14398,-0.0805 -16.63677,1.73657 -24.58686,-0.50353 z M 382.1439,445.73244 c -12.17765,-4.85423 -33.12508,-40.58836 -6.28038,-27.35818 15.78994,26.65795 29.67326,-6.07072 46.80275,-7.62712 3.76875,11.05126 -26.19375,50.21719 -40.52237,34.9853 z m -0.12767,-117.86898 c -15.85762,-19.38922 34.05477,-0.54055 7.69708,5.85682 l -3.37085,-1.92565 z"
         id="path668" /><path
         style="fill:#e89bf4"
         d="m 336.92623,674.43465 c -32.63496,-5.7915 -47.52719,-40.58081 -42.91584,-70.66236 0.40558,-68.20269 0.22995,-136.45784 2.86284,-204.61185 8.58679,9.25507 15.25566,26.96712 18.57542,41.53366 1.18479,63.2677 -0.3981,126.67485 3.22064,189.82867 3.93542,16.66659 21.80178,25.32624 37.77126,22.86669 115.26628,1.21249 230.61086,4.34234 345.84605,0.7615 31.30995,-2.64341 28.5099,-42.58207 28.34631,-65.81178 0.62704,-29.57185 0.0584,-61.99823 1.48486,-89.71484 5.00684,11.43822 25.4999,17.3395 16.77663,33.79923 -5.06895,18.68122 -0.93747,39.04066 0.26383,60.72411 5.23157,28.97804 1.73203,64.83564 -29.33276,77.8389 -38.61374,6.54846 -78.39325,2.05819 -117.46253,3.51151 -86.64803,-0.36271 -173.31596,1.12852 -259.94595,0.70527 l -5.49079,-0.76871 z m 142.5,-101.67747 c -8.13238,-20.68792 30.95239,-5.6298 36,-6.87075 8.75854,12.09531 -14.70706,1.42821 -22.5,7.60424 -4.48619,0.0331 -9.14009,0.84641 -13.5,-0.73349 z M 382.1439,559.73244 c -13.79839,-5.44084 -31.20059,-42.09834 -5.06088,-25.7417 16.01679,34.25966 42.27862,-31.53142 51.31916,-7.59047 -10.28254,10.9384 -27.80567,48.12269 -46.25828,33.33217 z m 96.28233,-20.75 c -7.77567,-19.23583 34.29248,3.63141 7.75,1.98635 l -4.95816,-0.41155 z m 180.77686,0.23011 c 0.49865,-24.08651 33.08894,7.98344 0,0 z m 75.23827,-49.69803 c -5.26035,-1.05798 -4.4824,-30.41286 2.98487,-10.64871 5.72209,5.41616 5.29597,15.12507 -2.98487,10.64871 z m -353.2371,-47.40923 c -22.44907,-22.24777 39.26155,6.75564 6.66643,6.05758 l -2.58058,-2.06507 -4.08584,-3.99251 z m 24.83732,-19.56286 c 9.56617,-11.9945 3.87822,6.2684 0,0 z"
         id="path666" /><path
         style="fill:#d89ef6"
         d="m 336.92623,674.438 c -32.63342,-5.79768 -47.52776,-40.58226 -42.91584,-70.66571 0.40558,-68.20269 0.22995,-136.45784 2.86284,-204.61185 8.58679,9.25507 15.25566,26.96712 18.57542,41.53366 1.18479,63.2677 -0.3981,126.67485 3.22064,189.82867 3.93388,16.66443 21.79645,25.32455 37.76369,22.86006 95.75902,1.95675 191.58735,1.18557 287.30942,3.76658 10.48877,5.60254 30.75267,21.10215 4.5863,16.86804 -101.98589,0.5146 -204.0046,1.28478 -305.97465,1.19064 L 336.9262,674.438 Z m 142.5,-101.68082 c -8.13238,-20.68792 30.95239,-5.6298 36,-6.87075 8.75854,12.09531 -14.70706,1.42821 -22.5,7.60424 -4.48619,0.0331 -9.14009,0.84641 -13.5,-0.73349 z M 382.1439,559.73244 c -13.79839,-5.44084 -31.20059,-42.09834 -5.06088,-25.7417 16.01679,34.25966 42.27862,-31.53142 51.31916,-7.59047 -10.28254,10.9384 -27.80567,48.12269 -46.25828,33.33217 z m 96.28233,-20.75 c -7.77567,-19.23583 34.29248,3.63141 7.75,1.98635 l -4.95816,-0.41155 z m -97.22197,-96.87715 c -22.44907,-22.24777 39.26155,6.75564 6.66643,6.05758 l -2.58058,-2.06507 -4.08584,-3.99251 z m 24.83732,-19.56286 c 9.56617,-11.9945 3.87822,6.2684 0,0 z"
         id="path664" /><path
         style="fill:#c7a7f9"
         d="m 336.92623,674.36325 c -32.66748,-5.65957 -47.51494,-40.54983 -42.91584,-70.59096 0.40558,-68.20269 0.22995,-136.45784 2.86284,-204.61185 8.58679,9.25507 15.25566,26.96712 18.57542,41.53366 1.18479,63.2677 -0.3981,126.67485 3.22064,189.82867 3.92297,16.64699 21.75857,25.32355 37.71034,22.7917 52.56417,1.17611 105.31798,-0.41042 157.71019,4.06359 25.69183,22.21964 -20.42353,15.90343 -34.45592,17.13732 -47.52354,-0.1888 -95.3112,3.26523 -142.70767,-0.15213 z m 142.5,-101.60607 c -8.13238,-20.68792 30.95239,-5.6298 36,-6.87075 8.75854,12.09531 -14.70706,1.42821 -22.5,7.60424 -4.48619,0.0331 -9.14009,0.84641 -13.5,-0.73349 z M 382.1439,559.73244 c -13.79839,-5.44084 -31.20059,-42.09834 -5.06088,-25.7417 16.01679,34.25966 42.27862,-31.53142 51.31916,-7.59047 -10.28254,10.9384 -27.80567,48.12269 -46.25828,33.33217 z m 96.28233,-20.75 c -7.77567,-19.23583 34.29248,3.63141 7.75,1.98635 l -4.95816,-0.41155 z m -97.22197,-96.87715 c -22.44907,-22.24777 39.26155,6.75564 6.66643,6.05758 l -2.58058,-2.06507 -4.08584,-3.99251 z"
         id="path662" /><path
         style="fill:#baabfa"
         d="m 338.92623,674.33392 c -34.33637,-4.19362 -49.42349,-41.15439 -44.35862,-72.02921 0.63221,-31.24238 -0.003,-62.57338 2.09508,-93.74489 11.52712,17.30009 16.14302,40.7008 18.6391,61.63682 1.67634,20.14906 0.11528,40.94993 2.34959,60.86036 7.38111,27.07638 38.29618,23.30582 60.3715,24.30134 17.24298,-2.45874 46.98025,5.14013 41.75461,18.14588 -26.90196,1.33327 -53.9396,2.10002 -80.85126,0.8297 z m 48.5,-111.63791 c -14.65513,-5.15511 -24.75741,-34.64426 -1.81377,-17.61729 17.36444,0.0108 22.45412,19.70967 1.81377,17.61729 z"
         id="path660" /></g></g></svg>
