<?xml version="1.0" encoding="UTF-8" standalone="no"?>
<!-- Created with Inkscape (http://www.inkscape.org/) -->

<svg
   width="525.07654"
   height="525.3432"
   viewBox="0 0 525.07653 525.34319"
   version="1.1"
   id="svg5"
   xml:space="preserve"
   xmlns:xlink="http://www.w3.org/1999/xlink"
   xmlns="http://www.w3.org/2000/svg"
   xmlns:svg="http://www.w3.org/2000/svg"><defs
     id="defs2"><color-profile
       name="DP"
       xlink:href="../../../../../.local/share/icc/edid-27fd61d80a4d3102d04ad05b2e686881.icc"
       id="color-profile942" /><color-profile
       name="DP"
       xlink:href="../../../../../.local/share/icc/edid-27fd61d80a4d3102d04ad05b2e686881.icc"
       id="color-profile944" /><color-profile
       name="DP"
       xlink:href="../../../../../.local/share/icc/edid-27fd61d80a4d3102d04ad05b2e686881.icc"
       id="color-profile946" /></defs><g
     id="layer1"
     transform="translate(31.984474,438.32056)"><g
       id="g808"
       transform="translate(-251.0599,-560.61215)"><path
         style="fill:#efd1fa"
         d="m 447.50927,646.13238 c -32.15591,-5.60848 -10.53618,-51.70289 -38.08855,-58.32663 -21.72041,-14.81121 -44.71334,-16.86935 -64.07971,3.03383 -27.08755,11.04445 -44.11667,-21.49673 -62.0588,-36.01513 -26.30262,-18.42342 -8.62586,-47.281 7.42204,-65.30378 -3.01258,-25.94068 -17.54242,-55.25869 -49.10226,-50.60676 -32.01762,-10.05338 -19.18544,-48.67751 -21.76915,-73.54353 -5.81896,-28.18929 23.09175,-38.60811 45.5956,-38.45796 16.61648,-4.01834 16.84826,-27.42524 25.22306,-40.78095 2.74096,-18.14524 -28.16914,-29.94194 -20.73709,-51.12543 10.85345,-23.92729 33.70978,-42.02819 54.44461,-57.62794 25.92148,-10.78515 44.21507,33.33816 69.1303,11.55431 30.84216,-3.79721 32.00322,-31.01748 38.60792,-55.15331 17.89343,-20.11896 49.33234,-6.91701 73.00297,-10.4802 39.08328,-5.64569 22.03926,45.71192 45.03446,57.37582 21.43426,10.84542 43.8457,22.23515 63.04432,1.06521 29.22595,-18.5936 50.45651,18.61229 68.87738,35.39565 32.20584,23.32984 -10.64457,49.47786 -8.28165,72.6205 5.44559,29.93238 24.73451,43.48295 53.88683,44.05947 25.55948,15.3544 13.02224,51.05595 15.80392,75.61512 3.25484,36.11916 -42.15546,23.88431 -56.68307,40.93509 -12.01456,21.53671 -21.12399,44.18324 1.6575,62.168 18.35154,25.10119 -13.3787,46.36264 -28.53387,62.59469 -18.00043,28.92916 -49.50951,15.2852 -70.49457,-1.31825 -16.9283,3.19359 -31.86322,13.04905 -48.00696,19.01016 -3.99549,20.92042 -3.77147,54.37702 -32.9941,54.1809 -20.22973,0.54309 -40.77462,1.43592 -60.90113,-0.86888 z m 57.4161,-28.99098 c 7.96952,-24.83703 7.32481,-55.99848 41.75844,-57.49765 23.43138,-12.48667 48.88188,-28.65352 70.22375,-3.07695 17.52006,17.56676 43.20462,-18.24803 44.87837,-33.12119 -19.0502,-17.81633 -29.81086,-42.00498 -9.34732,-63.87904 6.06216,-27.15962 19.64802,-50.83715 50.99706,-46.83747 16.19277,0.38447 12.75075,-15.88742 12.85002,-26.43659 9.46854,-29.39571 -18.14309,-32.3474 -40.02028,-33.86364 -19.94426,-15.01535 -21.84102,-47.22353 -35.34808,-68.78814 -4.17404,-21.748 41.79255,-37.75333 13.01975,-56.9119 -13.4951,-24.78393 -34.82515,-23.49497 -52.81931,-4.4572 -24.8455,13.21 -48.01489,-19.58406 -73.90562,-20.90309 -25.8597,-5.37688 -4.37969,-47.38176 -28.71293,-51.91301 -24.39221,-4.02659 -53.95378,-1.88541 -48.37474,30.82029 -3.1784,30.55865 -44.30579,25.50483 -63.77914,41.95282 -24.27658,20.76386 -47.90854,-38.28186 -67.80623,-4.98934 -23.3067,14.36613 -19.79154,35.38433 0.34694,51.10502 12.64172,23.91935 -17.48592,47.80808 -20.1186,73.01076 -9.65371,25.04502 -63.42785,1.92903 -51.36479,41.87574 2.32082,9.37769 -5.46989,25.5889 8.20006,27.99968 24.95992,0.41384 49.1901,7.76873 51.00108,36.90094 15.81349,24.23985 25.81258,52.55094 -2.7361,72.14997 -7.82602,16.6506 19.48999,36.86307 32.94388,41.45219 19.32061,-13.41272 41.5822,-31.05718 62.75228,-9.70687 21.59064,12.02605 57.10537,12.97354 52.50392,46.38067 -2.1839,16.7306 10.63049,23.33834 24.5612,20.19417 9.39692,-0.33892 19.17768,0.97936 28.29639,-1.46017 z M 464.28569,512.54931 c -64.02763,-8.0791 -117.9935,-69.50173 -112.45347,-134.79037 -0.60451,-73.90213 74.92038,-135.39336 147.1952,-123.46713 64.0457,8.20731 117.10871,69.29999 112.15452,134.42189 -0.39626,68.82832 -65.07569,127.79809 -133.369,124.59398 -4.51756,-0.008 -9.04219,-0.20407 -13.52725,-0.75837 z m 41.78018,-53.71418 c 49.00847,-13.82022 72.05884,-78.90088 42.42935,-120.35262 -25.72372,-41.54984 -90.48383,-49.05446 -123.80263,-12.6935 -37.89249,34.64476 -27.23724,103.26931 17.7766,126.82781 18.88725,11.57391 42.78624,12.08089 63.59668,6.21831 z m -30.91705,-39.22122 c -30.97294,-3.27448 -41.53094,-47.7012 -17.13117,-65.82087 22.34106,-20.38692 62.54732,-0.90556 60.81258,29.23592 0.0285,22.3401 -21.46427,40.9068 -43.68141,36.58495 z"
         id="path830" /><path
         style="fill:#f08eef"
         d="m 448.78569,645.20275 c -33.22866,-5.7852 -9.52524,-54.18862 -41.11503,-59.52415 -22.14479,-16.25436 -44.59813,-13.80032 -64.37983,4.68446 -29.26092,8.45763 -45.82294,-28.3687 -65.55523,-43.64291 -26.74779,-24.98145 22.30296,-45.30695 12.01642,-69.27321 -5.80323,-26.31965 -21.57272,-41.83774 -49.40037,-40.2375 -29.65136,-11.78322 -16.71532,-48.63743 -19.32125,-72.95943 -5.2082,-31.9394 30.13916,-33.80564 52.29916,-37.67677 10.32035,-20.51487 30.83272,-47.33871 6.04069,-65.74783 -25.36539,-28.09181 13.99308,-53.48119 31.76922,-71.8626 9.44742,-11.02025 28.2356,-15.95822 39.48634,-5.20669 17.88437,20.31136 39.5143,11.19681 59.3748,-0.11386 29.42006,-6.51897 6.29705,-58.49763 42.01685,-58.51448 25.21564,2.58469 59.3254,-9.58046 77.83786,12.22952 3.31713,25.94673 9.74973,49.78913 39.72638,53.81207 25.84739,23.1824 45.82277,-25.93551 73.04074,-9.21634 18.89797,19.09615 56.55631,39.66484 46.47134,70.65687 -16.63853,17.70339 -24.22281,37.50982 -7.87845,58.49167 3.79651,33.44346 53.03032,9.14702 59.22818,41.19026 -1.11114,25.76199 9.08653,57.05976 -7.48394,78.9702 -21.80899,10.84659 -53.53716,5.79237 -56.06057,38.3625 -23.22847,26.09016 30.32527,44.28071 11.85459,72.68724 -19.48534,17.50952 -36.78463,53.64809 -66.80087,48.34023 -19.74886,-13.91704 -40.77186,-25.2985 -62.41273,-7.18221 -35.10092,2.8515 -12.41536,47.5406 -39.28229,59.58148 -22.8671,6.06624 -48.00681,3.42291 -71.47201,2.15148 z m 56.07969,-26.48665 c 12.74241,-19.86189 3.42414,-55.81313 37.99197,-55.62385 20.55141,-3.17192 40.1766,-31.31866 60.21609,-13.73528 16.29489,17.92264 36.4498,18.23438 48.5984,-3.96025 34.75177,-20.03798 -16.4542,-38.73318 -8.84858,-62.67957 14.67002,-19.28985 13.83089,-52.05894 34.7866,-64.18426 24.45075,1.22119 49.04673,-9.27292 40.67457,-38.13131 2.40637,-13.66061 -1.4379,-28.35162 -19.42725,-26.0783 -32.57751,5.51163 -36.08047,-26.6805 -46.36833,-48.721 -20.46802,-22.72675 -1.33559,-43.8252 13.37625,-62.18654 -7.09899,-20.2756 -35.20349,-55.28285 -56.68461,-28.69588 -21.44392,24.3348 -45.21937,-5.84737 -68.36538,-10.59991 -38.72987,2.00705 -15.20377,-48.45116 -41.84829,-56.78724 -24.48904,-3.94884 -55.72703,-1.62033 -50.40816,31.12505 -0.50779,30.69575 -41.30233,24.69908 -59.60345,40.63473 -24.10363,24.17579 -45.26224,-32.10017 -66.63193,-7.80261 -16.81458,14.01638 -36.00699,34.46665 -10.00182,51.14932 24.4612,22.93311 -12.55863,50.47536 -14.04943,76.36204 -5.16245,24.69854 -41.90302,6.76049 -52.07305,25.23594 0.19557,14.50766 0.39114,29.01532 0.58671,43.52298 13.43499,14.64052 43.94418,0.22497 51.80732,21.59942 1.40221,26.31109 38.38212,52.62102 15.51655,76.60234 -28.34317,18.5268 -3.52658,41.18473 14.53595,55.22536 20.50873,8.86424 40.67472,-36.12614 63.42576,-11.04577 16.40933,13.9213 47.54646,10.68586 55.99097,31.36633 4.10624,12.63219 -0.53014,41.80445 19.70747,39.2923 12.30382,-0.61165 25.26277,1.67479 37.09567,-1.88404 z M 467.8102,511.57169 C 400.78385,505.57745 345.40863,439.9861 353.01439,372.63178 c 3.73059,-75.18307 85.46843,-134.3606 158.1451,-113.76009 59.47499,13.23854 104.65307,73.0105 98.14664,134.07056 -2.88255,70.75617 -71.97453,126.53596 -141.49593,118.62944 z m 29.40263,-48.45479 c 45.79045,-8.03001 76.16405,-58.91034 63.22243,-103.23159 -11.13386,-38.15993 -51.64506,-64.79229 -91.17832,-58.31667 -48.40906,5.10048 -82.0912,60.19235 -65.32751,105.82723 12.50706,38.65251 52.85385,64.53662 93.2834,55.72103 z m -29.62514,-46.61793 c -25.8642,-9.62795 -30.10932,-49.46359 -5.96708,-63.55603 22.65803,-16.84321 58.60822,3.55701 55.61251,31.65721 -0.38423,24.58514 -27.22125,40.77702 -49.64543,31.89882 z"
         id="path828" /><path
         style="fill:#d586f4"
         d="m 448.78569,645.20275 c -33.22866,-5.7852 -9.52524,-54.18862 -41.11503,-59.52415 -22.14479,-16.25436 -44.59813,-13.80032 -64.37983,4.68446 -29.26092,8.45763 -45.82294,-28.3687 -65.55523,-43.64291 -26.74779,-24.98145 22.30296,-45.30695 12.01642,-69.27321 -5.80323,-26.31965 -21.57272,-41.83774 -49.40037,-40.2375 -29.65136,-11.78322 -16.71532,-48.63743 -19.32125,-72.95943 -5.19746,-31.83105 29.92436,-33.84956 52.08337,-37.55643 10.0562,-20.03602 31.14131,-46.76419 6.89983,-65.00346 -21.66494,-19.98578 -0.44491,-45.06998 16.57098,-58.78351 15.34631,-21.18859 43.59518,-34.89419 64.41947,-11.94183 17.8603,17.43516 38.31709,-5.39229 56.82719,-10.27523 13.14791,-4.37996 6.91646,-24.6417 14.53563,-33.78484 15.82621,8.62652 22.92905,34.32043 7.74853,50.25918 -25.17701,5.25958 -48.07096,27.54885 -72.92668,26.51377 -19.4558,-18.65841 -44.53847,-26.6907 -58.75605,2.27586 -30.14213,19.73273 19.21565,36.74084 12.1414,58.96199 -17.11976,20.40393 -11.6675,64.42089 -42.39791,68.02086 -13.34522,1.81191 -37.72608,1.88562 -31.83726,21.48006 0.87316,11.23909 -1.12224,23.68974 1.49576,34.19188 15.04003,13.13409 48.73882,-0.99443 52.4399,25.64552 3.29935,25.39116 38.41894,52.5743 11.00992,75.00326 -27.06398,19.00764 4.86145,40.18244 19.92445,53.69474 20.65782,-0.73668 41.18119,-36.0341 63.66734,-11.51953 16.47903,14.25301 52.29968,9.05465 54.1844,35.5761 2.18265,12.37766 1.35285,37.68318 20.19192,33.59145 15.98531,-0.90873 43.1851,6.16551 42.41779,-17.99854 -5.15456,-33.61361 26.82996,-37.07159 50.12583,-47.48433 20.46289,-19.23285 42.56454,-8.78201 61.16465,7.11211 16.74457,5.47535 33.72761,-21.9436 42.16635,-35.20459 -13.74456,-19.55449 -35.68079,-40.91275 -12.40865,-63.70879 8.62488,-23.67031 15.46476,-52.27082 47.32252,-46.32107 15.7018,-9.79177 27.53996,-4.51822 34.03747,10.47432 -19.97339,16.14502 -56.11247,7.13025 -57.76072,42.83073 -22.25941,26.31838 31.02994,44.07488 12.4122,72.05201 -19.48532,17.49148 -36.77571,53.61149 -66.77731,48.30004 -19.74886,-13.91704 -40.77186,-25.2985 -62.41273,-7.18221 -35.10092,2.8515 -12.41536,47.5406 -39.28229,59.58148 -22.86702,6.06643 -48.00732,3.42254 -71.47201,2.15174 z M 467.8102,511.57169 C 400.78385,505.57745 345.40863,439.9861 353.01439,372.63178 c 3.45498,-73.14002 81.2378,-131.09174 152.37264,-113.70424 21.5192,4.61384 42.18968,14.20224 57.39203,29.65246 -0.82855,10.60233 20.17765,15.30664 24.79081,25.85471 11.74676,20.94303 22.5741,43.68142 21.24587,68.78091 3.96468,74.76587 -68.08681,136.76105 -141.00554,128.35607 z m 34.9558,-49.41463 c 49.22083,-12.32403 76.67248,-74.67733 51.12282,-118.8926 -21.81194,-41.90406 -81.3125,-56.57011 -119.3382,-28.05217 -38.22892,25.24671 -46.1596,83.41561 -16.40116,118.20703 19.29609,26.77301 53.32372,36.04469 84.61654,28.73774 z m -35.17831,-45.65809 c -27.60833,-10.09177 -30.07061,-54.49596 -1.802,-65.58482 21.95401,-11.06733 53.55797,6.50083 50.99923,32.18742 2.14284,25.17332 -26.83454,42.53009 -49.19723,33.3974 z M 580.01486,307.9974 c -3.68154,-1.13412 -1.83703,1.74158 0,0 z m 109.27083,43.61126 c -17.41437,7.55028 -30.00847,-26.55557 -23.56435,-25.87172 5.59125,5.56343 9.76348,6.94383 13.22788,14.80127 5.25327,-3.26383 27.1472,16.22947 10.33647,11.07045 z"
         id="path826" /><path
         style="fill:#b48ff6"
         d="m 448.78569,645.20275 c -33.22866,-5.7852 -9.52524,-54.18862 -41.11503,-59.52415 -22.14479,-16.25436 -44.59813,-13.80032 -64.37983,4.68446 -29.26092,8.45763 -45.82294,-28.3687 -65.55523,-43.64291 -26.74779,-24.98145 22.30296,-45.30695 12.01642,-69.27321 -5.80323,-26.31965 -21.57272,-41.83774 -49.40037,-40.2375 -28.55982,-10.91204 -17.25748,-45.70175 -19.43636,-69.0652 -7.36775,-34.46878 28.72093,-37.43934 52.48898,-41.19207 9.24862,-20.67669 32.59881,-46.51045 7.45218,-64.91193 -24.90852,-24.44906 7.74758,-50.07877 24.95717,-66.42676 20.24941,-29.65609 47.69387,-6.99689 69.97207,4.36276 13.27268,0.35595 40.97305,-25.78399 46.96698,-13.64839 2.57379,5.02801 4.78594,4.52931 6.03302,11.19604 -1.72561,1.55058 -20.20105,2.29635 -16.63771,7.8725 -22.70098,14.26059 -47.19617,27.11181 -67.53163,1.41931 -20.95674,-13.08575 -43.58831,22.5564 -47.1377,38.50394 17.49672,17.64346 31.92244,39.18049 12.41781,61.73939 -9.1302,19.40291 -9.75496,51.06818 -39.04202,47.0343 -15.49129,-1.0559 -29.63317,6.7709 -24.47557,23.2886 0.84628,10.25632 -1.14453,21.7109 1.45578,31.22638 19.46609,12.55958 55.91313,1.09966 55.89937,35.64701 12.71359,24.91317 30.35696,53.46411 0.34724,73.89902 -13.23479,18.26294 19.50261,38.55025 32.20942,45.66984 18.87692,-12.50699 40.38416,-31.34241 61.24081,-10.77466 17.73376,13.51956 54.47871,9.70813 52.35827,39.47911 -4.93161,33.3389 36.89661,35.34046 57.69388,23.82514 7.52325,-21.12357 2.35236,-52.17499 33.90362,-51.8565 24.11061,-6.76107 49.32608,-34.95956 71.21784,-7.5438 21.26888,23.32897 42.75731,-13.68443 53.44095,-29.87951 -12.24787,-19.46576 -36.18006,-40.14635 -12.81446,-62.69718 6.40017,-15.90824 20.97884,-61.54771 29.7611,-24.37168 -8.54756,2.64707 -1.93176,32.28431 -13.60202,42.8673 1.57194,20.74632 36.60194,42.82303 13.55165,65.06799 -17.01672,15.6512 -30.99644,44.31049 -56.90359,43.90881 -21.93015,-11.88971 -43.30323,-28.51396 -66.59874,-8.37941 -35.10092,2.8515 -12.41536,47.5406 -39.28229,59.58148 -22.8671,6.06624 -48.00681,3.42291 -71.47201,2.15148 z M 418.03616,194.85157 c -4.22254,-5.38772 -5.22122,5.80216 0,0 z m 49.77404,316.67739 c -66.81729,-5.87778 -121.88544,-71.04449 -114.95501,-138.12037 2.90982,-52.9393 45.46779,-100.40667 96.85448,-111.29041 9.61645,3.55322 7.74405,-3.49364 12.57602,11.643 7.16327,13.64735 38.53229,15.7115 38.69902,26.61313 -46.24429,-11.249 -97.20315,24.02139 -100.90618,71.80043 -5.95115,48.24349 36.07906,97.55076 85.90598,93.32397 49.45149,-0.85479 86.72886,-52.53906 78.20373,-99.99352 13.04542,-8.82426 19.30472,22.8381 26.82,31.11639 5.88657,13.5909 11.27114,-3.37824 14.07942,12.99378 -11.15239,62.62161 -73.93225,109.69691 -137.27746,101.9136 z M 450.57544,265.60157 c -3.20879,-7.3906 -5.84973,6.35041 0,0 z m 17.01225,150.8974 c -26.82315,-9.71107 -30.64132,-53.45107 -2.74344,-64.46985 23.407,-12.56009 55.70861,7.40587 51.67966,34.51061 -1.25999,24.46227 -26.84449,38.1767 -48.93622,29.95924 z m 94.85589,-59.8974 c 0.74983,-5.5286 0.74983,5.5286 0,0 z m -11.52172,-22.50574 c 0.82301,-4.85462 2.92757,3.79942 0,0 z m -43.63617,-32.49426 c 6.14431,-3.81611 4.83692,2.86208 0,0 z m -36,-42.78189 c 5.74993,-3.42535 4.60885,1.84245 0,0 z"
         id="path824" /><path
         style="fill:#ca79f6"
         d="m 449.0072,644.14206 c -32.33672,-5.27112 -9.28286,-52.84854 -38.96158,-58.67022 -21.40654,-13.39684 -44.01715,-19.35957 -63.02124,1.69865 -28.66085,15.171 -48.49148,-24.01135 -67.24369,-39.68336 -23.40828,-21.46091 8.63512,-42.92721 13.98784,-62.74071 -8.9981,-22.023 -15.00479,-51.7088 -45.68494,-47.17257 -35.77632,-3.6027 -24.72826,-46.2448 -26.09691,-70.83995 -7.61485,-37.47206 36.26191,-30.45632 54.93384,-43.11047 2.77813,-16.80033 26.86243,-35.70913 12.24533,-51.72756 -21.14832,-17.71098 -21.98059,-47.19949 2.62274,-62.47316 15.12276,-17.10846 41.46955,-43.85957 63.04341,-19.48551 21.00156,25.42964 48.8643,-10.69732 68.63955,-5.55016 -1.35522,8.65953 5.46341,4.36951 4.56414,12.28482 5.26488,3.01737 -22.20714,2.4793 -13.86633,7.50029 -22.11989,12.19156 -46.94082,30.83879 -66.96349,4.28754 -22.32037,-18.02684 -40.64903,18.74843 -50.78731,33.62382 11.62332,19.19181 36.82802,37.85651 14.62645,60.72989 -10.87145,22.12802 -12.73108,56.19631 -46.10301,50.91397 -30.33083,-1.25353 -21.4078,43.12644 -13.88938,59.24891 21.42031,5.31449 51.01198,1.03132 51.67041,31.58597 9.28567,23.00157 31.85621,50.00798 3.43631,69.17952 -21.62882,20.02389 14.35369,40.47247 28.52639,51.85865 19.30106,-9.25608 39.68774,-34.02448 60.52744,-12.54826 16.5453,13.3798 49.90158,9.28569 52.61194,34.4574 2.31645,13.13695 1.86351,38.14737 21.33358,34.15777 18.96456,2.25674 46.93576,3.61029 44.32821,-23.5214 -4.34539,-28.95446 24.47539,-31.08572 44.36062,-40.06608 22.47467,-19.7713 45.94474,-12.57617 65.94216,6.29373 17.68787,2.42468 35.66609,-24.42036 42.14533,-39.016 -14.08384,-18.06389 -34.90763,-39.26353 -12.60342,-60.9808 6.40017,-15.90824 20.97884,-61.54771 29.7611,-24.37168 -8.54756,2.64707 -1.93176,32.28431 -13.60202,42.8673 4.16109,21.81477 39.04629,49.0893 8.36292,70.19429 -17.89663,19.98748 -45.96576,54.59531 -72.96805,26.25053 -20.2335,-18.30021 -53.11082,3.3453 -67.02619,18.33307 2.13724,29.75794 -17.6758,55.7307 -49.56189,47.61096 -13.07311,-0.23116 -26.32813,0.92071 -39.29026,-1.11919 z M 418.03616,194.85157 c -4.22254,-5.38772 -5.22122,5.80216 0,0 z m 41.74953,314.67528 c -62.73118,-10.29547 -112.4776,-71.9652 -105.69094,-135.8589 2.64725,-52.72533 43.7765,-101.18435 95.61492,-111.54977 9.61645,3.55322 7.74405,-3.49364 12.57602,11.643 7.16327,13.64735 38.53229,15.7115 38.69902,26.61313 -46.1511,-11.01435 -96.44665,23.30511 -101.70929,70.57309 -8.37787,52.62349 43.49184,105.48228 96.51525,93.6458 45.96737,-7.12623 76.5125,-56.16551 68.26438,-100.89564 20.28787,-1.65492 16.81441,31.41152 33.73779,38.20578 -5.03238,0.71959 15.05012,-2.4814 6.38102,12.63847 -12.60699,57.74369 -70.74403,100.18985 -129.46862,95.91587 -4.97921,-0.10948 -9.98402,-0.18391 -14.91955,-0.93083 z m -9.21025,-243.92528 c -3.20879,-7.3906 -5.84973,6.35041 0,0 z m 17.1639,150.01048 c -26.27037,-10.19834 -28.77572,-51.67385 -2.67019,-63.69296 22.50861,-11.75402 53.4422,5.76138 51.32502,32.00772 -0.51993,24.62291 -26.01696,39.99807 -48.65483,31.68524 z m 94.70424,-59.01048 c 0.74983,-5.5286 0.74983,5.5286 0,0 z m -11.52172,-22.50574 c 0.82301,-4.85462 2.92757,3.79942 0,0 z m -43.63617,-32.49426 c 6.14431,-3.81611 4.83692,2.86208 0,0 z m -36,-42.78189 c 5.74993,-3.42535 4.60885,1.84245 0,0 z"
         id="path822" /><path
         style="fill:#b06cf9"
         d="m 449.0072,644.14206 c -32.33672,-5.27112 -9.28286,-52.84854 -38.96158,-58.67022 -21.40654,-13.39684 -44.01715,-19.35957 -63.02124,1.69865 -28.66085,15.171 -48.49148,-24.01135 -67.24369,-39.68336 -23.40828,-21.46091 8.63512,-42.92721 13.98784,-62.74071 -8.9981,-22.023 -15.00479,-51.7088 -45.68494,-47.17257 -35.74014,-3.58885 -24.74739,-46.17136 -26.09608,-70.74829 -6.54823,-33.13871 29.45158,-35.27802 52.11818,-39.12766 6.72612,-18.21186 30.92908,-42.07524 12.51527,-59.87365 -23.57306,-17.95658 -11.97871,-46.42136 8.72442,-60.45301 12.99321,-13.88719 4.78842,-2.25041 3.94031,3.73033 12.74506,-8.9474 -9.64732,9.76251 2.98341,15.78594 -8.68117,10.14879 -15.03456,24.24919 0.12282,33.67673 20.45361,13.4764 15.20849,35.97169 2.70647,55.64471 -3.76612,25.25471 -19.2375,40.6363 -45.71305,38.50395 -24.03986,3.7037 -15.0631,43.62653 -8.33272,58.26338 21.42031,5.31449 51.01198,1.03132 51.67041,31.58597 9.28567,23.00157 31.85621,50.00798 3.43631,69.17952 -21.62882,20.02389 14.35369,40.47247 28.52639,51.85865 19.30106,-9.25608 39.68774,-34.02448 60.52744,-12.54826 16.5453,13.3798 49.90158,9.28569 52.61194,34.4574 2.31645,13.13695 1.86351,38.14737 21.33358,34.15777 18.96456,2.25674 46.93576,3.61029 44.32821,-23.5214 -4.46909,-31.61759 29.50059,-30.9396 49.97235,-42.3598 21.59309,-20.28665 43.6384,-3.57663 62.67668,10.55737 16.09077,-7.64573 53.65044,-31.37763 33.83976,-52.53345 12.60838,2.75693 16.31175,21.16263 26.7598,27.40086 -17.09893,18.06898 -32.7499,47.11957 -59.85295,49.28753 -22.07384,-9.85754 -43.3854,-30.50659 -66.84919,-8.59712 -36.94486,2.36449 -13.26713,50.37653 -42.30271,60.92025 -22.23841,4.24463 -46.10038,2.74042 -68.72344,1.32049 z M 279.28569,230.60157 c -2.55494,-3.58745 -2.55494,3.58745 0,0 z m 180.5,278.92528 c -62.73118,-10.29547 -112.4776,-71.9652 -105.69094,-135.8589 1.92824,-30.89343 16.49507,-63.60634 42.05334,-81.31073 3.57141,9.10696 2.35865,7.87892 5.52736,12.06597 -8.55577,13.83232 37.44488,11.45694 11.97805,29.10971 -30.3941,39.69377 -12.41114,101.78145 31.14647,123.81781 35.70643,19.23521 83.69818,6.13677 106.05631,-27.28075 0.89777,0.0531 14.77623,18.08961 10.47122,27.53161 6.82177,6.69454 27.9698,-2.08518 11.69275,12.98275 -28.31769,31.54 -71.82011,44.76562 -113.23456,38.94253 z m 197.5,0.0157 c 1.65579,-2.23419 2.50033,3.42425 0,0 z m -103,-84.31854 c 3.97866,-6.41913 4.25055,2.27272 0,0 z m -86.54635,-9.61196 c -26.91619,-10.19891 -28.94929,-54.30868 -0.57783,-63.99733 23.27819,-10.5586 53.9295,10.13343 48.52937,36.39315 -2.32573,22.90499 -27.13709,35.08396 -47.95154,27.60418 z M 310.8284,270.67067 c 0.57217,-5.25087 2.83042,3.32578 0,0 z m -7.54271,-49.5691 c 5.57711,-8.30134 5.01383,9.00474 0,0 z"
         id="path820" /><path
         style="fill:#8c54fa"
         d="m 456.78569,644.61959 c -37.59287,2.53489 -18.58499,-47.55052 -42.54296,-57.92773 -21.4195,-10.94235 -45.75037,-24.30782 -64.60569,-1.35236 -25.1818,18.92011 -44.61626,-15.2318 -61.33992,-29.67199 -31.81861,-19.48056 -6.27404,-49.05465 6.23312,-70.22786 -9.38479,-22.55288 -15.09846,-52.88523 -46.54315,-48.33779 -33.29668,-2.83106 -25.11659,-42.56805 -25.33546,-65.44737 -7.44185,-30.80562 22.07287,-40.98214 46.88162,-41.3151 15.25092,-16.32786 40.63828,17.67745 12.24843,20.08113 -21.95109,-0.74993 -44.6313,8.06398 -37.47403,33.89893 -10.41605,36.06327 29.52999,30.48266 49.81663,40.22653 3.36554,26.2411 36.90474,52.19374 21.14392,77.31806 -20.7981,14.97428 -20.53517,37.62393 1.91618,50.80736 18.16933,31.42736 38.90806,-9.83526 61.49118,-7.58251 20.54156,14.63573 49.24438,17.78541 67.04395,33.98127 0.90449,23.89437 8.05575,52.88798 38.75388,43.73581 34.25923,9.52189 26.59459,-32.14835 36.95487,-49.9874 10.66479,-1.32031 34.7048,-14.81073 37.92648,-10.03191 -2.35896,7.64717 14.85698,15.55389 -3.57929,19.93328 -30.92741,4.13436 -12.66816,43.17744 -33.15018,57.1046 -20.3515,9.26703 -44.10751,4.66963 -65.83958,4.79505 z m 9.38266,-135.00497 c -68.7605,-6.46299 -124.06527,-77.56631 -109.55294,-145.93535 5.71729,-19.63774 10.29739,32.63762 29.11928,27.13207 22.15013,4.55048 16.63919,37.59571 35.42973,49.88282 15.92568,18.04208 40.27562,24.43031 59.37629,34.90901 11.6783,9.78442 23.36014,19.31417 31.98587,29.15751 -14.60828,5.53384 -30.93165,5.86615 -46.35823,4.85394 z m 2.64217,-93.73889 c -28.36715,-9.71458 -30.01713,-55.72851 -0.0845,-64.42295 25.30943,-10.35246 54.71336,15.07849 45.87705,41.58488 -5.62146,19.22189 -27.16054,29.08575 -45.79255,22.83807 z"
         id="path818" /><path
         style="fill:#7a4afa"
         d="m 461.78569,643.64274 c -30.43279,4.77336 -35.39054,-30.42864 -35.18141,-52.69309 17.41881,11.78153 27.15616,40.54928 54.47195,33.69631 14.09355,-2.90662 33.12726,8.35621 36.38952,16.3625 -17.86467,5.55383 -37.26777,2.66679 -55.68006,2.63428 z m -137.5,-55.60609 c -18.57747,-16.11686 -41.71035,-32.81653 -51.27703,-55.59815 -5.82866,-20.29342 32.34695,-38.6831 21.09671,-53.71826 -8.43285,-25.29 -20.05249,-46.52898 -50.38989,-43.23248 -20.91899,1.33033 -28.31346,-45.3516 -13.91409,-43.79943 10.14545,8.42401 16.38432,27.71901 29.27583,26.9701 3.44636,7.31391 20.76418,12.26155 21.18103,22.45456 11.70493,5.4356 12.163,27.59665 21.96408,38.48858 18.05199,16.14851 3.02632,33.51558 -7.43297,45.00709 9.16485,16.85925 32.7466,55.7356 54.29029,34.92939 13.56445,-15.95957 18.33564,11.47199 35.08127,1.52083 7.74335,-1.81888 15.73281,6.02314 21.61469,10.52638 17.7552,-2.9632 28.55742,25.59412 5.66515,12.62083 -20.58162,-11.02361 -44.08931,-21.75508 -61.86399,0.18823 -7.32443,5.09982 -16.91562,8.55082 -25.29108,3.64233 z m 102.67791,-2.83206 c 4.16931,-7.62118 5.25293,4.54261 0,0 z m 0.32209,-13.60302 c 2.55494,-3.58745 2.55494,3.58745 0,0 z m 13.75,-68.69219 c -36.76228,-12.71955 -68.04222,-42.84007 -79.59249,-80.5437 13.56067,13.26078 33.85868,28.83079 47.63245,45.46219 11.70625,10.70359 33.95653,29.37665 35.04183,35.15484 l -3.08179,-0.0733 z m -131.75,-22.30781 c 2.55494,-3.58745 2.55494,3.58745 0,0 z m 159.52483,-64.72584 c -28.36715,-9.71458 -30.01713,-55.72851 -0.0845,-64.42295 25.30943,-10.35246 54.71336,15.07849 45.87705,41.58488 -5.62146,19.22189 -27.16054,29.08575 -45.79255,22.83807 z"
         id="path816" /><path
         style="fill:#9942bc"
         d="m 468.81052,415.87573 c -28.36715,-9.71458 -30.01713,-55.72851 -0.0845,-64.42295 25.30943,-10.35246 54.71336,15.07849 45.87705,41.58488 -5.62146,19.22189 -27.16054,29.08575 -45.79255,22.83807 z"
         id="path814" /><path
         style="fill:#893db7"
         d="m 468.15381,415.08074 c -25.32628,-6.65904 -29.407,-57.08926 -1.15998,-56.71282 17.78612,7.78068 27.42969,29.66902 40.95581,40.78186 2.61824,13.73074 -27.00379,21.17236 -39.79583,15.93096 z"
         id="path812" /><path
         style="fill:#7438b7"
         d="m 468.82565,414.88001 c -20.15943,-2.7449 -27.9611,-43.21094 -13.85123,-45.903 14.98679,12.07914 31.16544,29.13091 40.59853,43.79425 -7.84891,5.03924 -18.10286,4.34131 -26.7473,2.10875 z m 27.46004,-6.27844 c 2.55494,-3.58745 2.55494,3.58745 0,0 z"
         id="path810" /></g></g></svg>
