<?xml version="1.0" encoding="UTF-8" standalone="no"?>
<!-- Created with Inkscape (http://www.inkscape.org/) -->

<svg
   width="774.0498"
   height="917.03412"
   viewBox="0 0 774.04979 917.0341"
   version="1.1"
   id="svg5"
   xml:space="preserve"
   xmlns:xlink="http://www.w3.org/1999/xlink"
   xmlns="http://www.w3.org/2000/svg"
   xmlns:svg="http://www.w3.org/2000/svg"><defs
     id="defs2"><color-profile
       name="DP"
       xlink:href="../../../../../.local/share/icc/edid-27fd61d80a4d3102d04ad05b2e686881.icc"
       id="color-profile1096" /><color-profile
       name="DP"
       xlink:href="../../../../../.local/share/icc/edid-27fd61d80a4d3102d04ad05b2e686881.icc"
       id="color-profile1098" /><color-profile
       name="DP"
       xlink:href="../../../../../.local/share/icc/edid-27fd61d80a4d3102d04ad05b2e686881.icc"
       id="color-profile1100" /><color-profile
       name="DP"
       xlink:href="../../../../../.local/share/icc/edid-27fd61d80a4d3102d04ad05b2e686881.icc"
       id="color-profile1102" /></defs><g
     id="layer1"
     transform="translate(96.039527,550.48032)"><g
       id="g194"
       transform="translate(-204.79118,-608.80396)"><path
         style="fill:#ea4acf;stroke-width:0.48"
         d="m 403.11926,975.35777 c 1.59479,-52.97546 7.81096,-105.94147 7.28071,-158.89473 C 252.02532,794.69084 122.91027,653.13431 110.38342,494.63999 92.698248,308.59368 221.06699,116.64025 403.91998,70.530709 505.70965,44.28854 620.15894,59.954248 706.70629,121.43308 836.02794,204.38786 902.48044,367.67129 877.6686,517.91999 861.48835,635.28369 787.72584,738.30594 691.25548,804.49066 601.67571,869.74194 502.99916,920.94808 406.31998,974.65107 l -3.20073,0.7067 z M 495.80485,811.40614 C 590.31507,750.83208 689.78149,680.07757 732.72992,571.91999 775.05273,468.10451 751.36423,338.48832 664.96325,264.08648 584.20853,190.69423 455.16233,177.17877 362.93184,236.96209 248.8553,302.85683 205.16339,463.29186 270.80237,577.43995 c 51.5959,96.19266 168.37234,150.00144 275.10503,127.511 -11.34493,35.47403 -37.94053,71.43763 -52.84844,107.21778 l 2.74589,-0.76263 z"
         id="path224" /><path
         style="fill:#a855ee;stroke-width:0.48"
         d="m 403.11926,975.35777 c 1.59479,-52.97546 7.81096,-105.94147 7.28071,-158.89473 C 252.02532,794.69084 122.91027,653.13431 110.38342,494.63999 92.53666,307.30261 222.99732,113.73297 407.87998,69.638701 480.82154,52.334127 558.71366,56.984547 629.62144,81.286232 c -40.55855,0.463402 -85.27419,6.251187 -118.80772,29.317838 8.00494,6.95095 11.21183,18.85165 21.97364,24.27593 12.09978,13.48437 28.74832,18.00044 39.85262,32.80934 10.77398,6.20327 20.3278,13.24138 30.64934,16.63066 11.22352,11.21284 17.35347,10.69525 28.39066,19.75395 16.35889,11.63051 33.19157,21.84696 46.70934,36.48945 15.10289,4.83295 24.79457,15.97091 34.89066,27.25741 10.92874,4.83823 15.4259,20.22872 29.56108,23.87741 13.16499,16.21526 27.18878,26.37974 45.19891,35.57516 4.93589,3.41656 19.16628,19.41193 29.4,17.223 10.78429,1.9068 12.76749,15.88772 22.60311,16.79473 6.25573,22.5413 -19.31377,56.84889 8.6736,66.17123 8.82057,7.45753 19.19233,27.11945 30.30633,21.29591 6.46059,5.62156 -0.72915,69.10794 -6.86745,95.32174 -21.18735,107.43835 -92.22428,198.83821 -180.90008,260.41067 -89.57977,65.25128 -188.25632,116.45742 -284.9355,170.16041 l -3.20073,0.7067 z M 495.80485,811.40614 C 590.31507,750.83208 689.78149,680.07757 732.72992,571.91999 770.4007,477.43467 756.85803,361.9928 687.58854,285.29699 611.69489,196.85586 472.65254,171.71439 371.93617,231.75308 262.32698,289.5216 211.11132,432.47132 256.45695,547.12395 c 41.49558,110.99936 166.84838,181.39222 283.25408,158.7098 11.70034,14.47135 -28.11343,61.30978 -37.6836,87.12623 1.01164,2.44272 -16.22166,21.64067 -6.22258,18.44616 z"
         id="path222" /><path
         style="fill:#cf39c8;stroke-width:0.48"
         d="m 404.15999,974.26107 c 29.62814,-53.43681 56.81619,-109.27075 88.1496,-161.20454 82.96337,-48.96806 163.44099,-109.57228 216.77956,-191.32211 60.76236,-97.91578 61.64461,-233.57218 -12.11129,-325.10647 -74.92257,-98.59467 -225.68165,-129.1604 -331.16991,-62.41356 -103.56271,59.0517 -152.94202,194.45233 -112.34626,306.34292 38.5077,113.67073 164.57427,188.31089 282.85377,166.51591 22.17835,0.68589 -19.71779,46.35023 -22.93584,63.16337 -9.12932,30.68689 -24.50935,22.68714 -32.03131,-0.78254 -22.57591,-9.59206 -49.095,36.76616 -74.05438,45.39176 C 252.92868,792.71105 126.97566,656.25613 111.59345,501.97049 90.554605,316.98557 214.93612,124.40831 395.14663,73.481067 471.5211,51.220825 554.59581,55.837026 629.62148,81.286232 c -40.55855,0.463402 -85.27419,6.251187 -118.80772,29.317838 8.00494,6.95095 11.21183,18.85165 21.97364,24.27593 12.09978,13.48437 28.74832,18.00044 39.85262,32.80934 10.77398,6.20327 20.3278,13.24138 30.64934,16.63066 11.22352,11.21284 17.35347,10.69525 28.39066,19.75395 16.35889,11.63051 33.19157,21.84696 46.70934,36.48945 15.10289,4.83295 24.79457,15.97091 34.89066,27.25741 10.92874,4.83823 15.4259,20.22872 29.56108,23.87741 13.16499,16.21526 27.18878,26.37974 45.19891,35.57516 4.93589,3.41656 19.16628,19.41193 29.4,17.223 10.78429,1.9068 12.76749,15.88772 22.60311,16.79473 6.25573,22.5413 -19.31377,56.84889 8.6736,66.17123 8.82057,7.45753 19.19233,27.11945 30.30633,21.29591 6.46059,5.62156 -0.72915,69.10794 -6.86745,95.32174 -22.43844,109.07289 -95.38851,201.13679 -185.75558,263.34695 -89.39817,63.15984 -185.26768,115.21022 -282.24003,166.83413 z m 77.01413,-202.46289 c -0.11283,-3.24034 1.89323,1.89241 0,0 z"
         id="path220" /><path
         style="fill:#cb29bb;stroke-width:0.48"
         d="m 404.15999,974.26107 c 29.62814,-53.43681 56.81619,-109.27075 88.1496,-161.20454 82.96337,-48.96806 163.44099,-109.57228 216.77956,-191.32211 49.35915,-81.02191 59.9368,-186.13057 21.11084,-273.41491 12.7639,7.74588 8.70902,4.18863 19.05959,10.6447 5.16617,8.97468 12.91585,16.35221 20.7804,19.64978 6.08227,5.48605 24.12868,15.82966 19.10897,21.26117 7.42312,1.86003 16.94957,0.33735 24.27264,5.59574 13.58772,3.75295 1.16948,2.38222 10.73841,8.04921 17.93582,5.31683 -12.16667,56.00815 -18.24,77.19537 -16.68371,19.773 -2.22065,29.0588 7.51476,35.54258 3.79709,6.91257 15.07738,9.50223 24.08952,16.14204 5.23181,6.88006 26.98215,11.25186 22.01601,2.15993 17.09616,14.6736 -0.64475,37.57322 -4.86532,56.88 -39.77584,111.2547 -135.05596,189.31847 -232.71701,249.23712 -70.93514,43.63321 -144.65133,85.6246 -217.79797,123.58392 z m 0.72,-159.76598 C 249.8936,791.13353 124.53795,652.56238 111.09419,497.33193 92.135813,309.93728 221.92232,115.92565 406.36104,70.559999 479.18797,52.600463 557.12792,57.830705 628.07999,81.520117 562.58799,78.773265 497.37413,104.83718 447.50835,146.4 c -7.73442,20.53834 18.02844,25.60182 30.66443,34.21959 4.78514,2.25587 33.24356,23.30881 16.70721,17.65787 -128.7522,-2.32231 -246.62486,107.63166 -254.2979,236.12326 -14.03179,118.98141 71.01961,236.63042 185.73074,266.77401 38.74583,11.26074 80.03906,11.3062 119.56716,4.42718 -15.96234,25.9235 -27.82157,76.48189 -52.56,85.36185 -7.51291,-16.23039 -16.76789,-39.01299 -35.48085,-14.85734 -17.9582,11.23191 -32.96264,32.97118 -52.95915,38.38867 z m 76.29413,-42.69691 c -0.11283,-3.24034 1.89323,1.89241 0,0 z M 793.79091,396.62737 c -10.18443,-10.14748 9.2334,1.92766 0,0 z"
         id="path218" /><path
         style="fill:#6d4cf0;stroke-width:0.48"
         d="m 404.15999,974.26107 c 29.62814,-53.43681 56.81619,-109.27075 88.1496,-161.20454 82.96337,-48.96806 163.44099,-109.57228 216.77956,-191.32211 41.2193,-67.57728 54.78429,-150.90511 37.03858,-228.02219 11.18924,7.60947 24.20517,7.07887 32.35527,20.0742 17.81423,0.23339 27.03724,18.68502 41.9928,25.21253 8.81859,25.83452 -34.50179,62.72037 -16.07204,81.10541 11.75912,-0.81416 8.10151,18.51398 21.25884,12.77472 5.24555,10.41035 21.08324,12.84999 29.06899,21.44482 1.39216,-7.04684 4.10739,20.9515 10.71931,2.94509 4.27447,11.52479 -16.95865,62.21469 -28.82733,84.7125 -60.97971,120.51549 -182.78234,191.31737 -295.42366,256.79674 -45.23885,25.55083 -91.29569,52.69457 -137.03992,75.48283 z m 0.72,-159.76598 C 249.8936,791.13353 124.53795,652.56238 111.09419,497.33193 92.135813,309.93728 221.92232,115.92565 406.36104,70.559999 c 25.68181,-5.313452 59.60488,-14.157827 48.27125,-3.84 17.22397,9.88319 34.06513,17.905923 48.86413,24.479995 31.27017,6.686641 10.73749,13.112646 -12.89538,24.949196 -18.47447,10.73869 -66.18727,34.79066 -31.72105,54.24513 13.05713,7.39692 25.42175,8.89928 33.82293,21.2914 27.1003,14.16618 -43.78394,2.69592 -58.61867,13.81632 -110.44158,27.37837 -195.43187,133.37963 -194.42114,247.78274 -6.36756,134.48747 113.82755,256.56326 247.52104,256.814 23.11009,5.31582 79.84271,-20.41719 47.08195,20.46121 -13.24996,12.1062 -25.80095,79.169 -45.49286,53.75999 -7.81034,-42.20826 -44.2274,5.72557 -63.10475,17.86212 -6.65828,3.72204 -12.19737,14.39926 -20.7885,12.31299 z m 76.29413,-42.69691 c -0.11283,-3.24034 1.89323,1.89241 0,0 z M 744.99786,390.91999 c 0.69283,-1.27837 0.21406,2.06951 0,0 z m -2.88,-10.08 c 0.69283,-1.27837 0.21406,2.06951 0,0 z"
         id="path216" /><path
         style="fill:#ad33c8;stroke-width:0.48"
         d="m 404.15999,974.13497 c 29.65618,-53.50121 57.31025,-108.89601 88.56816,-161.01499 82.50081,-49.54873 163.21497,-109.54071 216.361,-191.38556 41.2193,-67.57728 54.78429,-150.90511 37.03858,-228.02219 11.18924,7.60947 24.20517,7.07887 32.35527,20.0742 17.81423,0.23339 27.03724,18.68502 41.9928,25.21253 8.81859,25.83452 -34.50179,62.72037 -16.07204,81.10541 11.75912,-0.81416 8.10151,18.51398 21.25884,12.77472 5.24555,10.41035 21.08324,12.84999 29.06899,21.44482 1.39216,-7.04684 4.10739,20.9515 10.71931,2.94509 4.27447,11.52479 -16.95865,62.21469 -28.82733,84.7125 -59.8742,118.54555 -178.87991,188.86781 -289.66366,253.45723 -47.40345,26.44908 -94.31749,54.58769 -142.79992,78.69624 z m 93.12,-181.20734 c -12.31494,-3.88581 -13.31264,-34.31817 -11.7769,-29.24765 -8.51255,11.61838 -5.23359,-3.92754 5.20257,-13.96632 -18.91272,8.27214 -52.34748,55.9579 -52.91503,13.06354 0.5663,-14.97918 -15.21575,-21.59514 -18.8706,-34.89369 -3.50858,-13.38784 -20.1389,-14.08159 -23.56538,-26.74844 -12.20309,-27.48011 45.7037,14.21753 61.17462,6.8853 25.25572,10.54317 79.62816,-8.62261 86.31139,5.30378 -14.47316,25.89508 -26.7144,59.97381 -45.56067,79.60348 z m -16.10587,-21.12945 c -0.11283,-3.24034 1.89323,1.89241 0,0 z M 274.42421,763.0665 C 143.12968,682.72543 80.041339,511.7453 122.11861,364.55999 156.69741,226.04889 266.0051,105.02444 406.36104,70.559999 c 25.68181,-5.313452 59.60488,-14.157827 48.27125,-3.84 17.22397,9.88319 34.06513,17.905923 48.86413,24.479995 31.27017,6.686641 10.73749,13.112646 -12.89538,24.949196 -18.47447,10.73869 -66.18727,34.79066 -31.72105,54.24513 13.05713,7.39692 25.42175,8.89928 33.82293,21.2914 27.1003,14.16618 -43.78394,2.69592 -58.61867,13.81632 -110.86097,27.47805 -195.75305,133.99364 -194.92592,248.6921 -2.05596,70.99836 28.91228,141.39207 81.24166,189.03594 -15.14956,-10.04622 -24.5859,-22.13207 -13.74244,-1.74984 -13.33628,2.38556 -6.23555,18.77803 -13.38944,28.11975 -1.80842,12.31665 -7.70804,17.43433 -7.63566,28.11912 3.4806,6.15909 -6.74971,20.46192 -0.48147,32.62003 -3.97615,15.67045 7.00684,21.01999 -4.3339,33.1883 -2.47961,-0.0419 -3.55048,4.15986 -6.39287,-0.46094 z m 107.07888,-75.62031 c -12.45546,-10.08002 28.54288,11.70028 0,0 z m 363.49477,-296.5262 c 0.69283,-1.27837 0.21406,2.06951 0,0 z m -2.88,-10.08 c 0.69283,-1.27837 0.21406,2.06951 0,0 z"
         id="path214" /><path
         style="fill:#ae27ba;stroke-width:0.48"
         d="m 404.17515,974.03998 c 29.83363,-53.36719 57.21135,-108.89364 88.553,-160.92 81.8329,-48.95464 161.40736,-108.39417 215.18693,-188.63686 41.4172,-68.34023 57.75942,-152.78951 38.27951,-230.83781 11.03366,7.83951 24.18227,7.07346 32.28835,20.14112 17.81424,0.23339 27.03725,18.68502 41.99281,25.21253 -0.5273,36.72445 -26.38343,71.3154 -43.6632,103.78438 -11.77993,13.66312 11.53156,8.55882 20.50834,17.96764 10.99075,13.56141 0.0551,19.10086 14.19851,33.58586 21.87508,5.3288 7.13857,15.35553 19.21495,14.3475 11.52697,6.90812 24.29234,-9.12275 12.1198,19.04616 -52.98453,119.1508 -167.26677,192.27866 -275.49432,255.90432 -54.02918,30.64405 -107.80455,62.68583 -163.18468,90.40516 z M 821.75998,603.32 c -1.75125,-2.9435 -1.62245,3.38126 0,0 z m -11.04,-7.32561 c -1.58005,-2.2679 -3.54564,-2.28746 0,0 z m -49.25952,-29.17464 c 13.27267,-13.45507 2.92083,-11.17605 0,0 z M 503.51999,783.83998 c -4.8294,-10.49499 -16.00762,-19.06935 -15.21583,-29.28 -4.16718,-13.02406 -47.84504,54.17805 -50.1552,13.20855 1.56304,-14.12072 -8.4511,-23.90438 -16.80473,-32.88854 -1.76883,-13.85987 -14.89024,-20.23056 -23.4244,-28.32 -17.40412,-26.06933 10.3575,-10.13974 26.81879,-5.18026 39.41892,11.14525 81.24816,11.64066 121.41293,4.45183 -13.10319,25.50439 -26.43956,57.49759 -42.63156,78.00842 z M 274.42421,763.0665 C 143.12968,682.72543 80.041339,511.7453 122.11861,364.55999 156.89906,225.03074 267.57851,103.66983 409.43999,70.312952 c 14.90971,-3.92378 69.34469,-13.960051 40.73318,-4.515667 21.26382,6.767369 33.4579,20.122847 54.23462,24.594614 6.23796,7.655136 34.74617,6.81097 2.97486,16.666221 -48.19069,25.44772 -94.57387,57.98374 -127.57812,101.79713 14.68826,22.53032 -27.67654,23.9823 -36.31902,40.18328 -100.38817,71.78684 -135.16594,220.09956 -74.46697,327.92146 9.88213,23.21063 38.5769,53.06718 48.73995,65.17502 -17.4775,-14.36972 -17.10751,-16.67216 -12.3256,0.10498 -12.74292,2.35891 -4.15165,19.99045 -13.1129,28.56 0.72695,13.18731 -8.81807,16.2321 -6.49192,28.40747 3.37626,4.82948 -7.81158,20.94946 -0.2647,32.38364 -4.89281,14.94049 7.88145,21.89281 -6.59711,32.63239 l -0.56631,0.39566 -3.97578,-1.55265 z m 107.07888,-75.62031 c -12.45546,-10.08002 28.54288,11.70028 0,0 z m 457.73105,-82.24036 c 2.09532,-6.07309 2.47893,2.02468 0,0 z m -5.35416,-0.96979 c -0.79178,-11.77393 1.04024,-12.28193 0.60004,-14.62249 2.30422,-13.6644 19.76178,12.43588 10.63287,-10.29518 5.9834,-13.78573 28.84573,-14.66076 13.12732,10.82107 -7.09857,11.02997 -12.38902,7.88322 -19.18353,11.78056 -0.92197,2.03888 -2.4948,4.31251 -5.1767,2.31604 z m 8.2033,-4.60498 c -1.01198,-5.06463 -1.72517,-0.27927 0,0 z m -1.73237,-2.2752 c -1.88337,-0.58532 -4.28627,-3.22117 0,0 z m 8.47224,-2.90078 c -0.005,-1.5476 -1.49114,1.47793 0,0 z m -11.0496,-2.85509 c -2.82876,-1.98927 0.50824,2.3556 0,0 z m 5.88072,7.35216 c 1.36575,-1.1628 0.375,1.45783 0,0 z m -17.09429,-3.62938 c -22.78823,-3.1851 14.05083,-13.8191 0,0 z m 2.76,-8.60069 c 2.64327,-0.77911 0.47972,0.84015 0,0 z"
         id="path212" /><path
         style="fill:#4f4fe9;stroke-width:0.48"
         d="m 404.17515,974.03998 c 29.83363,-53.36719 57.21135,-108.89364 88.553,-160.92 81.8329,-48.95464 161.40736,-108.39417 215.18693,-188.63686 30.37643,-50.17625 46.70326,-108.16117 46.98676,-166.7614 7.97564,13.32165 38.43396,12.07532 47.15016,31.16626 -7.35296,35.20506 -40.34809,67.87793 -53.01202,95.9669 11.52825,11.51174 23.30192,17.63764 34.13305,20.42511 5.66213,12.94578 18.69335,25.04406 34.00939,28.28597 26.17043,10.3351 0.96008,41.13833 -9.82244,56.14287 -79.13324,109.14477 -202.68154,171.56108 -316.55442,237.66769 -28.99653,15.18562 -57.02982,33.05262 -86.63041,46.66346 z m 99.34484,-190.2 c -4.8294,-10.49499 -16.00762,-19.06935 -15.21583,-29.28 -4.16718,-13.02406 -47.84504,54.17805 -50.1552,13.20855 1.56304,-14.12072 -8.4511,-23.90438 -16.80473,-32.88854 -1.76883,-13.85987 -14.89024,-20.23056 -23.4244,-28.32 -17.40412,-26.06933 10.3575,-10.13974 26.81879,-5.18026 39.41892,11.14525 81.24816,11.64066 121.41293,4.45183 -13.10319,25.50439 -26.43956,57.49759 -42.63156,78.00842 z M 274.42421,763.0665 C 143.12968,682.72543 80.041339,511.7453 122.11861,364.55999 155.59267,232.01535 256.76602,114.22736 390.04578,76.22085 c -26.32666,8.269763 18.16428,14.185677 22.7165,28.74064 13.52484,15.42668 88.87502,4.29711 46.24217,29.67512 -27.32075,22.92428 -65.15841,45.61243 -77.88536,78.00637 6.07032,22.43607 -40.03589,26.22006 -49.82809,46.42697 -103.82672,82.72814 -123.92664,250.52564 -38.97101,353.39909 12.44933,15.01777 41.14483,46.86781 11.03761,15.37469 -2.55049,7.56947 7.51586,14.64443 -5.79569,22.27555 2.28323,14.03601 -10.97157,23.24056 -6.86271,38.26109 -13.12461,1.56334 -1.99312,14.92216 -4.80192,21.24211 -5.83604,10.82054 -1.42556,27.25103 0.12508,36.20534 1.45688,1.36741 0.005,24.04519 -11.59815,17.23868 z m 107.07888,-75.62031 c -12.45546,-10.08002 28.54288,11.70028 0,0 z M 830.87998,647.7813 c 5.30989,-14.51438 10.10482,-7.70598 0,0 z m -81.6,-64.12963 c 1.3825,-0.9147 1.12018,1.64868 0,0 z"
         id="path210" /><path
         style="fill:#385ce7;stroke-width:0.48"
         d="m 404.17515,974.03998 c 29.83363,-53.36719 57.21135,-108.89364 88.553,-160.92 81.8329,-48.95464 161.40736,-108.39417 215.18693,-188.63686 30.37643,-50.17625 46.70326,-108.16117 46.98676,-166.7614 7.97564,13.32165 38.43396,12.07532 47.15016,31.16626 -7.35296,35.20506 -40.34809,67.87793 -53.01202,95.9669 11.52825,11.51174 23.30192,17.63764 34.13305,20.42511 5.66213,12.94578 18.69335,25.04406 34.00939,28.28597 26.17043,10.3351 0.96008,41.13833 -9.82244,56.14287 -79.13324,109.14477 -202.68154,171.56108 -316.55442,237.66769 -28.99653,15.18562 -57.02982,33.05262 -86.63041,46.66346 z m 99.34484,-190.2 c -4.8294,-10.49499 -16.00762,-19.06935 -15.21583,-29.28 -4.16718,-13.02406 -47.84504,54.17805 -50.1552,13.20855 1.56304,-14.12072 -8.4511,-23.90438 -16.80473,-32.88854 -1.76883,-13.85987 -14.89024,-20.23056 -23.4244,-28.32 -17.40412,-26.06933 10.3575,-10.13974 26.81879,-5.18026 39.41892,11.14525 81.24816,11.64066 121.41293,4.45183 -13.10319,25.50439 -26.43956,57.49759 -42.63156,78.00842 z M 243.19034,741.06229 C 159.68853,674.07977 106.91976,567.09916 111.16232,459.60276 c 9.16792,6.67842 21.67882,16.47063 26.5638,29.03723 10.0231,15.58715 19.39498,24.99317 24.15388,40.26432 12.35412,7.63042 17.99195,27.15887 22.83218,34.43789 4.0677,9.20997 9.72091,21.41547 12.0215,33.65795 9.88108,6.58419 10.49242,18.83045 17.09648,29.89885 5.86138,12.30338 10.99378,29.39661 17.52984,45.07055 8.67211,15.22559 3.68645,27.91837 9.09311,44.14296 5.86642,2.03188 19.31575,35.16117 2.73727,24.94978 z m 138.31275,-53.6161 c -12.45546,-10.08002 28.54288,11.70028 0,0 z M 830.87998,647.7813 c 5.30989,-14.51438 10.10482,-7.70598 0,0 z m -512.15999,-5.17992 c -18.63802,-12.03985 -0.34538,-6.53776 0,0 z m -21.84,-22.0728 c -14.49554,-17.49713 -1.05846,-6.24255 0,0 z m -15.50181,-19.91275 c -17.69282,-2.46438 -9.31823,-20.70835 -20.25819,-27.51754 -4.72038,2.81912 -18.70059,-10.03138 -28.49042,-19.09835 -8.34017,-9.55746 -17.61091,-19.40686 -26.22491,-28.15454 -6.46897,-2.23991 -11.34411,-13.48324 -19.44471,-20.40566 -4.52427,-2.12935 -15.48477,-18.35007 -26.57755,-24.36 -11.49425,-6.86375 -14.88519,-20.76102 -28.3363,-25.34834 -5.72464,-13.79652 -22.68075,-26.85361 -19.66691,-33.306 14.66146,-155.58556 125.49235,-302.56515 277.66654,-346.20461 -26.32666,8.269763 18.16428,14.185677 22.7165,28.74064 13.52484,15.42668 88.87502,4.29711 46.24217,29.67512 -27.32075,22.92428 -65.15841,45.61243 -77.88536,78.00637 6.07032,22.43607 -40.03589,26.22006 -49.82809,46.42697 -98.36476,78.76394 -121.97206,233.50325 -51.12246,337.63867 l 2.78506,5.21122 -1.57542,-1.30416 z m 467.9018,-16.96416 c 1.3825,-0.9147 1.12018,1.64868 0,0 z M 191.20614,513.05265 c -4.9676,-7.36714 2.81202,0.82495 0,0 z m -80.56307,-75.76297 c -0.19139,-5.8492 1.70679,3.53354 0,0 z"
         id="path208" /><path
         style="fill:#9224b8;stroke-width:0.48"
         d="m 404.17515,974.03998 c 29.83363,-53.36719 57.21135,-108.89364 88.553,-160.92 81.8329,-48.95464 161.40736,-108.39417 215.18693,-188.63686 30.37643,-50.17625 46.70326,-108.16117 46.98676,-166.7614 7.97564,13.32165 38.43396,12.07532 47.15016,31.16626 -7.35296,35.20506 -40.34809,67.87793 -53.01202,95.9669 11.52825,11.51174 23.30192,17.63764 34.13305,20.42511 5.66213,12.94578 18.69335,25.04406 34.00939,28.28597 26.17043,10.3351 0.96008,41.13833 -9.82244,56.14287 -79.13324,109.14477 -202.68154,171.56108 -316.55442,237.66769 -28.99653,15.18562 -57.02982,33.05262 -86.63041,46.66346 z m 99.34484,-190.2 c -4.8294,-10.49499 -16.00762,-19.06935 -15.21583,-29.28 -4.16718,-13.02406 -47.84504,54.17805 -50.1552,13.20855 1.56304,-14.12072 -8.4511,-23.90438 -16.80473,-32.88854 -1.76883,-13.85987 -14.89024,-20.23056 -23.4244,-28.32 -17.40412,-26.06933 10.3575,-10.13974 26.81879,-5.18026 39.41892,11.14525 81.24816,11.64066 121.41293,4.45183 -13.10319,25.50439 -26.43956,57.49759 -42.63156,78.00842 z m -122.0169,-96.39379 c -12.45546,-10.08002 28.54288,11.70028 0,0 z M 830.87998,647.7813 c 5.30989,-14.51438 10.10482,-7.70598 0,0 z m -512.15999,-5.17992 c -18.63802,-12.03985 -0.34538,-6.53776 0,0 z m -21.84,-22.0728 c -14.49554,-17.49713 -1.05846,-6.24255 0,0 z m -15.50181,-19.91275 c -17.69282,-2.46438 -9.31823,-20.70835 -20.25819,-27.51754 -4.72038,2.81912 -18.70059,-10.03138 -28.49042,-19.09835 -8.34017,-9.55746 -17.61091,-19.40686 -26.22491,-28.15454 -6.46897,-2.23991 -11.34411,-13.48324 -19.44471,-20.40566 -4.52427,-2.12935 -15.48477,-18.35007 -26.57755,-24.36 -11.49425,-6.86375 -14.88519,-20.76102 -28.3363,-25.34834 -5.72464,-13.79652 -22.68075,-26.85361 -19.66691,-33.306 14.66146,-155.58556 125.49235,-302.56515 277.66654,-346.20461 -26.32666,8.269763 18.16428,14.185677 22.7165,28.74064 13.52484,15.42668 88.87502,4.29711 46.24217,29.67512 -27.32075,22.92428 -65.15841,45.61243 -77.88536,78.00637 6.07032,22.43607 -40.03589,26.22006 -49.82809,46.42697 -98.36476,78.76394 -121.97206,233.50325 -51.12246,337.63867 l 2.78506,5.21122 -1.57542,-1.30416 z m 467.9018,-16.96416 c 1.3825,-0.9147 1.12018,1.64868 0,0 z M 191.20614,513.05265 c -4.9676,-7.36714 2.81202,0.82495 0,0 z m -80.56307,-75.76297 c -0.19139,-5.8492 1.70679,3.53354 0,0 z"
         id="path206" /><path
         style="fill:#542fd3;stroke-width:0.48"
         d="m 404.63999,973.93203 c 29.15539,-53.14693 56.9838,-107.13499 86.91425,-159.81608 75.35745,-43.65512 145.38061,-98.52473 201.40643,-165.36462 6.02269,-6.57687 17.15686,-7.77831 24.76215,2.19782 10.07097,5.02904 10.05162,21.24925 7.64693,19.02807 3.0947,6.9078 8.53097,-17.69246 9.14774,4.66277 -1.32233,7.54635 8.25604,11.21275 12.3776,16.69534 5.93438,8.48406 5.29482,0.13332 14.38605,3.08589 5.88764,5.55755 16.65609,-3.07567 21.63993,-7.39143 42.0196,-3.7868 3.94692,26.3879 -9.66491,44.02182 -97.42603,101.21764 -226.18114,162.77337 -346.53617,231.70069 -7.54109,2.96197 -14.24073,9.17265 -22.08,11.17973 z m 38.59916,-190.15814 c -5.72006,-12.95066 -3.23596,-28.61464 -13.3327,-39.41391 -11.03103,-9.9096 -13.31204,-29.65299 -30.30646,-34.83263 -11.8201,-17.8589 -7.85824,-25.52364 15.7333,-10.99488 41.68286,14.22443 87.10634,13.96385 129.837,8.41744 -9.36756,22.33539 -15.04074,37.89122 -28.6903,22.47072 -25.14733,16.89938 -47.71989,38.87883 -73.24084,54.35326 z m -61.73606,-96.3277 c -12.45546,-10.08002 28.54288,11.70028 0,0 z m 426.23504,-1.13956 c 2.0514,-7.24524 7.84378,-7.07107 0,0 z m -69.2413,-15.06831 c -9.05908,-15.1427 5.62979,6.10712 0,0 z M 318.71999,642.60138 c -18.63802,-12.03985 -0.34538,-6.53776 0,0 z m 390.53683,-0.62631 c 1.06307,-14.82719 3.99376,2.7581 0,0 z m -12.29683,-0.21292 c 9.10479,-18.53468 12.27503,-3.30687 0,0 z m -400.08,-21.23357 c -14.49554,-17.49713 -1.05846,-6.24255 0,0 z M 712.33074,618.181 c 24.33607,-42.65685 37.70526,-90.41441 43.38979,-138.83081 7.42676,-0.96563 17.96392,5.91581 25.53326,7.3698 16.5221,3.89102 23.23793,16.83651 6.52634,35.04034 -20.53416,35.28931 -45.33135,68.74461 -75.44939,96.42067 z M 281.37818,600.61583 c -17.69282,-2.46438 -9.31823,-20.70835 -20.25819,-27.51754 -4.72038,2.81912 -18.70059,-10.03138 -28.49042,-19.09835 -8.34017,-9.55746 -17.61091,-19.40686 -26.22491,-28.15454 -6.46897,-2.23991 -11.34411,-13.48324 -19.44471,-20.40566 -4.52427,-2.12935 -15.48477,-18.35007 -26.57755,-24.36 -11.49425,-6.86375 -14.88519,-20.76102 -28.3363,-25.34834 -5.72464,-13.79652 -22.68075,-26.85361 -19.66691,-33.306 13.95287,-147.03194 113.73582,-286.47242 253.7768,-337.477318 2.8182,5.796846 12.59845,4.557728 12.20714,15.826678 11.25528,5.81095 21.37923,9.06407 31.7844,17.68982 18.16693,-0.0518 36.64277,-0.55142 51.37942,-1.61223 35.59818,9.22399 -39.12938,33.35096 -45.18013,51.51681 -37.75997,31.64722 -62.58279,75.45376 -101.73395,105.47404 -86.46392,83.72015 -100.44731,229.41945 -31.65931,328.07673 l -1.57542,-1.30416 z M 392.15999,110.88 c -2.07525,-6.15793 -4.26146,1.39721 0,0 z M 191.20614,513.05265 c -4.9676,-7.36714 2.81202,0.82495 0,0 z m -80.56307,-75.76297 c -0.19139,-5.8492 1.70679,3.53354 0,0 z"
         id="path204" /><path
         style="fill:#8c17ad;stroke-width:0.48"
         d="m 406.37545,970.43998 c 29.42632,-51.87606 56.04829,-105.60163 86.30657,-156.84 74.80029,-43.71714 144.54427,-98.29208 200.27865,-164.84865 6.02269,-6.57687 17.15686,-7.77831 24.76215,2.19782 10.07097,5.02904 10.05162,21.24925 7.64693,19.02807 3.0947,6.9078 8.53097,-17.69246 9.14774,4.66277 -1.32233,7.54635 8.25604,11.21275 12.3776,16.69534 5.93438,8.48406 5.29482,0.13332 14.38605,3.08589 5.88764,5.55755 16.65609,-3.07567 21.63993,-7.39143 42.0196,-3.7868 3.94692,26.3879 -9.66491,44.02182 -98.27435,102.18872 -228.45534,163.66108 -349.89617,233.20846 -2.61769,-0.3205 -23.33353,16.42705 -16.98454,6.17991 z m 89.94454,-229.78804 c -0.94764,-13.43687 -24.29529,-39.55596 13.27869,-29.81431 23.65405,-4.73794 47.78178,-9.45032 24.00565,19.48236 -6.50087,22.91706 -10.74905,-11.80568 -22.93887,1.84747 -4.80368,2.78883 -9.08542,6.51567 -14.34547,8.48448 z m -7.11538,-16.65682 c 2.28445,-3.13646 2.46032,1.2242 0,0 z m -4.6955,-6.11457 c -1.6641,-4.45667 1.54148,-0.86384 0,0 z m 323.22902,-31.57392 c 2.0514,-7.24524 7.84378,-7.07107 0,0 z m -69.2413,-15.06831 c -9.05908,-15.1427 5.62979,6.10712 0,0 z m -29.24001,-29.26325 c 1.06307,-14.82719 3.99376,2.7581 0,0 z m -12.29683,-0.21292 c 9.10479,-18.53468 12.27503,-3.30687 0,0 z M 712.33074,618.181 c 24.33607,-42.65685 37.70526,-90.41441 43.38979,-138.83081 7.42676,-0.96563 17.96392,5.91581 25.53326,7.3698 16.5221,3.89102 23.23793,16.83651 6.52634,35.04034 -20.53416,35.28931 -45.33135,68.74461 -75.44939,96.42067 z M 241.08,409.56488 c -10.09871,-3.42631 -12.72667,-18.82183 -22.08,-25.59719 -10.2702,-10.27224 -17.93299,-12.97955 -24.04372,-22.20922 -6.82821,-8.59504 -14.02726,-19.00042 -21.99333,-29.11848 -11.43452,-10.7439 -16.58472,-4.89317 -17.80295,-12.44686 -3.58958,-1.25489 -17.83109,-9.92193 -8.52,-21.63315 39.8379,-96.89251 120.78602,-177.64102 219.51604,-213.611848 2.8182,5.796846 12.59845,4.557728 12.20714,15.826678 11.25528,5.81095 21.37923,9.06407 31.7844,17.68983 18.16693,-0.0518 36.64277,-0.55143 51.37942,-1.61224 35.59818,9.22399 -39.12938,33.35096 -45.18013,51.51681 -37.39434,30.98919 -61.52144,74.51183 -100.18242,103.98261 -39.27696,36.66442 -61.64491,86.36247 -75.08445,137.21306 z m -75.96,-87.19353 c -0.21876,-1.28884 -2.83841,0.43019 0,0 z M 392.15999,110.88 c -2.07525,-6.15793 -4.26146,1.39721 0,0 z M 228.70026,398.36806 c -0.47751,-2.57465 2.23521,2.06385 0,0 z"
         id="path202" /><path
         style="fill:#6e13ab;stroke-width:0.48"
         d="m 406.37545,970.43998 c 29.42632,-51.87606 56.04829,-105.60163 86.30657,-156.84 69.67653,-41.16971 135.77712,-90.76041 189.11942,-152.13614 11.87012,3.57945 19.22316,11.29132 27.36586,24.93329 16.58205,6.58948 27.90532,30.61019 48.26971,36.24353 3.69689,7.80402 33.1478,-2.29827 7.25178,17.30426 -98.73486,97.74776 -225.81847,158.28559 -345.16883,226.38804 0.3895,-3.36509 -19.98035,15.30682 -13.14451,4.10702 z m 89.94454,-229.78804 c -0.94764,-13.43687 -24.29529,-39.55596 13.27869,-29.81431 23.65405,-4.73794 47.78178,-9.45032 24.00565,19.48236 -6.50087,22.91706 -10.74905,-11.80568 -22.93887,1.84747 -4.80368,2.78883 -9.08542,6.51567 -14.34547,8.48448 z m -7.11538,-16.65682 c 2.28445,-3.13646 2.46032,1.2242 0,0 z m -4.6955,-6.11457 c -1.6641,-4.45667 1.54148,-0.86384 0,0 z M 713.75999,614.82959 c 15.26751,-26.64451 26.08158,-55.39793 34.13135,-84.9096 4.71275,6.54967 35.90946,7.46877 19.57442,21.9391 -15.73792,22.37852 -32.35146,46.17386 -53.70577,62.9705 z m 34.83038,-90.07925 c -3.47776,-7.86525 8.13005,1.54457 0,0 z M 241.08,409.56488 c -10.09871,-3.42631 -12.72667,-18.82183 -22.08,-25.59719 -10.2702,-10.27224 -17.93299,-12.97955 -24.04372,-22.20922 -6.82821,-8.59504 -14.02726,-19.00042 -21.99333,-29.11848 -11.43452,-10.7439 -16.58472,-4.89317 -17.80295,-12.44686 -3.58958,-1.25489 -17.83109,-9.92193 -8.52,-21.63315 30.05476,-72.46185 82.28955,-136.57886 149.29864,-177.9507 8.70345,-1.8827 11.49541,-11.59552 20.23036,0.62879 1.26801,13.11842 20.32681,17.37363 31.35099,24.90712 12.15568,13.6308 31.38222,19.63532 46.05318,15.9249 25.46606,-3.29036 36.1658,-2.14182 9.50323,17.68323 -31.12671,29.10267 -52.56448,66.92326 -86.9242,92.60975 -39.26852,36.66528 -61.63474,86.35657 -75.0722,137.20181 z m -75.96,-87.19353 c -0.21876,-1.28884 -2.83841,0.43019 0,0 z m 63.58026,75.99671 c -0.47751,-2.57465 2.23521,2.06385 0,0 z"
         id="path200" /><path
         style="fill:#5112ac;stroke-width:0.48"
         d="m 405.11999,973.65944 c 29.71503,-53.11642 56.73575,-108.0378 88.07597,-160.05946 43.19743,-23.69439 82.12042,-55.77697 122.28984,-83.26607 17.74933,-0.86263 8.19287,2.70224 19.81569,19.37797 5.92971,9.75976 14.50872,14.12839 13.00375,17.03681 15.19183,-1.39222 26.0358,17.44049 34.53036,19.78313 22.30759,1.30854 -8.4084,34.16227 -26.40888,40.96145 -80.76875,53.54554 -166.09029,100.34546 -251.30673,146.16617 z m 293.52,-177.81946 c 1.1838,-1.70989 0.58052,1.75495 0,0 z m -203.76,-56.96904 c 2.67942,-13.31801 -23.78055,-34.96197 8.98556,-27.76843 16.34024,-0.47875 52.7439,-9.79079 20.61138,9.07541 -9.739,5.04287 -18.74812,18.35677 -29.59694,18.69302 z m -5.67538,-14.87582 c 2.28445,-3.13646 2.46032,1.2242 0,0 z m -4.6955,-6.11457 c -1.6641,-4.45667 1.54148,-0.86384 0,0 z M 241.08,409.56488 c -10.09871,-3.42631 -12.72667,-18.82183 -22.08,-25.59719 -10.2702,-10.27224 -17.93299,-12.97955 -24.04372,-22.20922 -6.82821,-8.59504 -14.02726,-19.00042 -21.99333,-29.11848 -11.43452,-10.7439 -16.58472,-4.89317 -17.80295,-12.44686 -3.58958,-1.25489 -17.83109,-9.92193 -8.52,-21.63315 18.06738,-42.80486 43.54872,-84.61038 77.51255,-116.15999 15.80579,-12.69679 21.76,6.52392 32.65479,12.82493 12.12373,8.54033 23.22676,17.67518 31.77653,26.84882 11.7819,7.6862 27.30541,8.09539 41.47508,9.65071 48.65869,4.29336 -24.03112,39.69009 -32.25913,60.02192 -29.21533,33.56809 -44.77061,75.9691 -56.71982,117.81851 z m -75.96,-87.19353 c -0.21876,-1.28884 -2.83841,0.43019 0,0 z m 63.58026,75.99671 c -0.47751,-2.57465 2.23521,2.06385 0,0 z m 123.6402,-164.76728 c 6.19669,-12.64067 3.99147,-0.83564 0,0 z"
         id="path198" /><path
         style="fill:#3b0d9a;stroke-width:0.48"
         d="m 406.07999,972.84396 c 30.0817,-52.64292 56.41568,-108.12017 88.48373,-159.20706 16.45037,-3.28818 33.01827,-28.98208 45.24278,-21.15692 5.321,-7.85254 6.78565,8.14258 0.66973,13.35341 -14.37701,0.82256 -1.82864,18.34414 -12.52113,25.40803 -5.97276,11.8214 -9.99176,18.63472 -21.72518,31.19856 6.37866,9.00759 -10.25234,20.48543 0.53227,18.84 10.52135,3.509 6.99109,27.51971 29.33942,13.34559 17.6483,3.38818 -37.35233,23.08987 -47.94163,32.99169 -27.27335,15.19169 -54.43684,30.91388 -82.07999,45.2267 z m 116.58432,-72.78273 c -1.81668,-0.6082 -0.97676,5.11992 0,0 z m -16.38192,-10.50125 c -2.75375,-2.30499 -3.21296,2.67022 0,0 z m -1.96358,-3.27225 c -0.56515,-4.56081 -2.44304,2.73522 0,0 z m -0.88632,-11.89901 c 3.76263,-3.89217 -9.06573,2.6156 0,0 z m 25.09689,-80.37226 c -5.13109,2.01171 0.0185,1.75297 0,0 z m -9.71621,100.71951 c -1.40543,-3.64568 3.7116,3.48701 0,0 z m 7.10684,-1.296 c 0.0641,-11.86687 9.71052,-0.39597 0,0 z m -7.79506,-0.89031 c 3.60585,-2.04024 -2.07214,2.34773 0,0 z m 29.10317,-0.89707 c -2.61161,-12.30023 9.64693,-22.31838 10.48488,-14.57621 14.522,-7.69882 -1.52648,18.80995 -10.48488,14.57621 z m 26.37187,-14.41834 c 1.05455,-4.11081 11.88972,-2.85248 0,0 z m -8.25648,-1.8444 c 2.65709,-3.42312 6.91029,1.76706 0,0 z M 533.10729,710.15778 c 4.34583,-5.79679 1.81133,1.7882 0,0 z"
         id="path196" /></g></g></svg>
