<?xml version="1.0" encoding="UTF-8" standalone="no"?>
<!-- Created with Inkscape (http://www.inkscape.org/) -->

<svg
   width="763.62329"
   height="501.99939"
   viewBox="0 0 763.62329 501.99938"
   version="1.1"
   id="svg5"
   xml:space="preserve"
   xmlns:xlink="http://www.w3.org/1999/xlink"
   xmlns="http://www.w3.org/2000/svg"
   xmlns:svg="http://www.w3.org/2000/svg"><defs
     id="defs2"><color-profile
       name="DP"
       xlink:href="../../../../../.local/share/icc/edid-27fd61d80a4d3102d04ad05b2e686881.icc"
       id="color-profile3796" /><color-profile
       name="DP"
       xlink:href="../../../../../.local/share/icc/edid-27fd61d80a4d3102d04ad05b2e686881.icc"
       id="color-profile3798" /><color-profile
       name="DP"
       xlink:href="../../../../../.local/share/icc/edid-27fd61d80a4d3102d04ad05b2e686881.icc"
       id="color-profile3800" /><color-profile
       name="DP"
       xlink:href="../../../../../.local/share/icc/edid-27fd61d80a4d3102d04ad05b2e686881.icc"
       id="color-profile3802" /></defs><g
     id="layer1"
     transform="translate(-293.17106,372.84611)"><g
       id="g1928"
       transform="translate(-7.9642414,-777.59958)"><path
         style="fill:#f9e7fa;stroke-width:1.33333"
         d="m 356.2744,904.59115 c -34.32087,-9.25929 -60.09702,-44.17144 -54.32973,-80.13613 -0.46756,-119.77241 -1.81096,-239.60435 0.78197,-359.34494 6.85474,-37.56974 45.82427,-64.71257 83.32919,-59.77676 205.34243,0.44221 410.71342,-1.17328 616.03257,1.42512 37.9723,7.04149 66.6061,44.84053 61.19,83.4694 1.0814,117.21628 2.3471,234.47242 0.6577,351.68051 -2.966,38.28416 -40.5873,68.54084 -78.65487,63.77889 -200.14234,1.8007 -400.318,0.94542 -600.46786,0.14841 -9.50967,-0.29931 -19.0898,0.027 -28.53897,-1.2445 z m 643.44262,-38.1065 C 934.92844,799.46098 863.71842,738.83897 797.33331,673.39876 c 24.47867,-40.29028 52.09728,3.11265 74.06562,21.84179 50.79789,46.97963 100.81809,94.81197 152.14277,141.21498 7.7652,-24.32813 1.4447,-62.95227 3.87,-92.44671 0.024,-84.52423 1.2771,-169.07377 -0.3413,-253.58187 -19.6506,-0.63663 -52.4335,36.5693 -76.61091,50.08341 -76.03668,55.65282 -149.49669,115.03418 -228.24525,166.83024 -32.30436,21.37067 -73.83818,9.12772 -101.09419,-14.5099 -94.9494,-66.62482 -185.73673,-138.96187 -280.25411,-206.16405 -6.78476,34.67404 -1.71774,72.11287 -3.51933,107.84285 0.17428,81.15785 -0.49954,162.3468 1.30608,243.48185 61.49937,-52.90793 119.13141,-110.38182 179.00952,-165.19544 14.14546,-23.54212 35.08389,-21.31345 50.33778,-0.16893 -65.83964,65.8377 -136.21009,127.09997 -202.43927,192.52801 20.59861,7.67859 58.32303,1.79571 85.48234,3.84247 180.00516,-0.16082 360.03037,0.78421 540.02159,-1.31412 l 6.89155,-0.52554 z M 698.5273,677.83412 c 64.18965,-40.21392 123.22981,-88.22083 184.69303,-132.47224 41.8973,-32.37538 86.86341,-61.32544 125.83267,-97.16629 -26.51346,-11.06649 -62.65747,-2.95912 -92.69452,-5.83103 -182.0725,0.63433 -364.19093,-1.18662 -546.2333,2.02631 -34.22549,3.51394 22.58741,29.66236 31.06483,40.59379 86.58342,63.82933 171.6791,129.86285 260.57555,190.43595 11.13805,6.76818 24.93181,8.73545 36.76174,2.41351 z"
         id="path1950" /><path
         style="fill:#f8ccf0;stroke-width:1.33333"
         d="m 362.66666,904.4402 c -36.22127,-6.78779 -64.70406,-42.11253 -59.26436,-79.44328 -0.44732,-117.47898 -1.99043,-235.01385 0.61786,-352.46437 1.092,-38.26218 40.35543,-70.27867 78.07149,-65.1754 206.85424,0.74414 413.75459,-0.70295 620.57495,2.25925 33.3202,7.44467 63.1622,38.77241 59.3649,74.15553 -0.1856,122.09972 1.6088,244.23704 -0.7145,366.30661 -7.7748,33.02114 -40.583,58.09322 -74.83581,54.19774 -205.5418,2.1005 -411.11873,0.45728 -616.67204,0.27408 z M 1000.102,869.93693 c -11.69434,-25.9207 -42.59087,-45.17964 -63.22221,-67.20389 -45.81512,-43.17277 -92.91538,-85.12219 -136.87981,-130.17399 24.37751,-36.14831 48.67549,6.51435 70.01859,23.51396 50.9574,46.7455 100.40403,95.23885 152.33793,140.85655 15.3436,-15.7771 2.1107,-63.08577 6.7718,-89.9295 -0.4902,-86.93338 0.8836,-173.92628 -1.5895,-260.81704 -21.5702,4.70602 -47.52403,32.5514 -70.31753,47.10537 -79.41008,58.37048 -156.14241,120.71292 -238.76493,174.51788 -31.06945,18.51901 -68.75159,6.57802 -94.63919,-15.19555 -94.70355,-65.8558 -184.74418,-138.15397 -278.78597,-204.90025 -19.35454,2.10092 -3.26307,48.28684 -8.79614,66.41387 0.63557,94.8645 -1.40187,189.86916 1.98041,284.63755 27.1675,-17.23145 51.82865,-46.28509 77.56596,-68.55116 41.93107,-38.30864 82.09582,-78.84768 125.32699,-115.54408 30.64829,9.73868 22.25189,28.54806 -0.29943,42.66511 -58.84353,56.60441 -119.89571,110.94481 -178.18627,168.0837 21.32835,12.60746 58.58403,2.70402 86.11784,5.82543 183.78622,-0.15092 367.58065,0.0341 551.36146,-1.30396 z M 701.99998,678.00621 C 765.59705,636.83809 824.9184,589.2511 886.46359,545.04242 928.29891,512.9595 972.5169,483.54779 1012,448.62566 c -23.11834,-15.57392 -59.01953,-3.81609 -87.39576,-7.6118 -184.2027,0.14691 -368.44477,-1.81431 -552.62373,1.04563 -44.28933,4.46423 24.79204,36.73076 35.86753,49.88882 83.52871,61.53477 165.68742,125.11019 251.22385,183.80112 12.82831,8.57584 29.40363,10.74411 42.92809,2.25678 z"
         id="path1948" /><path
         style="fill:#f9b5f6;stroke-width:1.33333"
         d="m 671.33332,903.99998 c -105.12283,-0.83657 -210.31347,0.80729 -315.39265,-2.18397 -32.19488,-8.56125 -56.64945,-41.33739 -51.32446,-75.14989 -0.48734,-117.99644 -1.70634,-236.04069 0.59821,-354.0143 0.47683,-37.83914 39.21028,-68.16992 76.08548,-63.88091 170.60859,0.14513 341.24468,0.7461 511.82305,4.29033 22.32709,7.74811 21.57746,32.77058 -6.11748,24.50846 -174.74435,2.81203 -349.55557,0.45135 -524.28269,3.90045 -25.69867,13.38399 29.24303,33.36213 37.92565,46.21367 85.8702,63.66299 170.57541,129.04406 258.76968,189.4686 30.53827,20.17196 60.16881,-9.4581 84.3495,-26.04242 91.46625,-66.85979 183.35396,-133.69681 273.64439,-201.77668 8.9321,4.31652 27.5456,0.71915 37.8116,13.44622 6.4226,28.23064 4.2584,59.51665 5.2587,89.25201 0.2122,99.69586 2.8802,199.51928 -0.2441,299.148 -8.7128,37.22205 -48.3283,57.81506 -84.5609,53.20066 -101.44808,0.0459 -202.89614,-0.18407 -304.34398,-0.38023 z m 328.75428,-33.38024 c -3.96672,-23.53074 -39.60938,-41.98067 -56.10695,-62.5703 -47.4127,-45.19808 -96.85777,-88.58957 -142.64734,-135.3075 27.12906,-37.41536 51.0327,15.96839 74.95417,30.84213 48.9663,44.47743 95.8899,91.28964 146.10392,134.32862 17.0948,-11.91808 2.4492,-59.86093 7.7974,-83.93274 0.3815,-90.27793 1.0747,-180.55978 0.6695,-270.83731 -24.945,0.48819 -47.0391,33.68866 -70.58251,45.91586 -80.48888,59.69427 -158.28705,123.35294 -242.42091,177.91127 -33.43668,20.12989 -73.0151,3.42094 -100.00816,-19.59068 C 524.98683,621.88247 435.8028,551.28831 343.5455,485.01553 c -18.08635,20.76081 -3.63441,68.6476 -8.67633,99.46982 0.0926,84.77142 -0.64215,169.57392 1.20661,254.3229 24.34146,-6.70301 45.98237,-39.28183 68.59088,-56.80816 45.51192,-41.91656 89.73074,-85.6099 136.43926,-126.00011 47.03226,16.08921 -10.10689,43.59876 -25.19292,63.62027 -51.11154,49.45722 -105.65103,95.61556 -154.57968,147.17084 22.2816,10.13895 55.14232,1.73559 81.28476,4.75565 185.81346,0.28696 371.67774,1.49552 557.46952,-0.927 z M 1052,465.33332 c -3.6614,-4.97735 -1.2087,4.59893 0,0 z"
         id="path1946" /><path
         style="fill:#fcb7e9;stroke-width:1.33333"
         d="m 356.366,901.99612 c -29.88873,-8.32621 -55.55875,-37.39574 -51.53423,-69.66774 -1.27631,-123.93252 -0.9766,-247.88816 1.16822,-371.81 11.5498,-29.5085 40.23222,-54.47467 73.62979,-49.61644 83.1076,0.40651 166.26324,-0.11614 249.31932,3.21778 9.81386,5.22408 10.18263,26.40947 3.90302,22.50123 -90.44567,2.55758 -181.16231,-2.24678 -271.43749,4.17561 -27.124,16.37712 33.0762,36.10065 43.06895,51.59214 83.354,61.61571 165.30785,125.28866 251.03456,183.59125 29.04187,23.65457 60.57698,-3.35266 84.28192,-20.65336 56.05401,-40.46946 111.91705,-81.46335 168.19992,-121.42202 12.59056,-17.19653 48.13765,-36.10707 68.93241,-53.88971 17.35778,-10.64608 33.86731,-32.99718 50.73211,-29.9534 24.5336,1.26889 36.063,23.90281 31.9615,50.38486 1.5199,73.29267 2.3508,146.64838 0.8771,219.93945 -7.2005,-3.87119 -14.0439,-24.04808 -11.8279,-1.94992 -16.2534,-19.67668 1.6296,20.17676 10.3914,24.63606 0.6398,37.38599 4.9908,75.43664 -1.0232,112.49352 -10.4124,29.9092 -41.7353,51.17904 -73.65434,47.01526 -204.374,1.05624 -408.769,1.71197 -613.14142,0.40176 -4.9619,-0.23121 -9.96846,-0.11542 -14.88164,-0.98633 z m 643.63398,-30.3825 c 2.72312,-23.56993 -37.66078,-41.03118 -52.09666,-61.5001 -48.31353,-45.84955 -97.58175,-90.88611 -145.23667,-137.30472 25.04209,-31.64226 44.04484,12.54147 66.06298,26.01667 52.29255,47.0898 101.97151,97.2527 155.81397,142.50784 13.9997,-23.00034 3.6452,-59.04513 7.7896,-86.93566 2.4493,-56.70119 -2.8163,-113.06128 -1.1613,-169.8027 -0.6708,-34.17993 2.0331,-68.68222 -1.434,-102.66659 -25.3977,6.38982 -47.60105,33.9581 -71.63239,48.82398 -9.33246,12.03761 -37.40944,24.19528 -34.93884,20.92539 -5.37385,16.17043 -34.75331,24.50292 -48.03915,39.71805 -52.76937,39.1814 -103.88546,81.06805 -159.74085,115.76486 -31.91483,18.1294 -69.01265,2.672 -94.66072,-19.01152 -93.49592,-66.21731 -183.77246,-136.84516 -276.51681,-204.08475 -21.94473,7.466 -4.1637,54.38739 -10.01384,76.29775 0.75738,92.80832 -0.81929,185.68815 1.88397,278.45266 22.56829,-6.1228 43.6292,-36.69356 65.11718,-53.13272 46.43494,-42.40617 91.63288,-86.25482 138.92535,-127.66609 44.03967,12.36211 -4.99811,39.12859 -20.75398,57.32975 -52.17146,50.97133 -107.6169,98.80783 -158.0345,151.43293 25.72096,10.3448 61.24004,2.73533 90.74087,5.51853 181.40734,0.39878 362.844,1.90629 544.23613,-0.23012 z M 1052,465.33332 c -3.6614,-4.97735 -1.2087,4.59893 0,0 z M 755.52715,437.64696 c -17.98242,-2.45471 -32.51504,-29.67907 -47.88436,-26.41471 61.82006,-0.88325 123.6494,0.28234 185.45173,1.81302 18.70725,5.18774 25.55093,33.16768 -2.21525,24.56621 -45.10555,0.48011 -90.26214,1.38765 -135.35212,0.0355 z m -8.8605,-12.31364 c -5.04933,-10.93031 -1.97235,9.79533 0,0 z m -32.44444,0.44444 c -4.90973,-18.14626 18.53213,5.83431 0,0 z"
         id="path1944" /><path
         style="fill:#f9a7f7;stroke-width:1.33333"
         d="m 356.366,901.99612 c -29.88873,-8.32621 -55.55875,-37.39574 -51.53423,-69.66774 -1.27631,-123.93252 -0.9766,-247.88816 1.16822,-371.81 11.5498,-29.5085 40.23222,-54.47467 73.62979,-49.61644 83.1076,0.40651 166.26324,-0.11614 249.31932,3.21778 9.81386,5.22408 10.18263,26.40947 3.90302,22.50123 -90.44567,2.55758 -181.16231,-2.24678 -271.43749,4.17561 -27.124,16.37712 33.0762,36.10065 43.06895,51.59214 83.354,61.61571 165.30785,125.28866 251.03456,183.59125 29.04187,23.65457 60.57698,-3.35266 84.28192,-20.65336 54.11392,-38.70736 107.31104,-78.86961 162.11165,-116.48885 3.47787,0.30971 -2.87211,40.84949 6.107,14.47904 30.88818,0.60705 -30.67276,32.13275 -40.20535,43.59282 -51.36489,37.52621 -100.20709,79.04964 -154.97294,111.58482 -31.56723,16.05524 -67.17968,0.71123 -92.11447,-20.3453 -93.49592,-66.21731 -183.77246,-136.84516 -276.51681,-204.08475 -21.94473,7.466 -4.1637,54.38739 -10.01384,76.29775 0.75738,92.80832 -0.81929,185.68815 1.88397,278.45266 22.56829,-6.1228 43.6292,-36.69356 65.11718,-53.13272 46.43494,-42.40617 91.63288,-86.25482 138.92535,-127.66609 44.03967,12.36211 -4.99811,39.12859 -20.75398,57.32975 -51.61542,49.83665 -105.17718,97.69447 -155.87694,148.44916 7.71531,17.60076 53.22975,3.63244 75.06021,8.46346 187.13825,0.63996 374.34182,2.43836 561.44889,-0.56231 2.78482,-23.68344 -37.66139,-41.07303 -52.09666,-61.58251 -48.31353,-45.84955 -97.58175,-90.88611 -145.23667,-137.30472 25.04209,-31.64226 44.04484,12.54147 66.06298,26.01667 52.29255,47.0898 101.97151,97.2527 155.81397,142.50784 14.5054,-23.46706 2.6992,-60.78198 7.2267,-89.18791 1.5782,-10.72401 -1.9841,-57.17684 3.6805,-48.77247 5.5753,23.04506 32.059,37.11892 24.7387,66.65439 -1.7758,32.83211 7.9081,68.83677 -8.4223,99.04525 -17.6403,31.36969 -54.19426,36.61359 -86.67995,33.76222 -199.97146,0.45677 -399.96534,1.81101 -599.92689,-0.0527 l -4.32247,-0.23029 z"
         id="path1942" /><path
         style="fill:#f69bfa;stroke-width:1.33333"
         d="m 356.366,902.04507 c -29.85819,-8.43011 -55.58019,-37.40622 -51.53422,-69.71977 -1.27518,-123.88206 -0.97866,-247.78729 1.16821,-371.65864 11.28673,-28.6912 42.47921,-57.92628 75.07202,-45.65129 9.23878,5.37615 17.62367,12.80573 18.65871,22.074 -25.77004,-5.17543 -70.50604,10.00406 -28.72863,31.01108 50.06997,40.34599 104.32329,75.23676 152.95483,117.23287 21.51889,16.41653 46.41983,31.12772 68.01352,48.84253 28.70875,18.00865 53.75463,44.57473 87.58937,52.51889 32.05705,-0.4569 55.46276,-29.09622 81.96725,-44.28533 12.38353,-8.44664 35.40784,-25.13947 13.96585,-5.07609 -27.68552,11.92393 27.38381,18.64523 -4.21603,30.76647 -32.41737,20.93036 -64.9644,57.35366 -107.68401,44.32513 -37.50329,-14.8497 -67.39133,-43.81924 -100.72023,-65.96828 -73.15025,-53.77528 -145.20774,-109.04115 -218.6635,-162.39227 -21.94473,7.466 -4.1637,54.38739 -10.01384,76.29775 0.75738,92.80832 -0.81929,185.68815 1.88397,278.45266 21.98524,-5.72307 42.5363,-35.71414 63.49139,-51.68152 46.81919,-42.42774 91.77045,-87.14223 139.94481,-127.92802 47.45918,12.8176 -10.83802,41.44186 -25.76385,61.47254 -50.30674,49.19368 -103.9219,95.23604 -152.4183,146.13264 22.35753,10.25417 54.9645,2.24073 81.07837,5.3514 185.35409,1.22162 370.76341,3.59511 556.10106,1.21293 24.07385,-18.8687 -55.59954,-45.95699 -26.43333,-63.67924 7.53861,14.61307 23.642,3.21755 37.02648,23.52046 10.3407,16.11709 27.0309,7.87785 24.9734,-8.76426 40.5348,-16.32692 26.0688,34.94135 10.9222,52.70318 -21.5416,28.55073 -59.0811,24.9901 -90.77842,25.40221 -196.46837,0.71312 -392.96382,2.05516 -589.42337,0.3008 l -4.12161,-0.2368 -4.3121,-0.57604 z M 804.88887,675.11109 c -1.55657,-8.84859 9.96391,3.54096 0,0 z m -32.63333,-28.54444 c 5.67521,-5.40661 3.44926,5.80079 0,0 z M 403.89798,435.66666 c -2.48861,-18.06671 11.0673,-1.57436 0,0 z"
         id="path1940" /><path
         style="fill:#e9a3fa;stroke-width:1.33333"
         d="m 356.366,901.97804 c -29.90167,-8.28815 -55.55243,-37.39456 -51.53422,-69.65274 -1.27518,-123.88206 -0.97866,-247.78729 1.16821,-371.65864 11.28673,-28.6912 42.47921,-57.92628 75.07202,-45.65129 9.23878,5.37615 17.62367,12.80573 18.65871,22.074 -25.77004,-5.17543 -70.50604,10.00406 -28.72863,31.01108 50.06997,40.34599 104.32329,75.23676 152.95483,117.23287 21.13379,8.65446 27.32752,30.99091 44.64413,37.92996 2.54423,14.31193 20.52595,4.01318 4.7323,3.84781 13.71822,0.17618 10.59157,10.65803 27.51871,14.1944 8.36793,8.34682 12.46966,22.72436 24.35567,16.02767 7.37352,21.43908 32.35635,22.60984 52.1256,32.22679 9.02362,0.59736 41.4888,13.8668 34.25338,17.55303 -29.83562,18.8245 -66.32043,1.20974 -90.69843,-18.85518 -93.56,-66.23956 -183.87978,-136.91892 -276.67911,-204.19349 -21.94473,7.466 -4.1637,54.38739 -10.01384,76.29775 0.75738,92.80832 -0.81929,185.68815 1.88397,278.45266 21.98524,-5.72307 42.5363,-35.71414 63.49139,-51.68152 46.81919,-42.42774 91.77045,-87.14223 139.94481,-127.92802 47.45918,12.8176 -10.83802,41.44186 -25.76385,61.47254 -50.30674,49.19368 -103.9219,95.23604 -152.4183,146.13264 27.43408,10.69948 64.72084,2.38764 95.71287,5.6006 141.06329,1.26049 282.24699,0.11692 423.22879,3.61673 21.75792,7.31388 49.65421,20.72236 65.67549,25.96927 -189.83995,2.15419 -379.72558,1.99927 -569.57762,1.12809 -6.66511,-0.28357 -13.40208,-0.0382 -20.00688,-1.14701 z m 596.96731,-0.64473 c 4.5154,-3.72674 8.47605,1.04467 0,0 z M 707.49998,682.93632 c 3.98096,-12.30372 19.09477,-4.35832 1.22768,0.96671 z m 7.16667,-4.22783 c -3.62322,-2.70939 -4.86366,4.22919 0,0 z M 613.08332,652.4225 c 7.45405,-1.15108 -2.2925,2.28584 0,0 z M 403.89798,435.66666 c -2.48861,-18.06671 11.0673,-1.57436 0,0 z"
         id="path1938" /><path
         style="fill:#e99dfa;stroke-width:1.33333"
         d="m 356.366,902.02486 c -32.26644,-8.9329 -56.63419,-40.69077 -52.08241,-74.79621 -0.4642,-87.80422 0.20081,-175.63292 1.86043,-263.42098 4.30472,-17.24729 36.77829,-3.35717 22.419,9.90952 8.32074,34.21271 3.98131,71.62482 5.84319,107.11042 0.90973,52.66951 -0.78777,105.41335 1.69717,158.03222 24.33682,-7.34258 46.49745,-40.08018 69.58061,-57.30871 23.83399,-22.00133 48.56612,-44.66335 73.99233,-63.74997 -2.61687,26.98836 41.17159,-6.21568 13.85973,18.19883 -39.80411,44.37773 -86.08205,83.67051 -128.81452,125.61263 -3.69802,20.36571 42.5568,5.40624 58.37685,10.62924 85.58893,2.13861 171.35196,0.10768 256.83588,4.43256 27.30782,7.28208 56.08839,-3.37276 84.81962,-0.56626 40.37922,0.65391 81.05024,-2.07926 121.2461,1.14703 18.98081,9.37809 41.43994,17.79226 58.89073,24.32446 -190.90375,0.77778 -381.82726,2.16913 -572.7334,1.6003 -5.26493,-0.24429 -10.60441,-0.0605 -15.79131,-1.15508 z m 596.96731,-0.69155 c 4.5154,-3.72674 8.47605,1.04467 0,0 z M 482.66665,721.33332 c 3.40657,-4.78327 3.40662,4.78326 0,0 z m 184.16272,-9.38986 c -32.42562,-10.2239 -55.34714,-30.92888 -67.61212,-59.12135 13.20042,-7.13557 9.2676,8.08155 29.14072,8.81983 8.13191,20.19972 38.52818,24.0924 58.54308,28.91226 8.75234,6.57987 41.41787,15.17729 11.63787,21.55684 -10.44734,2.83014 -21.33713,3.28018 -31.70955,-0.16758 z M 497.33336,701.06624 c 12.32523,-16.8548 22.67075,-9.26913 0,0 z m 31.1618,-3.27486 c 10.59712,-16.00412 -25.31334,-14.67842 -0.2099,-27.24113 22.44989,-26.13301 39.42099,22.36551 7.87206,16.67454 3.57276,3.9098 -4.10182,19.99735 -7.66216,10.56659 z m 10.17149,-15.12473 c 6.98854,-9.79742 -16.79646,8.84578 0,0 z m 5.7371,-15.31507 c -5.7816,-7.3374 -5.41753,7.01894 0,0 z m 163.09623,15.58474 c 3.98096,-12.30372 19.09477,-4.35832 1.22768,0.96671 z m 7.16667,-4.22783 c -3.62322,-2.70939 -4.86366,4.22919 0,0 z M 613.08332,652.4225 c 7.45405,-1.15108 -2.2925,2.28584 0,0 z M 472.66666,549.33332 c -0.11186,-5.10845 6.09768,5.3805 0,0 z m -89.49927,-58.02981 c -20.55594,-24.09325 34.94333,4.56925 0,-4e-5 z m -75.1674,-26.3926 c -1.25512,-13.57802 20.12002,-34.70297 10.16078,-8.7842 -3.33137,2.78907 -5.60414,7.71462 -10.16078,8.7842 z"
         id="path1936" /><path
         style="fill:#d7a3fb;stroke-width:1.33333"
         d="m 356.366,901.94792 c -33.07341,-8.658 -57.29993,-42.08914 -51.76913,-76.48719 -0.28701,-88.84673 -2.14056,-177.91408 2.6545,-266.6105 10.25967,-13.95031 13.33313,20.79002 14.53948,2.31301 15.71894,23.33449 10.12242,53.54186 12.12192,80.69793 1.60791,65.65361 -0.48736,131.39172 2.19061,196.99866 24.59835,-7.49454 46.99711,-40.65552 70.34927,-58.01607 22.85213,-19.97455 45.4186,-43.91526 70.51229,-59.20344 10.89642,15.40903 31.09401,4.95143 11.05314,20.98123 -39.40469,41.38616 -82.32864,79.21869 -123.29655,118.99106 -3.69802,20.36571 42.5568,5.40624 58.37685,10.62924 86.08447,2.20397 172.35367,10e-4 258.32789,4.52469 11.1283,1.0992 22.54329,6.41708 22.57371,10.27572 16.84581,9.53422 51.61005,6.69794 56.91645,14.85885 -131.57295,3.10322 -263.25884,2.43708 -394.85541,1.00186 l -6.34312,-0.42557 z m 126.30065,-180.6146 c 3.40657,-4.78327 3.40662,4.78326 0,0 z"
         id="path1934" /><path
         style="fill:#c7a7fc;stroke-width:1.33333"
         d="m 356.366,902.04926 c -31.81886,-8.74394 -56.70677,-40.33435 -52.00572,-74.08543 0.88947,-37.39969 -3.81141,-75.89044 4.73374,-112.50245 19.16232,-11.832 27.19668,31.70713 24.66191,48.54519 6.04821,21.37527 -9.38007,69.32263 9.96984,74.70417 19.13961,-15.82957 39.22286,-37.14779 60.11787,-47.21948 37.64491,10.91593 -6.31728,34.26283 -18.67049,50.20188 -13.45399,10.86577 -38.8186,35.46329 -3.22092,31.33171 42.56075,2.1683 86.08632,-1.35569 127.85262,8.10839 14.88608,14.35324 58.00028,8.58451 62.36095,20.00681 -69.49196,2.58845 -139.13598,2.8007 -208.66884,1.90891 z m 67.10071,-103.16679 c 1.44196,-8.92181 7.85164,0.9293 0,0 z"
         id="path1932" /><path
         style="fill:#bbabfb;stroke-width:1.33333"
         d="m 361.33332,901.74551 c -33.64706,-5.76812 -60.79823,-38.19882 -55.85719,-72.86428 -1.44514,-11.53218 4.01371,-51.93277 12.26922,-36.92561 -9.49438,8.22742 22.91724,10.91519 14.16549,28.61547 -4.63309,24.06378 12.48084,20.35523 27.36319,22.58172 9.21984,11.55448 -11.16203,-3.13259 6.20347,9.51384 -16.88313,16.95295 12.18832,35.36646 22.9755,46.91866 -7.16229,4.63751 -18.67545,2.63235 -27.11968,2.1602 z m -37.33333,-87.07886 c -3.40656,-4.78328 -3.40661,4.78327 0,0 z m 0,-11.33334 c -7.70697,-8.2418 -5.39628,7.35477 0,0 z m 49.16325,78.33334 c -4.11883,-6.00259 7.44171,7.09748 0,0 z"
         id="path1930" /></g></g></svg>
