<?xml version="1.0" encoding="UTF-8" standalone="no"?>
<!-- Created with Inkscape (http://www.inkscape.org/) -->

<svg
   width="605.43811"
   height="705.53113"
   viewBox="0 0 605.43811 705.53111"
   version="1.1"
   id="svg5"
   xml:space="preserve"
   xmlns:xlink="http://www.w3.org/1999/xlink"
   xmlns="http://www.w3.org/2000/svg"
   xmlns:svg="http://www.w3.org/2000/svg"><defs
     id="defs2"><color-profile
       name="DP"
       xlink:href="../../../../../.local/share/icc/edid-27fd61d80a4d3102d04ad05b2e686881.icc"
       id="color-profile3947" /><color-profile
       name="DP"
       xlink:href="../../../../../.local/share/icc/edid-27fd61d80a4d3102d04ad05b2e686881.icc"
       id="color-profile3949" /><color-profile
       name="DP"
       xlink:href="../../../../../.local/share/icc/edid-27fd61d80a4d3102d04ad05b2e686881.icc"
       id="color-profile3951" /><color-profile
       name="DP"
       xlink:href="../../../../../.local/share/icc/edid-27fd61d80a4d3102d04ad05b2e686881.icc"
       id="color-profile3953" /></defs><g
     id="layer1"
     transform="translate(-355.74203,473.91793)"><g
       id="g2282"
       transform="translate(161.77312,-568.6715)"><path
         style="fill:#f7d0f7;stroke-width:1.33333"
         d="m 366.1605,800.02303 c -76.1739,-4.03871 -153.83547,-55.59009 -167.63057,-134.11489 -7.7676,-65.53876 -3.07589,-131.82938 -3.89175,-197.72173 1.2907,-18.94966 -2.34968,-38.85733 2.28649,-57.15703 9.50216,-34.62458 45.99637,-53.07915 80.04053,-48.82298 5.94437,-5.42646 0.8132,-21.92846 2.52864,-31.58385 -2.18484,-47.19295 2.38422,-96.93209 29.974,-136.90135 42.77594,-69.13051 126.91989,-107.275952 207.20985,-97.435218 96.6401,8.283908 190.31714,86.414158 196.44623,186.714588 10.10505,24.4119 -18.39429,83.94008 20.69612,80.22815 38.84937,2.03311 69.20205,39.43771 64.13169,77.82281 0.1618,72.60505 3.77331,145.41457 -1.02587,217.9034 C 785.70667,744.90865 697.4,804.86251 613.7195,799.64287 c -82.51469,0.66184 -165.0436,0.85217 -247.559,0.38016 z m 264.178,-33.82428 c 61.91032,-5.58474 124.93441,-49.39668 132.09696,-114.75317 2.92743,-75.87368 1.76284,-151.96055 0.81074,-227.88949 -5.80601,-40.18065 -53.72444,-25.0481 -81.74755,-28.16282 -140.1227,0.55638 -280.29521,-1.32517 -420.38429,1.67601 -42.18319,-0.93747 -28.89195,52.47495 -31.40052,79.46259 0.31929,58.23746 -0.81718,116.65964 0.2306,174.81026 9.14996,56.50795 56.9908,101.67025 112.8859,111.35039 47.8017,8.58998 96.91369,2.81766 145.26892,4.61497 47.41092,-0.22545 94.84303,0.14311 142.23924,-1.10874 z M 446.33133,679.33924 c -35.76594,-17.02262 -6.45426,-60.53658 -7.76405,-89.7537 4.80957,-25.79508 -22.30415,-45.85392 -14.40644,-73.46247 1.50375,-18.56153 14.76879,-36.13787 28.88062,-47.7863 40.5289,-31.47506 108.01321,-5.40613 115.74862,45.78671 8.26341,35.11841 -27.79513,62.6106 -10.71222,97.57628 10.26606,28.33795 12.44617,78.51668 -32.49308,68.75635 -26.40289,0.13205 -52.90479,0.72096 -79.25345,-1.11687 z m 80.82337,-33.68261 c 1.00539,-31.41699 -19.98735,-66.3476 -1.80555,-94.96956 26.39382,-27.55615 -6.53516,-73.55672 -41.05829,-59.84251 -34.78156,10.64701 -28.63587,53.3717 -8.09608,74.41861 0.53697,27.27923 -9.52279,53.5676 -8.70091,80.84316 19.86323,0.94955 39.83871,1.24275 59.66083,-0.4497 z m 68.89674,-282.92622 c 3.89402,-28.69996 2.69668,-59.42412 -0.82509,-88.52036 -14.68283,-52.59285 -76.57592,-85.47301 -128.44594,-66.75556 -40.31269,10.39035 -74.12597,49.34844 -69.73734,92.38231 2.51733,25.45577 -14.66088,74.61084 28.21747,62.10555 56.91643,0.54951 113.91933,1.14063 170.7909,0.78806 z M 361.1605,360.98973 c 8.15641,-3.84976 1.5132,-22.03577 3.66667,-31.70051 -0.68523,-35.89518 -2.78535,-75.31868 23.16834,-104.03974 32.76777,-46.07475 96.84942,-66.80576 149.92609,-46.16132 53.03061,15.05279 95.2984,67.23133 90.84842,123.61409 6.77656,16.12652 -13.42076,61.75143 12.90916,59.50415 13.12877,0 26.25755,0 39.38632,0 -2.1098,-48.78754 6.00781,-100.74037 -19.8492,-144.89089 -41.85064,-76.66041 -141.65038,-114.71837 -223.82904,-84.49332 -71.05979,21.4811 -126.49983,90.86067 -124.1527,166.28224 -0.60965,20.52248 -0.35109,41.0551 -0.40739,61.58317 16.01745,1.4154 32.25929,0.37586 48.33333,0.30213 z"
         id="path2304" /><path
         style="fill:#f9afed;stroke-width:1.33333"
         d="m 418.82717,798.11284 c -45.46402,-0.13541 -93.58055,1.34404 -133.91012,-23.34875 -56.28309,-26.30241 -91.28216,-88.17986 -87.46601,-149.84078 -0.21045,-70.43309 -2.22775,-141.05146 1.18533,-211.38358 7.4954,-33.57767 41.61856,-52.50743 74.27334,-50.19574 13.92918,1.37961 4.80957,-19.22295 7.73826,-28.33476 -0.0121,-41.40741 0.0816,-84.12173 19.69676,-121.82564 24.3913,-47.46429 67.52032,-88.29137 119.97264,-101.49359 13.40126,-0.0742 60.72683,9.15835 23.55619,15.51126 -75.80737,21.76198 -137.13504,94.9471 -132.20799,175.76697 2.72991,24.15107 -13.59388,72.14948 27.1616,60.55343 42.66943,11.52062 23.10449,-40.50141 27.48065,-65.35704 -4.09821,-76.90409 79.56342,-140.7652 153.01505,-120.23133 55.77942,8.8492 108.02294,57.69493 107.51333,116.55003 6.49038,25.0128 -16.5991,80.60135 27.60675,70.08179 45.0437,12.15024 23.14972,-44.68705 27.97241,-70.3819 0.91088,-39.43014 -15.46315,-76.49178 -37.08686,-108.59351 29.52792,2.75743 54.9859,32.07327 59.13211,63.04751 11.05083,37.26135 4.83684,76.47572 8.77566,114.56919 26.84246,1.61741 57.10322,7.76189 72.29149,33.14131 17.36948,29.75657 8.75744,66.00553 11.38801,98.85488 -0.57488,56.22727 2.3148,112.75361 -2.36485,168.78486 -14.24736,81.68909 -98.07591,137.24291 -178.28584,134.45117 -65.79825,1.64535 -131.63477,0.35068 -197.43791,-0.32578 z m 219.99999,-31.21221 c 58.27348,-7.89732 115.00414,-49.52031 124.7468,-110.12371 4.1047,-24.90485 0.85142,-50.71623 2.05957,-75.97794 -0.27456,-53.78839 1.43019,-107.98026 -0.083,-161.51615 -10.19761,-34.81923 -51.46374,-23.65345 -78.68584,-25.5852 -145.67658,-0.0955 -291.39064,-0.79128 -437.03975,1.93246 -18.96703,5.9921 -24.27643,25.05387 -21.66442,42.34625 0.33548,72.4277 -0.66879,145.03932 0.50064,217.35254 10.38166,55.38389 57.5308,98.2136 112.02974,109.01061 50.89658,7.3685 102.91985,3.06641 154.27396,4.6239 47.94467,-0.34558 95.9763,0.53686 143.86231,-2.06276 z M 450.9123,678.21379 c -39.0133,-12.16454 -9.92564,-57.87084 -10.8999,-85.75303 6.52944,-30.05082 -27.34038,-55.12339 -11.91376,-86.94503 12.11497,-38.62712 58.07816,-59.81399 95.26906,-43.48929 43.30785,15.06574 57.93429,74.21839 29.26769,108.91958 -5.40776,32.08251 18.06357,66.83158 6.1569,98.21891 -24.32459,18.55303 -60.92255,6.20309 -90.30679,9.77077 -5.86017,-0.13982 -11.73387,-0.12333 -17.5732,-0.72191 z m 77.5022,-31.52186 c 2.81758,-31.65711 -20.59024,-67.48998 -1.01475,-95.93412 26.75265,-29.16417 -7.67113,-74.62111 -43.23925,-62.06151 -39.941,12.87424 -25.45653,57.44598 -9.8228,82.21018 6.85718,23.23513 -30.7514,78.36939 8.82566,77.8886 14.80798,-0.99928 31.29083,2.4713 45.25114,-2.10315 z m 70.65469,-283.61645 c 0.22749,-32.97124 3.5963,-67.50081 -5.30748,-99.52753 -20.26241,-51.19057 -83.35277,-77.28422 -133.99353,-56.24454 -40.75866,13.18482 -69.15098,54.93854 -65.28137,97.82799 6.08103,15.84247 -14.161,60.94152 12.47697,58.49133 64.02548,0.6047 128.10032,1.1346 192.10541,-0.54725 z m 41.17649,-183.44161 c -6.29241,-11.41484 8.36061,6.83884 0,0 z"
         id="path2302" /><path
         style="fill:#fca8d9;stroke-width:1.33333"
         d="m 420.1605,798.11382 c -45.88733,-0.20322 -94.51306,1.6052 -135.24345,-23.34973 -54.68741,-25.86991 -90.5476,-85.37892 -87.4149,-145.87382 -0.65337,-69.99657 -1.45456,-140.04733 0.63365,-210.01721 5.39643,-36.71348 42.02511,-57.93934 77.05479,-54.60427 14.85205,-21.82745 3.17096,-62.6668 8.31671,-91.70062 7.41389,-54.98792 40.13588,-108.34857 89.03088,-135.60187 8.54843,15.64026 2.82135,26.82227 -10.22243,36.12333 -39.27137,37.47339 -55.98523,92.91561 -52.17871,146.27382 -1.81236,24.29746 -4.78604,55.02676 29.01652,44.76022 41.51809,12.35453 25.27451,-35.68423 28.41127,-59.87725 -4.02426,-43.60512 21.0557,-87.24404 59.202,-107.63139 14.60051,-9.01946 45.55652,-20.09113 66.70036,-2.00847 33.13292,-7.84844 65.79592,14.49259 94.49576,28.78907 35.37879,14.70088 39.45356,58.10306 37.81013,91.43115 -1.64722,27.21915 -4.01881,61.71208 33.98687,50.35385 41.4862,9.1813 17.3359,-47.47369 23.57991,-71.07221 2.94001,-15.82959 -17.8748,-73.78286 12.96098,-41.75238 22.29369,33.40728 10.32,75.50481 16.89,112.74179 32.73079,0.37008 63.12682,15.35373 74.06444,47.402 13.0011,27.79056 4.43285,61.43534 7.87973,91.60297 -0.58961,57.19525 6.52317,115.26716 -4.16546,171.80672 -20.10759,76.58063 -100.67505,125.02553 -177.39621,122.46647 -64.45733,1.6381 -128.94991,0.38331 -193.41284,-0.26217 z m 220.6846,-31.04307 c 60.63804,-8.59686 119.37907,-54.99387 124.47244,-118.96402 3.01069,-74.44726 2.50896,-149.11938 1.31841,-223.61493 0.37507,-19.71674 -19.53563,-36.2111 -38.67175,-32.25832 -157.80222,0.73899 -315.63765,-0.5843 -473.41253,2.1636 -41.24398,9.80565 -22.30371,61.69553 -27.13293,92.27154 0.8969,58.01109 -3.59968,116.43242 3.01017,174.1556 14.04791,68.81942 86.50876,111.615 153.7492,107.36747 85.50699,0.0455 171.2856,4.02731 256.66699,-1.12094 z m -184.6846,-88.4568 c -44.34277,-5.07955 -16.88877,-56.97695 -16.10985,-84.55891 8.72397,-29.35185 -25.61143,-53.44829 -12.17429,-83.98497 9.7415,-43.46909 63.40397,-65.9828 101.72062,-43.90614 37.36541,17.815 49.42303,69.56316 23.92664,102.12542 -8.67323,30.79213 13.17743,63.48157 7.86025,95.06368 -18.14054,28.04745 -60.78111,9.76826 -89.63705,15.46215 -5.19553,-0.0167 -10.39483,0.0695 -15.58632,-0.20123 z m 72.42143,-32.07422 c 2.72929,-30.10564 -17.22281,-63.11881 -3.28098,-91.17831 27.13259,-25.51102 4.25989,-76.00974 -33.41912,-68.56326 -33.01934,0.38832 -47.11488,46.00346 -24.43776,67.81451 17.65872,28.06787 -8.04973,62.35323 -1.0169,92.66039 20.08046,1.82721 42.75629,3.73617 62.15476,-0.73333 z m 72.12045,-284.98709 c 1.27375,-32.47584 2.549,-66.92578 -6.12404,-98.54103 -13.94509,-33.29797 -44.19409,-59.6819 -80.88942,-63.464 -29.34442,-5.05415 -61.48101,4.82815 -85.55046,21.85376 -30.31075,23.04936 -37.55502,62.35465 -34.81797,98.21581 3.59919,15.09203 -10.84651,52.02827 16.43561,44.96812 62.99952,1.49834 126.02364,0.86614 189.03548,0.9544 0.63692,-1.32895 1.27391,-2.65824 1.9108,-3.98706 z"
         id="path2300" /><path
         style="fill:#f08df6;stroke-width:1.33333"
         d="m 420.1605,798.11382 c -45.88733,-0.20322 -94.51306,1.6052 -135.24345,-23.34973 -54.68741,-25.86991 -90.5476,-85.37892 -87.4149,-145.87382 -0.65337,-69.99657 -1.45456,-140.04733 0.63365,-210.01721 5.39643,-36.71348 42.02511,-57.93934 77.05479,-54.60427 14.85205,-21.82745 3.17096,-62.6668 8.31671,-91.70062 7.41389,-54.98792 40.13588,-108.34857 89.03088,-135.60187 8.54843,15.64026 2.82135,26.82227 -10.22243,36.12333 -39.27137,37.47339 -55.98523,92.91561 -52.17871,146.27382 -1.81236,24.29746 -4.78604,55.02676 29.01652,44.76022 41.51809,12.35453 25.27451,-35.68423 28.41127,-59.87725 -4.02426,-43.60512 21.0557,-87.24404 59.202,-107.63139 10.48585,-0.79418 18.45655,-16.81196 33.4103,-3.09861 19.17235,-4.22245 28.86648,9.28636 3.45618,9.80636 -44.5762,11.12056 -75.29178,56.87099 -70.08972,102.27391 0.77015,27.69475 -10.63598,72.00435 32.52781,59.44153 56.68073,0.38803 113.42497,2.1811 170.07762,0.50163 10.86161,-15.94283 4.02083,-41.73399 6.32312,-62.05236 -1.81595,-16.89962 0.73131,-27.81382 15.96881,-9.70785 17.88265,20.92819 -11.59611,76.94667 28.36588,72.30069 16.32986,5.53044 40.9377,-4.49622 43.06124,-9.04905 20.47149,17.66929 52.53259,19.3116 72.41455,37.88831 30.14146,15.4252 35.16866,49.06472 32.26517,79.94949 0.0568,64.06738 6.01487,128.59764 -1.62101,192.36846 -15.72874,81.05134 -99.77737,134.01869 -179.35344,131.13845 -64.45733,1.6381 -128.94991,0.38331 -193.41284,-0.26217 z m 220.6846,-31.04307 c 60.65732,-8.59711 119.41248,-55.02551 124.47799,-119.01936 3.16407,-75.44801 2.18045,-151.10369 1.58042,-226.61029 -6.6471,-43.22516 -57.39188,-27.85695 -87.96872,-30.39771 -141.48451,1.12777 -283.01497,0.17374 -424.46546,3.38223 -41.15842,9.87334 -22.21121,61.6864 -27.05059,92.243 0.8969,58.01109 -3.59968,116.43242 3.01017,174.1556 14.04791,68.81942 86.50876,111.615 153.7492,107.36747 85.50699,0.0455 171.2856,4.02731 256.66699,-1.12094 z m -184.6846,-88.4568 c -44.34277,-5.07955 -16.88877,-56.97695 -16.10985,-84.55891 8.72397,-29.35185 -25.61143,-53.44829 -12.17429,-83.98497 9.7415,-43.46909 63.40397,-65.9828 101.72062,-43.90614 37.36541,17.815 49.42303,69.56316 23.92664,102.12542 -8.67323,30.79213 13.17743,63.48157 7.86025,95.06368 -18.14054,28.04745 -60.78111,9.76826 -89.63705,15.46215 -5.19553,-0.0167 -10.39483,0.0695 -15.58632,-0.20123 z m 72.42143,-32.07422 c 2.72929,-30.10564 -17.22281,-63.11881 -3.28098,-91.17831 27.13259,-25.51102 4.25989,-76.00974 -33.41912,-68.56326 -33.01934,0.38832 -47.11488,46.00346 -24.43776,67.81451 17.65872,28.06787 -8.04973,62.35323 -1.0169,92.66039 20.08046,1.82721 42.75629,3.73617 62.15476,-0.73333 z M 716.82716,373.70299 c -4.31686,-6.17596 -4.69601,-1.04392 0,0 z"
         id="path2298" /><path
         style="fill:#fc9bdc;stroke-width:1.33333"
         d="m 420.1605,798.11382 c -45.88733,-0.20322 -94.51306,1.6052 -135.24345,-23.34973 -54.69206,-25.87146 -90.55007,-85.38678 -87.41592,-145.88537 -0.65243,-69.965 -1.45687,-139.98458 0.63797,-209.92263 5.06903,-34.31739 38.66821,-56.9495 72.27608,-54.05661 25.8767,-7.97769 5.35256,-56.46734 14.4188,-80.50606 -7.65549,-26.58527 28.26608,-19.5273 21.65989,-3.66058 5.06208,24.9974 -4.92615,62.01271 8.72015,83.94269 24.38252,1.49212 64.17573,10.78603 54.75561,-27.97552 25.95289,1.3669 11.96109,38.31402 34.85762,49.3125 -12.06612,10.70081 -53.38919,3.2659 -75.92469,6.19345 -31.34938,4.17875 -70.13812,-8.92752 -95.01765,14.25295 -12.06619,30.86459 -3.59924,66.30022 -6.57789,98.9874 0.83621,51.75459 -3.23281,103.91082 3.12197,155.37784 13.63986,67.46108 83.81901,109.83539 149.74908,107.40386 85.56327,0.26039 171.24142,2.75113 256.74288,-0.59627 63.67091,-7.43066 127.08625,-57.25372 129.10168,-125.06302 5.16134,-28.64221 -3.50093,-62.26847 7.35228,-88.19404 29.41973,13.72572 19.7408,50.57774 21.28689,77.16177 6.55508,75.69828 -54.95285,142.58339 -125.74614,160.04022 -53.18821,12.02692 -108.46758,6.09359 -162.60346,7.43154 -28.71816,-0.19791 -57.43533,-0.52527 -86.1517,-0.89439 z m 36,-119.49987 c -44.34742,-5.08179 -16.88173,-56.9796 -16.11192,-84.56704 8.31952,-29.74042 -25.58745,-53.90789 -12.07988,-84.97681 8.81347,-31.5072 43.81853,-56.77882 76.36595,-47.55736 23.05577,8.29112 43.2915,15.81887 56.75309,42.69366 14.6506,26.73404 -4.66632,53.65763 -10.82377,78.51599 0.7835,30.13659 26.19401,69.28699 0.73662,93.30777 -31.15763,4.00552 -63.36308,2.19086 -94.84009,2.58379 z m 72.42143,-32.07422 c 3.0634,-30.8918 -18.9031,-65.44414 -1.63826,-93.60266 24.40287,-23.98503 4.62207,-69.61706 -29.57263,-67.28549 -31.94137,-2.54987 -54.04764,38.55285 -33.76581,63.73784 23.41666,26.51517 -1.29997,62.62148 1.45313,93.48142 11.19952,11.84014 46.98474,5.37797 63.52357,3.66889 z M 792.29211,453.79644 c -20.15488,-9.70858 -30.1446,0.13191 -24.8121,-27.7094 -0.6644,-43.3636 -50.66016,-34.81638 -80.31823,-34.99614 -30.91883,-0.80294 -73.28669,2.08444 -97.05444,-1.70792 -20.22789,1.25524 -34.25405,-25.23096 -47.04961,-22.76821 24.0547,-3.24243 70.24393,12.38663 58.80168,-29.33309 0.39172,-18.31754 0.64507,-36.63772 0.96775,-54.95657 29.02225,11.98436 20.20689,46.80497 23.23547,71.63606 3.49634,22.59022 41.76737,10.05252 58.23873,9.9119 3.808,-22.20401 29.09318,17.04566 47.40953,13.27968 24.17663,11.63488 52.4499,28.34976 61.7679,55.96726 0.0403,5.72402 2.25573,17.94773 -1.18668,20.67643 z m -75.46495,-80.09345 c -4.31686,-6.17596 -4.69601,-1.04392 0,0 z M 419.92352,228.06688 c -8.74417,-8.19135 -2.27521,-28.10328 -7.65979,-22.75036 19.53858,-4.9319 27.12408,-26.08673 47.9134,-11.8001 18.72744,-4.2342 29.18843,9.15632 3.76802,9.73975 -16.5846,4.60386 -31.39685,13.18883 -44.02163,24.81071 z"
         id="path2296" /><path
         style="fill:#d586fc;stroke-width:1.33333"
         d="m 420.1605,798.11382 c -45.88733,-0.20322 -94.51306,1.6052 -135.24345,-23.34973 -54.69206,-25.87146 -90.55007,-85.38678 -87.41592,-145.88537 -0.65243,-69.965 -1.45687,-139.98458 0.63797,-209.92263 5.06903,-34.31739 38.66821,-56.9495 72.27608,-54.05661 25.8767,-7.97769 5.35256,-56.46734 14.4188,-80.50606 -7.65549,-26.58527 28.26608,-19.5273 21.65989,-3.66058 5.06208,24.9974 -4.92615,62.01271 8.72015,83.94269 24.38252,1.49212 64.17573,10.78603 54.75561,-27.97552 25.95289,1.3669 11.96109,38.31402 34.85762,49.3125 -12.06612,10.70081 -53.38919,3.2659 -75.92469,6.19345 -31.34938,4.17875 -70.13812,-8.92752 -95.01765,14.25295 -12.06619,30.86459 -3.59924,66.30022 -6.57789,98.9874 0.83621,51.75459 -3.23281,103.91082 3.12197,155.37784 13.63986,67.46108 83.81901,109.83539 149.74908,107.40386 85.56327,0.26039 171.24142,2.75113 256.74288,-0.59627 63.67091,-7.43066 127.08625,-57.25372 129.10168,-125.06302 5.16134,-28.64221 -3.50093,-62.26847 7.35228,-88.19404 29.41973,13.72572 19.7408,50.57774 21.28689,77.16177 6.55508,75.69828 -54.95285,142.58339 -125.74614,160.04022 -53.18821,12.02692 -108.46758,6.09359 -162.60346,7.43154 -28.71816,-0.19791 -57.43533,-0.52527 -86.1517,-0.89439 z m 36,-119.49987 c -44.34742,-5.08179 -16.88173,-56.9796 -16.11192,-84.56704 8.31952,-29.74042 -25.58745,-53.90789 -12.07988,-84.97681 8.81347,-31.5072 43.81853,-56.77882 76.36595,-47.55736 23.05577,8.29112 43.2915,15.81887 56.75309,42.69366 14.6506,26.73404 -4.66632,53.65763 -10.82377,78.51599 0.7835,30.13659 26.19401,69.28699 0.73662,93.30777 -31.15763,4.00552 -63.36308,2.19086 -94.84009,2.58379 z m 72.42143,-32.07422 c 3.0634,-30.8918 -18.9031,-65.44414 -1.63826,-93.60266 24.40287,-23.98503 4.62207,-69.61706 -29.57263,-67.28549 -31.94137,-2.54987 -54.04764,38.55285 -33.76581,63.73784 23.41666,26.51517 -1.29997,62.62148 1.45313,93.48142 11.19952,11.84014 46.98474,5.37797 63.52357,3.66889 z"
         id="path2294" /><path
         style="fill:#cf79fc;stroke-width:1.33333"
         d="m 430.1605,798.06672 c -49.06303,-0.73368 -101.49152,3.56475 -145.24345,-23.30263 -55.68409,-26.1798 -90.94988,-86.99556 -87.68362,-148.22204 -0.0543,-70.85876 -1.32898,-142.00875 4.19985,-212.6536 4.88538,-23.24133 32.30133,-52.03893 54.77261,-37.63686 13.41994,3.21256 15.44044,9.73569 12.14192,-2.20082 7.6251,-6.8438 25.98786,6.25613 12.46936,8.19516 -6.09382,-2.22768 0.0703,12.76778 -5.40993,4.01642 -12.55441,-2.75345 -37.43926,6.49299 -47.62981,25.58936 -5.10962,14.61948 -0.79153,31.54156 -2.11631,47.08543 0.83423,64.60844 -1.21666,129.39305 3.34888,193.83926 8.97206,72.31992 84.04242,118.80858 153.01666,115.6435 86.6242,0.22505 173.37373,2.79083 259.93099,-0.64799 62.70942,-7.91087 122.78934,-57.76944 125.8522,-123.86407 4.40236,-14.84541 -2.38524,-57.0083 5.01708,-58.67097 11.15801,25.74581 29.04396,48.28813 17.84904,80.28595 -12.08003,74.09278 -85.91543,127.70648 -158.59777,131.17156 -67.28011,2.16559 -134.61339,2.17314 -201.9177,1.37234 z m 14.66735,-121.35826 c -31.83976,-22.61316 0.92787,-66.13335 -1.48957,-97.4614 -11.79351,-27.66072 -26.71119,-64.03315 -2.48704,-90.9771 8.79092,-24.77709 38.86764,6.80289 17.19419,18.76673 -17.7051,33.10208 27.21054,55.76292 11.85928,89.17595 -6.32766,26.05851 -13.53035,64.12882 26.57769,53.42842 22.89959,5.49502 42.3957,-2.43728 31.16554,-28.31007 -7.94615,-31.82626 -7.88476,-62.08474 11.42559,-88.88273 2.50051,-14.12093 -9.11791,-38.55968 13.08697,-18.24186 34.14373,16.08368 -12.03434,51.33098 -2.19879,75.62598 -0.4008,27.44688 29.16339,72.18457 -5.05258,87.02513 -33.27626,1.77354 -66.82635,1.92025 -100.08128,-0.14905 z"
         id="path2292" /><path
         style="fill:#ad8bfc;stroke-width:1.33333"
         d="m 430.1605,798.06672 c -49.06303,-0.73368 -101.49152,3.56475 -145.24345,-23.30263 -56.72523,-26.42073 -91.27582,-88.80643 -87.69255,-150.71979 0.0606,-61.25385 -1.79657,-122.82309 3.70245,-183.8379 31.94201,-8.16616 21.70161,48.52815 24.48874,70.64316 2.68524,52.2342 -2.42405,105.27334 6.54648,156.93418 17.37667,67.12567 90.46787,104.56133 156.24531,100.80808 82.8957,0.29746 165.9194,3.5055 248.74673,-0.17912 34.72074,-3.49351 65.66832,-20.19498 94.88207,-38.02091 12.28839,4.17648 36.80131,-5.07793 14.97396,14.35599 -37.20825,40.98114 -94.91842,55.84894 -148.68057,52.8848 -55.98625,1.16677 -111.97724,1.12456 -167.96917,0.43414 z m 14.66735,-121.35826 c -31.83529,-22.60445 0.91844,-66.11207 -1.49452,-97.43151 -2.8004,-16.53847 -23.28787,-46.00999 -11.15508,-56.56486 11.35553,17.51714 39.68157,28.66842 39.23858,51.58263 2.54044,23.94772 -14.40442,54.57659 -1.69398,73.74101 25.71071,1.10048 76.18099,13.90868 57.85982,-29.44996 -5.7002,-19.30563 -1.01086,-40.05868 17.96247,-16.27237 17.95982,23.67191 29.12837,85.01208 -19.55856,75.51914 -27.03642,0.20835 -54.19092,0.97703 -81.15873,-1.12408 z"
         id="path2290" /><path
         style="fill:#ad77fc;stroke-width:1.33333"
         d="M 368.1605,795.98231 C 293.37215,792.2046 215.06006,741.1725 202.95279,663.41445 c -6.22241,-63.84113 -2.65898,-128.30726 -2.97027,-192.40602 -7.5802,-22.83758 10.64885,-52.24428 22.34245,-17.31693 5.8906,69.98869 -4.52939,140.96375 6.19339,210.53296 15.1054,68.55072 87.85884,109.69511 154.8344,106.38062 85.25931,1.06348 170.81015,4.0676 255.93834,-0.61192 32.09958,-6.81304 62.40148,-19.85661 89.56055,-38.26363 11.39784,0.46487 39.55417,-4.94504 18.68489,12.28177 -36.2653,38.60753 -91.33968,54.13723 -143.14292,51.67988 -78.73972,0.55723 -157.49381,0.82836 -236.23312,0.29113 z m 84.60635,-120.41995 c -25.97735,-2.16986 -21.43119,-29.86547 -15.84216,-46.85384 9.84743,-32.11655 7.89899,-62.17599 -7.59852,-91.17311 -5.76032,-36.4623 31.21852,16.45127 40.1434,26.29079 5.86162,15.82228 -2.43201,35.5145 -3.81894,52.37262 -8.90366,21.84408 -2.53779,43.27484 24.57204,35.34534 33.15535,8.52642 50.22697,-7.6992 36.89315,-39.68236 -12.1966,-42.93975 36.08051,-2.11671 30.11839,20.36843 16.37097,34.21492 -14.95393,51.1986 -44.82401,43.72798 -19.87936,0.0547 -39.77378,0.3464 -59.64335,-0.39585 z"
         id="path2288" /><path
         style="fill:#9b82fc;stroke-width:1.33333"
         d="m 368.1605,795.94432 c -75.8307,-3.75868 -155.4518,-56.32156 -165.68562,-135.7735 -3.02469,-35.57103 -5.43334,-72.15207 -0.43279,-107.45904 21.08083,4.9357 22.07673,42.18107 21.59426,61.82502 -2.39074,50.15995 17.56611,103.48229 62.50309,129.7386 36.64215,25.03485 81.61741,27.86269 124.50718,26.89964 35.11741,1.83844 71.38444,-1.79444 105.74061,4.5497 21.98731,4.73542 39.66983,19.63096 62.85979,18.56234 5.66283,2.74308 -41.4778,1.56211 -53.14031,2.02991 -52.64671,0.10937 -105.30624,0.53429 -157.94621,-0.37267 z m 84.60635,-120.26729 c -30.89822,1.47674 -22.69661,-62.77883 2.237,-33.2373 16.42806,4.34277 46.11373,37.04756 14.34537,34.08137 -5.54073,0.45536 -11.08532,-0.2615 -16.58237,-0.84407 z"
         id="path2286" /><path
         style="fill:#9a7dfc;stroke-width:1.33333"
         d="m 368.82717,794.2047 c -21.12254,-3.87255 -79.75511,-4.02836 -70.66667,-32.79787 28.2983,-1.96004 63.19753,16.2515 95.65614,11.88193 39.66118,1.05444 79.37844,-1.04137 119.01053,0.76448 20.6455,7.07648 54.26977,21.89862 67.09843,21.05139 -34.47794,0.22358 -69.35893,0.0599 -103.43428,-3.3954 -28.42474,2.92422 -60.49227,-1.75971 -90.99748,3.00711 -5.56274,0.25163 -11.11959,-0.1715 -16.66667,-0.51164 z M 322.1605,775.63496 c -14.89822,-11.6006 -8.45696,13.90211 0,0 z M 444.54751,672.80982 c -21.02099,-11.23475 -10.08978,-57.86955 11.60916,-29.66807 14.52828,5.89326 30.81993,21.90181 26.4815,32.01966 -12.53563,-0.15614 -26.15193,2.1915 -38.09066,-2.35159 z"
         id="path2284" /></g></g></svg>
