<?xml version="1.0" encoding="UTF-8" standalone="no"?>
<!-- Created with Inkscape (http://www.inkscape.org/) -->

<svg
   width="605.87482"
   height="851.14459"
   viewBox="0 0 605.87482 851.14457"
   version="1.1"
   id="svg5"
   xml:space="preserve"
   xmlns:xlink="http://www.w3.org/1999/xlink"
   xmlns="http://www.w3.org/2000/svg"
   xmlns:svg="http://www.w3.org/2000/svg"><defs
     id="defs2"><color-profile
       name="DP"
       xlink:href="../../../../../.local/share/icc/edid-27fd61d80a4d3102d04ad05b2e686881.icc"
       id="color-profile4098" /><color-profile
       name="DP"
       xlink:href="../../../../../.local/share/icc/edid-27fd61d80a4d3102d04ad05b2e686881.icc"
       id="color-profile4100" /><color-profile
       name="DP"
       xlink:href="../../../../../.local/share/icc/edid-27fd61d80a4d3102d04ad05b2e686881.icc"
       id="color-profile4102" /><color-profile
       name="DP"
       xlink:href="../../../../../.local/share/icc/edid-27fd61d80a4d3102d04ad05b2e686881.icc"
       id="color-profile4104" /></defs><g
     id="layer1"
     transform="translate(-431.45891,445.10508)"><g
       id="g407"
       transform="translate(25.844408,-498.88134)"><path
         style="fill:#f9d0f3;stroke-width:1.33333"
         d="m 427.06503,904.6797 c -4.25626,-0.61684 -12.40131,-9.06336 -15.88351,-16.47141 -12.10874,-25.76023 -4.04835,-65.48708 20.13149,-99.22112 17.79682,-24.82889 42.52989,-43.30288 91.11517,-68.05709 48.78945,-24.85823 65.35622,-35.79246 86.42158,-57.03912 13.85595,-13.9752 21.76726,-23.92976 30.66331,-38.58277 3.47525,-5.7242 7.12435,-10.71683 8.10912,-11.09472 0.98476,-0.37788 8.11128,2.33231 15.83669,6.02265 10.41638,4.9758 14.0462,7.35203 14.0462,9.1952 0,3.17684 -16.51212,28.58586 -26.57842,40.89914 -25.2972,30.94402 -52.13167,50.60089 -108.08824,79.17713 -45.1354,23.05001 -60.80323,33.58086 -76.37299,51.33277 -9.6071,10.95355 -14.8824,19.76243 -19.87288,33.18442 -3.70025,9.95191 -4.11742,12.58375 -4.08188,25.75146 0.0296,10.95046 0.70523,16.66629 2.66662,22.55854 3.10721,9.33444 2.69881,11.64822 -3.0751,17.42214 -4.28233,4.28233 -8.93845,5.80662 -15.03716,4.92278 z M 692.17175,610.73556 c -9.16667,-3.78704 -26.26667,-11.70213 -38,-17.58909 -20.67288,-10.37219 -21.44588,-10.90995 -24.96885,-17.37023 -1.99954,-3.66666 -3.63552,-7.86666 -3.63552,-9.33333 0,-3.54031 6.6449,-15.3943 9.6532,-17.22053 1.90032,-1.15363 3.92297,-0.55599 10,2.95475 4.18981,2.42049 17.21784,9.12678 28.95117,14.90287 19.21276,9.45808 28.73722,13.11378 54.66666,20.98223 7.18882,2.18149 7.9635,2.76327 7.64,5.73749 -0.19798,1.82043 -1.84454,6.36263 -3.65901,10.09379 -2.58199,5.30944 -4.71647,7.5554 -9.82044,10.33333 -3.58679,1.95218 -8.24023,3.5145 -10.34099,3.47183 -2.10076,-0.0427 -11.31956,-3.17607 -20.48622,-6.96311 z m 49.33333,-47.13568 c -26.05732,-4.78986 -58.57061,-18.16339 -82.52588,-33.94493 -15.64928,-10.30961 -42.03406,-36.33973 -51.90981,-51.21204 -9.03148,-13.60088 -20.46087,-36.94757 -24.80389,-50.66666 -10.42487,-32.93091 -11.40026,-70.37023 -2.70492,-103.82572 2.98972,-11.50301 14.0261,-38.01933 55.84481,-134.17428 15.35547,-35.30728 18.27753,-39.68166 28.56621,-42.76422 6.49086,-1.94471 8.33059,-1.37345 36.86681,11.44742 11,4.94212 28.7,12.74411 39.33334,17.33774 32.29717,13.95248 49.92348,21.62052 82.66666,35.9628 17.23333,7.5486 41.23333,17.94044 53.33333,23.09297 79.74547,33.95797 113.09899,48.45332 121.17605,52.66278 3.21351,1.67476 7.71351,5.62755 10.00001,8.78398 7.5277,10.39173 8.7149,6.65181 -31.15463,98.1432 -6.71092,15.4 -15.55924,35.79999 -19.66295,45.33333 -21.56757,50.10376 -54.05646,85.00832 -99.2122,106.58896 -16.95884,8.1049 -27.1915,11.7621 -43.81294,15.65897 -15.68445,3.67718 -55.79271,4.55494 -72,1.5757 z m 54.70164,-35.19974 c 52.30864,-6.37107 100.74254,-41.53211 122.99666,-89.29056 5.8513,-12.55717 47.92311,-109.48684 51.27856,-118.14118 1.16741,-3.01099 1.79096,-6.33867 1.38567,-7.39486 -0.4053,-1.05618 -9.35267,-5.62349 -19.88305,-10.14957 -10.53038,-4.52608 -31.44615,-13.56984 -46.47948,-20.09723 -15.03334,-6.52739 -53.73334,-23.27406 -86,-37.21483 -57.45273,-24.82236 -116.92227,-50.72014 -131.16112,-57.11799 -11.87692,-5.33659 -12.72324,-4.95935 -18.90842,8.42849 -2.9593,6.40538 -5.20427,13.08863 -4.98883,14.85166 0.33617,2.75108 3.41597,4.56754 21.72504,12.81348 11.73333,5.28438 25.53333,11.37998 30.66666,13.54578 11.05107,4.66255 14.81388,9.74364 12.38195,16.71988 -1.76828,5.0725 -8.53875,9.41964 -13.04861,8.3782 -3.01696,-0.69669 -38.35465,-15.94204 -51.25044,-22.11041 -2.88775,-1.38128 -6.92555,-2.51141 -8.97291,-2.51141 -4.59269,0 -4.22116,-0.69931 -24.55734,46.22277 -18.65344,43.03945 -21.84906,55.30696 -21.87198,83.96326 -0.0215,26.87376 4.75044,48.47298 15.68538,70.99685 23.36912,48.13599 75.20831,84.11362 127.63395,88.58103 12.18774,1.03856 32.80224,0.81356 43.36831,-0.47336 z M 920.17174,226.38233 c -10.63333,-4.69638 -19.91642,-8.74837 -20.62909,-9.0044 -1.79809,-0.64598 0.046,-5.74033 11.68065,-32.26834 17.27786,-39.39496 27.66774,-61.21676 30.68894,-64.45575 4.15181,-4.45109 12.06944,-8.21593 17.20638,-8.18164 9.52569,0.0636 20.22836,7.80972 24.31817,17.60043 2.55556,6.11781 2.6541,5.83725 -21.20078,60.37029 -16.79501,38.39395 -19.89988,44.75339 -21.76167,44.57248 -0.53309,-0.0517 -9.66926,-3.93668 -20.3026,-8.63307 z M 775.51579,163.99179 c -12.71682,-5.65354 -18.80199,-9.05223 -19.11468,-10.67592 -0.25231,-1.31011 2.96109,-9.99248 7.14088,-19.29415 27.73144,-61.713423 31.96709,-70.388783 36.73784,-75.245463 4.84053,-4.92772 5.06134,-5 15.27586,-5 9.06362,0 10.92552,0.428027 14.83584,3.410573 6.08267,4.63948 10.19147,12.978614 9.41541,19.109293 -0.57125,4.512787 -6.80441,19.71692 -30.26093,73.813467 -8.25558,19.03942 -10.10346,22.32173 -12.52905,22.25472 -1.56487,-0.0432 -11.24039,-3.81087 -21.50117,-8.37252 z"
         id="path429" /><path
         style="fill:#f9aaeb;stroke-width:1.33333"
         d="m 425.85389,902.40017 c -5.48192,-2.30497 -11.65825,-10.00559 -15.11719,-18.84799 -4.38144,-11.20069 -4.44697,-34.0387 -0.14072,-49.03193 6.93298,-24.13873 21.75104,-47.92948 41.24225,-66.2154 15.94728,-14.96113 35.60278,-27.6516 71.37091,-46.08025 36.07165,-18.58503 49.53672,-26.43808 65.32424,-38.09816 19.7134,-14.55961 41.24521,-38.81412 54.60554,-61.51042 1.99862,-3.39522 4.60007,-6.17311 5.78102,-6.17311 3.5566,0 27.25181,11.06339 27.25181,12.72397 0,0.84836 -3.45,7.02752 -7.66667,13.73148 -21.05388,33.47294 -48.21361,60.13108 -83.29006,81.75188 -6.0738,3.74383 -25.9038,14.47388 -44.06669,23.84456 -18.16288,9.37068 -39.12023,21.09643 -46.5719,26.0572 -24.72689,16.46136 -42.191,37.43021 -49.88072,59.8909 -3.12888,9.13906 -3.64612,12.76714 -3.61162,25.33334 0.0281,10.2628 0.69793,16.41849 2.23062,20.50097 3.20758,8.54371 2.78463,12.72941 -1.81565,17.96885 -4.49511,5.11964 -9.92189,6.56056 -15.64517,4.15411 z M 692.17175,609.07111 c -23.94956,-9.73073 -54.61972,-24.9094 -58.26969,-28.83767 -1.615,-1.73814 -3.91144,-5.49393 -5.10319,-8.3462 -1.99173,-4.76688 -1.99416,-5.63802 -0.0301,-10.7809 1.1752,-3.07723 3.58729,-6.95769 5.36018,-8.62325 l 3.22347,-3.02828 10.40965,5.99242 c 27.13642,15.62136 51.76444,26.30864 73.07632,31.71131 6.6,1.67313 12.55075,3.52732 13.22387,4.12042 1.60853,1.41728 -1.38204,11.35872 -4.90915,16.31932 -2.84015,3.99443 -11.73745,8.786 -16.31472,8.78615 -1.46667,5e-5 -10.76667,-3.29095 -20.66666,-7.31332 z m 60,-45.32939 c -1.1,-0.21552 -6.5,-1.11042 -12,-1.98869 -12.37238,-1.97569 -38.30832,-10.57096 -53.12063,-17.60437 -6.11633,-2.90425 -18.20885,-10.01853 -26.87224,-15.80949 -42.90004,-28.67615 -71.99605,-72.40314 -82.04274,-123.29805 -4.86508,-24.64568 -3.8368,-54.3845 2.75777,-79.75726 3.06601,-11.79654 22.10204,-57.36579 55.77124,-133.50761 15.83212,-35.80382 18.69311,-39.78144 29.81299,-41.44897 6.45009,-0.96725 4.4571,-1.65656 41.02694,14.19005 8.8,3.81326 23.5,10.09172 32.66667,13.95214 9.16666,3.86041 21.46666,9.24678 27.33333,11.96972 5.86667,2.72293 14.86667,6.62784 20,8.67757 5.13333,2.04975 27.93333,11.9272 50.66666,21.94991 22.73334,10.02269 46.43334,20.21473 52.66667,22.64896 11.05841,4.3185 17.59891,7.14305 72.66667,31.38141 14.66666,6.45561 28.05609,12.15232 29.75427,12.65933 4.14755,1.23832 11.92925,8.20692 14.31385,12.81825 3.9294,7.5986 5.4232,3.23879 -27.13733,79.20163 -30.53186,71.23001 -33.67141,78.14006 -41.26437,90.82182 -28.78436,48.07563 -77.5732,80.96748 -136.14705,91.78596 -9.72242,1.79571 -43.95253,2.7096 -50.8527,1.35769 z m 53.06581,-34.58541 c 11.78089,-2.34637 25.79,-6.95893 38.13258,-12.55532 30.94816,-14.03257 64.13648,-47.21654 78.19804,-78.18778 2.32322,-5.117 9.79772,-22.20363 16.61002,-37.97029 6.81229,-15.76667 17.01454,-39.16667 22.67166,-52 15.45821,-35.06738 15.15119,-34.11348 11.97103,-37.19268 -1.45703,-1.41078 -8.64915,-5.04486 -15.98248,-8.07574 -7.33333,-3.03088 -18.43333,-7.83173 -24.66667,-10.66856 -6.23333,-2.83682 -16.73333,-7.38025 -23.33333,-10.09649 -6.6,-2.71624 -17.7,-7.53073 -24.66667,-10.69886 -12.99494,-5.90954 -44.67765,-19.65732 -65.99999,-28.63878 -19.92644,-8.39348 -39.32596,-16.72602 -52,-22.33521 -6.6,-2.92099 -18.9,-8.33133 -27.33334,-12.02299 -8.43333,-3.69166 -24.33333,-10.73722 -35.33333,-15.6568 -11,-4.91958 -21.8972,-9.22974 -24.21598,-9.57814 -5.0366,-0.75672 -6.01519,0.49394 -13.15471,16.81234 -7.337,16.76978 -9.99252,14.29568 37.5984,35.02952 18.24561,7.94903 21.79949,9.9691 23.11165,13.13695 1.19836,2.89308 1.17287,4.45251 -0.11213,6.86447 -2.08726,3.91769 -5.21124,6.35701 -8.21159,6.4119 -2.64792,0.0484 -17.76169,-6.06808 -43.3779,-17.55497 -20.61458,-9.24403 -23.99371,-9.40921 -27.31551,-1.33529 -1.11619,2.71296 -9.05477,21.13266 -17.64131,40.93266 -18.98394,43.77572 -21.97885,55.39319 -21.9984,85.33333 -0.0187,28.52398 4.5443,49.80725 15.36546,71.67079 24.558,49.61804 76.08695,85.09804 131.95205,90.85492 9.67598,0.9971 39.82489,-0.5057 49.73248,-2.47898 z M 918.50508,224.16717 c -10.08334,-4.45417 -18.33334,-8.67928 -18.33334,-9.38912 0,-3.40029 39.09652,-87.12599 42.37963,-90.7565 3.23988,-3.58271 11.54208,-7.57863 15.74589,-7.57863 10.02939,0 21.85435,8.14312 23.95,16.49287 0.79552,3.16961 -6.49084,22.948 -16.76484,45.50713 -2.33784,5.13333 -5.08937,11.65943 -6.1145,14.50244 -1.02514,2.843 -5.24208,12.893 -9.371,22.33333 -6.28952,14.38031 -7.96544,17.14986 -10.33282,17.07562 -1.55413,-0.0487 -11.07569,-3.73295 -21.15902,-8.18714 z m -140.92024,-60.8328 c -9.85613,-4.27129 -18.49933,-8.68402 -19.20711,-9.80608 -0.94225,-1.49378 0.69559,-6.28613 6.11622,-17.89606 4.07169,-8.72079 9.21174,-19.75597 11.42234,-24.52264 14.74255,-31.78904 19.47644,-41.089213 22.55043,-44.302506 8.93979,-9.344934 28.28789,-8.873707 35.71974,0.86996 1.82524,2.393 3.31862,5.719893 3.31862,7.393093 0,3.413 -5.47527,17.803266 -18.02459,47.372783 -4.6684,11 -11.12946,26.3 -14.3579,34 -3.22844,7.7 -6.71311,14.14792 -7.7437,14.32872 -1.0306,0.1808 -9.93792,-3.16597 -19.79405,-7.43727 z"
         id="path427" /><path
         style="fill:#faaed6;stroke-width:1.33333"
         d="m 425.85389,902.40017 c -5.48192,-2.30497 -11.65825,-10.00559 -15.11719,-18.84799 -4.38144,-11.20069 -4.44697,-34.0387 -0.14072,-49.03193 6.96276,-24.24241 21.74753,-47.92573 41.47004,-66.42968 16.00475,-15.0159 37.88687,-28.99564 73.2786,-46.81518 62.07876,-31.25633 88.04676,-51.59532 110.8642,-86.83248 4.27376,-6.6 8.86378,-13.32473 10.20004,-14.94387 l 2.42956,-2.94385 13,5.54813 c 8.59672,3.66891 13,6.25975 13,7.64904 0,2.61116 -13.99548,24.39044 -22.17091,34.5016 -29.25224,36.17843 -52.85517,54.07309 -109.82909,83.26743 -15.76667,8.07909 -33.95811,17.95348 -40.42541,21.94309 -30.56943,18.85795 -49.0732,39.68805 -57.72158,64.97842 -3.12345,9.1339 -3.64181,12.77423 -3.60734,25.33334 0.0281,10.2628 0.69793,16.41849 2.23062,20.50097 3.20758,8.54371 2.78463,12.72941 -1.81565,17.96885 -4.49511,5.11964 -9.92189,6.56056 -15.64517,4.15411 z M 693.50508,608.57566 c -22.35929,-9.34355 -42.35025,-18.48246 -50.26356,-22.97812 -13.22144,-7.5113 -17.53597,-16.42671 -12.61633,-26.07 4.8494,-9.50561 5.44599,-9.57179 18.54832,-2.05727 26.73865,15.33532 48.12225,24.56791 70.22633,30.32097 7.27545,1.8936 13.71257,3.74232 14.30472,4.10828 1.41697,0.87575 -3.38705,13.42342 -6.46156,16.87703 -3.05336,3.42984 -9.90111,6.35151 -14.69509,6.26983 -2.04023,-0.0348 -10.6095,-2.94659 -19.04283,-6.47072 z m 58.66667,-46.16727 c -1.1,-0.21552 -6.5,-1.11451 -12,-1.99776 -13.39144,-2.15055 -39.18942,-10.77316 -54.23213,-18.12632 -56.11918,-27.4321 -94.48266,-76.51386 -106.69796,-136.50806 -2.85748,-14.0342 -3.20566,-50.75815 -0.61528,-64.89908 3.00068,-16.38089 10.4597,-37.54592 21.63974,-61.40285 2.3278,-4.96727 7.7826,-17.41669 12.12179,-27.66539 13.92025,-32.8782 22.45051,-49.3014 22.45051,-43.22373 0,2.01655 13.47252,14.52439 15.64458,14.52439 0.96026,0 2.42936,1.5 3.26468,3.33333 0.83534,1.83333 2.02247,3.33333 2.6381,3.33333 0.61561,0 1.1193,1.2 1.1193,2.66667 0,2.16229 -0.88889,2.66667 -4.69966,2.66667 -3.91399,0 -4.92312,0.61298 -6.03631,3.66666 -0.73515,2.01667 -3.37239,8.46667 -5.86055,14.33334 -33.19536,78.26942 -34.07014,81.22375 -34.07014,115.06215 0,29.21003 3.77089,47.07811 15.01208,71.13359 8.20245,17.55278 18.73749,31.98914 34.02877,46.63032 24.17881,23.15084 50.34302,37.10042 83.62581,44.58554 14.77863,3.32363 48.81243,3.40955 65.03317,0.16416 41.79925,-8.36302 77.60588,-31.23845 103.43485,-66.08044 8.611,-11.61581 15.90458,-25.81005 28.89683,-56.23697 4.20968,-9.85876 10.28139,-23.47372 13.49268,-30.25545 3.21131,-6.78173 6.65841,-15.78173 7.66023,-20 1.00182,-4.21827 4.88996,-14.31851 8.64028,-22.44497 8.34234,-18.07676 9.2497,-21.85644 5.94809,-24.77747 -1.34171,-1.18704 -10.23947,-5.47813 -19.7728,-9.53576 -9.53333,-4.05763 -22.49232,-9.75331 -28.79775,-12.65707 -6.30542,-2.90376 -12.84676,-5.71829 -14.5363,-6.25453 -1.68954,-0.53624 -6.13055,-2.79672 -9.86891,-5.0233 -3.73837,-2.22659 -9.76924,-5.1501 -13.40192,-6.4967 -3.63268,-1.3466 -7.11249,-3.35542 -7.73292,-4.46406 -0.62041,-1.10864 -2.82476,-2.01571 -4.89853,-2.01571 -2.07376,0 -4.51742,-0.9 -5.43034,-2 -0.91292,-1.1 -2.48638,-2 -3.49658,-2 -1.01022,0 -1.8448,-1.05 -1.85463,-2.33333 -0.02,-2.6145 -3.86429,-8.02262 -10.25273,-14.42362 -2.34884,-2.35345 -4.67272,-5.99592 -5.1642,-8.09436 -0.49147,-2.09845 -3.29552,-6.06536 -6.23123,-8.81536 -2.93571,-2.75 -4.69723,-5 -3.91449,-5 0.78273,0 1.79397,0.6 2.2472,1.33334 0.45322,0.73333 1.99677,1.33333 3.43012,1.33333 1.43333,0 3.64792,0.54012 4.9213,1.20027 1.27339,0.66014 6.51524,2.85657 11.64858,4.88094 5.13333,2.02438 10.23333,4.4084 11.33333,5.29783 1.1,0.88944 4.4,2.3712 7.33333,3.29283 2.93334,0.92161 5.93334,2.11473 6.66667,2.65138 0.73333,0.53664 3.04041,1.3842 5.12684,1.88347 3.71768,0.88961 20.08481,7.88617 73.53983,31.43652 14.66666,6.4616 28.05609,12.1632 29.75427,12.67021 7.43635,2.22024 16.24575,13.08121 16.24575,20.02915 0,5.12033 -17.61539,46.1754 -22.02148,51.32406 -1.50961,1.76403 -4.57101,8.69018 -20.03765,45.33334 -2.01195,4.76666 -7.59495,17.96666 -12.40667,29.33333 -23.68237,55.94464 -51.43744,86.62474 -99.53422,110.0239 -30.14621,14.66617 -50.6094,19.41684 -82.50799,19.15476 -10.35394,-0.0851 -19.72534,-0.331 -20.82534,-0.54652 z M 930.83841,229.31403 c -21.53633,-9.00296 -30.66667,-13.32212 -30.66667,-14.50708 0,-3.42323 39.07656,-87.13281 42.37963,-90.7854 3.23988,-3.58271 11.54208,-7.57863 15.74589,-7.57863 10.02987,0 21.85436,8.14316 23.95023,16.49379 0.82194,3.27487 -3.71895,15.76117 -16.06436,44.17288 -3.18647,7.33333 -9.18988,21.43333 -13.34092,31.33333 -8.30981,19.81847 -10.59231,24.0156 -13.03453,23.96835 -0.89976,-0.0175 -4.93594,-1.41116 -8.96927,-3.09724 z M 777.50508,162.0104 c -17.70743,-7.59277 -17.99501,-7.78368 -17.69295,-11.74497 0.27852,-3.65267 6.39562,-18.52948 16.37434,-39.82251 20.91065,-44.62009 21.73834,-45.94493 30.51344,-48.84097 10.47648,-3.457546 22.1904,-0.868546 27.48655,6.075094 1.82524,2.393 3.31862,5.719893 3.31862,7.393093 0,3.523346 -5.75428,18.516466 -18.77363,48.915773 -5.0745,11.84865 -9.22637,21.95729 -9.22637,22.46366 0,2.38636 -11.27725,23.32382 -12.55131,23.30287 -0.79678,-0.0133 -9.54869,-3.49701 -19.44869,-7.74204 z"
         id="path425" /><path
         style="fill:#f08cf2;stroke-width:1.33333"
         d="m 425.85389,902.40017 c -5.48192,-2.30497 -11.65825,-10.00559 -15.11719,-18.84799 -4.38144,-11.20069 -4.44697,-34.0387 -0.14072,-49.03193 6.96276,-24.24241 21.74753,-47.92573 41.47004,-66.42968 16.00475,-15.0159 37.88687,-28.99564 73.2786,-46.81518 62.07876,-31.25633 88.04676,-51.59532 110.8642,-86.83248 4.27376,-6.6 8.86378,-13.32473 10.20004,-14.94387 l 2.42956,-2.94385 13,5.54813 c 8.59672,3.66891 13,6.25975 13,7.64904 0,2.61116 -13.99548,24.39044 -22.17091,34.5016 -29.25224,36.17843 -52.85517,54.07309 -109.82909,83.26743 -15.76667,8.07909 -33.95811,17.95348 -40.42541,21.94309 -30.56943,18.85795 -49.0732,39.68805 -57.72158,64.97842 -3.12345,9.1339 -3.64181,12.77423 -3.60734,25.33334 0.0281,10.2628 0.69793,16.41849 2.23062,20.50097 3.20758,8.54371 2.78463,12.72941 -1.81565,17.96885 -4.49511,5.11964 -9.92189,6.56056 -15.64517,4.15411 z M 693.50508,608.57566 c -22.35929,-9.34355 -42.35025,-18.48246 -50.26356,-22.97812 -13.22144,-7.5113 -17.53597,-16.42671 -12.61633,-26.07 4.8494,-9.50561 5.44599,-9.57179 18.54832,-2.05727 26.73865,15.33532 48.12225,24.56791 70.22633,30.32097 7.27545,1.8936 13.71257,3.74232 14.30472,4.10828 1.41697,0.87575 -3.38705,13.42342 -6.46156,16.87703 -3.05336,3.42984 -9.90111,6.35151 -14.69509,6.26983 -2.04023,-0.0348 -10.6095,-2.94659 -19.04283,-6.47072 z m 58.66667,-46.16727 c -1.1,-0.21552 -6.5,-1.11451 -12,-1.99776 -13.39144,-2.15055 -39.18942,-10.77316 -54.23213,-18.12632 -56.11918,-27.4321 -94.48266,-76.51386 -106.69796,-136.50806 -2.85748,-14.0342 -3.20566,-50.75815 -0.61528,-64.89908 3.00068,-16.38089 10.4597,-37.54592 21.63974,-61.40285 2.3278,-4.96727 7.7826,-17.41669 12.12179,-27.66539 13.92025,-32.8782 22.45051,-49.3014 22.45051,-43.22373 0,2.01655 13.47252,14.52439 15.64458,14.52439 0.96026,0 2.42936,1.5 3.26468,3.33333 0.83534,1.83333 2.02247,3.33333 2.6381,3.33333 0.61561,0 1.1193,1.2 1.1193,2.66667 0,2.16229 -0.88889,2.66667 -4.69966,2.66667 -3.91399,0 -4.92312,0.61298 -6.03631,3.66666 -0.73515,2.01667 -3.37239,8.46667 -5.86055,14.33334 -33.19536,78.26942 -34.07014,81.22375 -34.07014,115.06215 0,29.21003 3.77089,47.07811 15.01208,71.13359 8.20245,17.55278 18.73749,31.98914 34.02877,46.63032 24.17881,23.15084 50.34302,37.10042 83.62581,44.58554 14.77863,3.32363 48.81243,3.40955 65.03317,0.16416 41.79925,-8.36302 77.60588,-31.23845 103.43485,-66.08044 8.611,-11.61581 15.90458,-25.81005 28.89683,-56.23697 4.20968,-9.85876 10.30824,-23.62502 13.55235,-30.59169 3.24412,-6.96667 6.76488,-14.61667 7.82393,-17 6.48787,-14.60065 5.32365,-13.75667 16.02673,-11.61863 3.54333,0.70782 11.23213,8.01487 11.23213,10.67447 0,1.11795 -3.24022,9.66273 -7.2005,18.9884 -3.96027,9.32567 -8.84664,20.85576 -10.8586,25.62243 -2.01195,4.76666 -7.59495,17.96666 -12.40667,29.33333 -23.68237,55.94464 -51.43744,86.62474 -99.53422,110.0239 -30.14621,14.66617 -50.6094,19.41684 -82.50799,19.15476 -10.35394,-0.0851 -19.72534,-0.331 -20.82534,-0.54652 z M 920.17174,223.58465 c -9.16666,-4.04049 -17.20448,-7.86813 -17.86181,-8.50586 -0.69892,-0.67807 0.23669,-4.09567 2.25333,-8.23102 1.89667,-3.88933 6.7016,-14.03488 10.67762,-22.54565 7.55426,-16.17011 9.23178,-18.37588 12.13969,-15.96253 0.96728,0.80277 5.27453,2.10952 9.57168,2.90389 5.32091,0.98361 9.22167,2.68113 12.22931,5.32188 2.42897,2.13265 5.89542,3.87756 7.70325,3.87756 4.55696,0 4.29179,2.647 -1.90167,18.98196 -8.65541,22.82827 -13.07722,31.69552 -15.75564,31.59541 -1.314,-0.0491 -9.88909,-3.39514 -19.05576,-7.43564 z M 777.50508,161.95097 c -10.18171,-4.4014 -18.16903,-8.64069 -18.38915,-9.76009 -0.21404,-1.08844 3.68596,-10.027 8.66667,-19.86346 10.43089,-20.60016 8.2008,-19.45355 29.05581,-14.9393 14.3364,3.10324 18,4.86518 18,8.65676 0,4.25451 -16.11406,43.73481 -17.84014,43.70929 -0.82126,-0.012 -9.59319,-3.52358 -19.49319,-7.8032 z"
         id="path423" /><path
         style="fill:#fb90cf;stroke-width:1.33333"
         d="m 425.85389,902.40017 c -5.48192,-2.30497 -11.65825,-10.00559 -15.11719,-18.84799 -4.38144,-11.20069 -4.44697,-34.0387 -0.14072,-49.03193 6.96276,-24.24241 21.74753,-47.92573 41.47004,-66.42968 16.00475,-15.0159 37.88687,-28.99564 73.2786,-46.81518 39.84852,-20.06352 52.88965,-28.11211 76.29229,-47.08523 13.60443,-11.02946 30.47619,-31.44746 41.50201,-50.22522 1.99862,-3.40379 4.6231,-6.1887 5.83219,-6.1887 2.32552,0 23.02364,8.89042 25.06985,10.7682 1.52327,1.39788 -11.29816,23.00946 -20.50634,34.56514 -29.20838,36.65462 -53.2013,54.95051 -110.6962,84.41181 -15.76667,8.07909 -33.95811,17.95348 -40.42541,21.94309 -30.56943,18.85795 -49.0732,39.68805 -57.72158,64.97842 -3.12345,9.1339 -3.64181,12.77423 -3.60734,25.33334 0.0281,10.2628 0.69793,16.41849 2.23062,20.50097 3.20758,8.54371 2.78463,12.72941 -1.81565,17.96885 -4.49511,5.11964 -9.92189,6.56056 -15.64517,4.15411 z M 692.83842,607.96518 C 653.5134,591.73936 640.31495,585.12495 633.919,578.43771 c -5.78566,-6.04917 -6.77182,-12.09271 -3.13612,-19.21927 3.65335,-7.16115 5.96348,-7.93342 12.62807,-4.22154 35.28196,19.65057 56.75242,29.23345 76.56992,34.17537 6.86169,1.71111 12.7371,3.37243 13.05649,3.6918 1.46892,1.46892 -6.25719,15.43872 -10.02057,18.11849 -7.30135,5.19902 -11.21292,4.80792 -30.17837,-3.01738 z m 55.99999,-47.08979 c -11.42514,-1.43184 -31.33654,-6.40908 -42.29656,-10.57284 -6.80356,-2.5847 -14.14122,-5.36142 -16.30591,-6.17048 -3.94487,-1.4744 -16.92828,-8.92329 -29.38116,-16.8567 -9.95519,-6.34219 -27.9998,-22.25996 -37.22471,-32.83719 -14.20912,-16.29211 -30.26837,-42.84179 -32.03283,-52.95768 -0.74057,-4.24583 -0.3734,-5.39035 2.5426,-7.92577 4.207,-3.65795 9.99852,-4.21347 16.33318,-1.56667 3.68854,1.54116 4.37686,2.29703 2.92729,3.21449 -1.57496,0.99682 -1.52951,1.20298 0.26893,1.21995 1.63787,0.0155 2.12424,1.23636 2,5.02041 -0.12626,3.84755 0.33423,4.96388 1.99815,4.84332 1.47939,-0.1072 1.958,0.62463 1.5154,2.31714 -0.4118,1.57473 0.23837,2.81353 1.78897,3.40854 4.02526,1.54464 12.52878,10.25802 12.53114,12.84038 0.003,2.6807 23.95276,26.35425 34.94485,34.541 3.88153,2.89092 8.76941,6.55972 10.86196,8.15292 7.32872,5.57982 27.00782,14.85662 43.23004,20.3788 14.27924,4.86077 16.87401,6.20854 20.33333,10.56152 2.18093,2.74436 3.96533,5.50722 3.96533,6.13972 0,1.66066 5.02163,1.41845 5.58423,-0.26935 0.26021,-0.78064 2.86021,-1.69692 5.77777,-2.03617 5.66952,-0.65926 7.99519,0.69005 13.57791,7.87768 1.60432,2.0655 5.13165,5.5155 7.83852,7.66666 l 4.92159,3.91117 -15.85002,-0.19977 c -8.71749,-0.10987 -17.65,-0.42536 -19.85,-0.70108 z M 950.17174,403.53838 c -1.46666,-0.38225 -3.97642,-1.90189 -5.57724,-3.37698 -3.35381,-3.09039 -3.54198,-2.34758 5.50143,-21.71848 3.42361,-7.33334 7.09123,-15.28334 8.15028,-17.66667 6.48787,-14.60065 5.32365,-13.75667 16.02673,-11.61863 3.54072,0.7073 11.23213,8.01406 11.23213,10.6704 0,2.08672 -2.98361,9.62416 -12.17356,30.75384 -4.74962,10.9204 -5.64165,12.14842 -8.88635,12.23327 -1.98371,0.0519 -5.40675,0.39223 -7.60675,0.75631 -2.2,0.36408 -5.2,0.34921 -6.66667,-0.0331 z m -30,-179.95373 c -9.16666,-4.04049 -17.20448,-7.86813 -17.86181,-8.50586 -0.69892,-0.67807 0.23669,-4.09567 2.25333,-8.23102 1.89667,-3.88933 6.7016,-14.03488 10.67762,-22.54565 7.55426,-16.17011 9.23178,-18.37588 12.13969,-15.96253 0.96728,0.80277 5.27453,2.10952 9.57168,2.90389 5.32091,0.98361 9.22167,2.68113 12.22931,5.32188 2.42897,2.13265 5.89542,3.87756 7.70325,3.87756 4.55696,0 4.29179,2.647 -1.90167,18.98196 -8.65541,22.82827 -13.07722,31.69552 -15.75564,31.59541 -1.314,-0.0491 -9.88909,-3.39514 -19.05576,-7.43564 z M 777.50508,161.95097 c -10.18171,-4.4014 -18.16903,-8.64069 -18.38915,-9.76009 -0.21404,-1.08844 3.68596,-10.027 8.66667,-19.86346 10.43089,-20.60016 8.2008,-19.45355 29.05581,-14.9393 14.3364,3.10324 18,4.86518 18,8.65676 0,4.25451 -16.11406,43.73481 -17.84014,43.70929 -0.82126,-0.012 -9.59319,-3.52358 -19.49319,-7.8032 z"
         id="path421" /><path
         style="fill:#d987f9;stroke-width:1.33333"
         d="m 425.85389,902.40017 c -5.48192,-2.30497 -11.65825,-10.00559 -15.11719,-18.84799 -4.38144,-11.20069 -4.44697,-34.0387 -0.14072,-49.03193 6.96276,-24.24241 21.74753,-47.92573 41.47004,-66.42968 16.00475,-15.0159 37.88687,-28.99564 73.2786,-46.81518 39.84852,-20.06352 52.88965,-28.11211 76.29229,-47.08523 13.60443,-11.02946 30.47619,-31.44746 41.50201,-50.22522 1.99862,-3.40379 4.6231,-6.1887 5.83219,-6.1887 2.32552,0 23.02364,8.89042 25.06985,10.7682 1.52327,1.39788 -11.29816,23.00946 -20.50634,34.56514 -29.20838,36.65462 -53.2013,54.95051 -110.6962,84.41181 -15.76667,8.07909 -33.95811,17.95348 -40.42541,21.94309 -30.56943,18.85795 -49.0732,39.68805 -57.72158,64.97842 -3.12345,9.1339 -3.64181,12.77423 -3.60734,25.33334 0.0281,10.2628 0.69793,16.41849 2.23062,20.50097 3.20758,8.54371 2.78463,12.72941 -1.81565,17.96885 -4.49511,5.11964 -9.92189,6.56056 -15.64517,4.15411 z M 692.83842,607.96518 C 653.5134,591.73936 640.31495,585.12495 633.919,578.43771 c -5.78566,-6.04917 -6.77182,-12.09271 -3.13612,-19.21927 3.65335,-7.16115 5.96348,-7.93342 12.62807,-4.22154 35.28196,19.65057 56.75242,29.23345 76.56992,34.17537 6.86169,1.71111 12.7371,3.37243 13.05649,3.6918 1.46892,1.46892 -6.25719,15.43872 -10.02057,18.11849 -7.30135,5.19902 -11.21292,4.80792 -30.17837,-3.01738 z m 55.99999,-47.08979 c -11.42514,-1.43184 -31.33654,-6.40908 -42.29656,-10.57284 -6.80356,-2.5847 -14.14122,-5.36142 -16.30591,-6.17048 -3.94487,-1.4744 -16.92828,-8.92329 -29.38116,-16.8567 -9.95519,-6.34219 -27.9998,-22.25996 -37.22471,-32.83719 -14.20912,-16.29211 -30.26837,-42.84179 -32.03283,-52.95768 -0.74057,-4.24583 -0.3734,-5.39035 2.5426,-7.92577 4.207,-3.65795 9.99852,-4.21347 16.33318,-1.56667 3.68854,1.54116 4.37686,2.29703 2.92729,3.21449 -1.57496,0.99682 -1.52951,1.20298 0.26893,1.21995 1.63787,0.0155 2.12424,1.23636 2,5.02041 -0.12626,3.84755 0.33423,4.96388 1.99815,4.84332 1.47939,-0.1072 1.958,0.62463 1.5154,2.31714 -0.4118,1.57473 0.23837,2.81353 1.78897,3.40854 4.02526,1.54464 12.52878,10.25802 12.53114,12.84038 0.003,2.6807 23.95276,26.35425 34.94485,34.541 3.88153,2.89092 8.76941,6.55972 10.86196,8.15292 7.32872,5.57982 27.00782,14.85662 43.23004,20.3788 14.27924,4.86077 16.87401,6.20854 20.33333,10.56152 2.18093,2.74436 3.96533,5.50722 3.96533,6.13972 0,1.66066 5.02163,1.41845 5.58423,-0.26935 0.26021,-0.78064 2.86021,-1.69692 5.77777,-2.03617 5.66952,-0.65926 7.99519,0.69005 13.57791,7.87768 1.60432,2.0655 5.13165,5.5155 7.83852,7.66666 l 4.92159,3.91117 -15.85002,-0.19977 c -8.71749,-0.10987 -17.65,-0.42536 -19.85,-0.70108 z"
         id="path419" /><path
         style="fill:#d378f9;stroke-width:1.33333"
         d="m 425.85389,902.40017 c -5.48192,-2.30497 -11.65825,-10.00559 -15.11719,-18.84799 -2.51761,-6.43601 -3.05385,-10.41813 -3.11193,-23.10928 -0.0832,-18.16801 2.72652,-29.69982 11.83857,-48.58931 16.50319,-34.2115 45.67767,-59.75868 96.04175,-84.10079 69.01805,-33.35799 97.5209,-55.30825 124.19461,-95.64322 4.72833,-7.15 8.96076,-13 9.40538,-13 0.44463,0 4.56834,1.77646 9.16378,3.94772 4.59545,2.17124 9.93934,4.34526 11.87532,4.83117 4.30312,1.08001 4.13129,1.63503 -5.04308,16.28973 -19.20443,30.67627 -45.32882,56.43251 -78.92935,77.81709 -9.42611,5.99912 -55.06798,30.82147 -60,32.63102 -6.08129,2.23122 -36.67605,22.21032 -45.33333,29.60372 -17.88032,15.26997 -29.91435,31.98681 -36.14699,50.21287 -3.12345,9.1339 -3.64181,12.77423 -3.60734,25.33334 0.0281,10.2628 0.69793,16.41849 2.23062,20.50097 3.20758,8.54371 2.78463,12.72941 -1.81565,17.96885 -4.49511,5.11964 -9.92189,6.56056 -15.64517,4.15411 z M 709.50508,612.85883 c -1.1,-0.38879 -5.6,-2.36116 -10,-4.38304 -4.4,-2.02188 -9.35,-4.09684 -11,-4.61103 -1.65,-0.51418 -3,-1.74445 -3,-2.73392 0,-0.98948 -0.68604,-2.02772 -1.52453,-2.30722 -1.11115,-0.37038 -1.05403,-1.38732 0.21067,-3.7504 l 1.73518,-3.24224 1.32643,2.97264 c 0.72953,1.63494 1.95473,2.97262 2.72267,2.97262 0.85958,0 0.78126,-0.61498 -0.20375,-1.6 -2.3312,-2.3312 -1.96171,-4.36004 0.43223,-2.37325 1.11772,0.92763 2.41772,1.30109 2.88888,0.82992 0.47117,-0.47116 0.16472,-0.85667 -0.68099,-0.85667 -0.84572,0 -2.41511,-2.1 -3.48752,-4.66666 -1.07243,-2.56667 -2.65395,-4.66667 -3.51449,-4.66667 -1.15496,0 -1.13003,0.52367 0.0952,2 0.91292,1.1 1.10638,2 0.42992,2 -2.13214,0 -4.43072,-3.09292 -4.40951,-5.93333 0.0153,-2.05164 0.30761,-2.28004 1.17193,-0.9158 0.82035,1.29482 1.30178,1.36676 1.67399,0.25014 0.84617,-2.53854 7.80033,0.73056 7.80033,3.66691 0,2.64168 4.50511,7.34045 8.33333,8.69155 1.28334,0.45293 2.33334,0.24233 2.33334,-0.46798 0,-2.03349 2.87974,-1.51196 5.68886,1.03026 2.45047,2.21765 2.674,2.18776 4.98538,-0.66667 2.49453,-3.08063 5.8459,-3.61772 13.28729,-2.12944 3.87164,0.77433 4.22075,1.22964 3.54259,4.6204 -2.11395,10.56976 -12.97391,19.04921 -20.83746,16.26988 z m -55.33333,-24.31984 c -8.8,-4.28752 -17.36433,-9.26704 -19.03184,-11.06561 -4.15909,-4.48598 -5.722,-10.46388 -3.71581,-14.21248 l 1.59796,-2.9858 5.2415,4.71964 c 2.88284,2.5958 6.01263,4.73356 6.9551,4.75057 0.94246,0.0171 3.20296,1.00681 5.02332,2.19956 2.62244,1.71829 2.98856,2.55561 1.76309,4.03221 -1.9364,2.33323 -0.49583,4.00884 1.80491,2.0994 1.9793,-1.64268 2.89353,-1.07569 13.49897,8.37179 6.60888,5.88729 8.46155,10.08537 4.38681,9.94043 -0.8382,-0.0298 -8.72401,-3.56219 -17.52401,-7.84971 z m 26.10803,0.10573 c -0.79275,-1.48126 -1.41734,-3.48265 -1.38798,-4.44753 0.0293,-0.96488 0.97631,-0.0513 2.10435,2.03023 1.12803,2.08149 1.75261,4.08288 1.38797,4.44752 -0.36464,0.36465 -1.3116,-0.54895 -2.10434,-2.03022 z"
         id="path417" /><path
         style="fill:#a693fc;stroke-width:1.33333"
         d="m 425.85389,902.40017 c -5.48192,-2.30497 -11.65825,-10.00559 -15.11719,-18.84799 -4.38144,-11.20069 -4.44697,-34.0387 -0.14072,-49.03193 4.18951,-14.58672 13.188,-32.70212 22.55692,-45.41068 17.89624,-24.27553 42.01988,-41.51445 93.97215,-67.15316 19.27569,-9.51264 41.24949,-21.24472 48.83066,-26.07128 7.58119,-4.82655 14.09616,-8.77555 14.47772,-8.77555 0.38156,0 3.94145,3.3 7.91085,7.33333 3.9694,4.03333 8.10443,7.33333 9.18895,7.33333 3.62323,0 2.03272,2.52636 -5.02815,7.98669 -15.95044,12.33486 -43.89757,28.92583 -71.92594,42.69923 -15.37655,7.55617 -39.21317,22.78068 -49.74072,31.76948 -17.87771,15.26465 -29.91393,31.98401 -36.14699,50.21126 -3.12345,9.1339 -3.64181,12.77423 -3.60734,25.33334 0.0281,10.2628 0.69793,16.41849 2.23062,20.50097 3.20758,8.54371 2.78463,12.72941 -1.81565,17.96885 -4.49511,5.11964 -9.92189,6.56056 -15.64517,4.15411 z"
         id="path415" /><path
         style="fill:#ae70fa;stroke-width:1.33333"
         d="m 421.99834,897.44512 c -8.93222,-7.84259 -15.09426,-28.00682 -13.27888,-43.45288 4.6567,-39.62123 28.57937,-76.06433 67.58616,-102.95881 16.35964,-11.27967 17.87604,-12.13206 54.79891,-30.80308 17.37968,-8.7885 37.68246,-19.83596 45.11729,-24.54994 7.43482,-4.71395 13.83005,-8.57083 14.21161,-8.57083 0.38156,0 3.94145,3.3 7.91085,7.33333 3.9694,4.03333 8.10443,7.33333 9.18895,7.33333 3.62301,0 2.03287,2.52623 -5.02815,7.98816 -14.58176,11.27948 -30.54285,20.90848 -56.99999,34.38692 -32.92786,16.77491 -35.68055,18.31687 -52.66667,29.50196 -23.8102,15.67864 -41.87676,37.15901 -49.71332,59.107 -2.99932,8.40029 -3.4656,11.8899 -3.52071,26.34929 -0.0487,12.75525 0.50296,18.30321 2.35023,23.64003 2.81785,8.14084 2.21581,11.00212 -3.28976,15.63474 -5.54531,4.66607 -10.60735,4.3808 -16.66652,-0.93922 z"
         id="path413" /><path
         style="fill:#9070fb;stroke-width:1.33333"
         d="m 421.99834,897.44512 c -5.93956,-5.215 -10.5051,-15.02358 -12.60454,-27.07947 -3.51886,-20.20673 4.99813,-50.2305 21.0539,-74.21845 6.6884,-9.99275 19.69768,-23.70429 22.49023,-23.70429 0.89562,0 5.36384,3.56549 9.92936,7.92332 l 8.30097,7.92332 -3.16492,4.0869 c -1.74071,2.2478 -5.13891,6.56779 -7.55156,9.59998 -6.81279,8.5622 -14.46963,22.27353 -17.758,31.79981 -4.02751,11.66746 -4.42964,38.31148 -0.73916,48.97336 2.81785,8.14084 2.21581,11.00212 -3.28976,15.63474 -5.54531,4.66607 -10.60735,4.3808 -16.66652,-0.93922 z"
         id="path411" /><path
         style="fill:#7776fc;stroke-width:1.33333"
         d="m 421.99834,897.44512 c -5.9324,-5.20872 -10.5047,-15.02127 -12.59648,-27.03312 -1.82833,-10.4991 -0.96365,-18.72383 3.53622,-33.63576 3.68874,-12.22397 5.67733,-13.58112 11.23367,-7.66667 1.72234,1.83333 3.77692,3.33632 4.56575,3.33996 0.78884,0.004 3.23425,1.44739 5.43425,3.20832 l 4,3.20169 0.1,17.79168 c 0.0833,14.82175 0.58616,19.11227 3.01227,25.70276 3.34052,9.0745 2.97281,11.32499 -2.6192,16.03036 -5.54531,4.66607 -10.60735,4.3808 -16.66652,-0.93922 z"
         id="path409" /></g></g></svg>
