<?xml version="1.0" encoding="UTF-8" standalone="no"?>
<!-- Created with Inkscape (http://www.inkscape.org/) -->

<svg
   width="568.48083"
   height="468.33826"
   viewBox="0 0 568.48083 468.33825"
   version="1.1"
   id="svg5"
   xml:space="preserve"
   xmlns:xlink="http://www.w3.org/1999/xlink"
   xmlns="http://www.w3.org/2000/svg"
   xmlns:svg="http://www.w3.org/2000/svg"><defs
     id="defs2"><color-profile
       name="DP"
       xlink:href="../../../../../.local/share/icc/edid-27fd61d80a4d3102d04ad05b2e686881.icc"
       id="color-profile406" /></defs><g
     id="layer1"
     transform="translate(211.95595,269.78509)"><g
       id="g560"
       transform="translate(-591.02879,-528.75463)"><path
         style="fill:#f8cefa"
         d="m 575.55365,725.9086 c -40.53841,-1.94744 -58.36018,-4.29213 -76.77344,-10.10056 -31.27516,-9.8657 -55.56327,-33.68517 -65.66641,-64.39938 -3.1396,-9.54457 -4.69379,-16.86992 -7.22001,-34.03007 -2.15607,-14.64574 -2.27299,-18.3945 -2.30569,-73.92807 -0.0313,-53.22389 0.13575,-59.4019 1.85269,-68.5 3.92681,-20.80831 11.09888,-36.14428 22.98505,-49.14869 16.90673,-18.4973 37.56725,-26.76308 76.89229,-30.76276 59.38847,-6.0403 248.50088,-4.84238 289.90247,1.83635 31.6444,5.10475 53.63704,15.9265 66.61153,32.77703 19.83264,25.7575 24.15718,49.97901 22.81723,127.79807 -1.05179,61.0843 -4.92061,86.75555 -16.57963,110.01309 -10.98154,21.90608 -31.28072,39.02777 -56.51608,47.66944 -27.24609,9.33024 -69.43378,12.38474 -168,12.16365 -34.1,-0.0765 -73.7,-0.70113 -88,-1.3881 z m 192.46191,-52.96086 c 48.41797,-2.09346 62.4063,-4.66086 76.55194,-14.0502 9.21777,-6.1184 18.06111,-19.29109 21.78296,-32.44702 4.18945,-14.80879 6.73268,-51.77529 6.67402,-97.00849 -0.0671,-51.74387 -4.00308,-69.24872 -18.89155,-84.01821 -15.51362,-15.38965 -30.47225,-18.74792 -93.26314,-20.93797 -38.35211,-1.33767 -149.69775,-1.33361 -187.73954,0.007 -33.09309,1.16608 -58.91421,3.23797 -69.50771,5.57731 -17.74515,3.91864 -31.93128,14.20714 -39.03256,28.3084 -5.182,10.29006 -7.27877,19.62196 -8.48687,37.77164 -2.34509,35.23102 -0.66009,104.54404 2.967,122.04881 4.03606,19.47848 12.87322,34.16673 24.89735,41.3819 16.00531,9.60412 26.96221,11.49349 79.58619,13.72357 36.43707,1.54412 165.71699,1.31866 204.46191,-0.35657 z M 554.5257,579.62333 c -10.82603,-4.02076 -19.6104,-11.96903 -24.31164,-21.99766 -2.35209,-5.01744 -2.66041,-6.89383 -2.66041,-16.19074 0,-9.85345 0.20576,-10.93387 3.2677,-17.15867 4.17755,-8.49277 12.91631,-16.81552 20.7228,-19.7363 25.13649,-9.40477 52.4248,5.63445 56.45228,31.11214 2.61032,16.51275 -7.01436,34.27765 -22.77446,42.03632 -5.72363,2.81773 -7.66844,3.24124 -16.08946,3.50371 -7.44408,0.23202 -10.6994,-0.1176 -14.60681,-1.5688 z m 191.19292,-0.61947 c -11.45827,-4.7113 -18.33669,-11.22601 -23.30055,-22.06851 -6.96381,-15.21097 -2.45672,-34.54631 10.67239,-45.78434 12.26017,-10.49425 30.34544,-12.47149 45.62783,-4.98843 6.34458,3.10663 15.75398,12.69749 18.40842,18.7634 9.62801,22.00191 -1.1671,46.81576 -23.74653,54.58422 -8.2471,2.83742 -20.05493,2.62128 -27.66156,-0.50634 z m -342.44144,36.47578 c -13.81121,-4.96992 -21.1843,-13.78368 -23.20154,-27.73501 -0.54031,-3.73676 -0.99129,-20.77493 -1.00218,-37.86261 -0.0218,-34.22166 0.49926,-38.1548 6.0838,-45.92101 5.41078,-7.52458 14.92379,-13.32821 22.59465,-13.7844 l 3.80174,-0.22609 0.16231,42.5 c 0.0893,23.375 0.71523,51.34759 1.39102,62.16132 0.67579,10.81372 0.95437,20.37622 0.61907,21.25 -0.79576,2.07373 -3.94398,1.95857 -10.44887,-0.3822 z m 510.3482,0.19689 c -0.30967,-0.97569 -0.12184,-6.26319 0.41741,-11.75 0.94496,-9.61503 2.74645,-80.93571 2.58802,-102.45997 -0.0892,-12.12491 -0.0499,-12.16751 8.84459,-9.58181 7.50184,2.18084 15.31885,9.42756 19.17307,17.77429 l 2.90518,6.29148 v 38 c 0,34.41215 -0.1696,38.37767 -1.79627,42 -4.61365,10.27383 -10.73414,15.80461 -21.50511,19.43309 -7.51291,2.53092 -9.89573,2.5966 -10.62689,0.29292 z M 619.80365,382.74936 c -6.59247,-1.03486 -1.50534,-5.66627 14.79901,-13.47325 l 10.95099,-5.24364 18.23917,-0.041 18.23916,-0.041 13.68221,7.04813 c 13.12125,6.75916 16.69977,9.42489 14.97181,11.15286 -0.81676,0.81676 -85.92141,1.3766 -90.88235,0.59785 z m 38.75,-26.20594 -5,-0.5929 -0.28499,-10.25037 c -0.38899,-13.99105 -0.20534,-14.24963 10.12017,-14.24963 5.09486,0 8.72508,0.46026 9.46482,1.2 0.78239,0.78239 1.2,4.88889 1.2,11.8 0,6.91111 -0.41761,11.01761 -1.2,11.8 -1.23646,1.23646 -5.59067,1.32564 -14.3,0.2929 z m -11.28032,-32.53993 c -4.54185,-2.05183 -12.43529,-10.40695 -15.31739,-16.21328 -2.05359,-4.13719 -2.40229,-6.29124 -2.40229,-14.83969 0,-8.43645 0.36065,-10.72488 2.3066,-14.63612 3.72744,-7.49194 8.69447,-12.49293 15.96117,-16.07032 5.98697,-2.94738 7.57253,-3.28873 15.20802,-3.27411 7.42311,0.0142 9.36384,0.41364 15.02421,3.0922 7.60259,3.59764 15.02698,11.01176 18.15451,18.1294 5.21031,11.85763 2.82468,26.09055 -5.94449,35.46551 -8.05947,8.61622 -9.72221,9.2339 -25.71002,9.55082 -10.70057,0.21211 -14.77309,-0.0717 -17.28032,-1.20441 z"
         id="path582" /><path
         style="fill:#f8aff5"
         d="m 579.55365,724.90515 c -34.48835,-1.53919 -49.53904,-2.96036 -64.8537,-6.12386 -26.25629,-5.42368 -42.59733,-14.09729 -58.91151,-31.26947 -16.80224,-17.68591 -24.42277,-37.03487 -29.36576,-74.5613 -2.60715,-19.79305 -2.66762,-117.96514 -0.0827,-134.26229 2.91521,-18.37952 7.0744,-29.495 15.9107,-42.52144 5.9497,-8.77104 9.55163,-12.51728 18.30297,-19.03627 23.11975,-17.22222 48.31976,-21.49573 139.5,-23.65692 62.49401,-1.48126 153.90715,-0.0509 192,3.00427 41.64761,3.34028 62.53432,10.39153 80.45994,27.16289 13.19652,12.34677 21.17021,25.80957 25.4348,42.9442 4.34098,17.44153 4.60566,21.98326 4.59609,78.86556 -0.008,46.89936 -0.26326,56.45246 -1.83117,68.5 -3.40555,26.16779 -6.68204,38.7348 -13.7735,52.82848 -5.28113,10.49579 -10.03245,16.72536 -19.58493,25.67824 -20.63379,19.33864 -45.0921,27.4837 -93.00367,30.97192 -43.02755,3.13263 -141.03755,3.87526 -194.79756,1.47599 z m 197,-50.38361 c 38.10041,-2.23706 47.67224,-3.85584 62.03323,-10.49102 15.69478,-7.25144 26.31986,-23.04939 30.98981,-46.07734 3.34474,-16.49325 4.80034,-49.96245 4.24061,-97.50613 -0.49704,-42.21809 -1.30748,-48.18235 -8.48378,-62.4347 -4.76498,-9.46339 -15.31711,-19.92913 -24.56383,-24.36271 -19.15829,-9.18596 -52.39001,-11.44376 -170.21604,-11.56466 -98.57806,-0.10115 -149.3854,2.09321 -169.89054,7.33754 -24.78631,6.33928 -40.25477,23.7508 -44.56893,50.16742 -2.22332,13.61393 -3.18165,54.45228 -2.06178,87.86058 1.24076,37.01487 2.05799,45.45225 5.57941,57.60393 7.45895,25.7393 19.80947,38.22405 43.91093,44.38816 12.95349,3.31295 17.93262,3.7137 79.53091,6.40111 17.77346,0.77543 176.21323,-0.30719 193.5,-1.32218 z M 561.30828,579.38435 c -12.27262,-1.59487 -23.52595,-10.0672 -29.1335,-21.93383 -3.67218,-7.77102 -4.20621,-21.05429 -1.17181,-29.14709 5.36211,-14.30087 18.72598,-22.85291 35.71118,-22.85291 11.74135,0 18.96861,2.90895 27.86197,11.21437 9.69268,9.0519 11.83896,14.24128 11.28509,27.28563 -0.48082,11.32387 -2.88541,16.68723 -11.24763,25.08751 -8.96487,9.00567 -19.18668,12.18109 -33.3053,10.34632 z m 191.74537,0.0668 c -19.40134,-3.29429 -33.05367,-20.68053 -31.78328,-40.47599 1.41741,-22.08631 20.38269,-37.12208 42.48876,-33.68532 8.81114,1.36984 13.53905,3.65607 22.45054,10.85623 10.26717,8.29549 14.1316,18.28051 12.11565,31.30471 -1.94911,12.59228 -8.53472,22.22319 -18.95074,27.71386 -8.99698,4.74263 -16.46852,5.95941 -26.32093,4.28651 z m -348.05468,35.56747 c -11.00635,-4.11254 -19.3204,-11.62582 -22.49012,-20.32395 -2.60894,-7.1593 -3.44227,-69.84268 -1.05251,-79.17081 2.57893,-10.06655 8.55185,-16.87415 19.00343,-21.65904 3.06962,-1.40532 6.59649,-2.41095 7.8375,-2.23474 l 2.25638,0.32039 -0.34634,32 c -0.20303,18.75811 0.20367,41.93142 0.9828,56 1.87437,33.84475 1.8373,35.95305 -0.63646,36.19818 -1.1,0.109 -3.5996,-0.39951 -5.55468,-1.13003 z m 510.3109,0.17218 c -0.599,-0.76388 -0.67005,-4.31337 -0.18494,-9.24033 1.80498,-18.33212 3.03872,-54.91894 2.79883,-83 l -0.25627,-30 2.19946,-0.32039 c 3.45205,-0.50284 12.59846,4.21196 17.03056,8.77894 8.86052,9.13016 10.11883,15.35906 10.10894,50.04145 -0.0115,40.43681 -1.4398,47.85752 -10.79627,56.09342 -6.07559,5.34795 -18.9961,10.07525 -20.90031,7.64691 z M 619.05365,380.4285 c 0,-1.52728 7.9413,-6.27184 17.77684,-10.62084 l 8.72316,-3.85714 17.5,-0.29391 17.5,-0.29391 13.47743,6.79391 c 7.41258,3.73665 13.63758,7.35641 13.83333,8.04391 0.28092,0.98663 -9.03761,1.25 -44.22743,1.25 -29.69605,0 -44.58333,-0.34127 -44.58333,-1.02202 z m 35.78355,-26.19082 c -0.25242,-0.70794 -0.25309,-5.67961 -0.001,-11.04817 0.43956,-9.37896 0.5541,-9.78526 2.92662,-10.38072 2.67967,-0.67255 13.13313,0.15021 14.09207,1.10915 0.32461,0.3246 0.61473,5.18973 0.64472,10.81138 l 0.054,10.2212 -8.62875,0.28716 c -6.3415,0.21105 -8.75041,-0.054 -9.0877,-1 z m -1.28355,-30.65015 c -6.39818,-0.91229 -8.04437,-1.87341 -13.86261,-8.09359 -6.59454,-7.05009 -8.83335,-12.50241 -8.75087,-21.31158 0.11846,-12.65257 5.79678,-23.46375 14.54915,-27.7007 4.90354,-2.37376 8.19097,-2.10653 7.1593,0.58196 -0.33689,0.87793 -0.0984,3.31237 0.53006,5.40986 1.35419,4.51991 7.73373,9.15727 15.17521,11.03106 2.60357,0.65558 4.97766,1.58662 5.27578,2.06898 0.29811,0.48235 3.82977,0.877 7.84814,0.877 5.79062,0 7.83325,-0.41464 9.84735,-1.99893 l 2.54122,-1.99892 1.59363,4.67706 c 3.3913,9.95292 1.19347,19.31499 -6.5142,27.74841 -2.84681,3.11486 -6.66008,6.0626 -9.1117,7.04355 -4.7255,1.89076 -18.55504,2.76738 -26.28046,1.66584 z"
         id="path580" /><path
         style="fill:#fca4dd"
         d="m 579.55365,724.9629 c -34.747,-1.6224 -49.66675,-3.04449 -64.8537,-6.18161 -26.25629,-5.42368 -42.59733,-14.09729 -58.91151,-31.26947 -12.97805,-13.6606 -21.14173,-30.11536 -25.58105,-51.5613 -4.49037,-21.69255 -5.29481,-32.92673 -5.87175,-82 -0.57077,-48.54768 0.13588,-65.81777 3.3552,-82 7.06168,-35.4962 30.1016,-59.77146 64.48624,-67.94383 31.24395,-7.42591 67.71649,-9.19138 183.37657,-8.87647 110.59173,0.30112 133.53806,1.64595 160.42517,9.40212 13.52798,3.90244 21.45384,7.91871 31.4136,15.91818 18.79931,15.09923 27.8087,32.08366 32.88788,62 1.79857,10.59354 1.75709,110.12914 -0.0523,125.5 -3.39082,28.80529 -6.87317,42.97485 -14.25421,58 -8.11505,16.51931 -19.95585,29.03564 -36.30328,38.37443 -29.3754,16.78126 -64.94135,21.06517 -179.61686,21.63484 -41.16301,0.20449 -72.05897,-0.13584 -90.5,-0.99689 z m 186,-48.53397 c 49.61792,-2.27445 57.36913,-3.47085 73.90484,-11.40722 8.2003,-3.93576 10.10785,-5.36644 15.05197,-11.28906 12.41888,-14.87676 17.55026,-31.49652 19.47411,-63.07376 2.8649,-47.02315 2.04164,-99.7739 -1.82142,-116.70837 -2.30442,-10.10185 -3.98569,-14.04059 -9.59485,-22.47796 -9.404,-14.14564 -23.37162,-21.94062 -45.61321,-25.45561 -46.80873,-7.3975 -253.01585,-7.45156 -302.90144,-0.0794 -33.64364,4.9719 -50.75707,19.72798 -57.42285,49.51298 -2.83109,12.65026 -3.96023,50.864 -2.65318,89.79174 1.34194,39.96665 2.04516,47.42721 5.63951,59.83055 8.74569,30.17954 25.20876,43.20861 59.78376,47.31358 32.10627,3.81186 193.39866,6.46075 246.15276,4.04254 z m -205.7685,-97.96159 c -13.86181,-2.48927 -25.77394,-14.06519 -28.29335,-27.49479 -0.35001,-1.86574 -0.35929,-3.84061 -0.0206,-4.38859 0.63283,-1.02393 15.02843,8.09721 19.60622,12.42261 2.67134,2.52406 16.11529,9.44395 18.3477,9.44395 0.72521,0 2.13306,0.9 3.12855,2 2.3018,2.54346 3.47763,2.49496 11.9451,-0.49266 3.8198,-1.34776 7.19328,-2.20229 7.49661,-1.89896 0.30333,0.30333 -1.07375,2.04095 -3.06019,3.86139 -5.86244,5.37252 -19.11522,8.34908 -29.15002,6.54705 z m 221.2685,-8.01682 c 0,-0.55 0.47656,-1 1.05902,-1 0.58246,0 0.7809,0.45 0.44098,1 -0.33992,0.55 -0.81648,1 -1.05902,1 -0.24254,0 -0.44098,-0.45 -0.44098,-1 z m 4,-4 c 1.05696,-1.97494 3,-2.75216 3,-1.2 0,1.05167 -2.17195,3.2 -3.23518,3.2 -0.45935,0 -0.35352,-0.9 0.23518,-2 z m -380.05468,48.56815 c -7.40381,-2.76645 -11.81497,-5.62931 -16.21586,-10.52416 -7.72652,-8.59375 -7.9369,-9.7993 -8.47809,-48.58325 -0.52565,-37.66972 0.0616,-43.044 5.51312,-50.45336 5.31666,-7.22606 14.26838,-12.89569 20.98359,-13.2901 l 3.6995,-0.21728 -0.31666,32 c -0.18162,18.35333 0.24868,42.235 1.00901,56 1.87018,33.85747 1.83313,35.95312 -0.63993,36.19818 -1.1,0.109 -3.5996,-0.39951 -5.55468,-1.13003 z m 510.93626,-0.73869 c -0.0651,-0.73121 -0.0643,-1.66947 0.002,-2.08503 0.0661,-0.41557 0.83433,-13.24057 1.70706,-28.5 1.03525,-18.10107 1.46907,-38.60629 1.24814,-58.99455 l -0.33878,-31.25012 2.43428,1.2e-4 c 6.73079,3.3e-4 18.12635,9.56154 22.38645,18.78289 2.05038,4.43823 2.19805,6.40941 2.49688,33.32805 0.39062,35.18798 -0.61741,48.16548 -4.2186,54.31044 -3.1707,5.4104 -7.59399,9.22143 -14.09901,12.14749 -6.8292,3.07188 -11.4658,3.97407 -11.61842,2.26071 z M 622.05365,379.51044 c 0,-0.51704 4.8375,-3.27712 10.75,-6.1335 9.89428,-4.78003 11.58582,-5.26965 21.25,-6.15095 5.775,-0.52663 14.24643,-0.71106 18.82539,-0.40985 7.50656,0.4938 9.49512,1.10728 20.21849,6.23751 6.5412,3.12941 11.65571,6.07392 11.36559,6.54335 -0.7363,1.19136 -82.40947,1.10557 -82.40947,-0.0866 z m 34.66667,-25.72659 c -0.84605,-0.84605 -0.84852,-14.05183 -0.003,-17.21013 0.60586,-2.26371 0.92254,-2.34686 6.65534,-1.74767 3.31056,0.34602 6.28066,0.89003 6.60021,1.2089 0.31955,0.31886 0.73827,4.59282 0.9305,9.49766 l 0.34928,8.91791 h -6.93284 c -3.81305,0 -7.23283,-0.3 -7.59949,-0.66667 z"
         id="path578" /><path
         style="fill:#d3acfc"
         d="m 579.55365,724.9629 c -34.747,-1.6224 -49.66675,-3.04449 -64.8537,-6.18161 -26.25629,-5.42368 -42.59733,-14.09729 -58.91151,-31.26947 -12.97805,-13.6606 -21.14173,-30.11536 -25.58105,-51.5613 -4.49037,-21.69255 -5.29481,-32.92673 -5.87175,-82 -0.57077,-48.54768 0.13588,-65.81777 3.3552,-82 7.06168,-35.4962 30.1016,-59.77146 64.48624,-67.94383 30.40746,-7.22709 68.57341,-9.19706 172.37657,-8.89739 56.15044,0.16211 118.18781,2.73888 131.81144,5.4749 6.17959,1.24104 8.72098,3.57687 10.10472,9.2874 0.3893,1.60659 1.57992,4.02978 2.64583,5.38486 1.06591,1.35508 1.93801,3.21309 1.93801,4.12892 0,0.91583 0.5625,2.24443 1.25,2.95245 1.01842,1.04881 -1.34373,1.16827 -12.75,0.64481 -29.2579,-1.34273 -42.88237,-1.62035 -108,-2.20062 -81.46439,-0.72595 -146.28925,1.0499 -175.5,4.80774 -34.47805,4.43546 -52.67367,19.70311 -59.42285,49.86076 -2.83109,12.65026 -3.96023,50.864 -2.65318,89.79174 1.34194,39.96665 2.04516,47.42721 5.63951,59.83055 8.79206,30.33956 25.38778,43.36433 60.33908,47.35575 33.76603,3.85605 192.3834,6.43966 245.59744,4.00037 49.61792,-2.27445 57.36913,-3.47085 73.90484,-11.40722 8.2003,-3.93576 10.10785,-5.36644 15.05197,-11.28906 5.87446,-7.03711 11.57405,-17.59237 14.01012,-25.94586 4.49003,-15.39665 6.01087,-33.40537 7.20663,-85.33627 0.42426,-18.425 0.93608,-32.15 1.13739,-30.5 0.45576,3.73554 1.86034,5.5 4.37822,5.5 1.06935,0 3.37675,1.07188 5.12755,2.38195 5.49753,4.11362 9.23743,5.6639 10.53452,4.36681 0.86501,-0.86501 1.15662,-0.7906 1.18056,0.30124 0.0241,1.0982 0.36582,1.0094 1.4085,-0.36599 1.2201,-1.60944 1.46063,-0.92698 2.11464,6 1.10576,11.71179 -0.27199,67.95022 -2.01912,82.41868 -3.16877,26.24127 -6.29153,38.48798 -13.61568,53.39731 -8.11505,16.51931 -19.95585,29.03564 -36.30328,38.37443 -29.3754,16.78126 -64.94135,21.06517 -179.61686,21.63484 -41.16301,0.20449 -72.05897,-0.13584 -90.5,-0.99689 z M 404.99897,615.01867 c -7.40381,-2.76645 -11.81497,-5.62931 -16.21586,-10.52416 -7.72652,-8.59375 -7.9369,-9.7993 -8.47809,-48.58325 -0.52565,-37.66972 0.0616,-43.044 5.51312,-50.45336 5.31666,-7.22606 14.26838,-12.89569 20.98359,-13.2901 l 3.6995,-0.21728 -0.31666,32 c -0.18162,18.35333 0.24868,42.235 1.00901,56 1.87018,33.85747 1.83313,35.95312 -0.63993,36.19818 -1.1,0.109 -3.5996,-0.39951 -5.55468,-1.13003 z m 510.93626,-0.73869 c -0.0651,-0.73121 -0.0847,-1.60815 -0.0436,-1.94877 0.4994,-4.13156 2.34493,-39.24818 3.17327,-60.38069 0.58208,-14.85 1.27758,-27.7232 1.54556,-28.60712 0.33416,-1.10222 1.26817,-1.45782 2.97302,-1.13192 2.71259,0.51854 8.47013,-1.4575 8.47013,-2.90703 0,-0.94229 2.59678,-2.10077 7.20999,-3.21652 2.13714,-0.51688 2.95068,-0.20571 3.84859,1.47206 1.63135,3.0482 3.06939,47.69569 2.06484,64.10794 -0.73685,12.03856 -1.13654,14.12926 -3.45866,18.09166 -3.23387,5.51818 -7.62324,9.3172 -14.16476,12.25968 -6.8292,3.07188 -11.4658,3.97407 -11.61842,2.26071 z M 559.78515,578.46734 c -13.86181,-2.48927 -25.77394,-14.06519 -28.29335,-27.49479 -0.35001,-1.86574 -0.35929,-3.84061 -0.0206,-4.38859 0.63283,-1.02393 15.02843,8.09721 19.60622,12.42261 2.67134,2.52406 16.11529,9.44395 18.3477,9.44395 0.72521,0 2.13306,0.9 3.12855,2 2.3018,2.54346 3.47763,2.49496 11.9451,-0.49266 3.8198,-1.34776 7.19328,-2.20229 7.49661,-1.89896 0.30333,0.30333 -1.07375,2.04095 -3.06019,3.86139 -5.86244,5.37252 -19.11522,8.34908 -29.15002,6.54705 z m 221.2685,-8.01682 c 0,-0.55 0.47656,-1 1.05902,-1 0.58246,0 0.7809,0.45 0.44098,1 -0.33992,0.55 -0.81648,1 -1.05902,1 -0.24254,0 -0.44098,-0.45 -0.44098,-1 z m 4,-4 c 1.05696,-1.97494 3,-2.75216 3,-1.2 0,1.05167 -2.17195,3.2 -3.23518,3.2 -0.45935,0 -0.35352,-0.9 0.23518,-2 z m -163,-186.94008 c 0,-0.51704 4.8375,-3.27712 10.75,-6.1335 9.89428,-4.78003 11.58582,-5.26965 21.25,-6.15095 5.775,-0.52663 14.24643,-0.71106 18.82539,-0.40985 7.50656,0.4938 9.49512,1.10728 20.21849,6.23751 6.5412,3.12941 11.65571,6.07392 11.36559,6.54335 -0.7363,1.19136 -82.40947,1.10557 -82.40947,-0.0866 z m 34.66667,-25.72659 c -0.84605,-0.84605 -0.84852,-14.05183 -0.003,-17.21013 0.60586,-2.26371 0.92254,-2.34686 6.65534,-1.74767 3.31056,0.34602 6.28066,0.89003 6.60021,1.2089 0.31955,0.31886 0.73827,4.59282 0.9305,9.49766 l 0.34928,8.91791 h -6.93284 c -3.81305,0 -7.23283,-0.3 -7.59949,-0.66667 z"
         id="path576" /><path
         style="fill:#fc96e7"
         d="m 616.55365,724.85165 c -93.37465,-2.54868 -119.46303,-7.07942 -145,-25.18202 -19.12739,-13.55898 -32.52161,-33.34384 -38.56164,-56.9601 -5.24686,-20.51505 -7.94107,-55.20124 -7.93482,-102.15562 0.006,-44.15895 1.99131,-65.91759 7.49003,-82.08448 7.79012,-22.90392 25.51463,-41.67962 47.50643,-50.32391 26.99169,-10.6096 66.17014,-13.37783 184.5,-13.03622 56.15044,0.16211 118.18781,2.73888 131.81144,5.4749 6.17959,1.24104 8.72098,3.57687 10.10472,9.2874 0.3893,1.60659 1.57992,4.02978 2.64583,5.38486 1.06591,1.35508 1.93801,3.21309 1.93801,4.12892 0,0.91583 0.5625,2.24443 1.25,2.95245 1.01842,1.04881 -1.34373,1.16827 -12.75,0.64481 -29.2579,-1.34273 -42.88237,-1.62035 -108,-2.20062 -106.50792,-0.94911 -174.46224,2.06338 -195.76228,8.67835 -20.23755,6.28501 -34.11977,21.52418 -39.7846,43.67345 -4.98456,19.48945 -5.23691,110.94999 -0.38782,140.55832 4.1217,25.16688 15.67258,44.0734 31.44948,51.47658 15.0711,7.07199 24.59019,8.81343 59.93538,10.96472 35.52984,2.16253 176.77499,2.51084 216.04984,0.53278 53.53825,-2.69642 59.72608,-3.63948 76.40484,-11.64451 8.2003,-3.93576 10.10785,-5.36644 15.05197,-11.28906 5.87446,-7.03711 11.57405,-17.59237 14.01012,-25.94586 4.49003,-15.39665 6.01087,-33.40537 7.20663,-85.33627 0.42426,-18.425 0.93608,-32.15 1.13739,-30.5 0.45576,3.73554 1.86034,5.5 4.37822,5.5 1.06935,0 3.37675,1.07188 5.12755,2.38195 5.49753,4.11362 9.23743,5.6639 10.53452,4.36681 0.86501,-0.86501 1.15662,-0.7906 1.18056,0.30124 0.0241,1.0982 0.36582,1.0094 1.4085,-0.36599 1.2201,-1.60944 1.46063,-0.92698 2.11464,6 1.10576,11.71179 -0.27199,67.95022 -2.01912,82.41868 -3.07387,25.45542 -6.24949,38.21288 -13.04286,52.39731 -13.29028,27.74988 -37.84093,45.4467 -72.72013,52.41878 -14.44852,2.88815 -24.47347,3.91385 -54.77283,5.60403 -24.96108,1.39241 -116.22814,2.59541 -142.5,1.87832 z m -212.5,-111.446 c -10.26184,-3.68068 -18.30697,-11.62306 -21.0466,-20.77782 -1.66089,-5.55006 -2.4847,-63.89624 -1.03309,-73.16888 1.36718,-8.73331 4.41718,-14.52364 9.9644,-18.91712 4.77146,-3.77906 11.74225,-7.03952 15.11529,-7.0699 l 2.5,-0.0225 -0.32622,37.06477 c -0.23497,26.69657 0.12052,43.49793 1.27081,60.06238 0.87836,12.64868 1.3361,23.41978 1.0172,23.93578 -0.76455,1.23706 -1.04206,1.1959 -7.46179,-1.1067 z m 511.88158,0.87433 c -0.0651,-0.73121 -0.0847,-1.60815 -0.0436,-1.94877 0.4994,-4.13156 2.34493,-39.24818 3.17327,-60.38069 0.58208,-14.85 1.27758,-27.7232 1.54556,-28.60712 0.33416,-1.10222 1.26817,-1.45782 2.97302,-1.13192 2.71259,0.51854 8.47013,-1.4575 8.47013,-2.90703 0,-0.94229 2.59678,-2.10077 7.20999,-3.21652 2.13714,-0.51688 2.95068,-0.20571 3.84859,1.47206 1.63135,3.0482 3.06939,47.69569 2.06484,64.10794 -0.73685,12.03856 -1.13654,14.12926 -3.45866,18.09166 -3.23387,5.51818 -7.62324,9.3172 -14.16476,12.25968 -6.8292,3.07188 -11.4658,3.97407 -11.61842,2.26071 z M 582.49478,573.91872 c 1.06762,-0.80751 2.64262,-1.45225 3.5,-1.43276 0.99919,0.0227 0.6613,0.54853 -0.94113,1.46456 -3.27204,1.87047 -5.04477,1.84843 -2.55887,-0.0318 z m 198.55887,-3.4682 c 0,-0.55 0.47656,-1 1.05902,-1 0.58246,0 0.7809,0.45 0.44098,1 -0.33992,0.55 -0.81648,1 -1.05902,1 -0.24254,0 -0.44098,-0.45 -0.44098,-1 z m 4,-4 c 1.05696,-1.97494 3,-2.75216 3,-1.2 0,1.05167 -2.17195,3.2 -3.23518,3.2 -0.45935,0 -0.35352,-0.9 0.23518,-2 z m -163,-186.94008 c 0,-0.51704 4.8375,-3.27712 10.75,-6.1335 9.89428,-4.78003 11.58582,-5.26965 21.25,-6.15095 5.775,-0.52663 14.24643,-0.71106 18.82539,-0.40985 7.50656,0.4938 9.49512,1.10728 20.21849,6.23751 6.5412,3.12941 11.65571,6.07392 11.36559,6.54335 -0.7363,1.19136 -82.40947,1.10557 -82.40947,-0.0866 z m 34.66667,-25.72659 c -0.84605,-0.84605 -0.84852,-14.05183 -0.003,-17.21013 0.60586,-2.26371 0.92254,-2.34686 6.65534,-1.74767 3.31056,0.34602 6.28066,0.89003 6.60021,1.2089 0.31955,0.31886 0.73827,4.59282 0.9305,9.49766 l 0.34928,8.91791 h -6.93284 c -3.81305,0 -7.23283,-0.3 -7.59949,-0.66667 z"
         id="path574" /><path
         style="fill:#fc97dc"
         d="m 616.55365,724.85165 c -93.37465,-2.54868 -119.46303,-7.07942 -145,-25.18202 -19.12739,-13.55898 -32.52161,-33.34384 -38.56164,-56.9601 -5.24686,-20.51505 -7.94107,-55.20124 -7.93482,-102.15562 0.004,-30.09041 1.30038,-54.7809 3.50072,-66.67446 4.20402,-22.72412 14.92835,-41.39468 30.73337,-53.5054 16.33389,-12.51597 29.86258,-17.20945 62.10072,-21.54447 12.72305,-1.71086 70.95992,-3.05462 83.09606,-1.91737 7.45371,0.69847 7.65285,0.7844 6.01401,2.59531 -1.03076,1.13897 -1.50734,2.85447 -1.21615,4.3777 0.26335,1.37762 0.0938,2.26684 -0.37673,1.97602 -0.47055,-0.29081 -0.85554,0.11821 -0.85554,0.90894 0,0.79074 1.32447,1.98631 2.94327,2.65684 1.72228,0.71339 3.07051,2.09972 3.25,3.34183 0.22891,1.58418 1.51178,2.46204 5.05673,3.46031 10.38904,2.92558 5.39691,3.65413 -35.75,5.21738 -68.26828,2.59365 -85.35329,4.92733 -100.5,13.7275 -13.54959,7.87226 -22.60068,20.57529 -27.04688,37.95978 -3.72591,14.56818 -5.07675,66.19239 -2.88663,110.3167 1.56305,31.49076 3.57662,41.65771 11.65003,58.82355 7.8517,16.69445 23.2781,26.54348 48.73364,31.11417 16.89422,3.03345 60.95555,4.42195 142.54984,4.49215 77.65664,0.0668 107.29222,-0.63488 145.23682,-3.43886 18.95506,-1.40072 31.58134,-4.85025 44.49276,-12.15553 6.46821,-3.65971 16.73064,-16.85642 21.4377,-27.56724 1.75679,-3.99753 3.52708,-7.26824 3.93398,-7.26824 0.40691,0 1.01359,1.24642 1.34819,2.76983 0.96506,4.39389 4.7659,8.48017 7.8878,8.48017 1.64214,0 3.1252,0.74558 3.72965,1.875 1.36399,2.54864 3.63329,2.36205 4.56072,-0.375 0.72525,-2.14036 0.79634,-2.10382 1.45896,0.75 0.65706,2.82981 0.73754,2.873 1.41869,0.76125 1.53144,-4.74791 2.20411,-0.95707 0.97192,5.47731 -5.60188,29.25248 -29.67988,54.94357 -61.70436,65.8382 -15.73705,5.3537 -33.44989,7.80829 -71.77283,9.94605 -24.96108,1.39241 -116.22814,2.59541 -142.5,1.87832 z m -212.5,-111.446 c -10.26184,-3.68068 -18.30697,-11.62306 -21.0466,-20.77782 -1.66089,-5.55006 -2.4847,-63.89624 -1.03309,-73.16888 1.36718,-8.73331 4.41718,-14.52364 9.9644,-18.91712 4.77146,-3.77906 11.74225,-7.03952 15.11529,-7.0699 l 2.5,-0.0225 -0.32622,37.06477 c -0.23497,26.69657 0.12052,43.49793 1.27081,60.06238 0.87836,12.64868 1.3361,23.41978 1.0172,23.93578 -0.76455,1.23706 -1.04206,1.1959 -7.46179,-1.1067 z m 512.59651,0.20102 c -0.28684,-0.46411 -0.11661,-2.37661 0.3783,-4.25 0.4949,-1.87338 1.15753,-5.20615 1.4725,-7.40615 0.31497,-2.2 0.9816,-5.125 1.4814,-6.5 0.4998,-1.375 1.15951,-3.66035 1.46603,-5.07856 0.3144,-1.45466 1.67169,-3.08631 3.11403,-3.74348 2.37632,-1.08272 6.49123,-8.43991 6.49123,-11.60588 0,-1.92419 -3.58078,-4.74472 -5.57127,-4.38841 -1.37944,0.24692 -2.16592,-1.0002 -3.58438,-5.68367 -1.44962,-4.78638 -1.81993,-9.47262 -1.83077,-23.16821 -0.007,-9.44252 0.24048,-17.83029 0.551,-18.63949 0.33448,-0.87164 1.34686,-1.26671 2.48396,-0.96936 2.75805,0.72125 6.6143,-0.4485 8.67378,-2.6311 2.22973,-2.36302 9.34334,-4.42618 10.6738,-3.09572 3.97146,3.97146 3.09837,70.72906 -1.06098,81.1243 -2.08775,5.21781 -10.1713,12.30043 -16.92102,14.82583 -6.10792,2.28526 -7.06177,2.43289 -7.81761,1.2099 z M 582.49478,573.91872 c 1.06762,-0.80751 2.64262,-1.45225 3.5,-1.43276 0.99919,0.0227 0.6613,0.54853 -0.94113,1.46456 -3.27204,1.87047 -5.04477,1.84843 -2.55887,-0.0318 z m 297.82025,-52.9682 c -0.99866,-3.25393 -0.92257,-3.49747 1.08222,-3.46404 1.18602,0.0198 3.5064,1.14255 5.1564,2.49504 l 3,2.45907 -3.25,0.005 c -1.7875,0.003 -3.25,0.45493 -3.25,1.00493 0,2.32562 -1.74706,0.73078 -2.73862,-2.5 z m -87.76138,-98.5355 c -4.4,-0.41146 -10.025,-1.20241 -12.5,-1.75767 -2.475,-0.55527 -5.60958,-0.94146 -6.96574,-0.8582 -2.11255,0.12969 -2.55603,-0.38889 -3.09612,-3.62038 -0.3467,-2.07446 -1.71212,-4.92781 -3.03426,-6.34079 -2.12422,-2.27017 -2.94065,-2.4984 -7.01783,-1.96185 -3.61138,0.47525 -4.91512,0.24402 -6,-1.06412 -0.76233,-0.91921 -2.84855,-2.28263 -4.63605,-3.02981 -1.7875,-0.74719 -3.25,-2.02748 -3.25,-2.8451 0,-1.09228 -1.17793,-1.48658 -4.44098,-1.48658 -3.95872,0 -6.59123,-1.30112 -5.28181,-2.61054 0.8021,-0.8021 53.87559,2.50739 60.02929,3.74323 6.18486,1.24209 8.72557,3.57641 10.10966,9.28839 0.3893,1.60659 1.57992,4.02978 2.64583,5.38486 1.06591,1.35508 1.93801,3.21309 1.93801,4.12892 0,0.91583 0.54,2.20514 1.2,2.86514 1.37747,1.37747 -6.06411,1.43961 -19.7,0.1645 z"
         id="path572" /><path
         style="fill:#e689f5"
         d="m 616.55365,724.85165 c -93.37465,-2.54868 -119.46303,-7.07942 -145,-25.18202 -19.12739,-13.55898 -32.52161,-33.34384 -38.56164,-56.9601 -5.24686,-20.51505 -7.94107,-55.20124 -7.93482,-102.15562 0.004,-30.09041 1.30038,-54.7809 3.50072,-66.67446 4.20402,-22.72412 14.92835,-41.39468 30.73337,-53.5054 16.33389,-12.51597 29.86258,-17.20945 62.10072,-21.54447 12.72305,-1.71086 70.95992,-3.05462 83.09606,-1.91737 7.45371,0.69847 7.65285,0.7844 6.01401,2.59531 -1.03076,1.13897 -1.50734,2.85447 -1.21615,4.3777 0.26335,1.37762 0.0938,2.26684 -0.37673,1.97602 -0.47055,-0.29081 -0.85554,0.11821 -0.85554,0.90894 0,0.79074 1.32447,1.98631 2.94327,2.65684 1.72228,0.71339 3.07051,2.09972 3.25,3.34183 0.22891,1.58418 1.51178,2.46204 5.05673,3.46031 10.38904,2.92558 5.39691,3.65413 -35.75,5.21738 -68.26828,2.59365 -85.35329,4.92733 -100.5,13.7275 -13.54959,7.87226 -22.60068,20.57529 -27.04688,37.95978 -3.72591,14.56818 -5.07675,66.19239 -2.88663,110.3167 1.56305,31.49076 3.57662,41.65771 11.65003,58.82355 7.8517,16.69445 23.2781,26.54348 48.73364,31.11417 16.89422,3.03345 60.95555,4.42195 142.54984,4.49215 77.65664,0.0668 107.29222,-0.63488 145.23682,-3.43886 18.95506,-1.40072 31.58134,-4.85025 44.49276,-12.15553 6.46821,-3.65971 16.73064,-16.85642 21.4377,-27.56724 1.75679,-3.99753 3.52708,-7.26824 3.93398,-7.26824 0.40691,0 1.01359,1.24642 1.34819,2.76983 0.96506,4.39389 4.7659,8.48017 7.8878,8.48017 1.64214,0 3.1252,0.74558 3.72965,1.875 1.36399,2.54864 3.63329,2.36205 4.56072,-0.375 0.72525,-2.14036 0.79634,-2.10382 1.45896,0.75 0.65706,2.82981 0.73754,2.873 1.41869,0.76125 1.53144,-4.74791 2.20411,-0.95707 0.97192,5.47731 -5.60188,29.25248 -29.67988,54.94357 -61.70436,65.8382 -15.73705,5.3537 -33.44989,7.80829 -71.77283,9.94605 -24.96108,1.39241 -116.22814,2.59541 -142.5,1.87832 z m -212.5,-111.446 c -10.26184,-3.68068 -18.30697,-11.62306 -21.0466,-20.77782 -1.66089,-5.55006 -2.4847,-63.89624 -1.03309,-73.16888 1.36718,-8.73331 4.41718,-14.52364 9.9644,-18.91712 4.77146,-3.77906 11.74225,-7.03952 15.11529,-7.0699 l 2.5,-0.0225 -0.32622,37.06477 c -0.23497,26.69657 0.12052,43.49793 1.27081,60.06238 0.87836,12.64868 1.3361,23.41978 1.0172,23.93578 -0.76455,1.23706 -1.04206,1.1959 -7.46179,-1.1067 z m 512.64659,0.28205 c -0.31439,-0.50868 -0.16669,-2.45764 0.32822,-4.33103 0.4949,-1.87338 1.15753,-5.20615 1.4725,-7.40615 0.31497,-2.2 0.9816,-5.125 1.4814,-6.5 0.4998,-1.375 1.19268,-3.79251 1.53974,-5.37223 0.62029,-2.82344 0.71778,-2.86073 5.73812,-2.19476 3.50213,0.46458 5.33655,0.30624 5.83721,-0.50384 0.99617,-1.61184 7.91413,0.057 9.29211,2.24155 1.65636,2.62588 -0.96277,9.46918 -5.51377,14.40643 -5.41078,5.87 -18.61159,12.19054 -20.17553,9.66003 z M 582.49478,573.91872 c 1.06762,-0.80751 2.64262,-1.45225 3.5,-1.43276 0.99919,0.0227 0.6613,0.54853 -0.94113,1.46456 -3.27204,1.87047 -5.04477,1.84843 -2.55887,-0.0318 z"
         id="path570" /><path
         style="fill:#d68af8"
         d="m 616.55365,724.85165 c -93.37465,-2.54868 -119.46303,-7.07942 -145,-25.18202 -19.12739,-13.55898 -32.52161,-33.34384 -38.56164,-56.9601 -5.24686,-20.51505 -7.94107,-55.20124 -7.93482,-102.15562 0.009,-64.49503 3.68966,-83.2137 21.06081,-107.09687 8.99968,-12.37344 27.56674,-24.33674 42.77247,-27.55955 9.34576,-1.98081 9.4621,-1.95894 16.27946,3.05972 3.36705,2.47867 8.49512,5.19659 11.39572,6.03982 2.9006,0.84323 6.21948,2.3533 7.37527,3.35572 1.25769,1.09079 3.06044,1.63926 4.48988,1.36601 1.31363,-0.25112 2.73328,0.10143 3.15479,0.78343 0.56936,0.92126 0.0854,1.0691 -1.88279,0.57512 -1.9947,-0.50064 -2.64915,-0.28963 -2.64915,0.85416 0,1.03189 -1.04227,1.54288 -3.25,1.59336 -3.70615,0.0847 -5.20788,0.31575 -16.18082,2.48906 -16.82683,3.33274 -32.18493,11.81473 -40.05473,22.1215 -4.6943,6.14794 -9.28629,16.1031 -11.59914,25.14627 -3.68655,14.41427 -5.02757,66.2737 -2.84882,110.16886 1.56305,31.49076 3.57662,41.65771 11.65003,58.82355 7.86073,16.71364 23.4194,26.6315 48.82002,31.12027 15.83157,2.79774 58.16955,4.18756 141.46346,4.64378 84.11655,0.46073 97.49779,0.79794 96.48818,2.43152 -0.29163,0.47188 0.0818,1.22312 0.82986,1.66942 1.42129,0.84797 4.03684,7.31146 2.95868,7.31146 -0.34058,0 -1.44493,-0.74724 -2.45411,-1.66054 -1.00918,-0.91329 -2.16586,-1.32954 -2.57041,-0.92499 -0.40455,0.40454 0.0753,1.18928 1.06624,1.74386 0.99098,0.55458 3.25981,2.2885 5.04185,3.85314 7.42952,6.52321 15.98163,7.87069 44.63971,7.0335 16.68354,-0.48738 21.99617,-0.33874 23.71482,0.66347 1.21815,0.71036 2.85319,1.29156 3.63342,1.29156 1.79515,0 2.73182,4.65924 1.55756,7.74775 -1.0132,2.66493 -4.56113,4.35651 -15.0836,7.19157 -11.94765,3.21904 -27.72201,5.0895 -55.8222,6.61918 -25.091,1.36586 -116.61072,2.54928 -142.5,1.84263 z m 215.09777,-15.1367 c -1.07303,-1.07302 -0.62938,-2.26443 0.84321,-2.26443 0.79254,0 1.68996,0.40285 1.99426,0.89522 0.63621,1.02941 -1.93604,2.27065 -2.83747,1.36921 z m 34.90223,-35.26443 c 0.33992,-0.55 0.21648,-1 -0.27432,-1 -1.7452,0 -0.85166,-3.02335 1.84344,-6.23741 1.50468,-1.79443 3.06881,-2.93596 3.47583,-2.53676 0.40703,0.39921 0.17083,1.41171 -0.52489,2.25 -0.73995,0.89158 -0.83795,1.52417 -0.23612,1.52417 1.45587,0 0.27062,4.25225 -1.60273,5.75 -1.872,1.49667 -3.54829,1.65297 -2.68121,0.25 z m 13,-20.38709 c -1.65,-0.62439 -3.9,-1.6845 -5,-2.35579 -2.01952,-1.23244 -1.55952,-2.07721 2,-3.6729 0.55,-0.24655 -0.26464,-1.60563 -1.81031,-3.02017 -2.05286,-1.87868 -3.46537,-2.40747 -5.24069,-1.96189 -1.7114,0.42953 -2.61311,0.13375 -3.04812,-0.99986 -0.66414,-1.73074 3.48283,-14.6023 4.7046,-14.6023 0.40458,0 1.00937,1.24642 1.34397,2.76983 0.96506,4.39389 4.7659,8.48017 7.8878,8.48017 1.64214,0 3.1252,0.74558 3.72965,1.875 1.35018,2.52284 3.37167,2.36498 4.80211,-0.375 1.02507,-1.9635 1.10823,-1.71851 0.65315,1.92401 -0.55395,4.43379 -4.34855,12.54786 -6.02216,12.87731 -0.55,0.10826 -2.35,-0.31402 -4,-0.93841 z m -475.5,-40.65778 c -10.26184,-3.68068 -18.30697,-11.62306 -21.0466,-20.77782 -1.66089,-5.55006 -2.4847,-63.89624 -1.03309,-73.16888 1.36718,-8.73331 4.41718,-14.52364 9.9644,-18.91712 4.77146,-3.77906 11.74225,-7.03952 15.11529,-7.0699 l 2.5,-0.0225 -0.32622,37.06477 c -0.23497,26.69657 0.12052,43.49793 1.27081,60.06238 0.87836,12.64868 1.3361,23.41978 1.0172,23.93578 -0.76455,1.23706 -1.04206,1.1959 -7.46179,-1.1067 z m 512.64659,0.28205 c -0.31439,-0.50868 -0.16669,-2.45764 0.32822,-4.33103 0.4949,-1.87338 1.15753,-5.20615 1.4725,-7.40615 0.31497,-2.2 0.9816,-5.125 1.4814,-6.5 0.4998,-1.375 1.19268,-3.79251 1.53974,-5.37223 0.62029,-2.82344 0.71778,-2.86073 5.73812,-2.19476 3.50213,0.46458 5.33655,0.30624 5.83721,-0.50384 0.99617,-1.61184 7.91413,0.057 9.29211,2.24155 1.65636,2.62588 -0.96277,9.46918 -5.51377,14.40643 -5.41078,5.87 -18.61159,12.19054 -20.17553,9.66003 z"
         id="path568" /><path
         style="fill:#f37ee6"
         d="m 616.55365,724.77228 c -76.06915,-1.57321 -110.14042,-6.03617 -132.5,-17.35604 -20.27591,-10.26499 -37.24419,-28.58797 -46.03944,-49.7151 -9.07838,-21.80725 -12.96504,-56.94735 -12.95702,-117.14723 0.005,-39.63669 2.10527,-67.3837 5.62355,-74.30373 0.7551,-1.48519 1.37731,-3.73519 1.38268,-5 0.0127,-3.00242 4.5434,-12.70434 6.20196,-13.28088 0.70855,-0.2463 2.63827,-0.57628 4.28827,-0.7333 2.62826,-0.25011 3,0.0326 3,2.28117 0,1.41166 0.81103,3.37983 1.80228,4.37371 1.26983,1.27319 1.62127,2.63125 1.18956,4.59678 -0.49209,2.24046 -0.20684,2.91854 1.44878,3.44401 3.86046,1.22526 5.06935,6.92941 3.60685,17.01885 -1.35071,9.31827 -1.77301,76.69148 -0.63199,100.82728 1.66101,35.13486 3.49135,44.82807 11.80104,62.49627 7.8517,16.69445 23.2781,26.54348 48.73364,31.11417 7.50084,1.34681 52.28478,3.74992 85.04984,4.56376 14.06533,0.34937 25.1458,1.03158 25.33333,1.55975 0.18334,0.51632 1.16318,0.93877 2.17742,0.93877 1.01425,0 2.76837,1.17503 3.89804,2.61118 2.22242,2.82534 13.01715,8.38882 16.27671,8.38882 1.10325,0 3.20035,0.6264 4.66021,1.39201 1.45986,0.76561 3.77929,1.86015 5.15429,2.43232 1.96706,0.81854 2.10084,1.05474 0.62756,1.10799 -1.54935,0.056 -1.65764,0.32651 -0.62756,1.56768 1.00353,1.20918 0.9788,1.5059 -0.12756,1.53041 -1.06756,0.0237 -1.03923,0.21606 0.12756,0.86613 0.825,0.45965 5.775,1.11031 11,1.4459 8.09125,0.51969 28.60182,1.97781 45,3.1991 7.21895,0.53764 15.86714,2.66986 16.39363,4.04185 0.26712,0.69612 -0.5977,1.97553 -1.92183,2.84313 -2.45208,1.60666 -2.44381,4.57348 0.0127,4.57348 0.69882,0 1.77033,0.60217 2.38114,1.33815 0.61081,0.73599 3.02841,1.91725 5.37244,2.62503 3.73083,1.12653 3.99661,1.3863 2.13301,2.08482 -6.04674,2.26642 -65.60272,3.3961 -119.87113,2.27376 z m 250,-50.32176 c 0.33992,-0.55 0.21648,-1 -0.27432,-1 -1.7452,0 -0.85166,-3.02335 1.84344,-6.23741 1.50468,-1.79443 3.06881,-2.93596 3.47583,-2.53676 0.40703,0.39921 0.17083,1.41171 -0.52489,2.25 -0.73995,0.89158 -0.83795,1.52417 -0.23612,1.52417 1.45587,0 0.27062,4.25225 -1.60273,5.75 -1.872,1.49667 -3.54829,1.65297 -2.68121,0.25 z m 13,-20.38709 c -1.65,-0.62439 -3.9,-1.6845 -5,-2.35579 -2.01952,-1.23244 -1.55952,-2.07721 2,-3.6729 0.55,-0.24655 -0.26464,-1.60563 -1.81031,-3.02017 -2.05286,-1.87868 -3.46537,-2.40747 -5.24069,-1.96189 -1.7114,0.42953 -2.61311,0.13375 -3.04812,-0.99986 -0.66414,-1.73074 3.48283,-14.6023 4.7046,-14.6023 0.40458,0 1.00937,1.24642 1.34397,2.76983 0.96506,4.39389 4.7659,8.48017 7.8878,8.48017 1.64214,0 3.1252,0.74558 3.72965,1.875 1.35018,2.52284 3.37167,2.36498 4.80211,-0.375 1.02507,-1.9635 1.10823,-1.71851 0.65315,1.92401 -0.55395,4.43379 -4.34855,12.54786 -6.02216,12.87731 -0.55,0.10826 -2.35,-0.31402 -4,-0.93841 z m -475.5,-40.65778 c -10.26184,-3.68068 -18.30697,-11.62306 -21.0466,-20.77782 -1.66089,-5.55006 -2.4847,-63.89624 -1.03309,-73.16888 1.36718,-8.73331 4.41718,-14.52364 9.9644,-18.91712 4.77146,-3.77906 11.74225,-7.03952 15.11529,-7.0699 l 2.5,-0.0225 -0.32622,37.06477 c -0.23497,26.69657 0.12052,43.49793 1.27081,60.06238 0.87836,12.64868 1.3361,23.41978 1.0172,23.93578 -0.76455,1.23706 -1.04206,1.1959 -7.46179,-1.1067 z m 512.64659,0.28205 c -0.31439,-0.50868 -0.16669,-2.45764 0.32822,-4.33103 0.4949,-1.87338 1.15753,-5.20615 1.4725,-7.40615 0.31497,-2.2 0.9816,-5.125 1.4814,-6.5 0.4998,-1.375 1.19268,-3.79251 1.53974,-5.37223 0.62029,-2.82344 0.71778,-2.86073 5.73812,-2.19476 3.50213,0.46458 5.33655,0.30624 5.83721,-0.50384 0.99617,-1.61184 7.91413,0.057 9.29211,2.24155 1.65636,2.62588 -0.96277,9.46918 -5.51377,14.40643 -5.41078,5.87 -18.61159,12.19054 -20.17553,9.66003 z"
         id="path566" /><path
         style="fill:#c792fb"
         d="m 616.55365,724.77228 c -76.06915,-1.57321 -110.14042,-6.03617 -132.5,-17.35604 -20.27591,-10.26499 -37.24419,-28.58797 -46.03944,-49.7151 -9.07838,-21.80725 -12.96504,-56.94735 -12.95702,-117.14723 0.005,-39.63669 2.10527,-67.3837 5.62355,-74.30373 0.7551,-1.48519 1.37731,-3.73519 1.38268,-5 0.0127,-3.00242 4.5434,-12.70434 6.20196,-13.28088 0.70855,-0.2463 2.63827,-0.57628 4.28827,-0.7333 2.62826,-0.25011 3,0.0326 3,2.28117 0,1.41166 0.81103,3.37983 1.80228,4.37371 1.26983,1.27319 1.62127,2.63125 1.18956,4.59678 -0.49209,2.24046 -0.20684,2.91854 1.44878,3.44401 3.86046,1.22526 5.06935,6.92941 3.60685,17.01885 -1.35071,9.31827 -1.77301,76.69148 -0.63199,100.82728 1.66101,35.13486 3.49135,44.82807 11.80104,62.49627 7.8517,16.69445 23.2781,26.54348 48.73364,31.11417 7.50084,1.34681 52.28478,3.74992 85.04984,4.56376 14.06533,0.34937 25.1458,1.03158 25.33333,1.55975 0.18334,0.51632 1.16318,0.93877 2.17742,0.93877 1.01425,0 2.76837,1.17503 3.89804,2.61118 2.22242,2.82534 13.01715,8.38882 16.27671,8.38882 1.10325,0 3.20035,0.6264 4.66021,1.39201 1.45986,0.76561 3.77929,1.86015 5.15429,2.43232 1.96706,0.81854 2.10084,1.05474 0.62756,1.10799 -1.54935,0.056 -1.65764,0.32651 -0.62756,1.56768 1.00353,1.20918 0.9788,1.5059 -0.12756,1.53041 -1.06756,0.0237 -1.03923,0.21606 0.12756,0.86613 0.825,0.45965 5.775,1.11031 11,1.4459 8.09125,0.51969 28.60182,1.97781 45,3.1991 7.21895,0.53764 15.86714,2.66986 16.39363,4.04185 0.26712,0.69612 -0.5977,1.97553 -1.92183,2.84313 -2.45208,1.60666 -2.44381,4.57348 0.0127,4.57348 0.69882,0 1.77033,0.60217 2.38114,1.33815 0.61081,0.73599 3.02841,1.91725 5.37244,2.62503 3.73083,1.12653 3.99661,1.3863 2.13301,2.08482 -6.04674,2.26642 -65.60272,3.3961 -119.87113,2.27376 z m -212.5,-111.36663 c -10.26184,-3.68068 -18.30697,-11.62306 -21.0466,-20.77782 -1.66089,-5.55006 -2.4847,-63.89624 -1.03309,-73.16888 1.36718,-8.73331 4.41718,-14.52364 9.9644,-18.91712 4.77146,-3.77906 11.74225,-7.03952 15.11529,-7.0699 l 2.5,-0.0225 -0.32622,37.06477 c -0.23497,26.69657 0.12052,43.49793 1.27081,60.06238 0.87836,12.64868 1.3361,23.41978 1.0172,23.93578 -0.76455,1.23706 -1.04206,1.1959 -7.46179,-1.1067 z"
         id="path564" /><path
         style="fill:#b38ffa"
         d="m 580.55365,722.77042 c -20.73928,-0.48141 -49.8063,-2.41899 -58.40191,-3.89302 -31.61667,-5.42183 -51.26144,-15.69526 -69.31084,-36.24681 -6.81267,-7.75709 -17.07504,-28.79574 -19.8432,-40.68007 -5.08623,-21.83641 -7.70513,-56.79354 -4.45678,-59.48943 0.87026,-0.72226 2.21854,-0.91686 3.25,-0.4691 0.9695,0.42087 2.21273,0.81419 2.76273,0.87403 1.73089,0.18834 12.27588,6.60798 13.6687,8.32131 1.15131,1.41625 1.09471,1.54898 -0.4187,0.98181 -2.22283,-0.83305 -2.27596,-1.09061 1.21701,5.89944 1.63185,3.26563 3.65896,9.22694 4.50468,13.24735 3.78166,17.97741 11.88674,36.46124 19.53343,44.54648 11.37924,12.03187 38.8035,21.4753 62.87587,21.65103 4.74046,0.0346 12.29583,0.41473 16.78971,0.84472 7.45613,0.71342 8.47545,1.07961 11.65524,4.18708 6.22871,6.08703 10.18025,8.72202 14.2144,9.47852 4.13663,0.77572 7.33355,2.34029 13.84921,6.77778 2.13925,1.45694 4.91494,2.64898 6.16821,2.64898 6.15268,0 6.74686,2.92386 0.63322,3.116 -2.11691,0.0665 -2.83806,0.32116 -1.69098,0.59707 2.88941,0.69499 4.09864,2.08829 2.87468,3.31225 -0.70042,0.70042 -0.62074,2.98854 0.25146,7.22098 1.48185,7.19083 1.04642,7.83011 -5.12614,7.52601 -2.2,-0.10839 -8.95,-0.31197 -15,-0.45241 z M 403.32151,612.49526 c -8.93244,-3.2149 -14.70662,-8.38881 -18.46425,-16.54474 -2.23332,-4.84745 -2.31331,-6.00686 -2.62145,-38 -0.35406,-36.76181 0.48004,-44.7462 5.34015,-51.11813 3.02501,-3.966 8.02901,-6.91686 9.01742,-5.31758 0.35928,0.58133 0.10355,3.84218 -0.5683,7.24633 -0.90006,4.56051 -0.93633,7.11048 -0.1378,9.68938 3.08553,9.96489 5.61181,15.7433 8.14346,18.62668 2.70643,3.08246 2.83112,3.70266 3.42496,17.03612 0.33895,7.61046 1.28999,22.1622 2.11342,32.3372 1.84972,22.85678 1.89296,28.01179 0.23453,27.96392 -0.6875,-0.0198 -3.60446,-0.88347 -6.48214,-1.91918 z"
         id="path562" /></g></g></svg>
