<?xml version="1.0" encoding="UTF-8" standalone="no"?>
<!-- Created with Inkscape (http://www.inkscape.org/) -->

<svg
   width="687.92188"
   height="667.74316"
   viewBox="0 0 687.92188 667.74315"
   version="1.1"
   id="svg5"
   xml:space="preserve"
   xmlns:xlink="http://www.w3.org/1999/xlink"
   xmlns="http://www.w3.org/2000/svg"
   xmlns:svg="http://www.w3.org/2000/svg"><defs
     id="defs2"><color-profile
       name="DP"
       xlink:href="../../../../../.local/share/icc/edid-27fd61d80a4d3102d04ad05b2e686881.icc"
       id="color-profile4249" /><color-profile
       name="DP"
       xlink:href="../../../../../.local/share/icc/edid-27fd61d80a4d3102d04ad05b2e686881.icc"
       id="color-profile4251" /><color-profile
       name="DP"
       xlink:href="../../../../../.local/share/icc/edid-27fd61d80a4d3102d04ad05b2e686881.icc"
       id="color-profile4253" /><color-profile
       name="DP"
       xlink:href="../../../../../.local/share/icc/edid-27fd61d80a4d3102d04ad05b2e686881.icc"
       id="color-profile4255" /></defs><g
     id="layer1"
     transform="translate(-381.51189,275.58921)"><g
       id="g742"
       transform="translate(14.455828,-573.19823)"><path
         style="fill:#fae5f9;stroke-width:1.35211"
         d="m 412.34598,963.7873 c -25.48741,-7.03194 -49.03377,-32.03835 -44.79219,-59.68301 0,-190.76019 0,-381.52039 0,-572.28059 7.73441,-22.28406 30.77895,-37.78747 54.27281,-33.50081 168.73773,0.9563 337.50203,0.094 506.21699,2.90324 29.49735,13.7944 49.21497,44.6053 74.07761,65.91843 18.5903,24.19759 56.3806,41.0124 52.0992,76.42906 1.6494,159.69608 0.071,319.41649 0.2066,479.12333 -9.1077,23.98432 -31.4455,44.86175 -58.72415,41.44883 -192.19902,2.10459 -384.44636,1.04764 -576.65512,-0.0975 z m 58.64443,-136.41429 c 0.76213,-34.09707 -0.60217,-68.66903 1.47937,-102.47144 8.76742,-22.99606 32.20234,-41.96115 57.56407,-37.51103 123.54276,0.30199 247.12286,-1.86776 370.63575,0.5847 24.58922,-1.33753 46.79438,21.2781 49.68333,44.41209 0.43784,65.23936 0.87569,130.47871 1.31354,195.71807 20.66098,-1.45322 45.32567,6.74651 61.97103,-8.46944 8.564,-32.31623 3.007,-67.32425 4.9123,-100.68859 0.1004,-128.03046 0.022,-256.06103 0.046,-384.09154 -33.1778,-32.39119 -64.43074,-66.95739 -99.33162,-97.42988 -11.66539,2.8177 -44.76701,-11.52068 -42.04327,8.03184 -0.69832,52.24339 -0.0901,104.53375 -2.47117,156.73211 -12.80759,31.51357 -47.62452,34.92857 -76.96434,32.10431 -85.78479,-0.52148 -171.75102,2.59712 -257.4252,-1.62234 -24.58531,-5.72144 -41.63341,-31.64357 -37.75768,-56.39801 -0.39659,-46.79794 -0.79318,-93.59588 -1.18978,-140.39382 -29.779,0.30438 -59.69807,-1.82327 -89.36834,0.60783 -14.38523,4.55191 -5.57087,22.35 -7.98377,33.64291 0.50572,177.07532 -1.27466,354.17833 1.26301,531.23142 -4.33258,32.60328 33.8751,27.25111 55.4128,26.86603 16.36958,4.69958 7.38625,-15.79925 9.74484,-25.02528 0.16964,-25.27665 0.33929,-50.55329 0.50893,-75.82994 z m 448.61092,6.76056 c -0.005,-32.81397 0.43793,-65.64295 -0.41443,-98.44687 -21.53728,-33.03366 -72.25329,-10.12896 -106.01157,-17.5537 -97.31834,-0.11866 -194.66806,-1.03921 -291.96497,0.97507 -20.11866,2.90163 -20.53694,22.85109 -19.12136,38.35647 0.18931,56.80553 -0.56611,113.63534 0.90568,170.41979 138.73163,1.32362 277.48147,0.21981 416.22108,0.22107 0.12852,-31.32394 0.25705,-62.64789 0.38557,-93.97183 z m -226.63775,33.90218 c -37.55824,-0.25847 -75.11647,-0.51695 -112.67471,-0.77542 -24.52718,-27.38579 25.3803,-26.97251 42.87847,-24.78837 72.30304,0.4721 144.75522,-2.05735 216.96317,1.5337 28.3256,22.66277 -26.01134,28.12546 -43.53489,24.48724 -34.54441,-0.0234 -69.08848,-0.22936 -103.63204,-0.45715 z M 581.95044,793.21554 c -22.22457,-11.55159 1.17515,-30.83134 17.50923,-23.98338 80.22587,0.63855 160.55421,-1.64244 240.69634,1.67714 27.65148,25.72303 -31.86151,24.22402 -49.38416,22.67332 -69.60283,0.13195 -139.23319,1.04929 -208.82141,-0.36708 z m 249.92371,-297.4681 c 18.87007,-23.32923 4.4465,-60.21225 9.31979,-88.76014 0.12069,-23.9317 0.24138,-47.86339 0.36207,-71.79508 -100.3106,0.22927 -200.6212,0.45855 -300.9318,0.68782 0.27972,51.27815 -1.83103,102.65947 0.84539,153.85745 25.46038,14.97796 62.69079,4.28159 92.82552,7.63002 65.83296,-0.66311 131.84492,1.50622 197.57903,-1.62007 z m -74.65102,-28.90229 c -0.81408,-32.46933 -2.79901,-65.76896 1.70035,-97.83835 17.94554,0.18663 46.71281,-5.7157 37.61785,23.24143 0.16267,24.92938 -0.23014,49.85798 -0.36782,74.78674 -12.97712,0.0487 -26.01252,1.12881 -38.95038,-0.18982 z"
         id="path764" /><path
         style="fill:#f7c7f8;stroke-width:1.35211"
         d="m 411.46287,962.10303 c -37.18628,-8.58703 -46.84518,-48.64906 -42.20782,-81.71613 -0.15738,-181.07547 -1.41595,-362.1831 0.77616,-543.24005 1.66925,-24.14905 28.07445,-41.49051 51.20417,-37.40531 168.69879,1.12569 337.39694,2.3518 506.09306,3.82756 33.0628,19.85554 55.87319,52.79371 84.77046,77.93891 28.2544,21.48306 47.421,51.0098 40.251,87.66721 0.7629,151.17224 0.4904,302.34788 0.725,453.52173 -9.3476,22.68204 -30.649,43.40908 -56.92762,40.07657 -187.81499,2.16164 -375.67892,1.10031 -563.50588,0.20893 -7.06047,-0.198 -14.1493,-0.0863 -21.17853,-0.87942 z m 59.32807,-33.75729 c 3.01028,-67.15242 1.48418,-134.47577 2.22764,-201.70513 8.9624,-21.48698 30.28417,-42.25089 55.0997,-37.85872 125.60329,0.61535 251.26029,-1.50302 376.82065,1.47875 39.04287,1.31768 48.50065,46.34871 44.21048,77.83734 0.5067,53.78556 0.77969,107.57303 1.16495,161.35957 20.46733,-1.71631 43.86388,6.30662 61.66034,-6.22985 13.3819,-14.74443 5.5722,-35.49985 7.7204,-53.34724 -0.05,-144.29882 1.9974,-288.62684 -0.09,-432.90346 -18.2402,-25.79871 -44.17853,-47.11553 -66.3066,-70.49845 -11.34409,-10.10838 -21.12728,-23.59219 -33.40614,-31.67911 -22.24838,-2.78655 -55.37637,-9.14402 -45.04608,25.03683 -1.14879,46.54856 1.09517,93.77053 -1.09596,140.0155 -9.37068,21.40468 -32.37703,37.5485 -56.11234,33.43631 -91.90198,-0.59669 -183.89696,1.53208 -275.72429,-1.58888 -36.97208,-7.81761 -40.94455,-48.53988 -38.13847,-79.51292 -0.36841,-39.2193 -0.67305,-78.43918 -1.00977,-117.65876 -31.27881,0.84019 -63.22999,-3.26471 -93.9678,2.02611 -14.17827,26.60705 -2.98354,64.72793 -6.53558,96.03263 0.33106,157.84012 -0.72923,315.70358 1.45622,473.52816 0.18241,32.97351 46.04171,23.59106 67.07305,22.23132 z m 450.17054,-92.86006 c -1.02179,-35.01219 2.59737,-70.71094 -2.10873,-105.2859 -21.44958,-23.98078 -61.23995,-9.0723 -90.65032,-13.54264 -103.07078,0.0543 -206.14134,0.35221 -309.21202,0.51868 -15.19323,5.29319 -20.97926,20.09735 -18.21302,34.81802 0.53681,58.83218 -1.48227,117.79659 1.58633,176.52145 130.55047,2.96594 261.2733,0.60246 391.8988,0.98545 9.62461,-2.36213 30.73992,6.79572 26.34545,-9.62123 0.11784,-28.13128 0.23567,-56.26255 0.35351,-84.39383 z M 694.089,866.56484 c -37.72828,-0.29295 -75.46066,-0.3863 -113.18472,-1.01408 -18.58513,-16.45984 7.36964,-26.45854 21.82312,-21.9475 78.25124,0.3924 156.5409,-0.92968 234.76066,1.10733 30.23641,20.85701 -27.21902,26.02039 -42.9763,22.22265 -33.47452,-0.0122 -66.949,-0.16864 -100.42276,-0.3684 z M 584.27841,792.47097 c -22.92302,-10.24035 -0.095,-28.55818 15.66295,-21.87377 80.5891,0.22104 161.1782,0.44208 241.7673,0.66313 16.32021,33.81731 -45.87002,16.51007 -64.66916,21.05562 -64.2527,0.18113 -128.50989,0.61594 -192.76109,0.15502 z M 831.8849,497.73059 c 21.91548,-24.73869 4.92716,-66.4881 10.69114,-97.74815 -4.27058,-25.81864 16.08197,-79.48067 -28.09181,-66.54924 -91.73835,0.0525 -183.47493,0.6932 -275.21213,1.09473 0,52.03616 0,104.07232 0,156.10848 8.33386,13.0327 25.21553,5.70036 38.14506,7.78393 83.65125,0.22824 167.37665,3.10119 250.97478,0.14538 z m -73.79797,-33.50494 c 2.87416,-28.10835 -7.29962,-69.1415 7.4791,-89.82562 40.07013,-15.40198 26.85654,29.9384 28.92598,53.76185 0.1098,12.50699 0.21959,25.01399 0.32939,37.52098 -12.00828,-0.7114 -25.76222,2.82265 -36.73447,-1.45721 z"
         id="path762" /><path
         style="fill:#fcc7e2;stroke-width:1.35211"
         d="m 413.52562,962.16001 c -30.3753,-6.91011 -49.36616,-38.49449 -44.64414,-68.67637 -1.2282,-186.31812 0.38925,-372.63948 1.37653,-558.95571 8.59084,-34.13012 45.68554,-34.83092 74.15297,-32.32353 160.97241,0.43718 321.94496,0.8205 482.91746,1.22494 32.7523,19.91353 55.53137,52.4674 84.20086,77.52866 25.7053,21.03326 48.0478,47.5025 40.5341,82.96527 0.3154,152.47565 1.1165,304.97763 -0.8836,457.43865 -9.3751,38.30848 -50.4182,43.73194 -83.49697,40.59612 -183.13944,0.97883 -366.31235,2.44385 -549.44293,0.67641 z m 507.38029,-32.30925 c 2.58217,-65.91471 2.57805,-132.11721 0.25752,-198.05171 -22.45863,-30.56198 -68.55699,-10.13501 -101.0884,-16.521 -99.59117,0.69967 -199.26865,-1.29614 -298.80263,2.05453 -36.33099,10.39364 -14.13512,61.87831 -20.53981,89.96857 0.76444,40.7191 -1.6065,81.70921 1.80528,122.25629 136.04909,1.493 272.17495,3.58289 408.21593,1.47551 l 7.12687,-0.56538 z m -336.6275,-64.19095 c -23.50444,-11.9586 2.83089,-26.61006 17.98096,-20.78849 79.50331,0.5567 159.10946,-1.30696 238.53102,1.67599 13.20625,31.14604 -44.95759,14.9997 -63.39827,19.28793 -64.36938,0.0819 -128.74926,0.60631 -193.11371,-0.17543 z m 0.96552,-73.54905 c -30.14668,-24.93473 30.42058,-20.31497 46.96214,-20.15411 69.44552,0.45125 139.00669,-1.32373 208.37466,1.55388 15.76754,29.00804 -45.33315,12.39093 -61.57822,17.41899 -64.57814,0.0798 -129.23037,1.16369 -193.75858,1.18124 z m 418.73537,137.77518 c 29.9345,-18.97254 11.9482,-61.95169 17.1706,-91.76661 -0.3896,-133.72041 1.5482,-267.50002 -1.2663,-401.18349 -24.47181,-31.70195 -56.14217,-58.78119 -84.18663,-88.07393 -10.2508,-16.80598 -28.54591,-16.70983 -46.58805,-15.82683 -29.90778,4.19846 -7.73972,56.86419 -14.90086,80.8594 -4.35584,32.94179 8.48601,71.78595 -10.6565,100.80246 -20.92403,25.26541 -56.50278,16.52086 -85.3269,18.11258 -78.84054,-1.04736 -157.88158,1.69994 -236.59374,-2.86377 -24.34687,-5.30555 -40.0696,-30.99623 -36.25527,-55.02445 -0.78614,-47.10121 1.00245,-94.38536 -2.3242,-141.33888 -31.02801,-1.77257 -62.31988,-1.5852 -93.33303,0.43841 -15.92513,5.62948 -6.96033,23.66682 -9.21513,36.00177 0.70789,178.91301 0.59362,357.83351 2.34193,536.73916 2.68715,30.74265 37.6129,22.2615 59.13046,22.83723 16.43448,4.69745 7.54692,-15.72933 9.85904,-25.04392 0.39462,-58.40341 0.78924,-116.80682 1.18386,-175.21023 8.10261,-25.33897 32.38124,-43.27005 59.59385,-39.4028 122.16376,-0.47587 244.39034,-1.3965 366.52753,1.36495 30.78541,-0.86341 53.78481,30.8753 49.08022,59.89823 0.66536,59.55814 -1.63822,119.30739 1.83434,178.71262 17.51853,3.35491 36.29623,2.50046 53.92478,-0.0319 z M 831.39798,499.80171 c 24.03928,-21.2512 8.01419,-60.49181 12.77553,-89.54691 -6.94165,-24.43174 17.64354,-80.85326 -21.30246,-77.2594 -94.98159,-0.64546 -189.96761,0.11531 -284.95107,0.18042 0.23097,51.96398 -1.59858,104.00304 0.49974,155.90767 21.23647,22.82474 63.427,7.02575 93.3605,12.45747 65.24274,0.17671 130.58143,1.94156 195.76641,-0.53012 z M 759.5148,463.07097 c 6.36769,-28.83384 -17.87992,-92.62466 27.6474,-90.01301 15.40169,10.33249 3.354,42.69634 6.56617,62.09003 -3.05181,8.73572 6.23232,29.63569 -6.00443,29.31431 -9.20628,-0.55313 -19.8819,2.40797 -28.20914,-1.39133 z"
         id="path760" /><path
         style="fill:#fcb7e9;stroke-width:1.35211"
         d="m 413.52562,962.16001 c -30.3753,-6.91011 -49.36616,-38.49449 -44.64414,-68.67637 -1.2282,-186.31812 0.38925,-372.63948 1.37653,-558.95571 8.59408,-34.11763 45.69377,-34.83083 74.16508,-32.45052 102.39376,0.5646 204.81204,1.0435 307.16659,4.11738 15.54139,9.54547 20.61747,14.93782 32.5963,16.14747 8.38336,2.61191 22.00946,12.48118 -1.95777,8.74791 -81.43232,1.07847 -162.87184,1.43368 -244.30823,2.08565 0.22313,51.93848 -1.58011,103.94888 0.48763,155.83046 19.92759,23.41391 61.89956,7.33203 90.75856,12.44141 67.12078,-0.95021 134.602,2.98764 201.50649,-1.53664 26.31736,-21.74162 7.58708,-64.55795 13.5452,-94.85666 1.5389,-15.43015 -3.09815,-64.15596 5.3641,-59.72259 11.81639,15.26998 28.51056,27.19577 22.74756,52.94532 -0.12881,34.85143 4.77143,70.43936 -1.47343,104.84435 -9.22402,18.22024 -29.07315,32.46655 -50.00764,28.81491 -91.41982,-0.58259 -182.90337,1.46433 -274.2725,-1.37239 -26.75266,-2.09997 -45.39085,-30.07375 -41.2003,-55.64269 -0.78614,-47.10121 1.00245,-94.38536 -2.3242,-141.33888 -31.02801,-1.77257 -62.31988,-1.5852 -93.33303,0.43841 -15.92513,5.62948 -6.96033,23.66682 -9.21513,36.00177 0.70789,178.91301 0.59362,357.83351 2.34193,536.73916 2.68715,30.74265 37.6129,22.2615 59.13046,22.83723 16.43448,4.69745 7.54692,-15.72933 9.85904,-25.04392 0.39462,-58.40341 0.78924,-116.80682 1.18386,-175.21023 8.10261,-25.33897 32.38124,-43.27005 59.59385,-39.4028 122.16376,-0.47587 244.39034,-1.3965 366.52753,1.36495 30.78541,-0.86341 53.78481,30.8753 49.08022,59.89823 0.73031,59.58115 -1.79287,119.40035 1.93136,178.79314 27.76442,4.51459 77.67246,7.23318 70.24986,-34.82047 2.6234,-124.14855 -0.437,-248.39407 2.7198,-372.51881 5.4449,-6.52218 26.1337,25.54647 23.469,40.6233 9.7982,29.61637 2.5271,64.58545 5.0414,96.21903 0.1368,87.73176 0.063,175.4637 0.091,263.19554 -9.7489,25.06405 -34.0465,43.16816 -61.67058,38.76115 -186.90641,2.12615 -373.85341,2.2542 -560.77088,1.53992 -5.25263,-0.20192 -10.53723,-0.0865 -15.75602,-0.83801 z m 507.38029,-32.30925 c 2.58217,-65.91471 2.57805,-132.11721 0.25752,-198.05171 -22.45863,-30.56198 -68.55699,-10.13501 -101.0884,-16.521 -99.59117,0.69967 -199.26865,-1.29614 -298.80263,2.05453 -36.33099,10.39364 -14.13512,61.87831 -20.53981,89.96857 0.76444,40.7191 -1.6065,81.70921 1.80528,122.25629 136.04909,1.493 272.17495,3.58289 408.21593,1.47551 l 7.12687,-0.56538 z m -336.6275,-64.19095 c -23.50444,-11.9586 2.83089,-26.61006 17.98096,-20.78849 79.50331,0.5567 159.10946,-1.30696 238.53102,1.67599 13.20625,31.14604 -44.95759,14.9997 -63.39827,19.28793 -64.36938,0.0819 -128.74926,0.60631 -193.11371,-0.17543 z m 0.96552,-73.54905 c -30.14668,-24.93473 30.42058,-20.31497 46.96214,-20.15411 69.44552,0.45125 139.00669,-1.32373 208.37466,1.55388 15.76754,29.00804 -45.33315,12.39093 -61.57822,17.41899 -64.57814,0.0798 -129.23037,1.16369 -193.75858,1.18124 z M 759.9313,464.14489 c 0.37014,-23.71202 -5.7793,-61.97852 6.36456,-76.8353 33.31845,10.47139 27.66904,48.87395 27.1913,76.47466 -10.00133,1.36608 -22.83016,1.17236 -33.55586,0.36064 z"
         id="path758" /><path
         style="fill:#f6a6f5;stroke-width:1.35211"
         d="m 413.52562,962.16001 c -30.3753,-6.91011 -49.36616,-38.49449 -44.64414,-68.67637 -1.2282,-186.31812 0.38925,-372.63948 1.37653,-558.95571 8.53239,-33.9213 45.34773,-34.8932 73.69014,-32.45071 48.35486,1.35872 97.59328,-2.64854 145.30972,5.97752 5.52641,6.18277 13.3229,2.01039 6.90954,12.98947 16.95636,-4.9131 23.75014,16.97986 -2.23731,9.9277 -26.05381,2.66613 -70.32843,-9.02513 -57.35419,32.29541 1.09249,42.85468 -1.58069,86.04866 3.10299,128.68112 23.88605,20.02809 63.73458,4.65537 93.72111,9.61666 64.56409,-0.7949 129.12828,5.04776 193.65582,1.84153 20.89362,-3.11047 18.35816,-43.61891 21.26312,-9.43002 11.70117,8.15861 -9.06405,21.03877 12.07991,8.80399 13.87968,-13.81686 2.85486,6.44022 -1.11457,9.87984 -7.20022,23.21335 -54.00632,17.64949 -78.24165,18.72349 -77.89375,0.79233 -155.87018,2.16059 -233.72452,-0.48001 -26.98973,-2.21624 -46.18244,-30.03493 -42.00981,-55.98215 -0.39705,-47.24864 -0.7941,-94.49728 -1.19114,-141.74592 -31.78117,0.63 -64.32639,-2.76022 -95.51673,1.52893 -14.27283,5.98507 -5.99685,23.18184 -8.11843,35.12328 0.715,178.97786 0.60821,357.96325 2.36321,536.93373 2.68715,30.74265 37.6129,22.2615 59.13046,22.83723 16.43448,4.69745 7.54692,-15.72933 9.85904,-25.04392 0.39462,-58.40341 0.78924,-116.80682 1.18386,-175.21023 8.02354,-24.75788 31.49735,-43.00743 58.32172,-39.41081 123.86478,-0.57322 247.8369,-1.78939 371.64468,1.96692 35.47248,3.30484 48.28689,41.99165 44.359,72.74325 1.30229,55.14608 -0.75501,110.49487 2.98806,165.50405 28.31441,4.61732 77.83276,6.36204 70.36226,-35.93507 2.3986,-70.13237 -1.0144,-140.77347 3.9238,-210.60398 4.3301,15.83552 7.0599,34.62396 25.2305,33.3256 4.7475,68.33823 1.4938,137.19165 1.8742,205.76215 -10.2489,27.5329 -38.1715,43.73392 -67.10817,38.66595 -190.33552,1.84534 -380.77671,3.72206 -571.08901,0.79708 z m 507.38029,-32.30925 c 2.57918,-66.36631 2.5773,-133.01782 0.26193,-199.40382 -23.32392,-28.75248 -68.01714,-8.88222 -100.2682,-15.13892 -99.85363,0.72537 -199.79302,-1.30517 -299.59074,2.02413 -36.3828,10.33663 -14.1689,61.88043 -20.57631,89.969 0.76444,40.7191 -1.6065,81.70921 1.80528,122.25629 136.04909,1.493 272.17495,3.58289 408.21593,1.47551 l 7.12687,-0.56538 z m -336.6275,-64.19095 c -23.50444,-11.9586 2.83089,-26.61006 17.98096,-20.78849 79.50331,0.5567 159.10946,-1.30696 238.53102,1.67599 13.20625,31.14604 -44.95759,14.9997 -63.39827,19.28793 -64.36938,0.0819 -128.74926,0.60631 -193.11371,-0.17543 z m 0.96552,-73.54905 c -30.14974,-24.96191 30.49795,-20.30333 47.04935,-20.1589 68.14981,0.35481 136.35481,-1.07764 204.46754,1.09758 27.26548,25.99247 -42.03564,15.2991 -57.2144,17.88087 -64.75942,0.0745 -129.59302,1.16133 -194.30249,1.18045 z M 845.9446,467.03497 c 0.43217,-15.45727 1.41875,15.37466 0,0 z m -85.91482,-4.39436 c 1.41646,-11.8569 -3.72959,-50.63018 9.39319,-22.61659 14.26284,4.79824 37.06658,29.40176 8.04533,23.63067 -5.81337,-0.13795 -11.70242,0.18485 -17.43852,-1.01408 z"
         id="path756" /><path
         style="fill:#e9a3f9;stroke-width:1.35211"
         d="m 413.52562,962.05834 c -31.39459,-6.77726 -49.55314,-39.96082 -44.83352,-70.56087 -0.13949,-180.50721 -0.56376,-361.04942 2.16914,-541.53416 -5.42858,-38.2892 37.06557,-54.12972 68.07087,-46.52825 21.8836,2.42244 5.46287,22.32085 32.09558,23.91359 -13.21516,12.14356 -54.56345,-5.02404 -69.66856,13.20841 0.43183,188.73469 -0.0198,377.47578 1.48377,566.2047 2.69157,30.74206 37.61415,22.26178 59.13278,22.83723 16.43448,4.69745 7.54692,-15.72933 9.85904,-25.04392 0.39462,-58.40341 0.78924,-116.80682 1.18386,-175.21023 8.12746,-24.98041 32.00422,-43.33668 59.02184,-39.88796 88.34799,-0.0885 176.86334,-0.85434 265.10891,2.46377 12.08081,3.14926 35.15383,18.72352 32.61254,3.93934 17.16407,28.86948 -30.00906,14.67351 -49.14848,18.54188 -87.36025,1.72242 -174.88594,-1.02863 -262.13606,3.45149 -32.68762,12.7204 -11.79905,57.83959 -17.51691,85.25836 0.10157,42.11541 0.3032,84.23052 0.45253,126.34579 138.14604,1.61532 276.33149,3.14766 414.47363,1.72942 14.93371,-20.73861 2.5027,-61.55647 7.62554,-89.61674 -2.62781,-18.30708 4.17461,-69.15901 13.68713,-29.22423 12.14253,30.9329 10.06694,64.57893 10.93771,97.53036 -8.1262,36.37489 60.34464,31.53856 70.64784,6.11821 9.2098,-13.41332 -2.0561,-43.80562 9.5506,-31.66722 28.1898,-2.59485 26.5261,27.70267 18.8533,45.80626 -14.8219,34.8829 -54.82672,32.5859 -86.37896,31.83203 -181.24898,0.8661 -362.53504,3.25863 -543.77019,0.42829 l -3.51395,-0.33555 z m 170.75279,-96.39853 c -23.50444,-11.9586 2.83089,-26.61006 17.98096,-20.78849 79.50331,0.5567 159.10946,-1.30696 238.53102,1.67599 13.20625,31.14604 -44.95759,14.9997 -63.39827,19.28793 -64.36938,0.0819 -128.74926,0.60631 -193.11371,-0.17543 z m 438.58749,-1.77976 c 1.0139,-7.47542 1.0139,7.47545 0,0 z M 585.24393,792.04218 c -29.48338,-28.00641 37.8448,-18.77865 55.76653,-20.06359 66.47692,1.01473 133.24922,-1.88783 199.52477,2.64644 15.76551,26.8525 -41.98039,11.91183 -56.82169,16.17983 -66.1434,-0.23353 -132.47103,0.40706 -198.46961,1.23732 z M 546.03266,531.23181 c -40.33799,-5.98041 -44.85581,-51.38555 -40.75525,-84.01403 1.52049,-20.54519 -0.99429,-40.55564 7.35883,-24.01698 -7.16522,-12.8019 4.51048,-31.35252 1.8766,-5.19262 7.32811,-3.04193 10.90273,18.75272 20.95188,17.59017 -1.64021,29.56918 -4.55464,77.10497 39.24063,68.1 14.8031,4.30172 43.24632,-7.04698 39.11978,14.90059 14.25809,8.08005 53.72765,12.54786 15.42165,12.61098 -27.72512,0.4157 -55.50358,1.14514 -83.21412,0.0219 z M 474.42844,329.88896 c 0.77362,-7.09975 3.82705,4.49685 0,0 z"
         id="path754" /><path
         style="fill:#e69cfa;stroke-width:1.35211"
         d="m 413.52562,962.1422 c -28.92505,-6.60734 -48.78528,-36.37507 -44.6656,-65.61721 -0.8648,-184.179 0.80485,-368.35884 2.15052,-552.53227 -1.13361,-17.71348 43.34648,-53.12456 27.12634,-23.52151 -15.54168,16.57619 -7.46538,44.35279 -14.6402,55.18877 6.01716,21.50317 14.51908,47.99876 15.62499,74.04248 2.70397,152.33822 1.44583,304.7183 3.69981,457.0593 2.73216,30.73659 37.62579,22.26436 59.1542,22.83723 16.43448,4.69745 7.54692,-15.72933 9.85904,-25.04392 0.39462,-58.40341 0.78924,-116.80682 1.18386,-175.21023 8.509,-26.47933 35.83555,-45.69948 63.95293,-40.072 60.11357,1.64951 120.42005,1.04115 180.41843,3.90194 -6.41011,13.85704 40.77169,-11.10104 19.37469,7.67071 -1.83426,17.69147 -33.2758,11.70489 -58.90098,12.84045 -54.17707,0.87277 -108.6019,-0.38781 -162.57669,4.64614 -27.7745,18.46878 -8.60434,60.44561 -14.54365,88.69377 0.19541,40.77109 -0.48296,81.59008 1.17463,122.32594 96.26074,2.26971 192.60083,0.9728 288.84712,3.59992 7.77114,-1.12978 34.61416,1.54992 57.03215,1.82755 22.90805,-4.67126 67.05765,13.20179 75.88178,-12.17486 -0.93242,-23.32019 8.56139,9.20079 23.25508,6.81839 27.5413,17.14343 75.71893,7.85059 80.80563,-29.98548 44.2614,-4.35881 12.9545,54.10473 -12.8625,58.73042 -71.4808,5.46068 -143.48241,2.55872 -215.18222,4.04745 -128.70436,-0.043 -257.53173,3.02579 -386.16936,-0.073 z m 170.75279,-96.47081 c -23.49757,-11.97119 2.80306,-26.68203 17.98093,-20.81935 75.20862,-0.0196 150.60283,1.23243 225.63558,3.85116 29.60939,10.80243 -9.66698,20.11322 -25.31473,17.75731 -32.24825,-1.49364 -65.4301,-1.07838 -98.30174,-0.96491 -39.99825,0.18395 -80.00355,0.65163 -120.00004,0.17579 z m 0.96552,-73.70716 c -31.33813,-23.57487 29.56661,-21.98392 45.09276,-19.80458 53.49751,1.79185 107.16455,-0.72974 160.55879,3.09172 2.93048,11.66625 27.93746,-4.38269 38.18396,5.16666 30.32113,-11.24688 -0.51651,25.42879 -7.73422,0.98314 -21.81481,17.46848 -65.85971,3.55555 -96.44898,8.31165 -46.55573,-0.45522 -93.19899,2.63499 -139.65231,2.25141 z m 241.35212,-14.61939 c 5.61721,-6.65999 13.61689,1.86336 0,0 z m -70.05246,-67.26761 c 9.1806,-9.42518 10.35816,9.95546 0,0 z M 553.84084,528.5588 c 5.09732,-8.88797 4.40923,6.48378 0,0 z m -35.62883,-11.83369 c -10.23351,-11.18511 12.46811,11.50583 0,0 z m -7.15395,-15.69828 c -21.82417,-51.72208 25.4776,10.4181 0,0 z"
         id="path752" /><path
         style="fill:#d4adfa;stroke-width:1.35211"
         d="m 413.52562,962.05834 c -29.86762,-6.57762 -49.16565,-37.76763 -44.86273,-67.53399 -0.10795,-148.36659 0.40513,-296.77123 2.10247,-445.11239 20.10692,6.00495 11.72168,39.54037 24.93318,55.35547 7.48966,8.73288 2.03529,23.01915 4.17734,34.04633 3.51231,124.03593 0.88337,248.15685 3.41887,372.19845 6.76692,26.66338 38.17268,17.51784 58.68093,18.58678 16.43448,4.69745 7.54692,-15.72933 9.85904,-25.04392 0.39462,-58.40341 0.78924,-116.80682 1.18386,-175.21023 8.26446,-25.51489 33.40456,-44.30631 60.91481,-39.99002 28.64114,0.67949 57.69107,-0.31378 86.00942,3.82863 -4.18271,16.55376 34.20557,20.83651 -1.54892,20.71414 -34.97945,2.3094 -70.62393,-0.79604 -105.16759,5.34499 -23.88856,23.78358 -7.61209,65.35343 -12.49156,96.72423 0.22062,37.79042 -0.42354,75.6296 1.1832,113.38498 96.26074,2.26971 192.60083,0.9728 288.84712,3.59992 2.02355,2.54279 17.08959,-4.96566 17.18781,2.4534 26.91258,-0.98732 43.19275,5.60748 54.09185,24.67854 -133.94634,4.95901 -268.14073,3.71446 -402.19178,3.37496 -15.44097,-0.32817 -30.92799,-0.0739 -46.32732,-1.40027 z m 170.75279,-96.38695 c -23.49855,-11.97179 2.80876,-26.66601 17.98094,-20.81433 38.99812,0.53555 78.1407,-1.33955 117.00591,2.15914 28.34881,-3.51369 53.36265,11.12143 78.86491,15.51179 21.74838,-1.7267 22.82797,7.43468 -0.14655,3.60915 -32.59671,-0.72082 -66.45253,-1.06355 -99.70784,-0.59745 -37.99712,0.15249 -76.00225,0.60222 -113.99737,0.1317 z m 0.96552,-73.62921 c -31.32649,-24.23121 30.45559,-21.71122 46.64789,-19.94145 33.15366,1.27992 68.15293,0.76514 100.05634,6.49708 -11.77222,10.17027 20.69314,1.05169 -4.94361,10.35753 -47.21558,0.99357 -94.66207,3.0104 -141.76062,3.08684 z M 518.21201,516.72511 c -10.23351,-11.18511 12.46811,11.50583 0,0 z"
         id="path750" /><path
         style="fill:#d79cfb;stroke-width:1.35211"
         d="m 413.26899,960.70988 c -29.32609,-6.6127 -47.74697,-37.55381 -43.09738,-66.67511 -0.60394,-149.28923 0.67867,-298.57843 1.11417,-447.86702 20.3346,15.88329 10.88616,40.23945 24.35274,58.53966 7.37191,8.74378 1.56668,22.99077 3.52488,33.99549 0.73108,125.36084 1.46214,250.72167 2.1932,376.08251 12.6551,25.58941 46.3717,14.53734 69.20779,16.01755 6.47611,-24.98371 1.35961,-58.85735 3.17741,-87.19139 1.10242,-39.02378 -1.80186,-78.56035 2.8911,-117.25092 7.20412,-22.9469 30.92445,-38.96176 54.75215,-35.06594 29.35695,0.62832 60.69253,-3.26029 88.47533,2.62241 -7.0973,14.76734 34.72737,19.43362 1.3009,19.71996 -36.09375,1.96731 -73.17223,-3.57966 -108.6101,4.12381 -26.0097,22.26878 -9.09792,63.01763 -13.82996,93.69493 0.28261,39.58505 -0.21254,79.21234 1.39309,118.76427 64.09339,5.23698 128.89621,1.41561 193.25416,2.96715 44.60103,0.44899 89.30467,-0.0431 133.78015,3.5445 14.40023,3.7123 20.80704,-0.0484 26.64044,15.88478 25.229,12.77509 -31.45396,7.80933 -41.36483,8.96564 -131.67152,0.32565 -263.38016,1.83128 -395.03217,-0.39397 z m 279.91953,-96.49167 c -37.03255,-0.11794 -74.06511,-0.23589 -111.09766,-0.35383 -16.17909,-29.52939 45.00981,-12.99612 62.2578,-17.54996 32.86455,-1.39958 65.97508,2.17006 98.19564,1.49718 26.63428,1.27195 49.11081,20.54527 72.79834,16.97395 -40.71201,-0.13448 -81.43728,-0.50729 -122.15412,-0.56734 z M 584.63007,789.3483 c -21.62291,-26.22909 46.48519,-12.99327 64.14357,-15.95028 24.78622,1.88981 65.40415,-2.32452 81.40453,6.88993 -6.75679,7.79219 19.37846,-1.25134 -0.38016,8.47757 -48.35428,1.4037 -96.80181,1.49192 -145.16794,0.58278 z"
         id="path748" /><path
         style="fill:#c898fb;stroke-width:1.35211"
         d="m 413.26899,960.76401 c -26.57222,-6.73904 -47.63186,-33.592 -43.07715,-61.27945 -0.5017,-102.68696 -0.58011,-205.38232 1.41828,-308.05522 29.17137,10.4443 27.80229,48.232 27.72133,74.38982 1.26131,82.98247 1.40257,165.9765 2.02515,248.96523 12.38168,24.59291 42.36059,14.72752 64.60059,16.12433 13.91643,1.8095 4.33494,-19.7774 7.34016,-28.83198 0.97955,-56.786 0.25042,-113.88231 2.29268,-170.47531 -0.2429,-22.50775 41.66826,-46.93483 25.83857,-10.996 -7.08867,48.88625 -1.44771,98.94724 -2.39903,148.32295 2.18759,28.46425 -10.98048,74.9867 32.63766,63.36684 54.3797,2.73681 109.93978,-3.48637 163.20887,10.10967 13.70737,7.39792 51.49479,21.61983 13.86699,18.59174 -98.45677,0.22222 -197.10054,3.03346 -295.4741,-0.23262 z M 578.61528,859.7339 c -4.9053,-21.20568 47.3429,-17.40862 56.71994,-5.26626 19.26154,15.54621 -11.97821,7.42793 -21.1766,9.41241 -11.15364,-1.73652 -25.60585,3.61348 -34.52128,-2.93151 z M 506.99041,716.77323 c -0.0437,-9.21189 17.26787,1.97498 0,0 z"
         id="path746" /><path
         style="fill:#b699fc;stroke-width:1.35211"
         d="m 413.26899,960.65307 c -44.77826,-9.58041 -45.89821,-59.3434 -43.51734,-95.79264 0.27549,-52.93031 -0.34066,-105.99086 2.56345,-158.82461 12.3177,8.07916 32.48175,38.97065 26.50181,66.06536 1.6605,48.1695 -0.9135,96.89528 4.37154,144.7017 17.45813,25.19969 86.57341,27.23274 71.177,-17.64366 0.40863,-15.13895 0.73147,-30.28007 1.10053,-45.42002 25.84951,5.45492 19.70925,49.98479 22.82418,72.09309 11.20283,16.05554 49.11195,4.09944 56.77121,24.17369 29.40909,13.30173 -26.72997,12.52413 -39.21189,12.13639 -34.16345,0.21435 -68.51296,1.39029 -102.58049,-1.4893 z m 63.88133,-119.63692 c -0.0391,-19.20535 7.0828,7.29108 0,0 z"
         id="path744" /></g></g></svg>
