<?xml version="1.0" encoding="UTF-8" standalone="no"?>
<!-- Created with Inkscape (http://www.inkscape.org/) -->

<svg
   width="516.31506"
   height="494.78317"
   viewBox="0 0 516.31507 494.78316"
   version="1.1"
   id="svg5"
   xml:space="preserve"
   xmlns:xlink="http://www.w3.org/1999/xlink"
   xmlns="http://www.w3.org/2000/svg"
   xmlns:svg="http://www.w3.org/2000/svg"><defs
     id="defs2"><color-profile
       name="DP"
       xlink:href="../../../../../.local/share/icc/edid-27fd61d80a4d3102d04ad05b2e686881.icc"
       id="color-profile4383" /><color-profile
       name="DP"
       xlink:href="../../../../../.local/share/icc/edid-27fd61d80a4d3102d04ad05b2e686881.icc"
       id="color-profile4385" /><color-profile
       name="DP"
       xlink:href="../../../../../.local/share/icc/edid-27fd61d80a4d3102d04ad05b2e686881.icc"
       id="color-profile4387" /><color-profile
       name="DP"
       xlink:href="../../../../../.local/share/icc/edid-27fd61d80a4d3102d04ad05b2e686881.icc"
       id="color-profile4389" /></defs><g
     id="layer1"
     transform="translate(-132.26388,117.59796)"><g
       id="g846"
       transform="translate(-323.7647,-445.86043)"><path
         style="fill:#fefefe"
         d="m 487.87729,821.86186 c -33.8087,-8.78259 -32.71929,-46.26016 -31.32341,-73.95494 -0.33034,-131.04874 -0.11459,-262.0983 -0.17501,-393.14741 5.55018,-15.78598 20.96742,-29.23988 38.3647,-26.01575 127.04457,-0.15552 254.08915,-0.31105 381.13372,-0.46658 22.51962,13.30202 38.77152,35.33754 58.05076,52.79547 11.77965,15.51443 33.06781,27.03522 37.95411,46.54603 -0.20575,118.47232 1.4219,236.96863 -0.44708,355.42194 0.74968,19.21874 -16.50943,36.30708 -34.41696,39.72128 -148.58834,-0.19072 -297.19104,1.06137 -445.7679,-0.55523 z m 44.5,-104.39225 c 1.20157,-27.62354 -2.81642,-56.08328 3.50438,-83.10924 10.68649,-25.57573 39.97146,-23.78422 62.90205,-23.07706 87.8117,-0.23454 175.64816,-1.37629 263.44742,0.0674 23.39223,3.10273 36.16468,28.02492 32.80382,49.88735 0.5582,42.33807 0.27037,84.68099 0.34233,127.02147 13.43553,-1.6925 31.2317,5.33106 40.25699,-7.70032 3.74844,-45.95875 1.27226,-92.41038 2.25428,-138.56268 -0.0826,-67.48609 0.99718,-135.001 -0.4475,-202.46955 -22.19699,-27.43033 -49.14162,-50.87185 -73.64336,-76.33688 -7.02348,1.27734 -18.27838,-1.60961 -22.93306,1.99896 -0.73297,37.57582 0.1278,75.51394 -1.59396,112.86497 -6.35582,15.91101 -22.34053,29.86084 -40.25952,26.76826 -69.81532,0.0388 -139.66574,1.52861 -209.45482,-0.0528 -19.13923,-2.1697 -35.99795,-21.31426 -32.74116,-40.87613 -0.16195,-33.54462 -0.32389,-67.08924 -0.48583,-100.63386 -21.05712,0.83643 -42.83414,-2.07572 -63.3172,2.07258 -5.88625,5.88292 -1.0723,16.96237 -2.63302,24.94598 0.0104,128.82714 0.0208,257.65429 0.0311,386.48144 6.82657,16.90951 27.52794,10.17865 41.9671,11.50045 0,-23.59678 0,-47.19357 0,-70.79035 z m 332.5,1.7899 c 0,-22.83333 0,-45.66667 0,-68.5 -14.73601,-17.16381 -43.28643,-6.04989 -63.8525,-9.45777 -75.09702,0.2486 -150.21954,-0.79924 -225.29962,0.7443 -16.02621,0.61349 -13.51321,17.12711 -13.34788,28.09387 0.13615,39.15151 -0.40998,78.31791 0.66989,117.45616 100.60348,0.97679 201.22063,0.16352 301.83011,0.16344 0,-22.83333 0,-45.66667 0,-68.5 z m -252.9652,27.89641 c -10.91302,-11.50668 2.20776,-28.11773 16.13149,-22.89641 60.50642,0.24048 121.03153,-0.6275 181.52273,0.71873 22.04186,4.89226 4.70957,35.31731 -14.5417,25.01997 -59.8577,0.46617 -119.71856,0.18414 -179.57773,0.2613 -1.17826,-1.03453 -2.35653,-2.06906 -3.53479,-3.10359 z m -0.1348,-54.29641 c -14.72271,-35.31492 40.99812,-18.5722 60.14909,-22.57685 46.88362,-0.0429 93.76728,-0.0152 140.65091,-0.0231 12.01576,6.43175 7.41859,29.50426 -7.14794,26 -63.41735,0 -126.83471,0 -190.25206,0 -1.13333,-1.13333 -2.26667,-2.26667 -3.4,-3.4 z M 801.43268,469.22987 c 10.05105,-17.10672 2.49888,-41.05286 4.94461,-60.71394 0,-15.08846 0,-30.17693 0,-45.26539 -71.83333,0.16966 -143.66667,0.33932 -215.5,0.50897 0.45809,33.78061 -2.0928,68.00166 1.15698,101.4375 4.79059,9.52671 17.23134,3.2773 25.69592,5.0625 61.22929,-0.30092 122.51196,0.82234 183.70249,-1.02964 z m -57.05539,-51.97036 c 0,-13 0,-26 0,-39 12,0 24,0 36,0 0,26 0,52 0,78 -12,0 -24,0 -36,0 0,-13 0,-26 0,-39 z"
         id="path868" /><path
         style="fill:#fefdfe"
         d="M 490.37729,819.32238 C 458.29658,811.1445 457.70974,776.59648 459.57272,749.95904 459.1807,618.52435 459.4329,487.08858 459.3683,355.6534 c 6.48376,-20.3202 28.0348,-28.3734 47.74633,-25.18818 122.08662,-0.20428 244.18229,-0.41826 366.26312,0.69646 21.86048,10.37001 36.41827,32.52639 54.60857,48.48338 14.56665,18.9176 44.11314,32.35012 41.04616,59.83988 1.00954,115.08687 0.52159,230.18333 0.7958,345.27457 -4.35596,20.61659 -24.54293,38.49519 -46.11197,35.49501 -144.4452,-0.24818 -288.90156,0.43374 -433.33902,-0.93214 z m 43.48141,-29.69411 c 3.48144,-41.95105 0.43608,-84.60333 1.55175,-126.82027 -3.95684,-22.48218 10.20728,-48.16936 34.5868,-49.33921 95.41233,-1.01078 190.87852,-1.23657 286.28697,0.18818 31.61167,-0.4616 40.43983,34.85184 36.54521,60.24469 0.55994,38.61705 0.71027,77.23848 1.04786,115.85785 15.56829,-0.67999 35.97682,7.13701 46,-8.68554 0,-115.50848 0,-231.01697 0,-346.52545 -24.98425,-24.7813 -49.9685,-49.56261 -74.95275,-74.34391 -8.68242,0.18497 -17.36483,0.36993 -26.04725,0.5549 0,37 0,74 0,111 -6.98922,21.60696 -28.55047,34.06202 -50.97118,30.25125 -66.83878,0.1373 -133.70787,0.89837 -200.52882,-0.60254 -17.4487,-4.91835 -32.24223,-22.95755 -29.57515,-41.5145 -0.69938,-32.79697 0.29937,-65.64785 0.32634,-98.38421 -22.83055,-0.39918 -48.49924,-5.06259 -70.00206,2.37155 0.34984,139.45914 -0.57783,279.00829 1.30001,418.4703 8.69756,15.07859 30.53311,6.4003 44.43227,7.27691 z m 334.51859,-67.68726 c -0.97013,-25.27926 2.30046,-51.17821 -2.8031,-76.02174 -6.70665,-11.79931 -21.09077,-5.67385 -31.99984,-7.19456 -87.06144,0.11195 -174.14551,-1.07164 -261.18851,0.54784 -23.79124,11.7987 -8.39369,46.92339 -12.91354,69.14621 0.0747,26.7215 -0.44229,53.47338 0.57166,80.17408 102.7699,1.14119 205.55602,0.49741 308.33333,0.66667 0,-22.4395 0,-44.879 0,-67.3185 z m -238.17376,25.3185 c -26.94044,6.42618 -21.40163,-30.07997 3.26776,-21.73332 58.40591,0.073 116.90651,-1.4838 175.25499,0.96696 23.54482,11.64991 -8.77314,28.94604 -24.02248,21.55308 -51.4993,0.0886 -103.00833,0.15193 -154.50027,-0.78672 z M 618.37729,693.2815 c -24.95557,-24.36624 27.10908,-23.47215 42.95993,-21.89887 49.63657,0.033 99.2728,0.24955 148.90919,0.37688 14.84987,8.27404 2.85879,27.67333 -11.37622,23.0166 -58.57709,-0.19287 -117.18111,0.93414 -175.73656,-0.51279 z M 804.79692,470.3352 c 5.67522,-6.34993 1.12658,-17.12734 2.59806,-25.29771 -0.49218,-27.6337 1.14697,-55.40057 0.67161,-82.90383 -32.85419,-3.81817 -66.93763,-0.93317 -100.26081,-1.87392 -39.57026,0.67667 -79.37961,-1.43958 -118.79531,1.5133 -0.17569,34.86942 -2.05455,70.20187 0.27161,104.80562 4.40239,11.37246 17.57985,5.07048 26.75279,6.636 62.06056,-0.15171 124.12112,-0.30343 186.18168,-0.45515 0.86012,-0.8081 1.72025,-1.61621 2.58037,-2.42431 z m -53.91963,-15.93341 c -8.46278,-1.7651 -2.07732,-16.279 -4.1682,-23.51506 0.47281,-16.46432 -1.92803,-33.58874 1.41479,-49.4916 20.26285,-5.61783 36.91052,0.96599 30.45691,24.03337 -1.42419,20.90437 9.84234,58.3996 -24.03397,49.31167 z"
         id="path866" /><path
         style="fill:#fdfdfe"
         d="m 490.37729,819.32438 c -25.7296,-6.96516 -33.94213,-33.59257 -30.63629,-57.48983 -0.80445,-135.22963 -0.19523,-270.46553 -0.36416,-405.69794 5.50293,-16.82907 22.30136,-28.54517 40.20826,-25.62432 124.59602,-0.29855 249.20174,-0.45848 373.79219,0.64939 21.86048,10.37001 36.41827,32.52639 54.60857,48.48338 14.56665,18.9176 44.11314,32.35012 41.04616,59.83988 1.00954,115.08687 0.52159,230.18333 0.7958,345.27457 -4.35598,20.61631 -24.5426,38.49523 -46.11151,35.49501 -144.44521,-0.24768 -288.90152,0.43231 -433.33902,-0.93014 z m 43.47861,-29.69504 c 3.43596,-40.88186 0.45167,-82.45687 1.61116,-123.60575 -5.59393,-26.42623 13.41209,-56.51532 42.6546,-52.8364 93.15846,-0.33389 186.35673,-1.23428 279.49769,0.57071 30.96377,0.55406 38.82939,35.21138 35.21008,60.14376 0.55994,38.61705 0.71027,77.23848 1.04786,115.85785 15.88078,-0.59847 36.99201,7.29576 46.52227,-9.68468 -0.17408,-115.17552 -0.34817,-230.35105 -0.52227,-345.52657 -24.98424,-24.78122 -49.96849,-49.56244 -74.95275,-74.34365 -8.68242,0.18497 -17.36483,0.36993 -26.04725,0.5549 0,37 0,74 0,111 -6.98922,21.60696 -28.55047,34.06202 -50.97118,30.25125 -66.83878,0.1373 -133.70787,0.89837 -200.52882,-0.60254 -18.7261,-4.97612 -32.14151,-24.8029 -29.47913,-43.94369 -0.85695,-31.98602 0.38151,-64.02393 0.22342,-95.95502 -22.82795,-0.39989 -48.49461,-5.06208 -69.99512,2.37155 0.34984,139.45914 -0.57783,279.00829 1.30001,418.4703 8.69695,15.07812 30.5309,6.40007 44.42943,7.27798 z m 334.52139,-67.68833 c -0.97013,-25.27926 2.30046,-51.17821 -2.8031,-76.02174 -6.70665,-11.79931 -21.09077,-5.67385 -31.99984,-7.19456 -87.06144,0.11195 -174.14551,-1.07164 -261.18851,0.54784 -23.79124,11.7987 -8.39369,46.92339 -12.91354,69.14621 0.0747,26.7215 -0.44229,53.47338 0.57166,80.17408 102.7699,1.14119 205.55602,0.49741 308.33333,0.66667 0,-22.4395 0,-44.879 0,-67.3185 z m -238.17376,25.3185 c -26.94044,6.42618 -21.40163,-30.07997 3.26776,-21.73332 58.4037,0.0719 116.90179,-1.4816 175.24826,0.96531 23.47443,11.58821 -8.79538,28.98942 -24.01575,21.55473 -51.4993,0.0886 -103.00833,0.15193 -154.50027,-0.78672 z m -11.72822,-53.9433 c -24.67342,-24.05776 27.27758,-23.75038 43.34737,-21.9307 49.47475,0.0301 98.94916,0.24749 148.42373,0.374 14.84987,8.27404 2.85879,27.67333 -11.37622,23.0166 -58.5352,-0.18613 -117.0959,0.9184 -175.61058,-0.50282 z m 267.74141,63.1933 c 0.0346,-9.41757 0.0777,-32.66243 -2.09792,-9.11406 -4.51172,23.03837 -9.96436,-17.99933 -8.58666,5.75055 -1.26005,12.16893 2.19035,27.26931 1.89029,6.52152 8.7291,-14.5194 7.31714,44.30209 8.82677,11.21321 0.0115,-4.79043 -0.003,-9.58088 -0.0325,-14.37122 z m -416.83943,7.25 c -2.47933,-5.26898 -2.47933,5.26898 0,0 z m 0,-11.5 c -0.0649,-10.81524 -4.08117,1.54661 -1,5 l 0.70625,-1.46875 z m 481.33135,-4.22595 c -1.42855,-8.41149 -0.31911,-32.4105 -2.00326,-8.77405 0.39886,2.23093 -1.04006,21.1018 2.00326,8.77405 z M 469.37729,733.00362 c 7.94964,-16.5793 4.54787,-39.47153 0,-57.74411 5.11493,-10.90175 0.49436,-33.70604 -1.72368,-36.375 -2.67377,14.30245 -1.9269,30.47349 -2.55598,42.23438 -1.02834,17.5945 -2.55582,47.91233 3.99521,57.07665 z m 416.96959,-21.49411 c -2.13311,-36.02525 -0.87753,38.53227 0,0 z m 62.76545,-10 c -1.0889,12.50378 0.88862,12.65249 0,0 z m -71.83472,1.94098 c -2.84644,-8.80215 -1.24293,17.33308 0,0 z m 71.81726,-17.92723 c -1.63643,-0.99538 1.34977,13.28782 0,0 z M 655.37729,628.25285 c 13.43041,-1.93583 -0.40927,-5.0496 -5.49339,-8.49978 -13.31123,15.78857 -32.56854,-5.44357 -49.38161,-0.22182 -2.7291,1.43152 0.92637,7.45034 -6.36937,8.23027 4.49279,5.32685 17.07237,0.90054 24.74751,2.38928 11.92739,-0.80141 25.93434,2.15618 36.49686,-1.89795 z m 64,0.007 c 5.94978,-8.98504 -9.37747,-10.39691 -18.08984,-8.98242 -10.33396,2.20959 -24.98981,5.02801 -31.15491,8.48242 4.27401,5.65381 17.10054,0.96535 24.78088,2.5 7.638,-1.10601 18.2664,2.19649 24.46387,-2 z m 49,0.0696 c 5.60291,-5.24195 -16.81975,-4.20317 -2.55938,1.35905 0.91414,1.41753 2.84041,-0.0741 2.55938,-1.35905 z m 67,0.51224 c -0.40821,-15.82248 -9.00168,-2.51791 -19.375,-4.58184 -12.21178,-1.93868 -33.00295,-8.87674 -32.19541,6 17.12704,-0.5604 34.88685,1.37866 51.57041,-1.41816 z m -366,-27.2216 c 2.99287,-6.64972 -1.14797,-41.91915 -2,-35.86024 -3.211,13.50337 -1.49141,29.81055 1.70625,39.13707 z m 479.7298,-21.08794 c -1.19632,8.45385 0.94599,10.12516 0,0 z m 1.28897,-87.2723 c -1.83917,-11.1106 2.08791,-37.89765 -1.6622,-40.00608 -0.86343,28.49657 -0.47416,57.00874 0.13677,85.50608 0.47557,-15.15141 -0.4231,-30.47993 1.52543,-45.5 z M 469.37729,524.3665 c 5.93009,-11.80305 -2.4775,-32.75859 -4.625,-10.85699 5.37169,2.7505 1.69258,30.16435 4.625,10.85699 z m 0,-47.60699 c 7.30548,-8.35743 -0.58222,-47.33833 -4.94187,-23.35937 -1.9327,3.74226 4.1669,41.65838 4.94187,23.35937 z m 335.41963,-6.42431 c 5.67605,-6.34993 1.13968,-17.12732 2.61669,-25.29769 -0.51563,-27.67502 1.43218,-55.42142 0.58225,-83.01721 -41.9468,-3.64973 -84.5968,-0.82621 -126.80825,-1.7585 -30.70545,0.55852 -61.62688,-1.22357 -92.17714,1.51124 -0.17569,34.86942 -2.05455,70.20187 0.27161,104.80562 4.40239,11.37246 17.57985,5.07048 26.75279,6.636 62.06056,-0.15171 124.12112,-0.30343 186.18168,-0.45515 0.86012,-0.8081 1.72025,-1.61621 2.58037,-2.42431 z m -53.91963,-16.04433 c -8.47271,-1.55062 -2.07061,-16.22771 -4.1682,-23.40414 0.47281,-16.46432 -1.92803,-33.58874 1.41479,-49.4916 17.21892,-3.71517 36.53176,-2.18598 30.25625,20.02419 -3.33996,24.45249 14.59437,64.92003 -27.50284,52.87155 z m 67.58179,-1.03136 c 0.42101,-23.31579 5.91426,-48.16984 -1.07432,-70.28779 -6.07528,-2.9717 -1.15871,32.5658 -2.88637,44.03 2.42767,5.67549 -4.72338,27.25486 3.96069,26.25779 z M 467.7955,421.65252 c -1.40412,-14.2522 10.02219,-42.26052 -0.41821,-47.39301 -6.11385,13.60612 4.55926,32.90201 -2.34719,47.74668 z m 228.58179,-76.39301 c -11.44781,-3.1421 -17.672,3.88645 0,0 z m 53.72917,0.39583 c -3.68154,-1.13412 -1.83703,1.74158 0,0 z"
         id="path864" /><path
         style="fill:#fdfdfd"
         d="m 490.37729,819.32238 c -27.99896,-7.46691 -33.77469,-37.04313 -30.60493,-61.89378 -0.66001,-133.76282 -0.30569,-267.52801 -0.39572,-401.29199 5.6444,-16.1248 21.95564,-28.94085 39.43164,-25.84597 125.35633,0.1563 250.71267,0.31259 376.06901,0.46887 22.93951,15.00262 40.11149,37.59253 60.25919,56.07663 18.27437,17.36886 40.53537,35.56884 34.05129,63.90279 0.27746,111.08174 1.3437,222.19342 -0.17894,333.26114 -2.33308,21.16075 -24.03519,39.34505 -45.45391,36.25445 -144.39172,-0.24826 -288.79331,0.43383 -433.17763,-0.93214 z m 415.95029,-12.9523 c 16.92807,-2.53201 17.94217,-13.54061 -0.22035,-9.63403 -11.2347,2.84696 -24.28747,9.85404 -19.68911,-8.34282 -0.0748,-46.23924 0.11651,-92.48089 -0.30161,-138.71801 -16.27964,-2.21367 0.21678,10.27559 -9.67104,15.85232 -1.37349,23.37344 -2.463,44.8629 -1.12452,67.93608 -1.48872,22.35203 2.96529,45.73351 -1.40792,67.25422 -16.19365,-4.55618 -44.20429,-8.64381 -60.09824,-0.90833 -18.21169,-6.10498 -43.02095,-2.25759 -63.90738,-3.43386 -62.50243,0.70646 -125.21928,-1.52309 -187.58932,1.36132 -15.73337,13.75281 26.07164,4.6814 35.18182,6.44344 35.43358,-3.83354 71.21067,1.55643 106.81172,0.31185 39.48577,0.40615 79.02644,-0.20544 118.45645,-0.50358 22.60506,5.69164 48.28217,-3.80994 72.32183,1.22615 4.83244,0.18115 5.82355,5.80386 11.23767,1.15525 z m -418.45029,-4.11057 c 13.91104,-6.3072 -15.71145,-21.47669 -7.71243,-37.4191 -1.39485,-118.87868 -1.03292,-237.77237 -0.73334,-356.65502 4.35702,-16.45675 -5.93727,-54.78544 -10.1194,-53.17508 -5.94735,9.39423 -5.12597,20.1508 -4.88001,31.41003 0.20528,130.90771 0.34258,262.32053 1.05459,392.83917 4.28671,10.90008 10.05297,24.35539 22.39059,23 z m 43.91821,-0.60699 c 4.45513,-13.3636 -47.90112,-1.64446 -16.41889,0.59376 5.47441,-0.007 10.97728,0.13037 16.41889,-0.59376 z m 16.98563,0.006 c 0.39708,-17.48505 3.37826,-40.79553 2.0579,-61.02842 -0.91148,-27.9667 1.73649,-56.32591 -1.75673,-84.07045 -6.40624,-11.57341 21.50165,-26.15011 -2.10096,-20.68434 -8.22515,19.12872 -4.61503,42.38747 -5.63406,63.62798 -0.30396,33.68634 0.34159,67.87247 -1.36049,101.23105 2.82671,0.47129 5.92891,2.18568 8.79434,0.92418 z m 394.59616,-1.39901 c 14.02477,0.10013 21.90961,-27.28994 6.5,-13.5 1.0245,-19.36553 11.13634,-39.12467 7.6664,-60.16712 -4.45204,-22.84027 2.328,-45.65015 -1.74089,-68.22956 -0.60895,-14.30476 -5.20243,-27.72822 1.28074,-42.09253 -2.70719,-15.18993 5.61473,-47.11558 -7.81202,-53.79668 -1.92598,74.04653 -0.66947,148.19477 -1.39423,222.28589 -5.60924,7.20461 -27.08963,15.77676 -4.5,15.5 z M 534.20937,789.86329 c 2.89809,-49.49808 -0.50699,-99.28524 2.19974,-148.81837 7.49275,-28.04469 39.10032,-29.7289 63.066,-28.12024 87.16951,0.35224 174.40168,-1.39401 261.53308,1.12015 28.17152,3.19726 35.17097,34.97168 32.1828,58.57021 0.56798,39.01082 -0.43174,78.05345 1.02549,117.04509 15.11922,-0.25743 44.43035,7.8729 46.17658,-14.01816 -0.17193,-113.72972 -0.34385,-227.45945 -0.51577,-341.18917 -24.95292,-24.73109 -49.90583,-49.46219 -74.85873,-74.19329 -16.10768,-1.50733 -34.63446,-1.34501 -26.74491,21.40762 0.10887,30.58181 1.65878,61.6962 -0.58763,92.01163 -6.45291,17.51875 -22.94284,31.16073 -42.52881,28.11991 -69.25173,0.58899 -138.54133,0.9836 -207.77992,-0.40447 -18.69482,-4.99987 -32.0928,-24.7211 -29.36876,-43.87554 -1.01406,-31.99962 0.42464,-64.09231 0.12543,-96.00915 -22.77342,-0.47012 -48.29601,-4.90392 -69.79955,2.25 -0.31965,139.37985 -0.10565,278.76007 0.0429,418.14 9.78252,15.68533 30.70529,7.08741 45.83208,7.96378 z m 332.91792,-0.58562 c 2.02842,-46.20165 1.83453,-92.61158 0.11098,-138.82534 -17.40418,-23.39936 -56.32686,-6.60704 -82.44976,-12.08202 -71.28568,0.0327 -142.59449,-0.53529 -213.86305,0.98139 -14.29932,2.58881 -10.81406,16.31236 -11.04817,26.60252 0,40.9351 0,81.87019 0,122.80529 102.34685,1.53765 204.85708,0.5474 307.25,0.51816 z M 630.146,747.25951 c -27.13371,6.36847 -20.86825,-30.62116 3.78698,-21.73396 58.24994,0.0763 116.59394,-1.482 174.78657,0.96595 23.47306,11.58583 -8.79133,28.9895 -24.01163,21.55471 -51.51986,0.0889 -103.04941,0.15121 -154.56192,-0.7867 z m -3.34788,-7.65429 c 22.16023,-1.3732 46.40238,1.66279 68.57917,1.39069 21.64904,0.45891 43.90963,-1.33083 64.55895,-1.48684 13.14767,-3.63791 27.71667,-1.16745 41.46685,-2.00308 12.12494,-8.62451 -7.16114,-4.1876 -13.32723,-5.20627 -55.73286,0.15312 -111.46571,0.30624 -167.19857,0.45935 -0.6931,4.89819 -1.22995,12.38138 5.92083,6.84615 z m -7.76646,-46.32409 c -24.7575,-20.37814 17.52146,-24.88113 32.52562,-21.89242 52.88654,-0.0393 105.7729,0.25556 158.65934,0.3708 14.55087,8.1373 2.79552,27.79587 -11.34641,23.02286 -58.38241,-0.17923 -116.79618,1.06158 -175.15359,-0.43881 z m 2.63538,-9.02162 c 0.0939,-6.43411 -2.71206,6.58355 0,0 z m 184.71025,-0.5 c -2.47933,-5.26898 -2.47933,5.26898 0,0 z m -46.5,-0.64345 c -9.11084,-3.74558 -20.66846,2.34727 0,0 z m -109.7723,-0.58635 c -10.1257,-0.94599 -8.45333,1.19613 0,0 z m 42.0223,10e-4 c -10.03092,-0.92992 -9.8251,1.14233 0,0 z m 186.25,-47.2712 c -2.55494,-3.58745 -2.55494,3.58745 0,0 z m -142,-6.5 c 18.24488,1.46123 43.29414,1.74632 64.13335,1.25195 23.57967,-2.04203 50.32308,3.29343 72.15122,-3.57781 -18.91772,-11.84653 -47.74551,-6.94087 -68.28457,-5.2544 -13.28646,-0.78896 -38.37328,-2.94053 -56.35971,-1.89251 -58.76462,-0.0504 -117.52927,-0.0179 -176.2939,-0.0272 9.03018,16.95489 38.39837,7.62206 55.38508,10.78759 36.39509,0.0246 72.988,1.31949 109.26853,-1.28759 z m 117,-4 c 5.97859,-9.54956 5.76315,9.15232 0,0 z m -258,-1 c 5.97859,-9.54956 5.76315,9.15232 0,0 z m 356.18195,-75 c 12.47691,-16.83958 3.39076,-43.06459 6.68378,-63.50521 2.77421,-18.17888 -0.86742,-40.8219 -4.23489,-54.99479 4.36517,-14.61349 -11.54395,-22.49963 -18.12965,-31.99083 -9.94319,-9.04687 -18.7667,-19.49953 -28.61143,-28.03497 -9.9225,-11.48524 -21.08598,-18.77926 -30.28346,-30.12089 -24.72237,-4.42346 -51.31847,-1.13608 -76.79449,-1.9236 -21.91803,0.94865 -38.93996,2.36493 -60.3393,0.0787 -51.55725,0.47282 -103.20342,-1.08889 -154.70537,0.7156 -23.86371,10.54455 21.79435,9.73492 31.23286,10.15821 65.08615,2.17204 130.25723,0.10372 195.34875,0.7364 21.44504,-3.11521 -5.00919,20.28998 2.70182,35.22364 0.85328,27.23783 -2.1699,55.1338 2.11252,81.93876 20.92121,-2.91944 5.27938,-38.46211 15.13818,-51.41655 7.90513,-23.43059 -16.72847,-44.94163 1.09478,-65.58408 13.07202,-0.1893 29.83407,-4.89287 42.60395,3.71961 -2.18493,4.80543 13.12208,2.4331 13.06037,11.5 5.55408,12.76813 15.09934,26.71346 29.98076,32 11.3668,-2.46088 2.74542,18.35912 14.95887,18.87756 4.71127,6.36015 26.87511,6.65566 12.79581,13.83418 5.24514,4.53192 0.77032,17.06728 2.19842,24.74216 0.17509,31.72063 -1.05552,63.50428 0.64348,95.17432 l 0.99067,1.29851 1.55358,-2.42673 z m -127.18195,-141 c 5.97859,-9.54956 5.76315,9.15232 0,0 z m -83.5,85.01383 c 12.24849,1.13293 45.8126,-0.0565 43.7801,-10.40085 -56.87178,-1.69207 -113.82034,-0.87819 -170.69715,0.0266 0.24739,22.22329 39.78242,5.02821 56.07126,9.68895 23.66668,0.70388 47.12329,2.03512 70.84579,0.68533 z m -155.93358,-5.51383 c 15.71614,-4.99588 -10.99241,-19.44316 -2.63681,-34.45993 3.1283,-24.97575 -5.47277,-45.30904 0.0635,-66.049 -2.60311,-8.40195 6.45253,-27.12346 -7.76177,-25.42435 -1.96974,19.89303 -13.21514,33.74969 -6.3564,54.805 3.29085,11.49271 -5.03841,31.703 4.68954,41.991 1.42229,12.54554 -4.1807,37.45493 12.00193,29.13728 z m -12.56642,-69.5 c 5.97859,-9.54956 5.76315,9.15232 0,0 z m 240.8189,57.67662 c -2.17971,-7.24886 -4.02272,9.38755 0,0 z m -8.29664,-5.24406 c 5.60397,-6.5134 1.12659,-17.19856 2.55262,-25.44084 -0.60836,-27.55638 1.42292,-55.19219 0.58902,-82.65834 -34.47111,-3.73976 -70.07934,-0.90487 -104.9822,-1.83332 -37.98949,0.66369 -76.2201,-1.42129 -114.0514,1.52098 -0.54069,34.62154 -1.7149,69.3863 0.33725,103.94865 16.72032,15.20098 47.82606,3.7523 70.32124,7.39003 47.55548,-0.0977 95.11086,-0.24012 142.66629,-0.35972 0.85573,-0.85581 1.71145,-1.71163 2.56718,-2.56744 z m -57.85559,-16.59923 c -0.18348,-23.89779 -2.51945,-48.76176 1.08333,-72.11471 25.09716,-8.1269 35.62773,6.29429 30.52525,29.85939 -1.68706,18.42904 8.33971,51.99196 -22.04334,42.88178 l -4.65683,-0.10538 z m 10.33333,-8.33333 c 20.89139,-2.40303 4.20631,-36.28879 2.79916,-51.20625 -6.07701,-19.34216 -9.95917,1.63961 -7.79916,10.79088 0,13.80513 0,27.61025 0,41.41537 1.5798,-0.24629 3.93207,0.64925 5,-1 z m -223.5586,-95.99002 c 12.86982,4.086 53.25336,-13.16207 20.01425,-10.95879 -16.52587,-0.0911 -33.05214,-0.0359 -49.5782,-0.0512 -5.67132,19.77564 15.30185,8.83712 29.56395,11.00998 z"
         id="path862" /><path
         style="fill:#fdfcfd"
         d="m 493.81703,817.21055 c -12.47732,-1.87758 -18.7974,-13.78574 -1.73636,-3.84635 8.7934,0.72321 15.04172,5.19187 1.73636,3.84635 z m 435.06026,0.75641 c -16.479,-3.98117 33.18413,-5.75132 31.39286,-23.93598 7.64742,-16.71611 2.72168,-35.57313 4.07244,-53.3524 -0.49404,-102.52534 0.57632,-205.07587 -1.35652,-307.58028 0.83219,-20.81527 -34.89989,-33.46853 -33.04372,-48.70291 15.7415,16.52698 38.90994,31.34525 37.93845,56.99363 0.78835,113.61787 0.60468,227.25138 -0.0249,340.87049 -3.21328,17.53613 -20.18205,36.45381 -38.97856,35.70745 z M 473.94872,806.68808 c -7.01711,-15.63157 11.434,8.2537 0,0 z m -7.15638,-9.69585 c -11.25563,-21.22979 -3.14532,-48.31454 -4.81453,-71.89537 6.78964,18.65218 -2.57863,47.21664 6.09772,68.45021 2.83249,1.26709 3.05922,10.04346 -1.28319,3.44516 z m 25.7668,-2.94742 c -1.49859,-8.44183 46.08392,11.01722 43.64639,-12.03925 1.56567,-47.81187 -2.17789,-96.24618 2.4015,-143.63045 5.86524,-12.86141 22.70904,-28.54668 36.32359,-20.20189 -23.79558,1.51505 -39.56663,25.7676 -34.17392,48.51385 -0.44849,41.70813 0.42821,83.45942 -1.27463,125.1372 -8.9428,8.62309 -33.28759,3.14924 -46.92293,2.22054 z m 63.06815,0.77386 c -2.25655,-48.64712 -1.3907,-97.53987 -0.54541,-146.25677 9.00062,-26.41535 44.54891,-10.35179 65.35534,-15.16146 79.40939,0.16504 158.85564,-0.99847 238.24204,0.71522 20.37276,8.87389 -22.9662,1.15897 -30.05745,3.4259 -87.99392,0.31169 -176.08461,-1.57058 -264.01769,0.80836 -12.73252,18.35725 -3.88612,44.00996 -6.77098,65.44889 -0.20577,28.40766 -0.35657,56.81569 -0.53699,85.22352 49.87371,2.4949 100.1832,0.70536 150.22047,1.33992 53.67046,-0.12149 107.34982,0.21206 161.0137,-0.6076 2.55605,-45.63305 1.03475,-91.67652 0.24753,-137.44125 -1.89656,-28.74336 8.45147,14.72986 4.54118,24.10337 -0.66613,39.46057 1.68909,79.21313 -1.44906,118.49318 -22.95802,1.82487 -46.85888,0.14595 -70.19695,0.77628 -81.37773,-0.0276 -162.79939,-0.54698 -244.15017,0.13317 l -1.89556,-1.00051 z m 333.75,-1.47608 c -4.03147,-49.44626 -0.46907,-99.48445 -2.79512,-149.13376 11.65481,10.90646 2.52791,40.52535 5.46171,58.736 0.22648,29.1064 -0.38618,58.24613 0.94636,87.32763 13.18155,3.42875 44.72847,2.90369 45.08398,1.54174 -12.80727,7.84655 -29.55135,3.12958 -44.17215,4.46852 -2.81823,-0.41586 -5.77813,1.68375 -4.52478,-2.94013 z m -406.5043,-11.33308 c -0.47272,-137.86466 -0.74065,-275.75027 0.70112,-413.60792 2.21968,-16.49757 1.94016,22.81105 2.08873,28.14524 0.46714,128.49262 0.67923,257.06086 0.76317,385.5072 -0.19654,1.69656 -3.61374,4.061 -3.55302,-0.0445 z m 459.25363,1.666 c 0.44131,-41.91947 -0.54837,-84.85885 -0.12428,-127.15166 0.0791,-74.50352 0.32239,-149.00671 0.52924,-223.50994 -13.16447,-14.69709 -27.55048,-28.52304 -41.92497,-42.13673 -8.3016,-8.63912 -39.75398,-40.91058 -15.65631,-19.12275 20.02529,19.72586 40.28815,39.24517 59.51853,59.75098 1.48967,115.64745 1.30145,231.35842 0.0921,347.01335 -0.61384,1.6185 0.93138,5.59895 -2.43434,5.15675 z m -144.76731,-37.7454 c -59.56498,-1.75921 -119.24174,0.46525 -178.76349,-2.3364 -13.82824,-3.94668 2.30018,-22.98684 -0.29583,-3.41152 27.13331,4.21097 55.45073,1.11165 83.05747,2.07708 35.06938,-0.3525 70.19291,0.77844 105.22717,-0.85553 12.73076,-10.19632 -8.27385,-12.50241 -16.22951,-10.65762 -56.69256,-0.30774 -113.40817,0.2873 -170.08024,-1.18906 20.55448,-7.58047 50.8359,-1.91246 75.06157,-4.01861 37.4873,0.54187 75.21452,-2.04911 112.5396,1.16741 16.89914,6.98785 4.12222,23.52384 -10.51674,19.22425 z M 462.01677,694.56566 c -1.02911,-50.88826 -0.95158,-101.85745 0.25574,-152.74139 4.2603,19.09712 0.90952,42.71837 2.01129,63.52525 -0.1668,29.78527 0.18286,59.5947 -0.82818,89.36158 z m 166.36052,-0.34826 c -26.19471,-1.12963 -13.79637,-27.86318 6.07671,-21.69815 57.45475,0.0683 114.9902,-1.40031 172.39664,0.80257 26.34177,12.4958 -11.83323,27.859 -26.83631,21.73292 -50.54272,0.14723 -101.10755,0.34833 -151.63704,-0.83734 z m 181,-7.95789 c -4.70364,-16.28746 -41.74661,-3.89098 -58.5989,-7.99061 -43.44383,0.60371 -87.08837,-1.36558 -130.4011,1.37398 -9.87936,14.55598 29.71895,6.18132 39.55243,8.55219 48.87977,-0.28271 97.81374,0.93081 146.65842,-0.79138 z m 73.99828,-48.75 c -12.56229,-11.45233 -5.11982,-20.07677 1.72998,-4.19801 2.36287,3.05315 6.29706,13.88891 -1.72998,4.19801 z m -10.97822,-16.72583 c -2.35966,-4.6636 5.33945,3.72833 0,0 z m -4.02006,-2.52417 c -2.86406,-3.61661 5.55843,3.27538 0,0 z m -289.1875,-0.68311 c 5.59053,-0.8633 -1.71937,1.71436 0,0 z m 56.85493,0.0222 c -11.93789,0.63654 -53.64023,-2.03886 -19.22939,-3.53071 46.5456,0.14059 93.23762,-1.51285 139.69519,0.92498 -23.68261,5.47956 -59.27432,1.15505 -87.27393,2.79106 -11.06327,-0.0329 -22.1322,0.16266 -33.19187,-0.18533 z m 126.58257,-0.15864 c 5.20026,-6.55156 39.34155,-4.05136 52.7601,-1.49141 -16.89338,2.75652 -35.39216,1.35715 -52.7601,1.49141 z m 99.41667,0.15288 c -0.79894,-7.46387 8.58221,4.12281 0,0 z M 462.06572,538.88996 c -1.14973,-60.79475 -0.56579,-121.61473 -0.77028,-182.42106 7.24342,-17.67943 21.01204,-25.04666 37.66942,-24.54953 121.91646,-0.95498 243.85945,-1.22461 365.77186,-0.0353 26.85943,5.77898 -19.67029,4.43223 -27.83402,4.62447 -116.82462,0.43639 -233.65055,0.18294 -350.4758,0.25099 -9.50638,8.15253 -24.58675,15.52639 -22.26437,30.5331 -0.30572,56.95456 1.09284,113.95907 -0.93444,170.87301 l -0.51488,1.56821 -0.64757,-0.84387 z m 125.28654,-40.08752 c -30.95836,-12.77019 39.77409,1.82863 8.39893,1.53715 -2.80408,1.10898 -6.15197,0.48439 -8.39893,-1.53715 z m 216.19394,0.16059 c 24.93115,-5.82685 31.9769,-34.11757 28.72233,-57.62599 0.82833,-28.18599 -1.3217,-56.64191 1.53733,-84.64896 10.68933,-4.17617 53.988,0.36209 20.51989,2.2332 -8.8242,0.62305 -21.92784,-2.9401 -17.39795,10.5503 0.17175,34.03004 0.34352,68.06008 0.51528,102.09012 -6.69392,12.95692 -19.01384,26.98504 -33.89688,27.40133 z m -142.16891,-0.70352 c 7.24085,-4.08147 14.25203,3.10523 0,0 z m 30,0 c 6.16679,-4.0758 13.02028,3.10061 0,0 z m 16,0 c 8.17948,-3.0953 34.21057,0.58344 11,0.96937 -3.67717,-0.0793 -7.40993,-0.008 -11,-0.96937 z m 35,0 c 12.93324,-4.39374 17.1988,3.92498 0,0 z m 14.81124,-0.13782 c 11.0373,-2.4013 53.51118,0.3277 21.34128,0.98929 -7.10061,-0.15167 -14.33061,0.28495 -21.34128,-0.98929 z m -111.54221,-0.55517 c 8.2223,-1.24018 -1.16286,1.71608 0,0 z m -76.41808,-11.55701 c -9.16799,-7.86526 -11.95275,-18.29532 -10.48075,-29.80019 -0.58009,-31.23214 0.14003,-62.5106 0.62108,-93.68766 -20.94909,-8.20509 -47.88591,0.76797 -70.44688,-5.53663 21.53622,-3.29598 46.6405,-1.35423 69.53747,-1.2698 13.01115,14.64627 2.36447,46.26698 5.91946,67.20066 1.87235,22.49822 -6.15303,49.51167 11.73163,67.33783 -0.3023,4.16836 -7.16336,-4.8963 -6.88201,-4.24421 z m 22.65128,-8.3254 c -17.44886,-16.5361 -6.13432,-46.50425 -9.5645,-68.79729 -1.28135,-12.82657 3.07717,-41.85821 2.88782,-12.42878 1.00879,24.53826 -1.429,49.58273 2.55754,73.76745 2.08392,4.91108 20.29155,11.94443 4.11914,7.45862 z m 205.52957,0.8254 c 18.46997,-4.16823 9.53324,-25.59771 11.03544,-42.19813 -1.09662,-24.63356 2.52616,-51.04177 0.72785,-74.52946 -6.53387,-5.42149 -17.12999,-1.04781 -25.32278,-2.4692 -65.70414,0.28995 -131.46499,-1.05161 -197.12269,0.67828 -13.47136,-0.70963 20.23296,-7.16533 30.0165,-4.43768 65.37812,-0.2965 130.86285,-1.60753 196.18,1.10949 2.70688,36.09494 1.23756,72.63693 0.82927,108.88569 0.28128,7.06551 -9.6663,15.61697 -16.34359,12.96101 z m -98.47293,-1.7182 c 8.71575,-5.04957 33.09373,2.67055 10.44113,1.4682 -1.49409,-0.92602 -12.29863,1.63448 -10.44113,-1.4682 z m 49.76927,-24.54416 c 0.51545,-11.27092 28.14869,4.74057 23.68014,-11.13529 0.16392,-18.28447 0.32782,-36.56894 0.49172,-54.85341 -6.61744,2.12438 -22.25201,-4.67997 -21.95773,4.28839 -0.3233,17.84262 1.65683,36.00414 -0.89451,53.59004 -4.7145,-13.81649 -1.56169,-32.30468 -2.14279,-48.24288 -2.37585,-11.11166 1.68961,-15.85056 13.0079,-13.41383 28.46495,-5.84176 12.07744,33.37451 16.53815,50.4912 5.44167,25.32941 -9.79901,20.39743 -28.72288,19.27578 z m 174.33853,-68.65431 c -8.67851,-13.7078 -24.70858,-22.88663 -36.10854,-36.22117 -20.52984,-24.03597 13.68046,5.34003 20.19118,13.73716 1.07185,6.34454 29.29359,21.52776 15.91736,22.48401 z m -340.25787,-5.71039 c -2.07468,-26.39807 7.7145,2.4025 0,0 z"
         id="path860" /><path
         style="fill:#fcfcfc"
         d="m 928.87729,817.95356 c -16.3757,-3.71632 33.03503,-5.60696 31.30735,-23.69401 7.80164,-16.04265 2.78411,-34.37811 4.16029,-51.56002 -0.47824,-104.66121 0.54121,-209.34914 -1.42798,-313.98846 -0.39391,-23.76249 8.28529,25.86474 5.13953,34.64895 0.28068,106.29884 0.51117,212.60323 -0.20065,318.89949 -2.86192,18.15836 -20.73099,35.27687 -38.97854,35.69405 z m -435.94113,-1.22585 c -12.2097,-1.57068 -17.23379,-13.25621 -1.27522,-3.46474 8.88318,0.0774 12.86395,6.97977 1.27522,3.46474 z m -18.98744,-10.03963 c -7.01711,-15.63157 11.434,8.2537 0,0 z m -7.09336,-9.67857 c -9.89298,-7.74928 -3.33401,-45.45541 -2.27113,-14.90152 -2.24991,2.26639 11.48012,23.17971 2.27113,14.90152 z m 28.52973,-1.5 c 7.2061,-7.59927 10.60079,3.61199 0,0 z m 31.9922,-0.68541 c -18.45639,-0.78245 15.82526,-3.58501 11.89251,-10.76543 3.78569,7.14298 -4.74072,15.63796 -11.89251,10.76543 z m 28.26321,-0.0463 c -2.06831,-48.5735 -1.57862,-97.41244 -0.30993,-146.03391 11.01343,-26.92244 -0.36818,17.06113 2.76704,28.05533 -0.42183,37.40643 -0.54608,74.81532 -0.80146,112.22309 49.90022,2.51775 100.23705,0.70988 150.30121,1.34054 53.68806,-0.13538 107.38583,0.20256 161.06665,-0.65992 3.19201,-38.13387 0.80249,-76.98847 0.75011,-115.38858 0.48571,-9.42681 -4.7632,-49.38602 3.75259,-23.07241 -0.45429,46.65475 -1.99321,93.4118 0.50147,140.01859 -19.7443,9.98114 -46.59614,0.54378 -68.97684,3.67877 -80.95533,-0.15489 -161.92916,-0.82332 -242.87291,0.41539 -1.64517,1.7357 -4.65386,0.53527 -6.17793,-0.57689 z m 334.57501,-0.6692 c -2.56883,-50.15441 -1.94698,-100.61864 -0.92198,-150.84911 5.23846,20.36218 1.28149,45.01411 2.69171,67.00175 0.25925,26.69266 -0.29942,53.4244 1.08154,80.08774 11.20681,1.28201 34.65267,4.43573 9.8036,4.61408 -3.91669,-0.82582 -10.09555,3.46308 -12.65487,-0.85446 z m 33.59268,1.03909 c 3.54525,-0.92353 25.83862,-11.59812 9.69698,-0.31662 -2.88836,0.9177 -6.98264,2.55328 -9.69698,0.31662 z M 483.40044,779.00951 c -0.0828,-138.5204 -0.64996,-277.07981 -0.22119,-415.59121 4.8134,12.9849 1.48423,43.62827 2.66026,63.41475 0.37452,118.26694 0.21669,236.54898 0.89753,354.80608 -1.26262,3.65255 -4.96706,-0.0214 -3.3366,-2.62962 z m 459.99153,-0.71977 c -2.83788,-66.20688 -0.66727,-132.77309 -1.17165,-199.12307 0.25348,-42.05163 0.008,-84.11743 1.00743,-126.15762 3.42267,95.03631 1.31845,190.29879 1.83413,285.4267 -1.13103,11.80577 2.1266,32.88315 -1.66991,39.85399 z m -406.33135,-1.68023 c -1.08045,-44.72726 -1.36417,-89.94065 0.85093,-134.44159 0.91746,-16.42461 22.01528,-22.35679 27.67798,-27.60789 7.50064,8.48627 -31.37265,15.51979 -24.9452,35.21182 -1.03946,42.20787 -0.10831,84.46942 -2.02852,126.64914 z m 192.81667,-31.30967 c -16.19133,-0.32599 -40.14388,0.0569 -51.98898,-0.76894 43.54017,-1.30572 87.33188,0.1924 130.70922,-3.65351 4.02443,-19.24575 -34.45609,-6.79291 -48.33423,-10.56107 -46.75167,-0.27245 -93.52642,0.40122 -140.26101,-0.85456 21.40437,-7.33167 51.04782,-1.90036 75.57916,-3.92434 37.40576,0.53949 75.05104,-2.04559 112.29454,1.16844 23.96076,18.04667 -18.12082,22.5784 -32.00162,18.87161 -15.33254,-0.0587 -30.66491,-0.15744 -45.99708,-0.27763 z m -93.78035,-0.78257 c -20.26316,-3.66998 28.68593,-1.48213 5.37612,0.30059 z m -21.57429,-2.60303 c -7.6208,-18.76045 11.31766,-12.13441 0,0 z m 13.85464,-47.6763 c -23.5158,-0.69929 -15.55371,-27.61292 4.96152,-21.71777 57.8262,0.0589 115.73378,-1.39823 173.51183,0.80165 26.64998,15.01529 -14.15856,27.03388 -29.82205,21.17406 -49.54724,0.19982 -99.11186,0.68592 -148.6513,-0.25794 z m 181,-7.97843 c -3.43097,-16.51914 -39.46541,-4.12636 -55.53186,-8.03323 -44.82812,0.47374 -89.77893,-1.06356 -134.53317,1.06803 -3.70414,17.01985 35.1678,5.24634 47.67184,8.93596 46.52802,-0.33268 93.1094,0.88607 139.60228,-0.82653 z m 76.95966,-45.70563 c -10.85655,-6.51766 -10.83465,-26.05926 -2.34308,-8.29437 -1.96817,4.58897 10.87788,5.63421 2.34308,8.29437 z m -23.25927,-1.92731 c -57.04708,-3.07877 -114.41392,-0.98847 -171.586,-1.71423 -42.27592,-0.31094 -85.53361,0.66476 -127.16695,-0.10641 20.13753,-7.03959 46.53688,-1.34718 68.91891,-3.43545 75.14079,0.205 150.31796,-0.95887 225.43562,0.74518 2.36211,-2.06809 13.07703,7.43242 4.39842,4.51091 z m 9.29961,-18.36706 c -2.86406,-3.61661 5.55843,3.27538 0,0 z m -4,-2 c -2.86406,-3.61661 5.55843,3.27538 0,0 z m -5.75,-0.66228 c -4.1634,-6.51276 9.50758,2.71628 0,0 z m -256.25,-1.26032 c -10.68016,-4.1887 26.83174,-1.47723 33.40075,-2.4375 38.27096,0.16609 76.63228,-1.41169 114.84925,0.26166 -7.45181,5.94426 -43.10727,1.40083 -61.40006,2.93459 -28.94792,-0.0894 -57.9163,0.23519 -86.84994,-0.75875 z m 154,-0.0584 c 15.16014,-3.50356 43.90866,-4.44407 53.41821,0.37396 -17.7255,1.00034 -35.72636,1.04835 -53.41821,-0.37396 z M 587.7364,499.33682 c -13.37269,-8.64353 37.26518,0.5572 5.31674,1.53342 l -2.17548,0.38553 z m 216.42983,-0.48969 c 1.17171,-6.51073 25.96598,-4.46253 0,0 z m -111.78894,-0.58762 c 0.1274,-4.38576 7.96962,3.69466 0,0 z m 15.5,0 c 5.48781,-4.3039 12.39599,3.26778 0,0 z m 60.5,0.0141 c 9.10667,-2.92266 36.05239,0.62237 12.04767,0.82446 -4.0217,-0.0658 -8.0966,0.12798 -12.04767,-0.82446 z m 49,-6.0141 c 2.74597,-3.73298 0.90658,3.44919 0,0 z m -246.70737,-4.64056 c -9.50377,-8.36016 -13.53841,-19.16851 -11.74851,-31.46074 -0.68582,-31.20714 -0.0137,-62.46065 0.43625,-93.61685 -20.90307,-8.25179 -47.88594,0.76155 -70.43597,-5.55633 21.53622,-3.29598 46.6405,-1.35423 69.53747,-1.2698 13.01115,14.64627 2.36447,46.26698 5.91946,67.20066 1.86847,22.50488 -6.14767,49.51864 11.73637,67.352 -0.0842,3.40607 -5.55559,-2.21007 -5.44507,-2.64894 z m -109.29263,1.64056 c 2.55494,-3.58745 2.55494,3.58745 0,0 z m 362.69728,-3.75 c 14.40503,-19.78843 6.79267,-46.71815 9.40013,-69.6763 1.60847,-19.18069 -2.95904,-41.97235 1.24467,-59.12463 10.07714,-4.76043 52.72458,1.23462 19.58175,1.77989 -14.71391,-3.24712 -20.4163,2.87777 -17.34446,16.61938 0.16194,32.08153 0.32388,64.16306 0.48582,96.24459 -1.7589,5.76312 -19.89251,27.33022 -13.36791,14.15707 z m -26.66548,-7 c 4.238,-9.44922 17.13906,2.58133 0,0 z m -204.0318,-1.75 c 3.37193,-5.79801 5.35429,6.07244 0,0 z m 118.5,0.5 c 10.16462,-3.15085 -1.08673,3.68363 0,0 z m 95.5,-3.34501 c 6.94786,-12.62122 3.93107,4.74856 0,0 z m -222.93044,-3.59084 c -5.6365,-14.07723 3.474,-20.83893 1.75325,-2.1426 l 0.45866,2.84769 z m 224.83819,-4.23652 c -1.68929,-31.63471 -0.66393,-63.61523 1.09544,-95.25557 4.06682,16.68876 1.36079,49.12804 2.59728,71.69249 -2.03651,4.16877 5.19858,31.30399 -3.69272,23.56308 z m -60.61209,-13.97139 c -0.40186,-10.66055 27.77095,4.37658 24.58091,-9.87354 -0.12552,-18.66058 -0.25104,-37.32117 -0.37657,-55.98175 -13.97844,0.58655 -38.98055,-2.11064 -10.54719,-3.90264 27.46162,-3.67977 10.26137,36.09684 15.0402,53.58863 6.15709,22.67518 -13.83448,17.30808 -28.69735,16.1693 z m 194.45434,-2.43652 c 7.41341,-22.82615 -23.13351,-31.96762 -29.95375,-49.41972 11.26268,10.00861 21.50599,21.10831 32.20375,31.71413 -0.38469,5.79912 0.8952,12.82845 -2.25,17.70559 z M 748.3926,437.45049 c 2.20008,-20.96938 1.58546,19.80493 0,0 z m -0.36583,-15.27051 c -1.78275,-9.3299 0.93869,-45.66651 1.94109,-19.32073 0.67459,1.26069 0.66489,36.65048 -1.94109,19.32073 z m 207.60052,-5.87363 c -6.84549,-6.54241 -18.41534,-23.73474 -2.30688,-8.99744 4.99917,2.74134 12.66898,21.59728 2.30688,8.99744 z m -18.21343,-19.97516 c -16.0288,-15.63385 0.90967,-8.94501 5.64686,3.47098 -2.39681,1.70479 -5.01313,-1.61801 -5.64686,-3.47098 z m -33.03657,-1.57168 c -8.06556,-13.36627 12.85019,11.28603 0,0 z m -6.7625,-6.6625 c -4.4752,-8.77213 5.42513,1.20312 0,0 z m -12.54081,-12.63965 c -8.84511,-7.97859 -15.06312,-20.06494 -1.67009,-5.53751 8.87619,6.78448 13.30753,18.92397 1.67009,5.53751 z m 37.80331,4.80215 c -1.35732,-10.75084 8.07051,10.38452 0,0 z m -6.99768,-5.99624 c -4.96015,-10.86598 8.88465,3.83796 0,0 z m -13.37323,-11.37222 c -15.95605,-22.05998 20.35978,9.38328 3.08233,2.61096 z m -441.46354,-1.30508 c 2.35132,-20.16429 20.25053,-30.08986 37.92205,-29.6666 121.91646,-0.95498 243.85945,-1.22461 365.77186,-0.0353 26.12882,5.11138 -18.75832,4.2601 -27.23309,4.28845 -116.36508,0.28315 -232.745,-0.66178 -349.10075,0.76522 -13.98052,0.83159 -24.50317,28.59192 -27.36007,24.64825 z m 347.76072,-0.34463 c -32.48644,-4.17447 -66.00918,-1.01466 -98.89298,-2.06597 -41.16131,0.67431 -83.30197,-1.41838 -123.88641,1.05058 -10.59528,-4.43788 27.60131,-5.88316 37.77062,-4.86357 62.09034,0.39631 124.27102,-1.40267 186.29997,1.07339 6.28532,-1.9213 1.96906,11.6401 -1.2912,4.80557 z m 75.83675,-16.11037 c -20.23416,-24.04448 26.15931,15.41908 2.82326,2.75946 z"
         id="path858" /><path
         style="fill:#fcfbfc"
         d="m 559.06479,793.61368 c -2.92283,-7.20942 7.39457,0.73537 0,0 z m 18.02213,-0.13435 c -30.07566,-1.41431 19.62643,-2.96419 28.33971,-2.48722 83.23242,-0.1477 166.47768,-0.38687 249.70211,0.68552 -24.478,3.76529 -54.28191,0.79524 -80.6967,1.95226 -65.78099,0.11418 -131.56598,0.41874 -197.34512,-0.15056 z m 287.51199,-0.0617 c 2.20329,-6.7887 9.49127,2.2009 0,0 z m 27.77838,-0.0331 c 6.58748,-3.24519 6.58748,3.24519 0,0 z m 74.19495,-28.625 c 0.44973,-5.70268 0.96884,6.17479 0,0 z m -76.94277,-2 c 0.36038,-7.60928 0.94664,7.95459 0,0 z M 622.49917,729.356 c 15.77047,-6.01996 44.67959,-1.64329 65.39735,-3.08636 39.8814,0.57207 79.91073,-1.29497 119.6983,1.37646 -17.375,4.83977 -44.64336,1.18348 -65.64869,2.54342 -39.81197,-0.0747 -79.65443,0.39006 -119.44696,-0.83352 z m 1.62812,-35.78582 c 13.02706,-6.71362 46.44088,-1.52874 66.95183,-3.30237 38.91816,0.20018 77.88014,-0.51497 116.76716,0.94153 -19.72355,5.71345 -44.92429,1.6632 -66.7655,2.95642 -38.98366,-0.10219 -77.97586,0.0888 -116.95349,-0.59558 z m 189.25,-9.81067 c 3.08736,-7.94658 2.34465,7.67298 0,0 z m -193,-8.85395 c 48.64354,-3.43062 97.8373,-1.79256 146.70296,-2.67659 11.99059,1.07618 37.68489,-2.24448 42.55797,3.3076 -61.83289,1.01755 -123.70868,1.12546 -185.53894,0.0569 z m 346.27236,-23.64605 c 0.76581,-8.02502 0.76581,8.02502 0,0 z m -410.11447,1 c 0.74983,-5.5286 0.74983,5.5286 0,0 z m 332.92106,-1.58333 c 0.64328,-3.85396 1.01442,4.55158 0,0 z m -38.57895,-14.41667 c -10.16878,-2.8736 12.2001,1.42177 0,0 z m -225,-21 c 17.73472,-2.3535 44.98018,-0.98212 66.17978,-1.6217 15.86866,0.44778 55.20082,-1.13342 56.08077,2.08487 -40.74108,0.45815 -81.53657,0.81741 -122.26055,-0.46317 z m 144,-0.0209 c 10.89705,-2.32965 46.52919,0.3672 17.37314,0.71253 -5.79055,-0.0596 -11.61765,0.033 -17.37314,-0.71253 z M 561.02486,469.47652 c -3.66179,-32.23537 -1.2686,-65.24782 -0.41322,-97.74568 3.3414,-13.81901 1.25958,24.1243 1.79481,31.86732 -0.50705,21.80527 0.88055,44.72382 -1.38159,65.87836 z M 834.7638,439.79031 c -0.37101,-13.14081 1.46239,-40.66534 1.55118,-11.53722 0.73507,11.04753 -1.03482,56.03903 -1.58598,22.03951 l -0.001,-5.01704 z m -25.35873,-7.99456 c -0.96733,-11.57623 1.86569,-52.23095 2.33961,-19.17526 -0.91125,16.3753 3.22723,39.80604 -1.64739,51.60036 -1.15779,-10.75379 -0.5012,-21.62958 -0.69222,-32.4251 z m -58.58665,19.99556 c 3.50673,-4.75758 31.28522,0.97352 7.07459,1.31548 -2.32909,0.1313 -5.15517,0.38098 -7.07459,-1.31548 z m 23.55887,-1.5318 c 2.55494,-3.58745 2.55494,3.58745 0,0 z m 1.25218,-16.5 c 0.36038,-7.60928 0.94664,7.95459 0,0 z m -0.0943,-8.5 c 0.74983,-5.5286 0.74983,5.5286 0,0 z m -0.49256,-9.75 c 0.005,-24.84307 2.98024,13.34376 0,0 z m -0.10045,-18.75586 c -0.0911,-16.39793 3.45216,10.01075 0,0 z m 35.72114,-7.99414 c 0.32088,-9.5279 0.92281,9.76784 0,0 z m -35.61934,-3.16667 c -3.07085,-5.00114 3.95836,1.02045 0,0 z m 59.39672,-9.41666 c 0.95851,-23.07227 2.24889,20.22096 0.0224,3.6093 z M 560.58096,361.21403 c -2.28862,-6.04521 4.78299,5.56807 0,0 z m 248.25521,-1.02105 c -0.47789,-5.53043 5.23074,3.90342 0,0 z M 493.87729,334.26966 c 16.84256,-3.89382 46.45963,-0.99181 68.24464,-2.05772 101.82747,0.18275 203.71837,-1.59668 305.50534,0.81328 -10.84871,3.99596 -44.64556,1.04708 -64.64051,2.0216 -103.03493,-0.0239 -206.08192,0.38001 -309.10947,-0.77716 z"
         id="path856" /><path
         style="fill:#fbfcfc"
         d="m 559.06479,793.61368 c -2.92283,-7.20942 7.39457,0.73537 0,0 z m 18.02213,-0.13435 c -30.07566,-1.41431 19.62643,-2.96419 28.33971,-2.48722 83.23242,-0.1477 166.47768,-0.38687 249.70211,0.68552 -22.93775,3.36166 -51.22584,0.6989 -76.09072,1.76146 -67.31616,0.15648 -134.6361,0.49931 -201.9511,0.0402 z m 287.51199,-0.0617 c 1.7912,-6.86731 8.93387,2.1865 0,0 z m 27.77838,-0.0331 c 5.5081,-3.40237 4.67115,3.05539 0,0 z m 74.19495,-28.625 c 0.44973,-5.70268 0.96884,6.17479 0,0 z M 622.45054,729.3048 c 15.9369,-5.89778 44.74261,-1.62511 65.53057,-3.03489 39.85029,0.57592 79.8508,-1.30424 119.60585,1.38183 -16.20872,5.14714 -43.16455,0.98206 -63.14673,2.50222 -40.65701,-0.11734 -81.35458,0.42466 -121.98969,-0.84916 z m 1.67675,-35.7346 c 13.02706,-6.71362 46.44088,-1.52874 66.95183,-3.30237 38.91816,0.20018 77.88014,-0.51497 116.76716,0.94153 -19.72355,5.71345 -44.92429,1.6632 -66.7655,2.95642 -38.98366,-0.10219 -77.97586,0.0888 -116.95349,-0.59558 z m 189.25,-9.81067 c 3.08736,-7.94658 2.34465,7.67298 0,0 z m -193,-8.85395 c 48.64354,-3.43062 97.8373,-1.79256 146.70296,-2.67659 11.99059,1.07618 37.68489,-2.24448 42.55797,3.3076 -61.83289,1.01755 -123.70868,1.12546 -185.53894,0.0569 z m -63.84211,-22.64605 c 0.74983,-5.5286 0.74983,5.5286 0,0 z m 294.84211,-16 c -6.41874,-3.23532 9.38148,2.59788 0,0 z m -225.5,-21 c 17.73472,-2.3535 44.98018,-0.98212 66.17978,-1.6217 15.86866,0.44778 55.20082,-1.13342 56.08077,2.08487 -40.74108,0.45815 -81.53657,0.81741 -122.26055,-0.46317 z m 144,-0.0209 c 10.89705,-2.32965 46.52919,0.3672 17.37314,0.71253 -5.79055,-0.0596 -11.61765,0.033 -17.37314,-0.71253 z M 560.5007,468.96552 c -0.41826,-27.11524 -1.95577,-54.59668 0.12644,-81.51122 2.84608,26.94694 1.4986,54.95526 0.79816,82.27569 l -0.92436,-0.76447 z m 249.00045,-33.88227 c -0.49772,-13.9253 1.38428,-48.21387 1.71417,-15.27473 -0.84051,12.84864 2.16669,37.45402 -1.19489,43.57636 -0.66093,-9.41731 -0.47647,-18.86821 -0.51928,-28.30163 z m 25.65086,28.92626 c -0.40967,-11.82699 3.28901,3.06635 0,0 z m 0.65004,-28.75 c -0.14843,-24.11468 1.09957,2.88306 0.0944,12.02656 -0.0918,-4.00822 -0.0894,-8.0176 -0.0944,-12.02656 z m -84.98363,16.5318 c 3.50673,-4.75758 31.28522,0.97352 7.07459,1.31548 -2.32909,0.1313 -5.15517,0.38098 -7.07459,-1.31548 z m 23.55887,-1.5318 c 2.55494,-3.58745 2.55494,3.58745 0,0 z m 0.68482,-54.09723 c 0.13548,-14.08124 3.09962,7.11112 0,0 z M 561.04396,379.59284 c -2.51151,-19.82098 4.6895,-14.39899 0,0 z m 274.08333,-1.90525 c -2.36398,-6.5267 1.05142,-13.68435 1.03149,-2.75196 l -0.32739,2.318 z m -275.25,-17.42808 c -0.0437,-3.36259 3.07003,3.33131 0,0 z m 248.95888,-0.0665 c -0.47789,-5.53043 5.23074,3.90342 0,0 z M 493.59115,334.12409 c 18.68995,-3.57702 46.35674,-0.92952 68.53111,-1.91208 100.80565,0.0535 201.64803,-1.32307 302.43037,0.58418 1.38937,2.47851 -33.77624,0.97054 -47.46185,1.58868 -107.82958,0.29043 -215.67925,1.06043 -323.49963,-0.26078 z"
         id="path854" /><path
         style="fill:#fbfbfc"
         d="m 558.72237,792.71638 c 0.68496,-8.12593 5.42529,6.44126 0,0 z m 30.00155,0.29313 c 50.64454,-3.70728 101.72683,-0.81396 152.53658,-1.60988 34.07957,0.4707 68.24147,-0.46988 102.26624,1.332 -84.90159,1.31025 -169.89909,1.45714 -254.80282,0.27788 z m 277.65337,-0.0597 c 3.53902,-6.98565 3.28597,3.78047 0,0 z M 622.32865,729.19298 c 16.78451,-5.77243 46.34863,-1.23814 67.67286,-2.88809 39.17818,0.57067 78.51347,-1.34405 117.59676,1.34728 -16.27921,5.19878 -43.215,1.00991 -63.23923,2.52741 -40.66968,-0.14963 -81.38689,0.41083 -122.03039,-0.9866 z m 2.2344,-35.9884 c 11.84975,-5.93779 45.17935,-1.19875 64.55931,-2.92007 39.39219,0.58259 79.00086,-1.37813 118.25493,1.36801 -20.3878,5.64757 -45.35122,0.95008 -67.39118,2.57131 -38.47085,-0.19793 -76.97156,0.18747 -115.42306,-1.01925 z m 188.81424,-9.44507 c 2.3445,-4.65921 2.03564,4.45844 0,0 z m -193,-8.53138 c 21.45751,-4.3452 46.11233,-0.93366 68.72196,-2.23787 39.64149,0.0173 79.29953,-0.47468 118.93027,0.43889 -2.55654,5.30931 -37.45078,1.29206 -51.977,2.76546 -45.21141,-0.22443 -90.5142,0.83653 -135.67523,-0.96648 z m 231,-38.96862 c -6.41874,-3.23532 9.38148,2.59788 0,0 z m -218.5,-21 c 38.2747,-2.80744 76.9098,-0.60276 115.31325,-0.73343 1.14061,2.65115 -31.74881,1.25344 -44.78547,1.72437 -23.50024,-0.22553 -47.07421,0.55849 -70.52778,-0.99094 z m 141.5,0 c 10.53252,-3.72785 16.52658,3.34191 0,0 z m 17,0 c 2.65898,-3.47227 15.99343,2.73013 0,0 z m -230.79804,-147.75 c -1.37325,-26.31227 -1.52164,-52.77306 -0.35697,-79.09502 4.17834,17.82988 1.07237,42.45684 1.98497,62.911 -0.77539,3.14305 1.45883,20.44475 -1.628,16.18402 z m 248.9219,-32.42626 c -0.49772,-13.9253 1.38428,-48.21387 1.71417,-15.27473 -0.84051,12.84864 2.16669,37.45402 -1.19489,43.57636 -0.66093,-9.41731 -0.47647,-18.86821 -0.51928,-28.30163 z m 25.59268,28.42626 c 0.28945,-16.59232 2.78563,4.74804 0,0 z m -80.97878,-10.92034 c 0.6929,-6.35802 19.85449,1.99453 0,5e-5 z m 20.26224,-2.32966 c 2.74597,-3.73298 0.90658,3.44919 0,0 z m 61.3605,-8 c 0.68439,-16.89026 0.68439,16.89026 0,0 z m -0.0506,-22.5 c 0.27491,-11.4909 1.05814,11.43827 0,0 z m -60.62505,-23.59723 c 0.13548,-14.08124 3.09962,7.11112 0,0 z M 561.04396,379.59284 c -2.51151,-19.82098 4.6895,-14.39899 0,0 z m 273.63299,-7.33333 c 0.73782,-9.79662 0.73782,9.79662 0,0 z m -274.79966,-12 c -0.0437,-3.36259 3.07003,3.33131 0,0 z m 248.95888,-0.0665 c -0.47789,-5.53043 5.23074,3.90342 0,0 z M 495.18899,334.1641 c 18.57596,-3.03116 44.92081,-1.27152 66.55025,-1.95763 101.68713,0.2966 203.4393,-1.44535 305.08605,1.05969 -16.79707,1.88919 -45.10023,0.73057 -66.56139,1.22508 -101.68873,0.16833 -203.39373,0.84115 -305.07491,-0.32714 z"
         id="path852" /><path
         style="fill:#fafafa"
         d="m 633.87729,792.24663 c 52.17542,-0.96919 104.42671,-1.02459 156.6091,-0.026 -52.18262,0.99715 -104.42201,0.87471 -156.6091,0.026 z m -11.96877,-63.93659 c 20.30597,-4.1518 43.27338,-0.64341 64.52288,-1.85016 40.21621,0.55618 80.56876,-0.93642 120.69559,1.54963 -61.04724,2.33362 -122.33817,1.23308 -183.46431,0.51021 z m 5.96877,-34.84193 c 12.65468,-4.94532 54.22015,-0.95711 77.10707,-2.63617 33.32975,0.68202 67.77599,-2.77536 100.43479,1.78497 -59.08809,2.2172 -118.39729,1.02761 -177.54186,0.8512 z m 105.25,-17.95846 c -19.57937,-0.38613 -46.91718,0.41589 -61.22645,-1.45253 44.94304,-0.96266 89.97082,-1.36382 134.8935,0.0682 -20.14811,4.40576 -42.96031,0.19611 -64.11357,1.42741 -3.18449,-0.0152 -6.36898,-0.0296 -9.55348,-0.043 z m -108.98834,-0.9574 c 10.7624,-1.3251 -1.06755,1.67395 0,0 z m 22.94196,-0.39636 c 7.15443,-1.37835 2.76826,3.6088 0,0 z m 14.54638,0.41429 c 8.57468,-0.97291 0.36819,1.61039 0,0 z m 5.25,-59.31067 c 9.78303,-2.8681 31.80698,0.71538 9.14879,0.8794 -3.05411,-0.1181 -6.20089,0.1531 -9.14879,-0.8794 z m 48.5,0 c 8.29463,-3.84599 14.80545,2.83384 0,0 z m -66.73625,-0.71758 c 13.28771,-1.34946 -0.99528,1.636 0,0 z m 52.54875,0.0345 c 5.59053,-0.8633 -1.71937,1.71436 0,0 z m 28.4375,-0.006 c 8.57468,-0.97291 0.36819,1.61039 0,0 z m -169.17105,-150.894 c 0.64328,-3.85396 1.01442,4.55158 0,0 z m -0.47196,-21.99846 c -1.88669,-13.62741 2.7318,-20.78053 1.28957,-2.37606 1.13643,-0.80695 -0.70853,6.88278 -1.28957,2.37606 z m 0.5509,-33.41846 c 0.74983,-5.5286 0.74983,5.5286 0,0 z m 111.34211,-75 c -0.0839,-3.83135 4.57326,4.03538 0,0 z m 24,0 c 12.07349,-4.22828 15.86916,3.70031 0,0 z m 21,0 c 4.79787,-3.81279 7.57488,3.84717 0,0 z m 16,0 c 6.7717,-4.20275 7.5009,4.06696 0,0 z m 30.5,0 c 9.26009,-4.43789 10.0759,4.04282 0,0 z m 16.33512,-0.10251 c 15.80658,-0.50958 -9.23771,2.84387 0,0 z"
         id="path850" /><path
         style="fill:#f7f8f8"
         d="m 679.37729,728.20526 c 41.82515,-1.03746 83.76682,-1.09975 125.61612,-0.22853 -41.84334,1.13269 -83.76264,0.96087 -125.61612,0.22853 z m -18.73625,-0.66333 c 13.28771,-1.34946 -0.99528,1.636 0,0 z m 43.79449,-35.3274 c 24.37547,0.003 4.85672,1.81419 0,0 z m 23.23335,0.30248 c 21.75675,-0.51887 12.22959,1.12621 0,0 z m 37.45439,-0.35336 c 12.9972,-1.43787 32.57017,1.45454 7.75402,0.82024 -5.46034,0.0888 -22.40651,0.002 -7.75402,-0.82004 z"
         id="path848" /></g></g></svg>
