<?xml version="1.0" encoding="UTF-8" standalone="no"?>
<!-- Created with Inkscape (http://www.inkscape.org/) -->

<svg
   width="556.41113"
   height="507.49902"
   viewBox="0 0 556.41114 507.49901"
   version="1.1"
   id="svg5"
   xml:space="preserve"
   xmlns:xlink="http://www.w3.org/1999/xlink"
   xmlns="http://www.w3.org/2000/svg"
   xmlns:svg="http://www.w3.org/2000/svg"><defs
     id="defs2"><color-profile
       name="DP"
       xlink:href="../../../../../.local/share/icc/edid-27fd61d80a4d3102d04ad05b2e686881.icc"
       id="color-profile4517" /><color-profile
       name="DP"
       xlink:href="../../../../../.local/share/icc/edid-27fd61d80a4d3102d04ad05b2e686881.icc"
       id="color-profile4519" /><color-profile
       name="DP"
       xlink:href="../../../../../.local/share/icc/edid-27fd61d80a4d3102d04ad05b2e686881.icc"
       id="color-profile4521" /><color-profile
       name="DP"
       xlink:href="../../../../../.local/share/icc/edid-27fd61d80a4d3102d04ad05b2e686881.icc"
       id="color-profile4523" /></defs><g
     id="layer1"
     transform="translate(-9.974775,190.92984)"><g
       id="g950"
       transform="translate(-387.38614,-572.70284)"><path
         style="fill:#f8cdf2"
         d="m 435.05841,887.6248 c -25.2626,-5.86946 -40.94082,-32.18423 -37.12864,-57.3636 1.39314,-29.1672 -3.74526,-59.43803 4.08195,-87.84622 24.97102,-43.63791 49.15796,-87.87324 75.63803,-130.59075 18.03109,-19.28611 47.84659,-8.84336 71.18062,-11.59069 15.06337,-4.48139 50.94528,4.30764 28.85524,22.66711 -26.02118,2.5237 -52.39006,-0.0666 -78.33655,3.07907 -18.49825,22.72894 -29.66028,50.94078 -45.11845,75.88913 -6.45931,14.89016 -34.0988,44.21609 -0.86024,37.16132 31.53098,1.89927 64.0417,-3.25233 94.92234,3.85042 22.24078,11.91442 22.2987,53.0521 55.80039,43.08056 53.58851,0.42407 107.19817,1.32261 160.78011,0.32339 21.58281,-7.33796 21.00906,-42.7238 45.69714,-45.59564 35.20976,-0.61099 70.48056,0.0877 105.64046,-1.73041 -5.08868,-22.2377 -24.56913,-46.08694 -34.97978,-68.98712 -12.86444,-21.5545 -21.99056,-56.11738 -54.43078,-46.69559 -17.85668,-3.20092 -66.21393,11.89179 -56.47399,-18.55647 23.53095,-7.32815 49.97451,-1.13321 74.6386,-2.21761 30.77538,-2.84209 38.89728,32.48627 52.98383,52.52649 17.01062,31.18309 37.03978,60.78333 52.65372,92.67246 4.50083,33.23632 3.06831,67.32087 2.47989,100.86607 -3.74661,25.71204 -29.65431,43.50361 -55.02893,40.14977 -152.13279,0.60745 -304.29028,1.03632 -456.41528,-0.4882 l -3.20016,-0.17876 z m 479.02373,-27.65851 c 21.12262,-14.85364 10.09223,-44.3041 12.68857,-66.27998 -0.0708,-9.99001 -0.14153,-19.98001 -0.2123,-29.97002 -36.39304,-0.1723 -72.78608,-0.34461 -109.17912,-0.51693 -16.85542,12.08487 -18.15145,40.51734 -41.27134,45.66139 -35.79106,4.22837 -72.32184,1.29718 -108.39596,2.28627 -30.40935,-0.9967 -61.26418,1.76802 -91.39947,-2.24481 -27.43426,-2.62085 -23.08784,-46.24601 -50.16165,-45.05002 -33.03629,-0.14996 -66.16223,-1.41251 -99.14732,0.39349 -4.17921,24.25869 -0.76222,50.56069 -1.205,75.57928 1.37473,31.7263 40.85276,19.16132 61.8377,22.13146 140.66536,0.42151 281.33231,0.14713 421.99838,0.25986 1.4825,-0.75 2.96501,-1.49999 4.44751,-2.24999 z M 637.357,720.59215 c -14.09661,-20.14922 -3.13293,-50.95925 -6.79309,-75.1797 -0.68768,-40.71145 1.48256,-81.66402 -1.5055,-122.21679 -22.96958,-5.28347 -52.61152,6.809 -71.49869,-7.47341 7.58449,-22.09356 29.47377,-37.77169 43.31037,-56.95426 23.44605,-25.94361 45.26079,-53.98455 71.52053,-76.99499 22.02046,2.57881 32.36211,31.09133 48.88063,44.76807 24.01309,28.59883 49.70472,56.13149 72.53767,85.49559 -10.4428,21.21225 -48.65345,4.61067 -69.97443,10.90664 -6.13152,24.07496 -1.05444,53.66573 -2.70407,79.71961 -0.84445,37.70625 2.44663,75.88926 -1.52807,113.28722 -21.87569,12.39859 -51.66524,3.89245 -76.79822,5.73534 l -2.51184,-0.27775 z"
         id="path972" /><path
         style="fill:#f7aef2"
         d="m 438.55841,887.223 c -26.63865,-4.36518 -43.02309,-31.22914 -39.31449,-57.11232 0.30801,-27.46387 -2.25314,-55.50853 2.54181,-82.58786 23.09506,-45.13437 50.10152,-88.27595 75.2167,-132.32591 14.89093,-21.47007 44.10642,-10.6425 65.98533,-13.03094 13.27653,1.23676 48.98485,-5.96551 37.44618,17.95547 -27.28874,5.693 -56.11043,-0.45253 -83.2327,5.71965 -22.67876,31.69457 -38.81108,67.97283 -58.79584,101.53682 -16.67478,24.86668 31.87262,9.15543 44.25363,13.82021 24.05025,2.80721 52.83529,-7.10485 73.19122,9.12805 12.36422,10.32609 13.9872,39.31582 33.92338,37.41186 58.68951,-0.15929 117.41304,1.15519 176.07627,-0.33188 23.29598,-8.4336 22.48912,-49.96128 53.87306,-45.62161 33.19314,-0.0722 66.40525,0.96398 99.58545,-0.081 6.97829,-9.02871 -28.06897,-45.69017 -9.24812,-34.86738 6.24016,27.59929 46.13614,33.38939 40.64637,64.69628 0.86232,27.40436 2.44844,55.37248 0.20274,82.54291 -7.27163,21.73876 -29.59089,35.82589 -52.3869,33.24327 -153.31501,0.79613 -306.65492,1.27318 -459.96409,-0.0956 z m 472.64156,-24.16727 c 26.4543,-11.80521 13.6424,-45.29705 17.46708,-67.97367 3.16851,-19.75305 2.00196,-41.56599 -24.04661,-33.78268 -30.16433,0.72381 -60.96568,-2.02626 -90.67773,2.29008 -14.22321,14.11659 -18.28269,40.76139 -40.89033,45.12683 -65.16466,0 -130.32931,0 -195.49397,0 -20.74626,-6.0576 -25.94308,-28.72282 -37.90521,-43.79242 -25.38639,-4.89807 -52.30351,-1.16694 -78.23952,-2.5599 -13.55704,2.87153 -44.16704,-9.24929 -37.35325,14.44472 0.2108,23.57471 -0.64103,47.20495 1.07052,70.72838 11.18926,25.90823 44.21475,12.82208 65.94243,16.18777 140.0328,9.5e-4 280.12194,1.50049 420.12659,-0.66911 z M 638.38389,719.75716 c -14.1348,-19.90574 -2.94737,-50.63729 -6.53665,-74.66962 -0.31633,-40.76943 1.44566,-81.64475 -0.76626,-122.34405 -21.57476,-7.86472 -62.26538,9.87695 -71.67051,-12.10559 27.49401,-32.88282 53.66123,-68.0876 87.67793,-94.6402 22.36193,-18.68523 48.43155,-4.18691 63.61968,15.85881 28.07201,24.01637 53.34027,51.00872 78.78685,77.83203 3.98844,19.78098 -36.85731,6.25894 -50.69134,10.84386 -34.38966,-3.91964 -12.30825,45.46403 -18.80237,65.93874 -0.62218,42.45959 1.52489,85.05284 -1.32554,127.4239 -13.9913,14.51511 -42.20719,4.38409 -61.76301,7.18975 -6.17742,-0.28992 -12.43309,-0.11274 -18.52878,-1.32763 z m 135.17452,-99.6956 c -15.31544,-14.20888 15.38304,-20.8767 22.24745,-10.04319 26.45699,18.01559 -9.68073,9.29697 -22.24745,10.04319 z"
         id="path970" /><path
         style="fill:#fbabda"
         d="m 438.55841,887.205 c -26.55941,-4.32139 -42.98977,-31.09542 -39.31712,-56.91688 0.61706,-28.01745 -2.93487,-56.90881 3.32829,-84.34341 24.17542,-45.20002 51.66147,-88.69489 77.48305,-132.93237 10.84888,-13.99383 28.19299,-8.6677 43.18801,-9.33505 18.67672,2.90217 44.34901,-6.20737 57.27609,8.36034 -10.28718,18.87909 -46.36924,4.20335 -66.2116,9.59113 -29.71291,-1.86843 -33.81009,35.62193 -48.20953,54.45618 -7.78077,20.88486 -32.74618,46.07746 -30.15203,64.6256 35.87153,2.80352 72.27632,-1.24199 107.8982,3.63234 25.19158,7.09385 22.57728,51.56971 54.67416,44.52481 56.21574,0.12103 112.58065,2.81669 168.71593,-0.0762 19.92158,-6.08323 29.91148,-59.38671 52.96981,-38.6461 6.32476,16.01216 -22.96814,15.68388 -22.06355,34.81372 -10.83396,30.26651 -46.45039,21.67484 -71.21126,23.18672 -49.53215,-0.35604 -99.3978,1.02011 -148.77521,-0.2167 -24.10478,-4.10969 -24.74632,-33.08186 -41.43512,-45.10672 -11.8397,-3.63389 -25.31379,-0.24727 -37.7936,-1.13157 -24.78817,0.34181 -49.57635,0.68363 -74.36452,1.02545 0.11464,28.21522 -1.18976,56.48763 0.54237,84.65736 13.42393,27.34031 49.26831,12.77399 73.47997,16.70267 136.70438,0.27567 273.43155,1.88671 410.12459,0.49022 24.06356,-0.39639 14.18179,-42.03655 40.82426,-24.55153 3.12522,25.65094 -22.74601,49.66303 -48.03013,45.89846 -154.29912,1.70241 -308.63819,2.13034 -462.94106,1.29153 z M 828.87306,758.35201 c 8.67415,-1.83603 4.50158,2.99497 0,0 z M 638.38389,719.78207 c -14.7042,-18.98153 -2.6392,-49.34837 -6.44939,-72.58871 -0.13161,-41.04498 1.67516,-82.12958 0.61214,-123.14241 -20.21105,-11.65629 -54.64238,5.21851 -72.99365,-10.11369 13.56442,-20.71137 31.80189,-40.30719 50.54794,-56.33059 10.43939,-9.61904 22.71397,-35.83845 41.64185,-44.33264 24.86383,-17.8452 47.22224,5.53367 63.5646,22.94155 27.2538,23.57709 53.06612,49.44645 74.75103,78.3184 -18.84729,12.71645 -55.09305,-5.15204 -71.03609,11.35303 -0.79325,61.33464 1.55369,122.68198 0.48604,184.00622 -11.96607,22.25158 -49.28801,6.33727 -71.59302,10.97181 -3.18427,-0.19257 -6.45573,-0.0546 -9.53145,-1.08297 z"
         id="path968" /><path
         style="fill:#ee98f2"
         d="m 438.55841,887.205 c -26.55941,-4.32139 -42.98977,-31.09542 -39.31712,-56.91688 0.61706,-28.01745 -2.93487,-56.90881 3.32829,-84.34341 24.17542,-45.20002 51.66147,-88.69489 77.48305,-132.93237 10.84888,-13.99383 28.19299,-8.6677 43.18801,-9.33505 18.67672,2.90217 44.34901,-6.20737 57.27609,8.36034 -10.28718,18.87909 -46.36924,4.20335 -66.2116,9.59113 -29.71291,-1.86843 -33.81009,35.62193 -48.20953,54.45618 -7.78077,20.88486 -32.74618,46.07746 -30.15203,64.6256 35.87153,2.80352 72.27632,-1.24199 107.8982,3.63234 25.19158,7.09385 22.57728,51.56971 54.67416,44.52481 56.21574,0.12103 112.58065,2.81669 168.71593,-0.0762 19.92158,-6.08323 29.91148,-59.38671 52.96981,-38.6461 6.32476,16.01216 -22.96814,15.68388 -22.06355,34.81372 -10.83396,30.26651 -46.45039,21.67484 -71.21126,23.18672 -49.53215,-0.35604 -99.3978,1.02011 -148.77521,-0.2167 -24.10478,-4.10969 -24.74632,-33.08186 -41.43512,-45.10672 -11.8397,-3.63389 -25.31379,-0.24727 -37.7936,-1.13157 -24.78817,0.34181 -49.57635,0.68363 -74.36452,1.02545 0.11464,28.21522 -1.18976,56.48763 0.54237,84.65736 13.42393,27.34031 49.26831,12.77399 73.47997,16.70267 136.70438,0.27567 273.43155,1.88671 410.12459,0.49022 24.06356,-0.39639 14.18179,-42.03655 40.82426,-24.55153 3.12522,25.65094 -22.74601,49.66303 -48.03013,45.89846 -154.29912,1.70241 -308.63819,2.13034 -462.94106,1.29153 z M 828.87306,758.35201 c 8.67415,-1.83603 4.50158,2.99497 0,0 z M 639.55841,719.72656 c -15.95374,-18.46768 -3.48191,-52.1341 -7.38064,-76.45278 -0.42054,-40.49487 1.99296,-81.20144 -0.76071,-121.55599 -21.40971,-7.4439 -60.20406,8.77626 -70.9999,-10.54873 16.06986,-17.36787 31.39709,-42.96849 51.4722,-52.55039 5.28168,11.49347 31.20974,5.04699 43.87808,13.8506 26.00098,-6.67857 44.73332,31.01131 64.56666,25.18436 13.25643,6.64741 27.56342,25.53316 2.49748,21.72245 -10.80585,20.21934 -0.84521,49.60063 -3.76843,73.33436 0.2992,40.48226 0.34349,80.96577 0.49526,121.44872 -18.34149,13.32255 -44.74949,4.08647 -66.3297,6.83843 -4.56013,-0.20222 -9.24771,0.0853 -13.6703,-1.27103 z"
         id="path966" /><path
         style="fill:#ce98fb"
         d="m 438.55841,887.17719 c -26.56687,-4.26488 -42.98415,-31.08 -39.31536,-56.88012 0.54475,-27.81758 -2.79504,-56.43855 3.17888,-83.70867 19.7315,-37.72637 41.5913,-74.58244 65.83374,-109.61839 26.85084,1.27017 -4.95497,40.73193 -10.71684,54.67407 -3.63465,14.98748 -32.94113,40.94563 -18.52183,49.35403 35.29088,2.33766 71.1408,-1.67377 106.08854,3.78175 23.932,10.60895 24.48363,53.83496 58.33592,44.41123 35.44968,0.12804 71.07502,1.46468 106.33652,3.73653 6.67001,8.55416 47.6674,12.89754 16.18279,14.23157 -49.27552,0.93369 -98.66761,2.32095 -147.90288,0.4544 -26.15751,-3.30107 -23.86626,-36.98005 -44.49941,-46.40035 -36.33333,0.50101 -72.66667,1.00203 -109,1.50305 0.11464,28.21522 -1.18976,56.48763 0.54237,84.65736 12.14073,26.93416 46.4759,12.7787 69.37617,16.63791 104.45217,1.03459 209.02803,-1.12462 313.39156,3.59975 14.09621,0.78656 47.41443,23.39004 13.86414,18.32498 -127.70689,0.93949 -255.48404,3.28874 -383.17431,1.2409 z m 201,-167.45063 c -16.60098,-19.04881 -2.94899,-53.98862 -7.13886,-78.99625 -0.15066,-38.97926 1.87764,-78.03999 0.93996,-116.95992 -11.51997,-8.80705 -44.25849,-18.82243 -33.64178,-31.85459 -0.31928,-2.61259 6.22612,-11.01173 6.34106,-14.69612 13.00707,-28.33167 45.63968,0.79338 67.8685,-2.18465 21.17141,11.62008 37.02267,24.65726 56.05621,29.54943 19.61368,15.60628 -3.19139,11.19301 -11.23849,19.45419 -1.12718,62.23859 1.66205,124.51709 0.8517,186.77079 -14.40792,20.06553 -48.46862,5.95284 -70.7945,10.07402 l -5.95298,-0.42492 z"
         id="path964" /><path
         style="fill:#f292db"
         d="m 435.17074,885.71941 c -31.34781,-7.1324 -38.78384,-40.98183 -35.03234,-68.50456 2.51107,-22.2567 -4.99642,-52.77298 7.18957,-69.44287 21.07797,16.17742 12.82832,44.84973 15.18226,68.85953 -5.38419,27.35685 9.94031,56.49134 41.29815,48.32623 39.22665,1.29255 78.71382,-0.18305 117.74762,3.89235 12.70462,10.38522 39.33956,10.44379 47.40284,16.17918 -62.75342,1.61599 -125.5809,2.29151 -188.34833,1.47641 z M 642.14717,720.21666 c -15.90256,-2.99603 -8.79071,-20.30742 -10.16588,-31.4613 0.146,-54.99284 1.82445,-110.05516 1.37821,-164.98502 -11.51994,-8.80694 -44.25849,-18.8224 -33.64177,-31.85454 -0.31928,-2.61259 6.22612,-11.01173 6.34106,-14.69612 13.00707,-28.33167 45.63968,0.79338 67.8685,-2.18465 21.17141,11.62008 37.02267,24.65726 56.05621,29.54943 19.65338,15.63599 -3.26954,11.15692 -11.23197,19.48885 -1.7655,63.08843 2.9404,126.37783 -0.0182,189.37863 -18.4107,14.60289 -49.25546,3.55744 -72.26943,6.99692 z"
         id="path962" /><path
         style="fill:#af94fc"
         d="m 435.17074,885.71941 c -31.34781,-7.1324 -38.78384,-40.98183 -35.03234,-68.50456 2.51107,-22.2567 -4.99642,-52.77298 7.18957,-69.44287 21.07797,16.17742 12.82832,44.84973 15.18226,68.85953 -5.38419,27.35685 9.94031,56.49134 41.29815,48.32623 39.22665,1.29255 78.71382,-0.18305 117.74762,3.89235 12.70462,10.38522 39.33956,10.44379 47.40284,16.17918 -62.75342,1.61599 -125.5809,2.29151 -188.34833,1.47641 z M 642.14717,720.21666 c -15.66797,-2.90231 -8.49599,-20.16865 -10.07107,-31.12845 0.22525,-41.46439 0.56816,-82.95879 2.5495,-124.37825 5.5008,-6.46798 19.9855,-0.77192 16.93281,-3.49367 23.82081,8.03871 52.30277,8.95671 65.56653,33.8871 1.25142,39.35885 4.0392,79.0297 1.64723,118.28512 -18.36359,14.72951 -49.28859,3.59343 -72.30829,7.06035 z"
         id="path960" /><path
         style="fill:#d884d3"
         d="m 642.14717,720.21666 c -15.66797,-2.90231 -8.49599,-20.16865 -10.07107,-31.12845 0.22525,-41.46439 0.56816,-82.95879 2.5495,-124.37825 5.5008,-6.46798 19.9855,-0.77192 16.93281,-3.49367 23.82081,8.03871 52.30277,8.95671 65.56653,33.8871 1.25142,39.35885 4.0392,79.0297 1.64723,118.28512 -18.36359,14.72951 -49.28859,3.59343 -72.30829,7.06035 z"
         id="path958" /><path
         style="fill:#ca7ac9"
         d="m 637.4115,718.31009 c -11.52756,-21.58446 -1.5531,-50.41368 -3.83906,-74.71196 -8.09463,-22.67895 13.32533,-44.78946 33.12597,-29.00777 20.74975,0.80891 35.13223,11.07381 49.75958,23.96197 3.08023,24.2304 2.32526,49.83145 2.60045,74.63241 -5.606,10.79081 -18.58953,5.26068 -28.42394,6.69719 -17.70047,-0.46731 -35.95748,2.01038 -53.223,-1.57184 z"
         id="path956" /><path
         style="fill:#bc74c1"
         d="m 640.34254,719.54414 c -12.72945,-5.37238 -5.65128,-20.40171 -7.19538,-30.91492 1.42832,-16.13684 -2.37833,-35.08642 3.66663,-49.06464 25.85086,2.4428 59.66362,2.31261 77.82665,23.53757 3.09518,17.19425 15.19597,60.9062 -15.62974,56.57804 -19.55215,0.15306 -39.12252,0.47122 -58.66816,-0.13605 z"
         id="path954" /><path
         style="fill:#aa6ab2"
         d="m 638.16848,717.82078 c -7.21202,-15.32497 -13.8567,-63.54285 15.85074,-52.06031 20.69635,8.56755 58.2875,4.3243 63.42934,32.08255 5.44366,34.61776 -41.531,17.25524 -62.29052,21.21692 -5.6499,-0.28572 -11.47099,0.23257 -16.98956,-1.23916 z"
         id="path952" /></g></g></svg>
