<?xml version="1.0" encoding="UTF-8" standalone="no"?>
<!-- Created with Inkscape (http://www.inkscape.org/) -->

<svg
   width="637.62061"
   height="473.90863"
   viewBox="0 0 637.62061 473.90862"
   version="1.1"
   id="svg5"
   xml:space="preserve"
   xmlns:xlink="http://www.w3.org/1999/xlink"
   xmlns="http://www.w3.org/2000/svg"
   xmlns:svg="http://www.w3.org/2000/svg"><defs
     id="defs2"><color-profile
       name="DP"
       xlink:href="../../../../../.local/share/icc/edid-27fd61d80a4d3102d04ad05b2e686881.icc"
       id="color-profile4911" /><color-profile
       name="DP"
       xlink:href="../../../../../.local/share/icc/edid-27fd61d80a4d3102d04ad05b2e686881.icc"
       id="color-profile4913" /><color-profile
       name="DP"
       xlink:href="../../../../../.local/share/icc/edid-27fd61d80a4d3102d04ad05b2e686881.icc"
       id="color-profile4915" /><color-profile
       name="DP"
       xlink:href="../../../../../.local/share/icc/edid-27fd61d80a4d3102d04ad05b2e686881.icc"
       id="color-profile4917" /></defs><g
     id="layer1"
     transform="translate(-235.8734,163.21689)"><g
       id="g4856"><path
         style="fill:#ebd1e9"
         d="m 273.50866,309.64074 c -33.01143,-4.6906 -43.56549,-43.84518 -35.04951,-71.86505 13.32963,-60.16915 64.97457,-104.194 119.17948,-128.36213 11.06483,-13.529758 45.11179,10.89254 29.24236,17.99436 -55.59695,18.86567 -111.6638,60.716 -122.48743,121.71088 -11.05225,35.72472 28.6693,37.82438 52.98318,34.94886 108.44245,0.11763 216.89573,0.53727 325.33146,-0.67127 31.01355,-9.59596 13.43951,-52.50025 2.7037,-72.41815 -24.62172,-43.48995 -69.6987,-70.55925 -115.85308,-86.2895 4.62996,-22.94045 37.40423,-21.62515 53.5638,-6.50102 54.11185,28.55228 105.39309,81.40294 104.08655,146.39087 0.45315,30.29145 -29.31692,50.89821 -57.83015,45.68234 -118.61438,0.67381 -237.26373,0.79865 -355.87036,-0.62019 z m 423.58808,-52.03535 c -18.5405,-38.9515 34.58656,-20.84433 55.51533,-24.72851 28.22805,-0.91137 57.05332,2.32625 84.87977,-2.15113 20.75419,-18.71034 4.22005,-52.08054 -8.08295,-71.97069 -25.89904,-38.3938 -68.32824,-62.330198 -111.90651,-75.222551 4.6457,-27.368303 43.82548,-17.889258 61.1266,-3.464581 48.94594,26.594862 95.66837,74.500962 94.78165,133.707822 1.62701,33.16237 -33.07508,50.65856 -62.19197,45.49476 -37.51047,0.31441 -75.02259,0.39871 -112.53385,0.60218 l -0.91154,-1.30142 z M 446.05796,131.69975 C 380.11398,124.97843 326.30521,61.80598 331.58024,-4.5655198 331.77148,-73.843317 397.57804,-134.45309 466.81415,-128.24001 c 62.83878,-0.14598 118.32092,52.954139 123.41318,115.158281 9.40277,64.192508 -37.30283,130.450039 -101.1332,142.571199 -14.10979,2.72789 -28.72167,3.39315 -43.03617,2.21028 z m 27.21936,-27.94686 c 58.52952,-5.351613 101.95654,-67.837398 87.89345,-124.59651 -10.10421,-51.704785 -64.73762,-88.15099 -116.41123,-78.81415 -63.43487,7.607418 -105.05028,83.202595 -77.63316,140.878786 16.28528,41.500153 61.92887,68.547284 106.15094,62.531874 z M 637.02881,88.74027 c -18.12325,-5.345269 -64.62268,-9.697213 -46.60839,-37.563228 15.11784,-12.218683 43.52234,19.902341 66.41424,11.11387 57.20133,-0.443983 102.94819,-57.9346016 94.14274,-113.654436 -6.90778,-56.232706 -68.1164,-97.333266 -122.78586,-81.632166 -27.95335,1.55479 -44.94095,35.348904 -65.44894,40.459244 -30.19114,-19.210534 12.67097,-43.870644 29.95552,-54.869084 59.94587,-35.78179 145.74169,-7.35297 173.5512,56.43373 26.5132,54.433579 7.39559,126.208671 -43.82623,159.224072 -24.7762,17.451643 -55.5275,23.43492 -85.39428,20.487998 z"
         id="path4878" /><path
         style="fill:#f1abe9"
         d="m 275.00866,308.33516 c -29.78062,-3.10793 -42.57358,-36.51825 -36.33569,-62.6638 7.97641,-57.20937 54.57232,-100.96295 103.24557,-127.07899 16.23208,-13.23041 39.25593,-14.62879 50.09012,5.03824 -53.31316,18.30124 -106.62054,53.6635 -125.31107,109.4134 -12.00888,25.20624 -1.57507,61.21218 32.06655,52.24024 115.20992,0.62492 230.46721,1.24834 345.65874,-0.57616 30.89713,-12.49433 12.38098,-55.56536 0.66005,-76.87316 -24.79751,-42.7815 -70.16893,-68.51341 -115.09778,-84.79775 16.35035,-29.874626 46.43017,-6.91373 67.06307,4.78226 48.66297,29.76212 92.93425,81.39486 88.35878,141.69845 -1.98749,34.0045 -38.36769,43.59918 -66.58686,39.65968 -114.59119,0.65598 -229.24513,1.52678 -343.81148,-0.84241 z M 698.20015,256.9947 c -16.60941,-35.53304 33.99935,-18.12202 53.99542,-22.26371 27.69036,-0.71001 55.71174,1.55966 83.16814,-2.12874 25.95169,-16.53965 7.64712,-55.60489 -6.04944,-75.88889 -25.92451,-38.44787 -68.77518,-60.346594 -111.27621,-75.182963 16.97349,-30.775674 50.76096,-5.095927 72.67039,6.991163 44.55252,28.14297 86.42288,76.06507 80.89712,132.12086 -2.58693,29.23817 -33.99987,40.65217 -59.51647,37.05618 -37.17439,0.19731 -74.4019,1.63158 -111.55017,0.33556 z M 436.63536,128.73932 C 374.41794,117.91446 327.36936,56.25153 332.78435,-6.5807924 334.72498,-72.430825 395.31141,-129.84793 461.40636,-126.81621 c 64.11558,-2.27766 123.21874,51.194016 127.50588,115.193876 8.47105,61.33118 -34.78086,123.925914 -94.75774,138.528744 -18.6247,5.0883 -38.56782,4.6244 -57.51914,1.83291 z m 35.8733,-23.48368 C 527.23314,100.80031 571.2585,46.193247 563.93062,-8.2699639 561.9426,-62.880555 508.09638,-106.46664 454.47258,-102.12305 c -60.46323,1.70275 -108.45772,64.827081 -95.12756,123.617754 9.85376,51.574143 60.46561,90.783296 113.16364,83.760936 z m 167,-17.49608 c -19.10637,-4.567203 -66.78427,-9.736489 -46.64289,-38.077961 17.87457,-0.0983 41.18542,18.304882 63.66052,13.820418 57.96077,-0.457684 105.24495,-58.8544796 95.61986,-115.605046 -7.25755,-59.535581 -75.22485,-101.617391 -131.51519,-80.003531 -24.99878,2.14414 -39.34238,37.384356 -58.6626,36.862227 -28.79594,-20.165167 21.00107,-43.561157 37.00905,-53.966117 62.04132,-32.34653 146.95924,1.32992 169.57246,67.677259 20.2763,52.11618 1.89831,116.684072 -45.35678,147.83665 -23.97757,17.35552 -54.49666,23.790253 -83.68443,21.456101 z"
         id="path4876" /><path
         style="fill:#f28ef1"
         d="m 284.44075,308.72313 c -32.73885,3.18829 -52.99426,-31.93364 -45.72654,-61.08486 8.13531,-61.69047 59.93682,-106.72479 112.82915,-133.02153 12.78659,-20.3968 60.38364,11.87856 24.94018,14.27388 -53.58128,21.03576 -107.4715,64.44803 -114.04564,125.31836 -7.92534,37.36261 37.28425,33.48181 61.22475,32.4829 108.04771,-0.23754 216.15174,1.31965 324.16409,-0.96728 26.99127,-15.89016 10.46579,-55.2713 -0.99461,-76.9759 -24.89026,-41.86663 -68.08486,-71.2675 -114.56933,-84.15684 1.63402,-20.47192 35.95466,-20.69716 48.93292,-2.66515 47.3378,24.8289 91.28432,65.46781 101.67397,120.09556 8.82638,27.69987 -6.26654,67.46376 -39.72251,65.68341 -119.55501,1.39568 -239.14379,1.40666 -358.70643,1.01745 z m 415.87101,-50.98457 c -9.00673,-12.02074 -7.33742,-28.37522 10.58588,-22.47015 40.71512,-0.65745 81.61865,1.56927 122.18112,-1.83514 30.31959,-11.63313 11.4248,-54.66742 -1.59368,-74.13617 -25.77094,-39.06382 -68.40034,-63.754219 -112.52081,-76.681041 8.99479,-27.828137 43.08554,-11.952521 61.80528,-0.122964 48.16968,27.665935 94.65973,76.227875 91.09133,135.579535 -0.82014,26.89939 -28.89881,42.98427 -53.61448,39.32689 -39.30025,0.47533 -78.6446,1.39151 -117.93464,0.33904 z M 449.50866,129.60385 C 382.89232,125.46618 327.42332,61.514865 333.79373,-5.1609241 334.1933,-55.83289 371.93161,-101.86083 420.00866,-115.65935 c 19.90309,-10.78594 43.48576,-1.36201 59.44024,4.99706 20.60272,10.702723 43.06175,13.951212 58.69946,33.352487 20.97044,17.064097 39.41451,38.599661 47.00472,65.051073 6.90919,33.705339 -3.13078,69.98445 -25.87217,95.787315 -25.65712,33.099595 -68.37488,49.929715 -109.77225,46.075265 z m 31,-23.8776 c 59.50476,-8.543885 98.54453,-75.240716 82.47405,-132.039587 -6.33726,-24.798495 -24.02858,-45.633503 -43.96595,-60.508692 -46.90879,-32.102731 -118.01143,-17.194461 -146.60449,32.522619 -29.64488,45.2491115 -15.74445,109.948133 26.51262,142.274022 24.23772,14.496978 53.16661,25.360198 81.58377,17.751638 z m 163,-17.53641 c -18.60823,-4.704704 -67.92125,-7.494983 -52.01117,-35.806916 14.79919,-9.155334 39.94461,17.087995 61.51087,11.180293 57.46098,1.594394 106.35926,-54.0785537 99.75656,-110.69176 -4.20943,-61.780107 -74.11512,-107.353917 -132.13396,-84.978017 -24.99878,2.14414 -39.34238,37.384356 -58.6626,36.862227 -28.79594,-20.165167 21.00107,-43.561157 37.00905,-53.966117 63.77393,-33.36445 151.25267,3.47645 171.36502,72.787548 17.01389,49.74899 -0.41491,109.365875 -43.6671,140.089331 -23.6412,18.368527 -53.52349,25.928818 -83.16667,24.523411 z M 547.20301,-93.72167 c -11.09591,-12.3245 13.83826,12.188585 0,0 z"
         id="path4874" /><path
         style="fill:#f5a9d0"
         d="m 284.44075,308.72313 c -30.41815,2.99837 -51.84973,-28.30618 -46.10423,-56.40395 3.75492,-53.34199 44.58327,-95.91913 87.41801,-123.40022 13.55952,-10.20171 28.16939,6.58089 43.66082,0.47397 -1.80088,-13.35911 -37.74696,-10.51566 -8.24725,-19.44387 13.6648,-9.72161 46.78081,19.30968 15.31544,18.94156 -53.58128,21.03576 -107.4715,64.44803 -114.04564,125.31836 -7.93809,37.22846 37.54907,33.96362 61.51493,32.55408 49.25111,0.77839 98.95175,-0.31235 147.80463,5.86885 9.11771,16.22032 58.60711,12.25894 55.09319,15.543 -80.79453,0.90522 -161.61411,1.36449 -242.4099,0.54822 z m 415.87101,-50.98457 c -9.00673,-12.02074 -7.33742,-28.37522 10.58588,-22.47015 40.71512,-0.65745 81.61865,1.56927 122.18112,-1.83514 30.31959,-11.63313 11.4248,-54.66742 -1.59368,-74.13617 -25.77094,-39.06382 -68.40034,-63.754219 -112.52081,-76.681041 8.99479,-27.828137 43.08554,-11.952521 61.80528,-0.122964 48.16968,27.665935 94.65973,76.227875 91.09133,135.579535 -0.82014,26.89939 -28.89881,42.98427 -53.61448,39.32689 -39.30025,0.47533 -78.6446,1.39151 -117.93464,0.33904 z m 167.88989,-57.68642 c -1.71598,-1.16273 1.24026,8.22228 0,0 z M 449.50866,129.60882 C 382.71075,125.54416 327.07549,60.968294 333.77879,-5.8794305 331.87757,-19.993072 349.52146,-68.582724 338.9551,-29.71689 c -10.36831,20.4546682 5.89476,18.764801 7.95944,27.65229 7.16062,17.150834 10.99123,42.467919 21.02601,61.33635 8.08821,27.008259 30.87164,46.44119 58.50188,51.44513 6.01096,8.42579 56.45568,22.96455 23.06623,18.89194 z M 336.19177,-4.40439 c -1.71452,-1.7193073 0.86336,5.5905568 0,0 z m 130.31689,133.33503 c 11.6571,-4.11272 39.43376,-4.04765 11.68338,0.26046 -3.86284,0.11318 -7.95109,1.21485 -11.68338,-0.26046 z m 72,-2.27811 c -29.00354,-9.38968 44.75835,-32.414183 16.21929,-6.61942 -4.43596,3.86165 -9.62187,9.83505 -16.21929,6.61942 z m -25,-8.29227 c 13.22445,-5.03849 -9.0173,5.09273 0,0 z m -90,-17.57715 c -2.47946,-3.938537 7.32841,4.19286 0,0 z m 220,-12.59327 c -18.60823,-4.704704 -67.92125,-7.494983 -52.01117,-35.806916 14.79919,-9.155334 39.94461,17.087995 61.51087,11.180293 57.46098,1.594394 106.35926,-54.0785537 99.75656,-110.69176 -4.20943,-61.780107 -74.11512,-107.353917 -132.13396,-84.978017 -24.99878,2.14414 -39.34238,37.384356 -58.6626,36.862227 -28.79594,-20.165167 21.00107,-43.561157 37.00905,-53.966117 63.77393,-33.36445 151.25267,3.47645 171.36502,72.787547 17.01389,49.748991 -0.41491,109.365876 -43.6671,140.089332 -23.6412,18.368527 -53.52349,25.928818 -83.16667,24.523411 z M 575.02713,59.78311 c 7.16726,-12.829919 -3.83402,9.977022 0,0 z m -205.31918,-4.75 c -9.66862,-18.313033 7.80286,9.782128 0,0 z m -6.22896,-12.30544 c -3.11659,-10.637397 4.96278,7.466867 0,0 z m -3.41492,-8.1577 c -6.0662,-13.744693 -3.9431,-31.9925524 -0.2337,-6.195724 -0.0142,0.474532 4.80992,15.38926 0.2337,6.195724 z m -5.4958,-33.53686 c -3.45645,-10.0127442 13.68398,-56.354412 4.15728,-22.426326 -1.61821,3.237652 -3.15999,47.538353 -4.15728,22.426326 z m -11.02898,-50.25 c 1.07315,-6.903708 3.47272,-2.141432 0.16156,0.999998 z m 202.57807,-9.6087 c -12.79157,-22.072697 15.13821,19.25758 0,0 z m -10.6277,-13.91419 c -2.54658,-4.745243 5.64798,5.19064 0,0 z m -8.981,-7.53613 c 1.65579,-2.234188 2.50033,3.424246 0,0 z m 20.69435,-13.44576 c -11.09591,-12.3245 13.83826,12.188585 0,0 z"
         id="path4872" /><path
         style="fill:#f88fcf"
         d="m 284.44075,308.72313 c -30.41815,2.99837 -51.84973,-28.30618 -46.10423,-56.40395 3.75492,-53.34199 44.58327,-95.91913 87.41801,-123.40022 13.55952,-10.20171 28.16939,6.58089 43.66082,0.47397 0.52726,-13.90679 -40.57695,-9.49038 -8.91116,-19.20587 12.78657,-9.81859 47.63051,18.37796 16.12579,18.60655 -53.58453,21.13772 -107.63543,64.44091 -114.19208,125.41538 -7.93809,37.22846 37.54907,33.96362 61.51493,32.55408 49.25111,0.77839 98.95175,-0.31235 147.80463,5.86885 9.11771,16.22032 58.60711,12.25894 55.09319,15.543 -80.79453,0.90522 -161.61413,1.3645 -242.4099,0.54821 z m 414.36368,-52.19002 c -15.20439,-36.28217 38.32618,-16.68052 58.54064,-21.56687 27.50084,-1.6748 56.34746,3.94465 82.99202,-3.38014 20.41926,-22.87302 1.69485,-57.93207 -12.93806,-79.40641 -26.56648,-35.5169 -67.16965,-57.608099 -108.59025,-70.768226 14.12035,-27.962215 42.84687,-7.944189 62.29101,2.872461 47.21195,27.229425 93.05654,74.699575 90.04167,133.036535 -0.47233,29.57885 -32.10632,43.95257 -58.14775,40.22876 -38.03141,-0.11554 -76.25897,1.35426 -114.18928,-1.01611 z m 169.39722,-56.48097 c -1.71598,-1.16273 1.24026,8.22228 0,0 z M 449.50866,129.60882 C 382.71075,125.54416 327.07549,60.968294 333.77879,-5.8794305 331.87757,-19.993072 349.52146,-68.582724 338.9551,-29.71689 c -10.36831,20.4546682 5.89476,18.764801 7.95944,27.65229 7.16062,17.150834 10.99123,42.467919 21.02601,61.33635 8.08821,27.008259 30.87164,46.44119 58.50188,51.44513 6.01096,8.42579 56.45568,22.96455 23.06623,18.89194 z M 336.19177,-4.40439 c -1.71452,-1.7193073 0.86336,5.5905568 0,0 z m 130.31689,133.33503 c 11.6571,-4.11272 39.43376,-4.04765 11.68338,0.26046 -3.86284,0.11318 -7.95109,1.21485 -11.68338,-0.26046 z m 70.17995,-3.05022 c -21.87468,-11.15877 46.54736,-29.71601 17.66055,-5.53759 -5.21561,4.23453 -10.52706,10.27711 -17.66055,5.53759 z m -23.17995,-7.52016 c 13.22445,-5.03849 -9.0173,5.09273 0,0 z m -90,-17.57715 c -2.47946,-3.938537 7.32841,4.19286 0,0 z m 215,-13.66056 C 619.15371,81.6287 572.20464,76.866197 594.22637,47.813876 c 21.85652,9.895473 45.91668,20.596445 70.86703,15.510594 65.37233,-5.096741 109.62579,-84.115231 80.34265,-142.58332 -10.66203,-24.78278 14.87031,14.108435 21.74289,18.470711 C 786.88035,-18.718681 764.651,32.182052 730.4558,59.866047 705.29726,81.333625 671.08103,89.985451 638.50866,87.12255 Z M 369.70795,55.03311 c -9.66862,-18.313033 7.80286,9.782128 0,0 z m -6.22896,-12.30544 c -3.11659,-10.637397 4.96278,7.466867 0,0 z m -3.41492,-8.1577 c -6.0662,-13.744693 -3.9431,-31.9925524 -0.2337,-6.195724 -0.0142,0.474532 4.80992,15.38926 0.2337,6.195724 z m -5.4958,-33.53686 c -3.45645,-10.0127442 13.68398,-56.354412 4.15728,-22.426326 -1.61821,3.237652 -3.15999,47.538353 -4.15728,22.426326 z m -11.02898,-50.25 c 1.07315,-6.903708 3.47272,-2.141432 0.16156,0.999998 z M 544.69672,-62.1764 c -7.88667,-12.851864 8.76234,10.308193 0,0 z m 18.15984,-33.29704 c -27.08642,-15.27896 18.12955,-48.26747 35.76232,-43.46048 14.61256,18.75648 -25.40907,29.08669 -32.03545,46.71703 z m 58.6521,-40.69814 c 7.01362,-5.24494 16.68973,1.06905 0,0 z m 31.25,-24.73464 c 7.74545,-1.55624 1.48708,1.6085 0,0 z"
         id="path4870" /><path
         style="fill:#d288f7"
         d="m 284.44075,308.72313 c -30.41815,2.99837 -51.84973,-28.30618 -46.10423,-56.40395 3.75492,-53.34199 44.58327,-95.91913 87.41801,-123.40022 13.55952,-10.20171 28.16939,6.58089 43.66082,0.47397 0.52726,-13.90679 -40.57695,-9.49038 -8.91116,-19.20587 12.78657,-9.81859 47.63051,18.37796 16.12579,18.60655 -53.58453,21.13772 -107.63543,64.44091 -114.19208,125.41538 -7.93809,37.22846 37.54907,33.96362 61.51493,32.55408 49.25111,0.77839 98.95175,-0.31235 147.80463,5.86885 9.11771,16.22032 58.60711,12.25894 55.09319,15.543 -80.79453,0.90522 -161.61413,1.3645 -242.4099,0.54821 z m 414.26766,-52.67048 c -15.24088,-34.77891 34.57099,-15.73867 54.10227,-20.12204 29.01178,-1.3852 59.13985,5.09313 87.33486,-3.17883 20.56945,-18.38326 5.86855,-52.44114 -6.1141,-72.34976 -25.65229,-40.60824 -69.96974,-66.224444 -115.21107,-78.892344 12.96156,-25.720737 35.33601,-11.891479 49.72746,4.111418 21.02042,12.404347 37.09397,33.103736 54.58677,50.492966 16.78337,8.33833 19.83368,31.74756 36.53982,40.80528 5.78572,7.06808 8.80687,40.72145 9.02987,17.33079 8.60834,25.78188 -4.54911,58.53175 -34.02727,61.23295 -44.57246,2.20432 -89.33336,2.33618 -133.94252,1.53873 z m 166.80025,-72.26954 c -3.29103,-19.40707 5.18976,16.81402 0,0 z m -416,-54.17429 C 382.71075,125.54416 327.07549,60.968294 333.77879,-5.8794305 331.87757,-19.993072 349.52146,-68.582724 338.9551,-29.71689 c -10.36831,20.4546682 5.89476,18.764801 7.95944,27.65229 7.16062,17.150834 10.99123,42.467919 21.02601,61.33635 8.08821,27.008259 30.87164,46.44119 58.50188,51.44513 6.01096,8.42579 56.45568,22.96455 23.06623,18.89194 z M 336.19177,-4.40439 c -1.71452,-1.7193073 0.86336,5.5905568 0,0 z m 130.31689,133.33503 c 11.6571,-4.11272 39.43376,-4.04765 11.68338,0.26046 -3.86284,0.11318 -7.95109,1.21485 -11.68338,-0.26046 z m 70.17995,-3.05022 c -21.87468,-11.15877 46.54736,-29.71601 17.66055,-5.53759 -5.21561,4.23453 -10.52706,10.27711 -17.66055,5.53759 z m -23.17995,-7.52016 c 13.22445,-5.03849 -9.0173,5.09273 0,0 z m -90,-17.57715 c -2.47946,-3.938537 7.32841,4.19286 0,0 z m 215,-13.66056 C 619.15371,81.6287 572.20464,76.866197 594.22637,47.813876 617.6976,59.461665 644.55573,68.600748 671.319,62.55227 699.5361,59.664591 719.95925,38.097838 740.11055,21.447847 753.99999,47.242209 777.07376,-22.276049 766.50677,11.300054 745.80375,61.76398 692.5851,93.040532 638.50866,87.12255 Z M 369.70795,55.03311 c -9.66862,-18.313033 7.80286,9.782128 0,0 z m -6.22896,-12.30544 c -3.11659,-10.637397 4.96278,7.466867 0,0 z m -3.41492,-8.1577 c -6.0662,-13.744693 -3.9431,-31.9925524 -0.2337,-6.195724 -0.0142,0.474532 4.80992,15.38926 0.2337,6.195724 z m 379.07708,-17.8449 c 4.59232,-12.6009569 13.12551,-25.7544406 8.64298,-6.493422 -3.39338,-1.7715544 -10.08682,10.188502 -8.64298,6.493422 z M 354.56827,1.03311 c -3.45645,-10.0127442 13.68398,-56.354412 4.15728,-22.426326 -1.61821,3.237652 -3.15999,47.538353 -4.15728,22.426326 z m -11.02898,-50.25 c 1.07315,-6.903708 3.47272,-2.141432 0.16156,0.999997 z m 219.31727,-46.25655 c -26.13102,-12.61262 8.86902,-44.20232 23.47921,-21.4327 14.98269,-10.79475 -25.12736,35.099774 -23.47921,21.4327 z m 89.9021,-65.43278 c 7.74545,-1.55624 1.48708,1.6085 0,0 z"
         id="path4868" /><path
         style="fill:#b986f8"
         d="m 273.50866,307.65738 c -30.66489,-4.45995 -41.37187,-40.82599 -33.38286,-67.17479 3.2581,-16.15403 11.97133,-40.02595 16.97946,-38.28019 8.8229,-19.59813 14.61852,18.65452 23.1804,-3.38416 11.85616,-13.39924 -14.08178,22.88353 -13.35857,31.14212 -14.41494,28.29805 -3.95453,71.19804 35.3106,59.89684 21.34616,0.50432 36.3932,19.29948 59.66707,16.9045 13.51583,1.64609 -26.61917,1.81138 -34.46638,1.76968 -17.97425,-0.0971 -35.98049,0.19086 -53.92972,-0.874 z m 425.19975,-51.60473 c -15.24088,-34.77891 34.57099,-15.73867 54.10227,-20.12204 29.01178,-1.3852 59.13985,5.09313 87.33486,-3.17883 20.56945,-18.38326 5.86855,-52.44114 -6.1141,-72.34976 -25.65229,-40.60824 -69.96974,-66.224444 -115.21107,-78.892344 12.96156,-25.720737 35.33601,-11.891479 49.72746,4.111418 21.02042,12.404347 37.09397,33.103736 54.58677,50.492956 16.78337,8.33834 19.83368,31.74757 36.53982,40.80529 5.78572,7.06808 8.80687,40.72145 9.02987,17.33079 8.60834,25.78188 -4.54911,58.53175 -34.02727,61.23295 -44.57246,2.20432 -89.33336,2.33618 -133.94252,1.53873 z m 166.80025,-72.26954 c -3.29103,-19.40707 5.18976,16.81402 0,0 z M 538.22313,125.85955 c -26.30515,-6.56579 36.14953,-29.8156 20.15177,-9.33572 -6.21279,4.59723 -11.30862,14.97157 -20.15177,9.33572 z m -160.10275,-0.95299 c -14.08953,-4.48587 -28.11892,-19.39334 -5.20608,-16.67614 8.7177,5.84203 32.32518,20.33598 5.20608,16.67614 z M 638.50866,87.12255 C 619.15371,81.6287 572.20464,76.866197 594.22637,47.813876 617.6976,59.461665 644.55573,68.600748 671.319,62.55227 699.5361,59.664591 719.95925,38.097838 740.11055,21.447847 753.99999,47.242209 777.07376,-22.276049 766.50677,11.300054 745.80375,61.76398 692.5851,93.040532 638.50866,87.12255 Z M 739.14115,16.72507 c 4.59232,-12.6009569 13.12551,-25.7544406 8.64298,-6.493422 -3.39338,-1.7715544 -10.08682,10.188502 -8.64298,6.493422 z M 562.85656,-95.47344 c -26.13102,-12.61262 8.86902,-44.20232 23.47921,-21.4327 14.98269,-10.79475 -25.12736,35.099774 -23.47921,21.4327 z m 89.9021,-65.43278 c 7.74545,-1.55624 1.48708,1.6085 0,0 z"
         id="path4866" /><path
         style="fill:#ef73d4"
         d="m 698.70841,256.05265 c -15.24088,-34.77891 34.57099,-15.73867 54.10227,-20.12204 29.01178,-1.3852 59.13985,5.09313 87.33486,-3.17883 20.56945,-18.38326 5.86855,-52.44114 -6.1141,-72.34976 -25.65229,-40.60824 -69.96974,-66.224444 -115.21107,-78.892344 12.96156,-25.720737 35.33601,-11.891479 49.72746,4.111418 21.02042,12.404347 37.09397,33.103736 54.58677,50.492966 16.78337,8.33833 19.83368,31.74756 36.53982,40.80528 5.78572,7.06808 8.80687,40.72145 9.02987,17.33079 8.60834,25.78188 -4.54911,58.53175 -34.02727,61.23295 -44.57246,2.20432 -89.33336,2.33618 -133.94252,1.53873 z m 166.80025,-72.26954 c -3.29103,-19.40707 5.18976,16.81402 0,0 z M 538.22313,125.85955 c -26.30515,-6.56579 36.14953,-29.8156 20.15177,-9.33572 -6.21279,4.59723 -11.30862,14.97157 -20.15177,9.33572 z M 378.1421,124.93056 c -11.06038,-5.92053 -29.16539,-15.71753 -7.40897,-17.52122 9.43415,4.45349 34.23855,21.75973 7.40897,17.52122 z M 638.50866,87.12255 C 619.15371,81.6287 572.20464,76.866197 594.22637,47.813876 617.6976,59.461665 644.55573,68.600748 671.319,62.55227 699.5361,59.664591 719.95925,38.097838 740.11055,21.447847 753.99999,47.242209 777.07376,-22.276049 766.50677,11.300054 745.80375,61.76398 692.5851,93.040532 638.50866,87.12255 Z M 739.14115,16.72507 c 4.59232,-12.6009569 13.12551,-25.7544406 8.64298,-6.493422 -3.39338,-1.7715544 -10.08682,10.188502 -8.64298,6.493422 z M 562.85656,-95.47344 c -26.13102,-12.61262 8.86902,-44.20232 23.47921,-21.4327 14.98269,-10.79475 -25.12736,35.099774 -23.47921,21.4327 z m 89.9021,-65.43278 c 7.74545,-1.55624 1.48708,1.6085 0,0 z"
         id="path4864" /><path
         style="fill:#e887b7"
         d="m 698.69795,256.03311 c -10.48416,-22.6595 4.72379,-19.16479 20.49574,-14.54312 1.34873,14.40031 44.78795,15.71594 12.09858,16.25671 -10.65737,-0.80495 -22.6287,1.92111 -32.59432,-1.71359 z m -0.18929,-20.25 c 2.55494,-3.58745 2.55494,3.58745 0,0 z m 171.07895,-12.58333 c 0.64328,-3.85396 1.01442,4.55158 0,0 z M 378.1421,124.93056 c -11.06038,-5.92053 -29.16539,-15.71753 -7.40897,-17.52122 9.43415,4.45349 34.23855,21.75973 7.40897,17.52122 z m 158.05569,0.42419 c -20.51565,-7.59999 41.05197,-29.991012 14.69432,-7.85541 -4.7639,2.78842 -7.9278,12.87221 -14.69432,7.85541 z M 638.50866,87.12255 C 619.15371,81.6287 572.20464,76.866197 594.22637,47.813876 c 21.85665,9.897127 45.91612,20.591232 70.86703,15.515904 10.3484,-1.095031 37.18007,-8.707976 12.64978,-0.485413 -10.04936,5.188937 -34.93495,1.431672 -14.1507,8.749353 12.2225,23.567028 57.75508,-8.41903 54.32382,-2.39583 -23.61343,14.47992 -51.94215,20.336726 -79.40764,17.92466 z m 87.25,-2.57819 c -26.41469,-9.705818 43.24449,-29.070533 18.60142,-9.386342 -5.74114,4.776609 -9.61378,15.852422 -18.60142,9.386342 z m 0.25,-22.33313 C 747.19568,46.569094 760.21544,22.601186 770.27598,-0.71832484 766.02554,22.76974 739.75285,55.464362 726.00866,62.21123 Z m -34.41667,-4.81089 c 17.51169,-10.55439 19.28193,-6.79219 0,0 z m 15.91667,-7.986 c 11.42918,-9.035617 38.59495,-35.219892 14.39411,-10.829175 -4.51509,3.902619 -8.74853,8.54502 -14.39411,10.829175 z m 31.68726,-32.63123 c 3.06071,-9.1510061 15.28152,-28.518354 5.45177,-7.7164063 2.27941,-1.5241833 -8.63353,12.8316193 -5.45177,7.7164063 z M 562.85656,-95.47344 c -26.13102,-12.61262 8.86902,-44.20232 23.47921,-21.4327 14.98269,-10.79475 -25.12736,35.099774 -23.47921,21.4327 z m 89.9021,-65.43278 c 7.74545,-1.55624 1.48708,1.6085 0,0 z"
         id="path4862" /><path
         style="fill:#b46ddf"
         d="m 699.18807,256.03311 c -8.1433,-24.15867 2.42588,-18.75649 20.00562,-14.54312 -0.0303,13.19895 41.17453,15.66836 11.1954,15.13157 -10.39135,-0.0689 -20.85052,0.4311 -31.20102,-0.58845 z M 378.1421,124.93056 c -9.89044,-6.32455 -30.12486,-14.83924 -7.75024,-17.97656 8.8549,4.9758 34.97787,22.1927 7.75024,17.97656 z m 160.86656,1.17139 c -27.12711,-6.02141 40.79633,-31.982467 9.91503,-6.87862 -3.59724,1.49013 -5.22186,9.44416 -9.91503,6.87862 z m 94,-40.78351 c -19.2394,-1.247611 -64.12604,-20.285181 -33.91211,-35.060945 22.26728,14.964044 50.38123,17.306684 76.25588,13.058495 -10.23991,5.386903 -31.43223,0.750889 -11.75995,8.27773 6.82895,10.599763 41.60623,8.152175 10.65821,13.312815 -13.61928,1.890862 -27.61011,2.514013 -41.24203,0.411905 z m 98,-0.0634 c -37.09197,-3.835137 36.06241,-33.632777 10.87916,-7.493301 -3.4225,1.684304 -6.30804,9.440878 -10.87916,7.493301 z m -40.5,-5.30322 c 13.90182,-7.190235 -0.2515,2.437313 0,0 z m 19,-7.59834 c 5.47159,-4.80525 5.23698,-0.888568 0,0 z"
         id="path4860" /><path
         style="fill:#d66bb8"
         d="m 699.18807,256.03311 c -8.1433,-24.15867 2.42588,-18.75649 20.00562,-14.54312 -0.0303,13.19895 41.17453,15.66836 11.1954,15.13157 -10.39135,-0.0689 -20.85052,0.4311 -31.20102,-0.58845 z M 537.44261,115.86782 c 16.21785,-11.4363 -1.53657,4.05145 0,0 z m 95.56605,-30.54938 c -19.2394,-1.247611 -64.12604,-20.285181 -33.91211,-35.060945 22.26728,14.964044 50.38123,17.306684 76.25588,13.058495 -10.23991,5.386903 -31.43223,0.750889 -11.75995,8.27773 6.82895,10.599763 41.60623,8.152175 10.65821,13.312815 -13.61928,1.890862 -27.61011,2.514013 -41.24203,0.411905 z m 98,-0.0634 c -37.09197,-3.835137 36.06241,-33.632777 10.87916,-7.493301 -3.4225,1.684304 -6.30804,9.440878 -10.87916,7.493301 z m -40.5,-5.30322 c 13.90182,-7.190235 -0.2515,2.437313 0,0 z m 19,-7.59834 c 5.47159,-4.80525 5.23698,-0.888568 0,0 z"
         id="path4858" /></g></g></svg>
