<?xml version="1.0" encoding="UTF-8" standalone="no"?>
<!-- Created with Inkscape (http://www.inkscape.org/) -->

<svg
   width="535.83154"
   height="523.7804"
   viewBox="0 0 535.83155 523.78038"
   version="1.1"
   id="svg5"
   xml:space="preserve"
   xmlns:xlink="http://www.w3.org/1999/xlink"
   xmlns="http://www.w3.org/2000/svg"
   xmlns:svg="http://www.w3.org/2000/svg"><defs
     id="defs2"><color-profile
       name="DP"
       xlink:href="../../../../../.local/share/icc/edid-27fd61d80a4d3102d04ad05b2e686881.icc"
       id="color-profile4785" /><color-profile
       name="DP"
       xlink:href="../../../../../.local/share/icc/edid-27fd61d80a4d3102d04ad05b2e686881.icc"
       id="color-profile4787" /><color-profile
       name="DP"
       xlink:href="../../../../../.local/share/icc/edid-27fd61d80a4d3102d04ad05b2e686881.icc"
       id="color-profile4789" /><color-profile
       name="DP"
       xlink:href="../../../../../.local/share/icc/edid-27fd61d80a4d3102d04ad05b2e686881.icc"
       id="color-profile4791" /></defs><g
     id="layer1"
     transform="translate(-127.12583,113.54636)"><g
       id="g1158"
       transform="translate(-255.3437,-539.95563)"><path
         style="fill:#fbe7fc"
         d="m 432.18558,949.40836 c -29.59791,-1.56647 -52.57132,-29.97321 -49.4279,-59.20167 1.01558,-62.81863 46.78109,-114.34167 96.01813,-148.17845 20.07999,-12.99919 41.12119,-25.53855 64.09678,-32.51568 10.92583,5.95398 39.98555,20.35452 11.96127,25.44965 -56.48218,23.62984 -112.60629,62.46939 -135.81815,121.36207 -6.81829,20.28778 -13.95158,54.15224 12.11637,63.68828 146.01783,0 292.03567,0 438.0535,0 24.21325,-7.83364 21.39517,-38.02093 15.33909,-57.53944 -22.08392,-67.06236 -86.64182,-108.29728 -149.01754,-133.22393 6.6232,-25.05993 40.68659,-19.98442 58.00591,-4.23842 54.98169,30.26052 107.21273,77.58341 122.19993,140.75386 6.83852,30.65901 1.61086,71.71823 -33.81054,81.56411 -53.31888,5.00242 -107.1665,1.70672 -160.70025,2.69767 -96.3379,-0.13117 -192.68252,0.25819 -289.0166,-0.61805 z M 627.21148,736.99319 C 550.80954,726.72937 487.8823,653.37223 494.26546,575.68069 c 0.14922,-82.18921 77.51493,-154.63186 159.64104,-148.9591 83.09517,0.54256 158.15483,78.02227 151.29955,161.76643 1.45111,81.2073 -74.02003,152.18046 -154.49323,149.72152 -7.84534,0.0967 -15.72874,-0.0364 -23.50134,-1.21635 z m 35.03768,-28.94092 c 64.07962,-4.42222 118.29062,-63.83778 115.28034,-128.36851 1.97868,-69.10093 -62.85083,-128.82351 -131.03447,-124.88657 -67.20086,1.13684 -126.9321,63.616 -122.0854,131.26755 -0.10167,61.18062 50.78471,115.63021 111.27595,121.8307 8.81927,1.56943 17.73227,1.81149 26.56358,0.15683 z"
         id="path1180" /><path
         style="fill:#fbd8fb"
         d="m 473.68558,948.55874 c -17.02794,-0.90122 -34.60129,1.01688 -51.28996,-1.63811 -28.30845,-7.20352 -42.72572,-37.61023 -38.35314,-65.05563 6.6566,-65.71746 57.61109,-117.32951 111.99369,-149.545 19.81483,-8.7261 44.39571,-32.9379 63.48847,-10.99756 20.08658,12.49909 -25.60105,16.483 -32.25882,25.43801 -49.99422,25.99137 -99.57585,66.57074 -113.38418,123.70293 -5.97957,18.08862 -2.136,51.17428 22.29067,50.54918 144.67109,0 289.34218,0 434.01327,0 24.50383,-8.53956 21.23101,-39.27385 15.19762,-59.12767 -19.99824,-62.25581 -77.98447,-102.71031 -135.42296,-127.76549 -35.19524,-5.36022 15.71149,-35.44349 27.83415,-15.886 61.49981,30.21094 121.47325,79.9344 137.04589,149.71721 4.34111,26.86591 4.14404,62.48573 -25.41615,75.07834 -30.35001,10.50093 -63.37674,3.85243 -94.83653,6.03098 -106.96665,0.21015 -213.93778,0.32334 -320.90202,-0.50119 z M 627.38313,736.01797 c -73.33349,-9.91694 -134.7014,-77.97107 -132.2022,-152.72491 -3.09132,-71.32312 52.28936,-138.2707 121.63392,-152.50236 78.39698,-17.57024 163.307,36.18141 183.15508,113.63486 11.75523,47.87292 1.1411,101.33515 -31.6234,138.8939 -33.7411,40.98945 -88.94134,59.6826 -140.9634,52.69851 z m 45.52837,-28.55668 c 63.45908,-9.12148 112.07116,-72.31269 105.38992,-135.97848 -2.24543,-64.09395 -61.44389,-118.20766 -125.05781,-117.81206 -71.10555,-3.22859 -136.00637,63.15231 -129.97007,134.38346 1.24619,62.00632 53.83421,116.50756 115.42422,121.12776 11.41534,1.74659 22.92295,0.0809 34.21374,-1.72068 z"
         id="path1178" /><path
         style="fill:#fcc9e9"
         d="m 477.68558,947.57634 c -18.35033,-0.94141 -37.28772,1.07542 -55.27864,-1.67707 -25.62051,-7.07789 -41.27185,-33.62558 -37.7706,-59.55636 4.26136,-65.10265 53.72207,-116.46308 106.10392,-149.72607 22.72073,-10.47914 50.54472,-38.49702 72.25741,-11.74385 -7.22512,13.4154 -41.83279,19.25797 -57.74965,33.14713 -42.79305,26.9912 -84.57335,66.2349 -93.3971,118.25301 -7.59274,25.22525 9.03936,52.64356 37.47655,45.63714 138.01503,0.8532 276.05448,0.62342 414.06666,-0.5227 32.35025,0.37338 30.34758,-40.98196 22.207,-62.87501 -22.41937,-61.82866 -80.36781,-102.46977 -138.94258,-126.76314 -23.16172,-6.04968 18.57267,-29.7488 28.56305,-13.4388 59.68039,29.29648 117.18615,75.9766 136.7531,141.97773 5.98372,26.35461 8.98754,62.11946 -17.572,78.56074 -22.69597,14.50251 -51.10711,6.57932 -76.44178,8.93362 -113.42444,0.24981 -226.85206,0.45635 -340.27534,-0.20637 z m 149.5259,-212.58315 c -75.98277,-10.2546 -138.18825,-84.17094 -130.94195,-161.34438 1.76281,-81.84366 81.01901,-152.64134 162.75972,-144.18427 60.30136,4.41608 116.10039,47.11034 136.31131,104.13954 19.73918,56.45969 3.3044,124.45278 -42.53121,163.6925 -33.05191,31.60634 -80.94301,43.34115 -125.59787,37.69661 z m 34.65975,-24.95631 c 65.90813,-3.83491 122.25631,-65.76077 117.57482,-132.05314 1.69425,-70.00249 -65.24099,-130.04842 -134.26047,-125.11835 -68.66527,1.10233 -128.91066,66.46383 -122.74947,135.25267 0.75952,61.86513 52.97024,116.46967 114.21516,121.88281 8.40321,1.16005 16.81645,1.07067 25.21996,0.036 z"
         id="path1176" /><path
         style="fill:#fab5f4"
         d="m 477.68558,947.57634 c -18.35033,-0.94141 -37.28772,1.07542 -55.27864,-1.67707 -25.62051,-7.07789 -41.27185,-33.62558 -37.7706,-59.55636 4.26136,-65.10265 53.72207,-116.46308 106.10392,-149.72607 22.72073,-10.47914 50.54472,-38.49702 72.25741,-11.74385 -7.22512,13.4154 -41.83279,19.25797 -57.74965,33.14713 -42.79305,26.9912 -84.57335,66.2349 -93.3971,118.25301 -7.59274,25.22525 9.03936,52.64356 37.47655,45.63714 138.01503,0.8532 276.05448,0.62342 414.06666,-0.5227 32.38561,0.72743 30.55759,-41.95635 21.97334,-63.52585 -23.18611,-64.38405 -84.98335,-105.51081 -146.32462,-129.22363 3.67971,-18.92295 33.46256,-18.64839 47.75674,-4.18887 55.71685,29.90396 108.71698,75.95145 126.00831,138.93283 5.03282,25.63049 7.32155,59.78217 -18.40525,75.46704 -22.69597,14.50251 -51.10711,6.57932 -76.44178,8.93362 -113.4244,0.24981 -226.85218,0.45635 -340.27529,-0.20637 z m 149.5259,-212.58315 c -75.98277,-10.2546 -138.18825,-84.17094 -130.94195,-161.34438 1.67816,-76.81552 72.15476,-145.42643 149.19212,-143.69738 14.23919,1.49466 25.97252,17.36242 32.23075,23.68063 -67.34354,-13.97367 -139.46623,33.72934 -153.07174,100.97303 -12.01288,56.8897 17.15019,120.6483 71.50604,143.99736 59.74594,29.6249 138.9842,3.0145 168.98481,-56.501 11.38051,-20.99981 16.18919,-45.08897 15.57402,-68.85814 3.93324,12.16483 23.21584,10.07822 20.8214,22.83203 -1.1122,77.63309 -74.74266,142.86719 -151.37432,140.09295 -7.65063,0.0505 -15.33795,-0.0492 -22.92113,-1.1751 z"
         id="path1174" /><path
         style="fill:#f7a8f6"
         d="m 423.75719,945.92938 c -28.78838,-6.12039 -43.29455,-37.11859 -38.68551,-64.40557 6.32116,-64.76226 57.47267,-114.96579 110.57921,-146.88146 21.02907,-11.53534 50.35179,-34.49736 68.01434,-6.76259 -58.23755,24.00033 -116.86647,60.69867 -143.70186,120.28867 -8.17233,21.14895 -17.05938,50.49058 1.02822,68.83543 23.96032,10.40899 52.65555,2.80947 78.42876,5.66387 123.58706,0.73718 247.17683,0.38139 370.76523,0.34483 26.23308,-8.88577 23.90342,-41.72841 17.29469,-63.18554 -0.50249,-12.11779 -24.72585,-44.53994 -17.7684,-41.95735 8.71821,16.09936 29.1241,21.09861 38.41114,36.36722 7.91693,24.47845 13.02133,56.5548 -6.03426,77.19924 -20.45823,22.25853 -52.91208,13.23587 -79.51589,15.43425 -131.85812,-0.0497 -263.74623,1.3811 -395.58596,-0.51436 l -3.22974,-0.42664 z M 897.68558,842.35757 c 0.25678,-6.72379 9.17287,10.08426 0,0 z m -103.5,-89.49723 c -13.73915,-11.65127 -50.53259,-17.71479 -53.48993,-28.65641 14.01486,-19.34017 41.60478,-1.97391 48.98993,8.30863 8.29677,-1.66261 13.33178,5.6624 6.65424,12.76418 2.13823,9.23947 18.31387,17.19136 -2.15424,7.5836 z m -163,-18.03629 c -73.98314,-8.25128 -137.56542,-76.87883 -133.99651,-152.31149 -2.79883,-55.80241 33.16547,-109.74273 82.53269,-133.5964 19.45975,-8.90328 0.4299,13.14369 -1.62535,10.48862 17.04835,14.45623 -24.35087,24.54832 -29.17268,41.63687 -50.0893,58.81186 -29.68975,160.39694 39.69416,194.87107 57.33512,32.70318 136.57795,12.46506 171.74619,-43.19559 7.09188,-8.53985 14.49015,-37.00775 20.09766,-13.20457 14.2678,15.3255 -12.61213,39.28189 -24.20095,53.58263 -32.59375,32.48389 -79.79703,46.46652 -125.07521,41.72886 z"
         id="path1172" /><path
         style="fill:#f399fa"
         d="m 423.75719,945.98454 c -33.3718,-7.20319 -45.26286,-45.54909 -37.30469,-75.39558 12.86664,-66.6209 68.8545,-115.28083 126.73501,-144.91054 13.60921,-14.48731 45.80216,-12.46231 48.21313,2.89509 -61.99205,25.08428 -123.98972,67.27475 -146.48702,133.1378 -6.95908,20.94011 -9.0447,59.801 21.56659,60.06743 142.82621,1.95482 285.69461,2.35408 428.53129,1.55128 26.11998,1.73175 21.18803,-33.33035 44.94073,-31.24478 13.31018,24.89417 -18.49396,57.44161 -45.86674,53.61468 -143.48913,1.37438 -287.00826,1.8321 -430.50208,1.07349 -3.27835,-0.16827 -6.59365,-0.1151 -9.82622,-0.78887 z M 630.18558,733.94389 c -74.09732,-8.57314 -136.21251,-77.94015 -132.74415,-153.15678 -1.38604,-27.38458 9.37602,-53.39695 23.04937,-75.45096 3.14359,4.33099 -8.86412,19.30788 6.58073,23.92684 0.65353,15.97575 -10.56074,35.18068 -6.80497,53.27928 -0.52001,59.91393 44.31689,116.77663 103.88446,127.41595 30.73732,5.92116 63.35088,1.81233 91.01931,-12.90983 9.73135,-6.55456 24.60398,-14.28963 13.39853,-1.75389 23.86748,12.03571 -11.83294,24.71811 -23.41405,29.15399 -23.61139,9.03687 -49.84677,13.14366 -74.96923,9.4954 z m 111.25,-6.12066 c -5.04328,-6.94786 12.20083,0.62807 0,0 z"
         id="path1170" /><path
         style="fill:#e897fa"
         d="m 423.75719,945.99517 c -33.36701,-7.22277 -45.26512,-45.55253 -37.30469,-75.40621 12.7893,-66.0851 68.01147,-114.68653 125.49393,-144.16822 13.53146,-5.53472 30.02122,-20.99449 42.17022,-5.30486 18.93183,13.70238 -25.81472,16.6145 -32.97664,26.69991 -48.72471,26.32799 -95.69101,67.90166 -108.58437,123.88982 -6.7656,21.28187 0.70715,54.88644 29.17859,50.55117 122.71579,2.03305 245.52239,-0.0263 368.18147,4.31751 19.63579,3.98178 33.67165,15.32732 55.18414,13.70228 5.13161,9.5501 -14.68537,3.26546 -20.75861,5.34792 -137.29111,1.32851 -274.60931,2.08106 -411.90254,1.1683 l -5.85357,-0.34445 z M 639.18558,734.75172 c -62.72629,-4.05434 -120.94206,-50.2996 -136.25371,-111.69463 -6.40753,-25.73894 -10.16292,-59.34461 3.80012,-81.77422 4.50054,24.52854 -0.34611,52.26558 16.58408,72.86606 10.80992,44.30426 45.10789,81.46858 89.02077,94.26011 21.9555,12.2672 53.72333,-4.38062 70.60415,16.34784 -0.25254,14.01072 -33.45618,7.9361 -43.75541,9.99484 z"
         id="path1168" /><path
         style="fill:#c9a7fb"
         d="m 423.75719,946.00153 c -28.75676,-6.25233 -43.30711,-37.14624 -38.68609,-64.479 6.51025,-64.01665 56.10833,-115.05003 110.12921,-145.08174 12.94881,-11.12785 54.35753,-25.87619 45.33296,-0.072 -55.11376,28.16544 -110.99317,69.95435 -127.48332,132.73315 -9.5776,25.10911 3.08681,60.7763 34.96241,52.93013 79.7137,0.83518 159.45756,1.51149 239.10344,4.94168 14.43717,9.47763 41.85977,9.87305 50.65606,17.50128 -90.33687,3.79867 -180.88529,1.93637 -271.30838,2.785 -14.21522,-0.34422 -28.58858,0.624 -42.70629,-1.25854 z"
         id="path1166" /><path
         style="fill:#d797fa"
         d="m 551.86877,946.33129 c -22.79349,1.45595 -46.97504,-3.55308 -68.41542,-1.64439 -26.1429,-0.31473 -56.02444,7.36624 -78.53343,-9.82737 -25.02152,-19.0246 -19.94384,-54.92248 -12.55153,-81.29343 11.13269,-34.57204 36.81162,-61.52602 61.31998,-87.19361 22.207,-20.7445 49.36099,-37.18351 78.37217,-46.16244 31.26993,15.21333 -18.47239,27.2218 -31.01743,39.03475 -46.27515,26.99564 -86.01127,71.2725 -93.48923,125.84915 -4.62864,25.13403 17.77762,47.04872 43.23522,39.84484 76.46557,-1.0684 152.94153,-1.93328 229.35913,1.52347 15.31769,-1.82706 26.28815,12.65461 41.35274,12.24392 16.98312,-1.35087 23.57187,9.48105 2.71622,6.66548 -57.44179,1.1482 -114.89728,2.08796 -172.34842,0.95963 z"
         id="path1164" /><path
         style="fill:#c99cfb"
         d="m 429.53468,945.36034 c -28.95687,-3.03585 -47.87933,-32.77144 -42.66785,-60.49031 0.53249,-38.25366 23.36016,-70.87155 47.789,-98.35747 8.84123,-15.48092 33.63212,-33.07106 44.92006,-17.85676 6.93623,3.37991 -24.86068,22.10951 -30.19163,31.81105 -23.60499,24.53288 -39.5479,57.72996 -42.37003,91.41569 -0.20573,37.90287 40.24532,34.13676 66.87446,33.06158 27.86698,0.85539 56.72071,-1.93732 83.79689,4.67032 8.55814,8.12343 29.43312,8.96847 35.25993,15.32735 -32.21675,2.0792 -64.97194,2.07229 -97.03725,-1.06369 -21.09087,0.0556 -44.22528,3.67009 -66.37358,1.48224 z"
         id="path1162" /><path
         style="fill:#bca3fb"
         d="m 429.53468,945.36034 c -28.95687,-3.03585 -47.87933,-32.77144 -42.66785,-60.49031 1.41809,-33.32186 17.34467,-66.24145 41.51401,-88.80969 19.61838,14.45596 -2.4275,31.10302 -9.97656,51.22185 -7.86366,20.60274 -17.42514,44.35552 -4.96143,65.20286 12.65735,15.66343 36.20994,14.71861 50.28497,27.64037 9.50759,-1.95096 33.56989,3.75978 9.68019,5.11851 -14.60801,0.48199 -29.27523,1.09913 -43.87333,0.11641 z"
         id="path1160" /></g></g></svg>
